<svg id="Layer_1" data-name="Layer 1" xmlns="http://www.w3.org/2000/svg" viewBox="0 0 22.27 18.81"><defs><style>.cls-1{fill:none;stroke:#86754d;stroke-miterlimit:10;stroke-width:1.5px;}</style></defs><title>home-icon-waves</title><g id="PBZXwh"><path class="cls-1" d="M9.68,3.07l1.67-2a6,6,0,0,1,2.21,3.57,7.1,7.1,0,0,1-1.2,5.14,11.25,11.25,0,0,0-.66,1.16,3.63,3.63,0,0,0,.75,4.66l-1.53,2A5.36,5.36,0,0,1,8.7,14.17,7.86,7.86,0,0,1,10,8.67a9.37,9.37,0,0,0,1-2.11,3.08,3.08,0,0,0-.81-3.09,2.42,2.42,0,0,0-.21-.21C9.87,3.19,9.79,3.14,9.68,3.07Z"/><path class="cls-1" d="M4.62,15.6l-1.53,2a5.47,5.47,0,0,1-2-2.67A6.63,6.63,0,0,1,1.43,10c.23-.54.57-1,.83-1.55a12.32,12.32,0,0,0,.82-1.78,3.18,3.18,0,0,0-.9-3.38L1.87,3l1.64-2a5.89,5.89,0,0,1,2.3,5A7.76,7.76,0,0,1,4.6,9.65a12,12,0,0,0-.84,1.54A3.49,3.49,0,0,0,4.62,15.6Z"/><path class="cls-1" d="M20.32,15.58l-1.58,2.08a15.06,15.06,0,0,1-1.14-1.18,5.69,5.69,0,0,1-.79-5.6,20.5,20.5,0,0,1,1.06-2.27,15.69,15.69,0,0,0,.9-2,3.11,3.11,0,0,0-.84-3.24c-.11-.12-.25-.22-.41-.36l1.65-2a6,6,0,0,1,1.92,2.55,6.23,6.23,0,0,1-.38,5.19c-.22.46-.52.89-.78,1.34a5.06,5.06,0,0,0-.86,3.54A3.2,3.2,0,0,0,20.32,15.58Z"/></g></svg>