<svg id="Layer_1" data-name="Layer 1" xmlns="http://www.w3.org/2000/svg" viewBox="0 0 14.49 19.53"><defs><style>.cls-1{fill:none;stroke:#86754d;stroke-miterlimit:10;stroke-width:1.5px;}</style></defs><title>home-icon-raindrop</title><path class="cls-1" d="M13.64,13.53a6.32,6.32,0,0,1-4.32,4.82,6.24,6.24,0,0,1-5.4-.42,3.84,3.84,0,0,1-.45-.32,8.51,8.51,0,0,1-2-2.38,7.1,7.1,0,0,1-.57-4.59A15.24,15.24,0,0,1,4.43,3.5,24,24,0,0,1,6.93.89c.21-.19.33-.17.53,0,.69.61,1.31,1.28,2,1.93.28.27.2.18.28.27a16.39,16.39,0,0,1,3.68,6.43,10.79,10.79,0,0,1,.36,3.37A5.1,5.1,0,0,1,13.64,13.53Z"/></svg>