<svg id="Layer_1" data-name="Layer 1" xmlns="http://www.w3.org/2000/svg" viewBox="0 0 60 53.75"><defs><style>.cls-1{fill:#86754d;}</style></defs><title>story-button-3</title><path class="cls-1" d="M20.09,31.61a.18.18,0,0,1-.12-.12.13.13,0,0,1,0-.12v-.06a.12.12,0,0,0,0,.1,1.29,1.29,0,0,0,0,.3c0,.08,0,.1,0,.12a.46.46,0,0,0,.08-.12.21.21,0,0,1,.1-.08l0,0Z"/><path class="cls-1" d="M15.51,24.21a.08.08,0,0,0,0,.06s0,0,.1.06Z"/><path class="cls-1" d="M19.83,28.87h-.06s0,0,0,.06a.19.19,0,0,1,0,.18c-.06.12-.16.08-.22.06a.07.07,0,0,1,0,0h0a.07.07,0,0,0,0,0v0s0,0,0,.06a.08.08,0,0,0,.06,0,1.07,1.07,0,0,1,.4-.1C19.95,29,19.93,28.89,19.83,28.87Z"/><path class="cls-1" d="M18.89,27.21s0,.06,0,.12l0,0h0l.34-.06,0,0a.61.61,0,0,0-.22,0A.56.56,0,0,1,18.89,27.21Z"/><path class="cls-1" d="M19.57,31.13a.07.07,0,0,1,0,.06s0,.06,0,.1a.09.09,0,0,0,.06,0s0-.08,0-.12A0,0,0,0,1,19.57,31.13Z"/><path class="cls-1" d="M20.31,31.77c0,.1.08.16.24.22s.14,0,.2,0a.55.55,0,0,1-.26-.14Z"/><path class="cls-1" d="M21.07,32.37a.07.07,0,0,0-.06,0c-.06,0-.06.14-.08.2s0,.08,0,.12-.06.26,0,.32h0a.1.1,0,0,1,0-.06c0-.08,0-.18.14-.2a0,0,0,0,1,0,0A.35.35,0,0,1,21.07,32.37Z"/><path class="cls-1" d="M20.69,31.39a0,0,0,0,0,0,0s.06.08.18.08h0v-.06a.32.32,0,0,0-.16-.06A0,0,0,0,0,20.69,31.39Z"/><path class="cls-1" d="M20.49,27.93a.1.1,0,0,0,0-.08s-.06-.08-.1-.12a.41.41,0,0,1-.12-.14.31.31,0,0,1-.16.12s-.06,0-.08,0l-.08.08v0a1,1,0,0,1,.22,0C20.35,27.95,20.43,28,20.49,27.93Z"/><path class="cls-1" d="M21.13,30.81a.26.26,0,0,1,0,.12s0,0,0,.06v0l0,0C21.17,30.85,21.17,30.81,21.13,30.81Z"/><path class="cls-1" d="M18.19,27.27h0a.07.07,0,0,0,.06,0s0-.08,0-.12a.36.36,0,0,1,0-.2l-.14-.06c-.08,0-.08-.14-.08-.2s0-.06,0-.06-.16.2-.18.28a.28.28,0,0,0,0,.1l.08,0c.08,0,.12,0,.16,0a.18.18,0,0,1,.08.16.32.32,0,0,1,0,.1Z"/><path class="cls-1" d="M16.81,25.81a.54.54,0,0,0-.36.16l-.12.1s0,.06,0,.1a.69.69,0,0,0,.06.12s0,0,.1-.06a.18.18,0,0,1-.08-.16.36.36,0,0,1,.12-.16.22.22,0,0,1,.16,0c.06,0,.06.1.08.14h.08a.15.15,0,0,1,0-.08A.22.22,0,0,1,16.81,25.81Z"/><path class="cls-1" d="M17.45,26.41l0,0s0,0,0,0v0s0-.06,0-.08S17.51,26.35,17.45,26.41Z"/><path class="cls-1" d="M16,24.87l0,0L16,25s-.06.06-.06.08v0A.07.07,0,0,1,16,25,.15.15,0,0,1,16,25a1,1,0,0,0,.24,0h0c0-.08-.06-.18-.1-.18S16.13,24.83,16,24.87Z"/><path class="cls-1" d="M29.61,22.67s.06,0,.1-.06.16-.18.1-.28-.08,0-.12.1a.35.35,0,0,0-.1.08s0,0-.06,0-.06,0-.06,0l0,0A.17.17,0,0,0,29.61,22.67Z"/><path class="cls-1" d="M15.77,27.25c0-.06-.06-.12-.12-.18l0,0a.55.55,0,0,0,.08.32A.14.14,0,0,0,15.77,27.25Z"/><path class="cls-1" d="M15.83,27.77h0a.18.18,0,0,0-.1.06s0,.1-.06.14a.45.45,0,0,1,.22-.1,0,0,0,0,0,0,0s0,0,0,0S15.85,27.79,15.83,27.77Z"/><path class="cls-1" d="M18.73,28.47a.11.11,0,0,1-.12,0c-.06,0-.12,0-.14.08a.21.21,0,0,0,0,.16c0,.06.08.1.24,0s.06,0,.1-.06l-.08-.16Z"/><path class="cls-1" d="M18.35,27.75a.16.16,0,0,0-.12.1v0h.2v0A.13.13,0,0,0,18.35,27.75Z"/><path class="cls-1" d="M21.29,32.17a.09.09,0,0,0,0-.1.21.21,0,0,0-.1.18A.14.14,0,0,0,21.29,32.17Z"/><path class="cls-1" d="M17.47,25.27a1,1,0,0,0-.36-.06,1.22,1.22,0,0,1-.58-.16.08.08,0,0,0-.06,0c0,.14.08.2.24.16a.77.77,0,0,1,.2,0,.66.66,0,0,1,.5.2.21.21,0,0,0,.12,0,0,0,0,0,0,0,0s0,0,0-.08Z"/><path class="cls-1" d="M17.57,25c.06-.06.08-.1.08-.12l-.08,0Z"/><path class="cls-1" d="M19.61,29.87c0,.08,0,.12.1.18h0s0-.06-.06-.1A.27.27,0,0,1,19.61,29.87Z"/><path class="cls-1" d="M28.83,32.83a.12.12,0,0,0,0,.08s0,0,.06-.08a.15.15,0,0,1,0-.1v0C28.87,32.69,28.85,32.71,28.83,32.83Z"/><path class="cls-1" d="M29.15,31.71c0,.06,0,.1,0,.12a.07.07,0,0,0,.06,0h.06a.07.07,0,0,0,0-.06.21.21,0,0,0-.1-.16S29.17,31.65,29.15,31.71Z"/><path class="cls-1" d="M28.09,32.29H28a.22.22,0,0,1,.12.2.14.14,0,0,0,.08-.12S28.23,32.31,28.09,32.29Z"/><path class="cls-1" d="M29.61,33.07l-.22-.18A.34.34,0,0,0,29.61,33.07Z"/><path class="cls-1" d="M27.53,32.13h0l.32.12-.08-.06C27.69,32.11,27.61,32.07,27.53,32.13Z"/><path class="cls-1" d="M28.57,32.17l0,0,.06,0,0,0a0,0,0,0,0,0,0Z"/><path class="cls-1" d="M29.67,25.67a.37.37,0,0,0,.2-.1.28.28,0,0,0,0-.18v0a.15.15,0,0,1,0-.08l-.24.36S29.63,25.67,29.67,25.67Z"/><path class="cls-1" d="M30,24.59s0-.06,0-.12-.08-.06-.18,0h0a.08.08,0,0,0-.12,0h.1l.12.06s.06,0,.08,0Z"/><path class="cls-1" d="M30.21,25.81l.1.06s0-.06-.08-.06Z"/><path class="cls-1" d="M29.87,22.21c.08,0,.14.06.18,0s.14-.12.2-.22v0a.47.47,0,0,1-.4.12h0a.07.07,0,0,1,0,0Z"/><path class="cls-1" d="M30,32.09a.47.47,0,0,1-.22-.12s0,0-.06,0h0l-.08.06V32s.08,0,.12,0l.06,0c.14,0,.36.06.36.34v.1h0s0,0,0-.06a.34.34,0,0,1,0-.14C30.19,32.21,30.09,32.17,30,32.09Z"/><path class="cls-1" d="M21.07,28.19a.17.17,0,0,0,0,.14v.06s.06,0,.12,0a.16.16,0,0,1,.08-.08l.06-.08a.07.07,0,0,0-.06,0C21.15,28.17,21.09,28.17,21.07,28.19Z"/><path class="cls-1" d="M21.47,24.33v0a0,0,0,0,0,0,0c-.06.08-.14.16-.14.24a.15.15,0,0,0,0,.1.21.21,0,0,0,.16,0,.2.2,0,0,0,.12-.1A.26.26,0,0,1,21.47,24.33Z"/><path class="cls-1" d="M21.51,31.57a.15.15,0,0,1-.08,0h0v.06c0,.1,0,.12.06.14s.08,0,.1-.06S21.57,31.61,21.51,31.57Z"/><path class="cls-1" d="M21.53,26.15a.14.14,0,0,0-.14.08h0c.08,0,.1,0,.12,0A.06.06,0,0,0,21.53,26.15Z"/><path class="cls-1" d="M21.45,30.89l.06,0-.1-.06S21.45,30.87,21.45,30.89Z"/><path class="cls-1" d="M27.35,32.49a.07.07,0,0,0,0,0l.06,0a.07.07,0,0,0-.08-.08Z"/><path class="cls-1" d="M21.57,22.43v0l0,.06.06,0a.22.22,0,0,1,.16,0s-.1,0-.18,0Z"/><path class="cls-1" d="M21.87,29.21h0a1.13,1.13,0,0,0,0,.52.56.56,0,0,1,0,.18h0a0,0,0,0,1,0,0v-.26a.38.38,0,0,0,0-.26A.37.37,0,0,1,21.87,29.21Z"/><path class="cls-1" d="M27.15,31.89l.06,0,.06-.06a.12.12,0,0,0-.08,0S27.13,31.85,27.15,31.89Z"/><path class="cls-1" d="M27,32.45a.53.53,0,0,1,.14-.08l.06,0,0-.08A.34.34,0,0,0,27,32.45Z"/><path class="cls-1" d="M27,32.91a.07.07,0,0,1,0,0s.06,0,.06,0v0a.07.07,0,0,0,0,0Z"/><path class="cls-1" d="M19.11,28.73s0,0-.06,0h0a.36.36,0,0,1,0,.14,0,0,0,0,0,0,0,.11.11,0,0,0,0-.08S19.11,28.73,19.11,28.73Z"/><path class="cls-1" d="M20.21,27.29h0a0,0,0,0,0,0,0l.08.06S20.23,27.33,20.21,27.29Z"/><path class="cls-1" d="M20.65,31h0l.1,0a.07.07,0,0,0,.06,0s0,0-.08,0Z"/><path class="cls-1" d="M20.67,23.09s0,0,0,0-.08,0-.12.12a.07.07,0,0,1,.06,0C20.67,23.13,20.67,23.13,20.67,23.09Z"/><path class="cls-1" d="M20.65,26.91a.07.07,0,0,0-.06,0c0,.06,0,.08,0,.1a.12.12,0,0,0,.08,0S20.67,26.93,20.65,26.91Z"/><path class="cls-1" d="M20.71,21.45l0-.1c-.06,0-.08.06-.14.1A.42.42,0,0,0,20.71,21.45Z"/><path class="cls-1" d="M20,28.47s0,0,0-.06,0-.12,0-.14a.15.15,0,0,0-.1,0h0a.32.32,0,0,1,.06.16C20,28.45,20,28.47,20,28.47Z"/><path class="cls-1" d="M19.55,27.59c0-.06.06-.12,0-.14a.21.21,0,0,0-.12-.06.18.18,0,0,0,0,.14s0,0,0,0S19.53,27.59,19.55,27.59Z"/><path class="cls-1" d="M16.57,22s0,0,0-.06l-.06.18v0C16.53,22.13,16.59,22.09,16.57,22Z"/><path class="cls-1" d="M16.95,23.85v0a0,0,0,0,0,0,0l-.06.06a.07.07,0,0,0,.06,0S16.93,23.87,16.95,23.85Z"/><path class="cls-1" d="M17.29,24.81a.16.16,0,0,1,.08-.08.22.22,0,0,1,0-.22s0,0,0-.06,0,0,0,0a0,0,0,0,0,0,0,.43.43,0,0,0-.2.22s0,.08.06.14S17.29,24.79,17.29,24.81Z"/><path class="cls-1" d="M19.51,28.49h0l.1-.08s0,0,0,0h-.08a.07.07,0,0,0-.06,0s0,.06,0,.08Z"/><path class="cls-1" d="M21.57,23.11s0,0,0-.08v0s0,0,0,0h0v.1s0,0,0,0Z"/><path class="cls-1" d="M21,29.21s-.06,0-.08,0h-.06s-.08,0-.1,0-.12,0-.12.06,0,0,.06,0l0,0c.08,0,.24,0,.26-.06Z"/><path class="cls-1" d="M21.15,27.81s0,.06.12,0v0c-.06-.06-.08-.06-.12-.06Z"/><path class="cls-1" d="M21.19,21.95s0,0,0,0a.32.32,0,0,0,.12-.06.16.16,0,0,0,0-.16l-.12.1C21.21,21.89,21.19,21.93,21.19,21.95Z"/><path class="cls-1" d="M21.33,23.81l.06,0,.06,0v0a.35.35,0,0,1,0-.14v0A1.13,1.13,0,0,0,21.33,23.81Z"/><path class="cls-1" d="M16.15,22.47s0,0,0,.06,0,0,0,0,0-.1,0-.14l-.06,0a1,1,0,0,0-.24,0l.18.16Z"/><path class="cls-1" d="M15.39,25.43a.21.21,0,0,0,0,.18l.1.06a.84.84,0,0,1-.12-.28Z"/><path class="cls-1" d="M20.89,25.79a0,0,0,0,0,0,0v0a.86.86,0,0,1,0-.1.29.29,0,0,1,0-.12v0h0a.14.14,0,0,0-.12.08.08.08,0,0,0,0,.06C20.79,25.71,20.83,25.79,20.89,25.79Z"/><path class="cls-1" d="M20.87,27.31a.24.24,0,0,1,.26,0,0,0,0,0,0,0,0s0,0,0,0-.08-.14-.16-.14a.29.29,0,0,0-.12,0h0s0,0,0,.06a.48.48,0,0,0,0,.14S20.77,27.35,20.87,27.31Z"/><path class="cls-1" d="M21,22.95S21,23,21,23v0s0,0,0-.06Z"/><path class="cls-1" d="M20.95,21.65l0,0,0,0h-.08s-.06,0-.08,0h0a.43.43,0,0,0,0,.22C20.83,21.73,20.91,21.69,20.95,21.65Z"/><path class="cls-1" d="M21.11,21.07c0-.06.08-.06.14-.08s0-.1-.06-.1A.17.17,0,0,0,21,21a2.07,2.07,0,0,0-.18.22s0,0,0,0a.17.17,0,0,0,.14,0A.21.21,0,0,0,21.11,21.07Z"/><path class="cls-1" d="M14.93,31.31a.57.57,0,0,1,0,.18c0,.08-.06.12,0,.16a.31.31,0,0,0,.1-.26v-.06s0,0,0,0l0,0Z"/><path class="cls-1" d="M15.95,23.49l-.12.2-.08-.22-.06.08a0,0,0,0,1,0,0,.57.57,0,0,0,.26.36s0,0,0-.12a.45.45,0,0,1,0-.16A.23.23,0,0,0,15.95,23.49Z"/><path class="cls-1" d="M14.51,26.75c0-.06,0-.1,0-.12A.25.25,0,0,0,14.51,26.75Z"/><path class="cls-1" d="M14.89,29.51h0l0,0s0,0,.06.08a.15.15,0,0,1,0,.08s0,.06,0,.06l0,0a.17.17,0,0,0,0-.14A.43.43,0,0,0,14.89,29.51Z"/><path class="cls-1" d="M14.63,28.07v.12a.24.24,0,0,1,0,.12h.12a.15.15,0,0,0,.08,0v0A.45.45,0,0,0,14.63,28.07Z"/><path class="cls-1" d="M14.93,32.09s0,0,0,0,0,0,0,0v0l-.06.06Z"/><path class="cls-1" d="M15.31,31.83v0s0,0,0-.06v0S15.31,31.79,15.31,31.83Z"/><path class="cls-1" d="M15.43,30.57s0,0,0,0l-.08.06v0s0,.08,0,.1h0c.06,0,.1,0,.1-.06a.15.15,0,0,0,0-.16A.06.06,0,0,0,15.43,30.57Z"/><path class="cls-1" d="M15,30.13a0,0,0,0,1,0,0v0l.06,0,0,0h0a.12.12,0,0,0,.08,0v-.08h0A.12.12,0,0,1,15,30.13Z"/><path class="cls-1" d="M15,32.93a0,0,0,0,1,0,0h0c0,.06.06.08.08.1s.06,0,.08,0,0,0-.06-.06A.07.07,0,0,1,15,32.93Z"/><path class="cls-1" d="M15,24.27a.07.07,0,0,0,0-.06l-.08-.12s0,0,0,0a.34.34,0,0,1-.2-.24.21.21,0,0,0,0,.16C14.63,24,14.91,24.27,15,24.27Z"/><path class="cls-1" d="M14.89,22.49v-.1l0,0a.25.25,0,0,1,0-.12v-.06l-.08,0h0s-.1,0-.1,0,.1.24.16.26Z"/><path class="cls-1" d="M15.35,28l0,0s0,0-.08.06l.08,0S15.35,28,15.35,28Z"/><path class="cls-1" d="M15.17,28.95a.1.1,0,0,0,0,.08.35.35,0,0,0,.14,0l.08,0-.1-.06h-.16Z"/><path class="cls-1" d="M15.15,24.73h0s0,.06,0,.1a.44.44,0,0,1,0,.28.16.16,0,0,1,.12.08s0,0,0,.06a1.31,1.31,0,0,1,0-.48A.33.33,0,0,1,15.15,24.73Z"/><path class="cls-1" d="M15.61,23.11a.21.21,0,0,1,.2.08.28.28,0,0,1,0,.24l.16,0a.07.07,0,0,1,0,0,.37.37,0,0,1-.06-.16l0-.06,0-.18a1.06,1.06,0,0,0-.16.08S15.63,23.11,15.61,23.11Z"/><path class="cls-1" d="M15.35,23.81c0-.08.06-.18,0-.2s0,0,0,0a.23.23,0,0,1-.12.12c-.06,0-.1.06-.16.08s0,0,0,0A.26.26,0,0,1,15,24c.06,0,.1,0,.18-.08A.51.51,0,0,1,15.35,23.81Z"/><path class="cls-1" d="M15,21.43a.29.29,0,0,0,.14,0,.92.92,0,0,1,.28.14l0,0s.06,0,.1,0a.26.26,0,0,1,.08.06l.06,0,0-.06a.15.15,0,0,0,0-.1s0,0-.06,0a.66.66,0,0,1-.62-.24l0,0S14.95,21.43,15,21.43Z"/><path class="cls-1" d="M15,21.29h0l-.06,0,.06,0Z"/><path class="cls-1" d="M15.57,20.81a.34.34,0,0,1-.14,0l.12.06S15.57,20.85,15.57,20.81Z"/><path class="cls-1" d="M15.61,22.41a.34.34,0,0,1-.26.08.35.35,0,0,0-.24.12.5.5,0,0,0,.38,0A.54.54,0,0,0,15.61,22.41Z"/><path class="cls-1" d="M42.38,32.07h0a.22.22,0,0,0-.16.14.15.15,0,0,0,0,.08.26.26,0,0,0,.1.06.43.43,0,0,1,.3.58s0,.06,0,.06v0l0,0a.68.68,0,0,0,0-.52C42.56,32.23,42.46,32.09,42.38,32.07Z"/><path class="cls-1" d="M46.74,21.27h0s0,0,0,0,0,0,.06,0,0,0,.06,0a.07.07,0,0,1,0,0s0-.08-.08-.12l0,0s-.1-.12-.12-.12l0,0s0,0,0,.12S46.72,21.25,46.74,21.27Z"/><path class="cls-1" d="M43.08,32.65a0,0,0,0,0,0,0h0s0,0-.06-.08Z"/><path class="cls-1" d="M44.14,32.47s0,.06,0,.08a.06.06,0,0,1,0,0,.12.12,0,0,0,.08,0s.06-.12.06-.16,0-.08,0-.14a.34.34,0,0,0-.12.12S44.16,32.45,44.14,32.47Z"/><path class="cls-1" d="M41.52,32.35s0,.06.06.1l0,0C41.62,32.41,41.6,32.37,41.52,32.35Z"/><path class="cls-1" d="M41,31.17c-.08.08-.16.14-.24.12s-.18-.12-.24-.22,0,0-.06,0h0s0,0,0,0a.37.37,0,0,1,0,.16.18.18,0,0,0,.26.18c.16,0,.26-.12.28-.22S41,31.15,41,31.17Z"/><path class="cls-1" d="M42,32.93a.48.48,0,0,1-.18-.08c0,.08.06.1.16.14l.12.06h0C42.08,33,42,33,42,32.93Z"/><path class="cls-1" d="M46.7,21.55a0,0,0,0,1,0,0,.48.48,0,0,0-.1.24C46.72,21.77,46.72,21.69,46.7,21.55Z"/><path class="cls-1" d="M46.28,24.39a.35.35,0,0,0,.12-.12.53.53,0,0,1,.28-.18.07.07,0,0,0,0,0l-.16.06c-.12,0-.2.06-.24.18s-.1.08-.16.08a.07.07,0,0,0-.06,0h0S46.24,24.43,46.28,24.39Z"/><path class="cls-1" d="M46.2,22.63s0,0,0,0a.16.16,0,0,0-.06-.14s0,0,0,.1Z"/><path class="cls-1" d="M46.48,22l0-.08h0s-.06,0-.06,0a0,0,0,0,0,0,0s0,0,0,.06A.29.29,0,0,0,46.48,22Z"/><path class="cls-1" d="M46.42,23.15s0,0,0,0a.1.1,0,0,1,.08,0c.2-.08.24-.24.26-.46v0a.89.89,0,0,1-.14.12l-.06.06,0,0-.08.06,0,0h0l0,0-.1.06s0,.06,0,.06,0,0,0,.08S46.42,23.15,46.42,23.15Z"/><path class="cls-1" d="M44.78,20.75a.1.1,0,0,0,0,.16c.06.08.1,0,.12,0a.42.42,0,0,0,.06-.1h0A.11.11,0,0,1,44.78,20.75Z"/><path class="cls-1" d="M44.06,21.37a.3.3,0,0,1,0,.12c.06,0,.08,0,.08,0s0,0,0-.14S44.06,21.35,44.06,21.37Z"/><path class="cls-1" d="M43.06,21.37c-.1.06-.12.16-.14.28A.38.38,0,0,0,43.06,21.37Z"/><path class="cls-1" d="M43.3,21.65a.12.12,0,0,0,0,.08l0,0s0-.06,0-.08l0-.08Z"/><path class="cls-1" d="M41.82,21.17a0,0,0,0,0,0,0,.12.12,0,0,0,0-.12s-.06-.06-.08-.08a.35.35,0,0,0-.1.14s.06,0,.1,0l.06,0A.07.07,0,0,1,41.82,21.17Z"/><path class="cls-1" d="M41.82,20.61a.22.22,0,0,0-.16,0h0a.58.58,0,0,1,.16.08l0,0a.06.06,0,0,1,0,0v0S41.84,20.61,41.82,20.61Z"/><path class="cls-1" d="M44.74,26.91s0,0,0,0,0,0-.08.08v0s0,0,.06.06h0s0,0,0-.06S44.76,26.91,44.74,26.91Z"/><path class="cls-1" d="M44,26.27a0,0,0,0,0,0,0,.15.15,0,0,0,0,.08.07.07,0,0,1,0,0,.06.06,0,0,1,0,0l0-.06.06-.06-.08,0A.15.15,0,0,0,44,26.27Z"/><path class="cls-1" d="M43.84,27.07s0,0,.06,0H44s0,0,0,0l-.08,0C43.84,27,43.84,27,43.84,27.07Z"/><path class="cls-1" d="M46.06,25.77a.07.07,0,0,0,0,0c0-.14,0-.2,0-.24s0,0,0,.06,0,0,0,.06,0,0,0,.08a.07.07,0,0,1,0,.06A.06.06,0,0,0,46.06,25.77Z"/><path class="cls-1" d="M44.84,21.39v0s.06,0,.06,0l0-.06a0,0,0,0,1,0,0C44.9,21.33,44.86,21.33,44.84,21.39Z"/><path class="cls-1" d="M45.84,31.39a.34.34,0,0,0,0-.12s0,0-.06,0-.14.08-.2,0l-.06,0h0v0a.14.14,0,0,0,.06.14,1.19,1.19,0,0,0,.4.14A.24.24,0,0,1,45.84,31.39Z"/><path class="cls-1" d="M46.78,29.51s0,0-.08,0,0,.1,0,.1a.07.07,0,0,0,.06,0s0,0,.06,0a.22.22,0,0,0,0-.1Z"/><path class="cls-1" d="M46.74,32.25a.84.84,0,0,0,.08.24,0,0,0,0,0,0,0v0c0-.1,0-.18-.1-.22Z"/><path class="cls-1" d="M46.56,28.91l-.06,0v0s0,.06,0,.08,0,0,.06,0a.06.06,0,0,0,0,0,.2.2,0,0,0,0-.08A0,0,0,0,1,46.56,28.91Z"/><path class="cls-1" d="M46.9,22.23s0-.06-.06-.06l0,0a.12.12,0,0,0,0,.08.49.49,0,0,1,0,.16.15.15,0,0,1,.08-.08l0,0s0,0,0,0Z"/><path class="cls-1" d="M46.6,24.87l-.12-.06c-.08-.06-.14-.1-.2-.08h0a0,0,0,0,1,0,0h0a.28.28,0,0,1,.2.12.29.29,0,0,0,.06.08.07.07,0,0,0,0,0s.06.06.08.06l0,0a.15.15,0,0,0,0-.06S46.66,24.89,46.6,24.87Z"/><path class="cls-1" d="M46.78,4.7H13.22a8.4,8.4,0,0,1-8,8V41a8.4,8.4,0,0,1,8,8H46.78a8.4,8.4,0,0,1,8-8V12.71A8.4,8.4,0,0,1,46.78,4.7ZM23,33.19a.87.87,0,0,1,.1.32.34.34,0,0,1,0,.32.39.39,0,0,1-.28.1H20.11c-.34,0-.48-.24-.58-.48-.18-.4-.36-.82-.52-1.24s-.34-.8-.52-1.2l-1.68-3.84,0-.1L16.73,27s0,.08,0,.14v5.08a1.51,1.51,0,0,0,.2.78,1.78,1.78,0,0,1,.18.34.5.5,0,0,1,0,.42.5.5,0,0,1-.36.14h-3c-.24,0-.34-.1-.38-.18a.35.35,0,0,1,.06-.4,3.7,3.7,0,0,0,.36-2V21.81a3.21,3.21,0,0,0-.34-1.48c-.08-.2-.14-.36-.08-.46s.24-.12.46-.14h.86c.46,0,1,0,1.44,0a.82.82,0,0,1,.88.58c.36.88.74,1.8,1.12,2.68l.42,1,.44,1c.22.48.42,1,.62,1.46a.07.07,0,0,1,0,.06.22.22,0,0,0,0,.08s0,0,0,0a.09.09,0,0,0,0-.1V23.25c0-.44,0-.9,0-1.36a3,3,0,0,0-.3-1.54c-.12-.22-.14-.36-.08-.46s.26-.16.42-.16h2.9c.26,0,.42.06.48.18s0,.24-.1.44a2.6,2.6,0,0,0-.3,1.5V31.93A2,2,0,0,0,23,33.19Zm8.22-.24v.54c0,.38-.26.44-.54.44H25.59c-.5,0-.58-.08-.58-.58s0-1.18,0-1.88c0-.5.12-.6.58-.62,1.62,0,3.3,0,5,0,.48,0,.62.12.62.58S31.23,32.45,31.21,32.95Zm.7-10.84a3.8,3.8,0,0,1,0,.46v3.62a1.5,1.5,0,0,1-.48,1.18l0,0a2.16,2.16,0,0,1-2.22.92h-.88c-.66,0-1.32,0-2,0h0a1,1,0,0,1-.78-.32l0,0a3.55,3.55,0,0,0-.58-.52,1.63,1.63,0,0,1-.6-1.54c0-1.38.06-2.56,0-3.74a1.81,1.81,0,0,1,.64-1.66.16.16,0,0,0,.08-.08,2.15,2.15,0,0,1,1.82-.72c.84.06,1.72,0,2.56,0a5.56,5.56,0,0,1,.56,0,1.29,1.29,0,0,1,.92.32l.26.26C32,21.11,32,21.13,31.91,22.11Zm16.23.2c0,.8,0,1.6,0,2.38v.58a1.64,1.64,0,0,1-.56,1.46.4.4,0,0,0-.14.22.34.34,0,0,0,.16.24,1.64,1.64,0,0,1,.56,1.5c0,.86,0,1.8,0,3a2,2,0,0,1-.66,1.46,2.62,2.62,0,0,1-2.08.84h-.24c-1.2-.06-2.44,0-3.64,0l-.4,0a1.57,1.57,0,0,1-1-.4,2.21,2.21,0,0,1-1-2.26,4.17,4.17,0,0,0,0-1,2.37,2.37,0,0,0,0-.38.54.54,0,0,1,.12-.38.49.49,0,0,1,.36-.12h2.56a.41.41,0,0,1,.34.12.46.46,0,0,1,0,.4l-.14.32a1.21,1.21,0,0,0-.14.28.29.29,0,0,0,0,.26s.1.06.2.06c.52,0,1,0,1.52,0h.78a.34.34,0,0,0,.26-.08.34.34,0,0,0,.08-.26v-.28c0-.52,0-1.06,0-1.58,0-.32-.1-.4-.44-.4H42.46c-.52,0-.58-.08-.58-.58s0-1.16,0-1.76.06-.68.66-.68c.32,0,.66,0,1,0h1c.48,0,.48,0,.48-.48V23.27c0-.46,0-.5-.5-.5-.78,0-1.44,0-2,0-.18,0-.28,0-.3.08s0,.14,0,.32l.12.26.12.3c.06.16.1.28,0,.36s-.2.12-.38.12a4.22,4.22,0,0,1-.72,0H39.52a.46.46,0,0,1-.34-.1.55.55,0,0,1-.1-.36V21.51a.82.82,0,0,1,.3-.74l.06-.06,0,0c.94-.94,1-1,2.3-1H44.3c.58,0,1.2,0,1.8,0a1,1,0,0,1,.86.34l.08.08a1.52,1.52,0,0,0,.26.24A1.9,1.9,0,0,1,48.14,22.31Z"/><path class="cls-1" d="M47.2,29.49h0s0,0,.06.08,0,0,0,0S47.26,29.49,47.2,29.49Z"/><path class="cls-1" d="M46.32,30.77h0a.15.15,0,0,0-.1,0v0s0,0,.06.08a.25.25,0,0,0,.28.06A.7.7,0,0,1,46.32,30.77Z"/><path class="cls-1" d="M47,23.55a0,0,0,0,0,0,0v.1c0,.06,0,.08,0,.1h.06v-.08C47.08,23.57,47.08,23.55,47,23.55Z"/><path class="cls-1" d="M47.26,24.25s0,0,0,0-.06.06,0,.14S47.28,24.31,47.26,24.25Z"/><path class="cls-1" d="M46.34,29.75s.06,0,.12-.1l.06-.1-.44-.18s0,0,0,.06v0l0,.06C46.16,29.61,46.24,29.73,46.34,29.75Z"/><path class="cls-1" d="M46.26,32.35a.28.28,0,0,0-.12,0s-.06,0,0,.18,0,0,0,0a.21.21,0,0,1,.2-.18s0,0,0,0h0A.18.18,0,0,0,46.26,32.35Z"/><path class="cls-1" d="M45.24,26.83a1.24,1.24,0,0,0-.1.24l0,0h.1c.1,0,.12,0,.14,0l-.16-.2Z"/><path class="cls-1" d="M45.58,32.33h0a.12.12,0,0,1-.08,0s.06.06.1.08l.08.06,0-.06c0-.08,0-.08,0-.08S45.62,32.33,45.58,32.33Z"/><path class="cls-1" d="M46.26,27.89l.06,0a.2.2,0,0,0,0-.06l0-.06c0-.06.06-.08,0-.16s0,0-.08,0l0,0a.11.11,0,0,0-.06.08S46.22,27.85,46.26,27.89Z"/><path class="cls-1" d="M46.08,26.79a.19.19,0,0,1,.1.08l.06-.06a.15.15,0,0,0-.14-.08.43.43,0,0,0-.2.08.15.15,0,0,0,0,.14v0a.17.17,0,0,1,.06-.16A.51.51,0,0,1,46.08,26.79Z"/><path class="cls-1" d="M45.08,26.45v0a.18.18,0,0,0-.14.06A.24.24,0,0,0,45.08,26.45Z"/><path class="cls-1" d="M46.48,27.37v.1c.08-.06.1-.14.08-.28h0C46.48,27.21,46.48,27.27,46.48,27.37Z"/><path class="cls-1" d="M46.46,26.13a.16.16,0,0,0,.08-.08v0S46.48,26.07,46.46,26.13Z"/><path class="cls-1" d="M46,21.75v0s0,0,0-.08v0s0,.06-.08.08,0,0,.06,0Z"/><path class="cls-1" d="M41.56,21.71h0s0,0,0,0,0,.08,0,.1a.47.47,0,0,1,.28.14l0,0a.35.35,0,0,0,0-.14.71.71,0,0,0,0-.24A1.18,1.18,0,0,0,41.56,21.71Z"/><path class="cls-1" d="M40.92,22.45c0,.08-.08.12-.06.2s0,.06,0,.08a.82.82,0,0,1,.36-.2s0,0,0,0L41,22.27A.79.79,0,0,1,40.92,22.45Z"/><path class="cls-1" d="M25.17,23.75s0,0,0,.06,0,0,0,.06.06,0,.06,0,0-.06,0-.08Z"/><path class="cls-1" d="M25.71,21.75a0,0,0,0,1,0,0c-.12,0-.18.06-.2.16a.4.4,0,0,0,.24-.16A0,0,0,0,0,25.71,21.75Z"/><path class="cls-1" d="M41.22,21.55s0,0,0,0a.17.17,0,0,0,.14,0h0a.12.12,0,0,0,0-.08A.34.34,0,0,0,41.22,21.55Z"/><path class="cls-1" d="M25.59,22.45a.15.15,0,0,0,0,.08s0,0,.08,0a.35.35,0,0,0,.22,0v-.06l0,0a.22.22,0,0,1-.22,0S25.61,22.47,25.59,22.45Z"/><path class="cls-1" d="M25.59,23.71c-.06,0-.08.1-.06.16a.26.26,0,0,0,0,.12l0,.2c.08-.06.1-.16.06-.32a.21.21,0,0,1,0-.1v-.06Z"/><path class="cls-1" d="M25.55,26.41h0c-.1,0-.1,0-.1,0s0,.06.12.08a.13.13,0,0,1,.1-.08l.06,0s0,0,0-.08h-.18Z"/><path class="cls-1" d="M26.35,25.93l.1-.06,0-.08s-.06-.06-.08-.06,0,0-.06,0a.53.53,0,0,1-.58.2l.12.26a1.74,1.74,0,0,1,.36-.22Z"/><path class="cls-1" d="M26.17,23.79s.06,0,.06-.08,0-.08,0-.12h0s0,0,0,0,0,.14,0,.16Z"/><path class="cls-1" d="M25.53,25.81a2.29,2.29,0,0,0,.1-.26,0,0,0,0,0,0,0s-.08-.1-.12-.1-.1.12-.1.26v.06s0,.06.14.06Z"/><path class="cls-1" d="M26.17,27.07a.36.36,0,0,0,.08.2s0,0,0-.06.12-.1.18-.14.08,0,.1-.06a.73.73,0,0,0-.28.06S26.19,27.07,26.17,27.07Z"/><path class="cls-1" d="M25.75,24.61l-.34-.14a.35.35,0,0,1-.12.16.6.6,0,0,0,.38.08C25.73,24.71,25.73,24.71,25.75,24.61Z"/><path class="cls-1" d="M28.29,21.57s0,.1,0,.12,0,0,.14,0a.15.15,0,0,1,.1,0v0s-.1-.06-.16-.08Z"/><path class="cls-1" d="M28.37,20.67c0-.16-.16-.16-.34-.12l-.1,0a.06.06,0,0,0,0,0C28.11,20.71,28.23,20.79,28.37,20.67Z"/><path class="cls-1" d="M27.91,21.15v0l0,0v.08l0,0A.92.92,0,0,0,27.91,21.15Z"/><path class="cls-1" d="M28.73,21.73a.06.06,0,0,1,0,0c.06,0,.1-.1.16-.14v0h0S28.77,21.67,28.73,21.73Z"/><path class="cls-1" d="M28.47,21.21s.1-.08.14-.16l.12-.14a.22.22,0,0,1,.12,0,.07.07,0,0,1,.06,0v0s0,0-.06,0a.22.22,0,0,1-.2,0c0,.08-.1.14-.16.2l-.12.12Z"/><path class="cls-1" d="M27.35,23.13v1.2c0,.48,0,.72.08.82s.26.08.58.08l.18,0,.34,0c.22,0,.32-.1.32-.3s0-.42,0-.62v-.58c0-.22,0-.44,0-.66a.35.35,0,0,0-.06-.24.24.24,0,0,0-.24-.06h-.84a.3.3,0,0,0-.28.06A.41.41,0,0,0,27.35,23.13Z"/><path class="cls-1" d="M26.31,20.95h.06s.14,0,.14,0v0h0s-.08,0-.12,0h-.06s-.06,0-.06,0v0h.08Z"/><path class="cls-1" d="M27.43,21.57l.08,0a.1.1,0,0,1,0-.08s0-.06,0-.06a.38.38,0,0,0-.1,0h0c-.12,0-.2,0-.22.1a.19.19,0,0,1,.08.1Z"/><path class="cls-1" d="M26.27,21.83l.06.06c.06.08.08.1.12.06l0-.08s0,0,0,0A.09.09,0,0,0,26.27,21.83Z"/><path class="cls-1" d="M27.43,20.55l0,0,0,0a.08.08,0,0,0-.08,0v0C27.41,20.59,27.43,20.57,27.43,20.55Z"/><path class="cls-1" d="M25.61,21.27c.06,0,.08,0,.08,0a0,0,0,0,0,0,0v-.06h-.16a0,0,0,0,0,0,0S25.57,21.25,25.61,21.27Z"/><path class="cls-1" d="M30.25,26.37l-.14,0-.08,0a.15.15,0,0,0,0,.06c0,.1.12.14.26.18l.06,0s.06,0,.08-.1a.07.07,0,0,0,0,0C30.43,26.39,30.37,26.37,30.25,26.37Z"/><path class="cls-1" d="M30.53,21.57s0,0,0-.06v0l-.08.08Z"/><path class="cls-1" d="M29.31,21.25l.08.14c0-.06,0-.1,0-.12s0,0-.06,0Z"/><path class="cls-1" d="M30,27a0,0,0,0,1,0,0l-.06,0-.16,0a.2.2,0,0,1-.14-.08l0,0s0,0,0,0-.1.14-.08.2,0,0,0,.06a.63.63,0,0,1,.52-.14.55.55,0,0,0,.18,0h-.06Z"/><path class="cls-1" d="M30.73,22.25v0s0,.06,0,.08v.06a.17.17,0,0,0,.12-.06.41.41,0,0,1,.1-.08l-.18-.16S30.73,22.19,30.73,22.25Z"/><path class="cls-1" d="M29,27.31l0,0a.43.43,0,0,0,.24.2.32.32,0,0,0,.18-.12h-.1A.53.53,0,0,1,29,27.31Z"/><path class="cls-1" d="M40.48,22.29a.49.49,0,0,0-.14,0h0v.12h0C40.38,22.33,40.42,22.33,40.48,22.29Z"/><path class="cls-1" d="M28.67,26c0,.14,0,.24,0,.3a.45.45,0,0,0,.16.06v-.12c0-.14,0-.32.24-.38,0,0,0,0,0,0a.39.39,0,0,1-.16,0C28.79,25.85,28.71,25.87,28.67,26Z"/><path class="cls-1" d="M41.06,21.27c0-.12,0-.18,0-.2s0,.06,0,.08-.08.26-.26.24l0,.06h0l.22,0Z"/><path class="cls-1" d="M40.1,23a.75.75,0,0,0,.38.18,0,0,0,0,0,0,0,2,2,0,0,0-.32-.26A.1.1,0,0,0,40.1,23Z"/><path class="cls-1" d="M27.71,26.13a.61.61,0,0,1-.18,0,.07.07,0,0,1-.06,0s-.06,0-.06,0v0s.06,0,.08,0l0,0a.14.14,0,0,0,.08,0C27.67,26.17,27.71,26.17,27.71,26.13Z"/><path class="cls-1" d="M28.73,26.83l-.06-.06-.14-.12h0a0,0,0,0,0,0,0c0-.06,0-.08-.06-.08h0a.08.08,0,0,0-.06,0,0,0,0,0,0,0,0l0,0a0,0,0,0,1,0,0l.2.26.14.18a.24.24,0,0,1,.08-.16l-.14-.14Z"/><path class="cls-1" d="M26.77,21.39s.06.06.08.06a.29.29,0,0,0,0-.14.1.1,0,0,0,0-.08h0a.07.07,0,0,0-.06,0l0,0s0,0,.06.08A.07.07,0,0,1,26.77,21.39Z"/><path class="cls-1" d="M27,21.59v0l.06.1-.1,0,0,0,0,0c-.08,0-.12.06-.1.08s.06,0,.08,0l.1,0c.08,0,.1,0,.16-.1a.11.11,0,0,1,0-.08Z"/><path class="cls-1" d="M26.89,26.19a.43.43,0,0,0-.08.54l.06-.16a.63.63,0,0,1,.14-.36v0h-.12Z"/><path class="cls-1" d="M26.47,25.15s-.1,0-.14,0a.07.07,0,0,0,0,0v0c0,.08.1.14.2.16h0a.45.45,0,0,0,.06-.14.09.09,0,0,0,0-.06Z"/><path class="cls-1" d="M28.27,27c-.18-.16-.32-.24-.5-.1s-.08,0-.12,0a.44.44,0,0,0,.1.08h.18a.59.59,0,0,1,.34.12v0s.08,0,.08,0l0,0Z"/><path class="cls-1" d="M26.87,22.47s0,0-.06-.06a0,0,0,0,0,0,0s0,0,0,0a.07.07,0,0,1,0,0,.09.09,0,0,0,.06,0S26.85,22.49,26.87,22.47Z"/><path class="cls-1" d="M27.25,27.07c0,.06,0,.12,0,.16s0,0,.1,0h0s-.06-.08-.08-.1A.16.16,0,0,0,27.25,27.07Z"/><path class="cls-1" d="M50.43,0H9.57A9.57,9.57,0,0,1,0,9.57V44.18a9.57,9.57,0,0,1,9.57,9.57H50.43A9.57,9.57,0,0,1,60,44.18V9.57A9.57,9.57,0,0,1,50.43,0Zm6,42.28H56a7.94,7.94,0,0,0-7.93,7.93v.38H11.88v-.37A7.94,7.94,0,0,0,4,42.28H3.58V11.47H4a7.94,7.94,0,0,0,7.93-7.93V3.17H48.12v.38A7.94,7.94,0,0,0,56,11.47h.38Z"/></svg>