<svg id="Layer_1" data-name="Layer 1" xmlns="http://www.w3.org/2000/svg" viewBox="0 0 60 53.75"><defs><style>.cls-1{fill:#86754d;}</style></defs><title>story-button-1</title><path class="cls-1" d="M20.08,26.41l0,0s0,0,0,0v0s0-.06,0-.08S20.14,26.35,20.08,26.41Z"/><path class="cls-1" d="M19.44,25.81a.54.54,0,0,0-.36.16l-.12.1s0,.06,0,.1a.65.65,0,0,0,.06.12s0,0,.1-.06a.18.18,0,0,1-.08-.16.36.36,0,0,1,.12-.16.21.21,0,0,1,.16,0c.06,0,.06.1.08.14h.08a.15.15,0,0,1,0-.08A.22.22,0,0,1,19.44,25.81Z"/><path class="cls-1" d="M20.1,25.27a1,1,0,0,0-.36-.06,1.2,1.2,0,0,1-.58-.16.07.07,0,0,0-.06,0c0,.14.08.2.24.16a.75.75,0,0,1,.2,0,.66.66,0,0,1,.5.2.22.22,0,0,0,.12,0,0,0,0,0,0,0,0s0,0,0-.08Z"/><path class="cls-1" d="M24.5,29.21h0a1.13,1.13,0,0,0,0,.52.57.57,0,0,1,0,.18h0a0,0,0,0,1,0,0v-.26a.38.38,0,0,0,0-.26A.37.37,0,0,1,24.5,29.21Z"/><path class="cls-1" d="M21.36,28.47a.11.11,0,0,1-.12,0c-.06,0-.12,0-.14.08a.21.21,0,0,0,0,.16c0,.06.08.1.24,0s.06,0,.1-.06l-.08-.16Z"/><path class="cls-1" d="M21,27.75a.16.16,0,0,0-.12.1v0h.2v0A.13.13,0,0,0,21,27.75Z"/><path class="cls-1" d="M20.2,25c.06-.06.08-.1.08-.12l-.08,0Z"/><path class="cls-1" d="M18.46,27.77h0a.18.18,0,0,0-.1.06s0,.1-.06.14a.45.45,0,0,1,.22-.1,0,0,0,0,0,0,0s0,0,0,0S18.48,27.79,18.46,27.77Z"/><path class="cls-1" d="M20.82,27.27h0a.07.07,0,0,0,.06,0s0-.08,0-.12a.36.36,0,0,1,0-.2l-.14-.06c-.08,0-.08-.14-.08-.2s0-.06,0-.06a.58.58,0,0,0-.18.28.27.27,0,0,0,0,.1l.08,0c.08,0,.12,0,.16,0a.18.18,0,0,1,.08.16.33.33,0,0,1,0,.1Z"/><path class="cls-1" d="M17.68,32.93a0,0,0,0,1,0,0h0c0,.06.06.08.08.1s.06,0,.08,0,0,0-.06-.06A.07.07,0,0,1,17.68,32.93Z"/><path class="cls-1" d="M17.68,30.13a0,0,0,0,1,0,0v0l.06,0,0,0h0a.12.12,0,0,0,.08,0v-.08h0A.12.12,0,0,1,17.68,30.13Z"/><path class="cls-1" d="M17.94,31.83v0s0,0,0-.06v0S17.94,31.79,17.94,31.83Z"/><path class="cls-1" d="M21.74,28.73s0,0-.06,0h0a.36.36,0,0,1,0,.14,0,0,0,0,0,0,0,.1.1,0,0,0,0-.08S21.74,28.73,21.74,28.73Z"/><path class="cls-1" d="M17.52,29.51h0a.07.07,0,0,0,0,0s0,0,.06.08a.15.15,0,0,1,0,.08s0,.06,0,.06l0,0a.17.17,0,0,0,0-.14A.45.45,0,0,0,17.52,29.51Z"/><path class="cls-1" d="M18.4,27.25c0-.06-.06-.12-.12-.18a.07.07,0,0,0,0,0,.55.55,0,0,0,.08.32A.14.14,0,0,0,18.4,27.25Z"/><path class="cls-1" d="M18.14,24.21a.07.07,0,0,0,0,.06s0,0,.1.06Z"/><path class="cls-1" d="M18.06,30.57s0,0,0,0l-.08.06v0s0,.08,0,.1h0c.06,0,.1,0,.1-.06a.15.15,0,0,0,0-.16Z"/><path class="cls-1" d="M18,25.43a.21.21,0,0,0,0,.18l.1.06a.84.84,0,0,1-.12-.28Z"/><path class="cls-1" d="M22.24,29.87c0,.08,0,.12.1.18h0s0-.06-.06-.1A.28.28,0,0,1,22.24,29.87Z"/><path class="cls-1" d="M21.52,27.21s0,.06,0,.12l0,0h0l.34-.06,0,0a.62.62,0,0,0-.22,0A.55.55,0,0,1,21.52,27.21Z"/><path class="cls-1" d="M23.7,28.19a.17.17,0,0,0,0,.14v.06s.06,0,.12,0a.16.16,0,0,1,.08-.08l.06-.08a.07.07,0,0,0-.06,0C23.78,28.17,23.72,28.17,23.7,28.19Z"/><path class="cls-1" d="M24.08,30.89l.06,0-.1-.06S24.08,30.87,24.08,30.89Z"/><path class="cls-1" d="M23.76,30.81a.26.26,0,0,1,0,.12s0,0,0,.06v0l0,0C23.8,30.85,23.8,30.81,23.76,30.81Z"/><path class="cls-1" d="M23.92,32.17a.09.09,0,0,0,0-.1.21.21,0,0,0-.1.18A.14.14,0,0,0,23.92,32.17Z"/><path class="cls-1" d="M24.2,22.43v0l0,.06.06,0a.21.21,0,0,1,.16,0s-.1,0-.18,0Z"/><path class="cls-1" d="M24.14,31.57a.15.15,0,0,1-.08,0h0v.06c0,.1,0,.12.06.14s.08,0,.1-.06S24.2,31.61,24.14,31.57Z"/><path class="cls-1" d="M24.1,24.33v0a0,0,0,0,0,0,0c-.06.08-.14.16-.14.24a.15.15,0,0,0,0,.1.21.21,0,0,0,.16,0,.2.2,0,0,0,.12-.1A.26.26,0,0,1,24.1,24.33Z"/><path class="cls-1" d="M24.16,26.15a.14.14,0,0,0-.14.08h0c.08,0,.1,0,.12,0A.06.06,0,0,0,24.16,26.15Z"/><path class="cls-1" d="M23.7,32.37a.07.07,0,0,0-.06,0c-.06,0-.06.14-.08.2s0,.08,0,.12-.06.26,0,.32h0a.1.1,0,0,1,0-.06c0-.08,0-.18.14-.2a0,0,0,0,1,0,0A.35.35,0,0,1,23.7,32.37Z"/><path class="cls-1" d="M17.56,31.31a.57.57,0,0,1,0,.18c0,.08-.06.12,0,.16a.31.31,0,0,0,.1-.26v-.06s0,0,0,0,0,0,0,0Z"/><path class="cls-1" d="M22.46,28.87H22.4s0,0,0,.06a.19.19,0,0,1,0,.18c-.06.12-.16.08-.22.06a.07.07,0,0,1,0,0h0a.07.07,0,0,0,0,0v0s0,0,0,.06a.07.07,0,0,0,.06,0,1.06,1.06,0,0,1,.4-.1C22.58,29,22.56,28.89,22.46,28.87Z"/><path class="cls-1" d="M22.2,31.13a.08.08,0,0,1,0,.06s0,.06,0,.1a.09.09,0,0,0,.06,0s0-.08,0-.12A0,0,0,0,1,22.2,31.13Z"/><path class="cls-1" d="M22.72,31.61a.18.18,0,0,1-.12-.12.13.13,0,0,1,0-.12v-.06a.12.12,0,0,0,0,.1,1.29,1.29,0,0,0,0,.3c0,.08,0,.1,0,.12a.47.47,0,0,0,.08-.12.2.2,0,0,1,.1-.08l0,0Z"/><path class="cls-1" d="M23.12,27.93a.1.1,0,0,0,0-.08s-.06-.08-.1-.12a.41.41,0,0,1-.12-.14.31.31,0,0,1-.16.12s-.06,0-.08,0l-.08.08v0a1,1,0,0,1,.22,0C23,27.95,23.06,28,23.12,27.93Z"/><path class="cls-1" d="M23.32,31.39a0,0,0,0,0,0,0s.06.08.18.08h0v-.06a.33.33,0,0,0-.16-.06A0,0,0,0,0,23.32,31.39Z"/><path class="cls-1" d="M22.94,31.77c0,.1.08.16.24.22s.14,0,.2,0a.55.55,0,0,1-.26-.14Z"/><path class="cls-1" d="M18.68,24.87l0,0L18.6,25s-.06.06-.06.08v0a.07.07,0,0,1,.06,0,.15.15,0,0,1,.08,0,1,1,0,0,0,.24,0h0c0-.08-.06-.18-.1-.18S18.76,24.83,18.68,24.87Z"/><path class="cls-1" d="M19.92,24.81a.16.16,0,0,1,.08-.08.22.22,0,0,1,0-.22s0,0,0-.06,0,0,0,0a0,0,0,0,0,0,0,.43.43,0,0,0-.2.22s0,.08.06.14S19.92,24.79,19.92,24.81Z"/><path class="cls-1" d="M23.34,21.45l0-.1c-.06,0-.08.06-.14.1A.43.43,0,0,0,23.34,21.45Z"/><path class="cls-1" d="M23.3,23.09s0,0,0,0-.08,0-.12.12a.07.07,0,0,1,.06,0C23.3,23.13,23.3,23.13,23.3,23.09Z"/><path class="cls-1" d="M23.28,31h0l.1,0a.08.08,0,0,0,.06,0s0,0-.08,0S23.3,31,23.28,31Z"/><path class="cls-1" d="M22.84,27.29h0a0,0,0,0,0,0,0l.08.06S22.86,27.33,22.84,27.29Z"/><path class="cls-1" d="M22.18,27.59c0-.06.06-.12,0-.14a.21.21,0,0,0-.12-.06.17.17,0,0,0,0,.14s0,0,0,0S22.16,27.59,22.18,27.59Z"/><path class="cls-1" d="M22.14,28.49h0l.1-.08s0,0,0,0h-.08a.07.07,0,0,0-.06,0s0,.06,0,.08Z"/><path class="cls-1" d="M23.62,29.21s-.06,0-.08,0h-.06s-.08,0-.1,0-.12,0-.12.06,0,0,.06,0l0,0c.08,0,.24,0,.26-.06Z"/><path class="cls-1" d="M22.64,28.47s0,0,0-.06,0-.12,0-.14a.16.16,0,0,0-.1,0h0a.31.31,0,0,1,.06.16C22.62,28.45,22.62,28.47,22.64,28.47Z"/><path class="cls-1" d="M23.28,26.91a.07.07,0,0,0-.06,0c0,.06,0,.08,0,.1a.12.12,0,0,0,.08,0A.15.15,0,0,0,23.28,26.91Z"/><path class="cls-1" d="M23.78,27.81s0,.06.12,0v0c-.06-.06-.08-.06-.12-.06Z"/><path class="cls-1" d="M23.5,27.31a.24.24,0,0,1,.26,0,0,0,0,0,0,0,0s0,0,0,0-.08-.14-.16-.14a.28.28,0,0,0-.12,0h0s0,0,0,.06a.5.5,0,0,0,0,.14S23.4,27.35,23.5,27.31Z"/><path class="cls-1" d="M24.2,23.11s0,0,0-.08v0s0,0,0,0h0v.1s0,0,0,0Z"/><path class="cls-1" d="M23.74,21.07c0-.06.08-.06.14-.08s0-.1-.06-.1a.17.17,0,0,0-.14.08,2.24,2.24,0,0,0-.18.22s0,0,0,0a.17.17,0,0,0,.14,0A.21.21,0,0,0,23.74,21.07Z"/><path class="cls-1" d="M24,23.81l.06,0,.06,0v0a.35.35,0,0,1,0-.14v0A1.15,1.15,0,0,0,24,23.81Z"/><path class="cls-1" d="M23.52,25.79a0,0,0,0,0,0,0v0a.85.85,0,0,1,0-.1.29.29,0,0,1,0-.12v0h0a.14.14,0,0,0-.12.08.07.07,0,0,0,0,.06C23.42,25.71,23.46,25.79,23.52,25.79Z"/><path class="cls-1" d="M23.58,21.65s0,0,0,0l0,0h-.08s-.06,0-.08,0h0a.43.43,0,0,0,0,.22C23.46,21.73,23.54,21.69,23.58,21.65Z"/><path class="cls-1" d="M17.56,32.09s0,0,0,0,0,0,0,0v0l-.06.06Z"/><path class="cls-1" d="M23.62,22.95s0,.06.06.08v0s0,0,0-.06Z"/><path class="cls-1" d="M17.52,22.49v-.1l0,0a.25.25,0,0,1,0-.12v-.06l-.08,0h0s-.1,0-.1,0,.1.24.16.26Z"/><path class="cls-1" d="M17.6,21.43a.29.29,0,0,0,.14,0,.92.92,0,0,1,.28.14l0,0s.06,0,.1,0a.26.26,0,0,1,.08.06l.06,0,0-.06s0-.08,0-.1,0,0-.06,0a.66.66,0,0,1-.62-.24l0,0S17.58,21.43,17.6,21.43Z"/><path class="cls-1" d="M17.6,21.29h0l-.06,0,.06,0S17.61,21.29,17.6,21.29Z"/><path class="cls-1" d="M19.58,23.85v0a0,0,0,0,0,0,0l-.06.06a.08.08,0,0,0,.06,0Z"/><path class="cls-1" d="M17.6,24.27a.07.07,0,0,0,0-.06l-.08-.12s0,0,0,0a.33.33,0,0,1-.2-.24.21.21,0,0,0,0,.16C17.26,24,17.54,24.27,17.6,24.27Z"/><path class="cls-1" d="M17.26,28.07v.12a.25.25,0,0,1,0,.12h.12a.15.15,0,0,0,.08,0v0A.47.47,0,0,0,17.26,28.07Z"/><path class="cls-1" d="M18.24,22.41a.34.34,0,0,1-.26.08.35.35,0,0,0-.24.12.51.51,0,0,0,.38,0A.53.53,0,0,0,18.24,22.41Z"/><path class="cls-1" d="M17.14,26.75c0-.06,0-.1,0-.12A.25.25,0,0,0,17.14,26.75Z"/><path class="cls-1" d="M18.2,20.81a.35.35,0,0,1-.14,0,.32.32,0,0,0,.12.06S18.2,20.85,18.2,20.81Z"/><path class="cls-1" d="M18.58,23.49l-.12.2-.08-.22-.06.08a0,0,0,0,1,0,0,.51.51,0,0,0,.12.24.54.54,0,0,0,.14.12s0,0,0-.12a.45.45,0,0,1,0-.16A.23.23,0,0,0,18.58,23.49Z"/><path class="cls-1" d="M18.78,22.47s0,0,0,.06,0,0,0,0,0-.1,0-.14l-.06,0a1,1,0,0,0-.24,0l.18.16Z"/><path class="cls-1" d="M18.24,23.11a.21.21,0,0,1,.2.08.28.28,0,0,1,0,.24l.16,0a.07.07,0,0,1,0,0,.38.38,0,0,1-.06-.16l0-.06,0-.18a1.06,1.06,0,0,0-.16.08S18.26,23.11,18.24,23.11Z"/><path class="cls-1" d="M19.2,22s0,0,0-.06l-.06.18v0C19.16,22.13,19.22,22.09,19.2,22Z"/><path class="cls-1" d="M17.8,28.95a.1.1,0,0,0,0,.08A.34.34,0,0,0,18,29l.08,0-.1-.06H17.8Z"/><path class="cls-1" d="M18,28l0,0s0,0-.08.06a.15.15,0,0,0,.08,0S18,28,18,28Z"/><path class="cls-1" d="M17.78,24.73h0s0,.06,0,.1a.44.44,0,0,1,0,.28.16.16,0,0,1,.12.08s0,0,0,.06a1.32,1.32,0,0,1,0-.48A.33.33,0,0,1,17.78,24.73Z"/><path class="cls-1" d="M18,23.81c0-.08.06-.18,0-.2s0,0,0,0a.24.24,0,0,1-.12.12c-.06,0-.1.06-.16.08l0,0a.26.26,0,0,1,0,.12c.06,0,.1,0,.18-.08A.52.52,0,0,1,18,23.81Z"/><path class="cls-1" d="M23.82,21.95s0,0,0,0a.31.31,0,0,0,.12-.06.16.16,0,0,0,0-.16l-.12.1C23.84,21.89,23.82,21.93,23.82,21.95Z"/><path class="cls-1" d="M31.36,26.83l-.06-.06-.14-.12h0a0,0,0,0,0,0,0c0-.06,0-.08-.06-.08h0a.08.08,0,0,0-.06,0,0,0,0,0,0,0,0l0,0a0,0,0,0,1,0,0l.2.26.14.18a.25.25,0,0,1,.08-.16l-.14-.14Z"/><path class="cls-1" d="M31.58,27.31l0,0a.43.43,0,0,0,.24.2.31.31,0,0,0,.18-.12h-.1A.54.54,0,0,1,31.58,27.31Z"/><path class="cls-1" d="M30.9,27c-.18-.16-.32-.24-.5-.1s-.08,0-.12,0a.43.43,0,0,0,.1.08h.18a.59.59,0,0,1,.34.12v0s.08,0,.08,0l0,0Z"/><path class="cls-1" d="M29.88,27.07c0,.06,0,.12,0,.16s0,0,.1,0h0s-.06-.08-.08-.1A.15.15,0,0,0,29.88,27.07Z"/><path class="cls-1" d="M32.88,26.37l-.14,0-.08,0a.15.15,0,0,0,0,.06c0,.1.12.14.26.18l.06,0s.06,0,.08-.1a.06.06,0,0,0,0,0C33.06,26.39,33,26.37,32.88,26.37Z"/><path class="cls-1" d="M29.64,21.59v0l.06.1-.1,0,0,0,0,0c-.08,0-.12.06-.1.08s.06,0,.08,0l.1,0c.08,0,.1,0,.16-.1a.1.1,0,0,1,0-.08Z"/><path class="cls-1" d="M32.6,27a0,0,0,0,1,0,0l-.06,0-.16,0a.2.2,0,0,1-.14-.08l0,0s0,0,0,0-.1.14-.08.2,0,0,0,.06a.63.63,0,0,1,.52-.14.54.54,0,0,0,.18,0h-.06Z"/><path class="cls-1" d="M31.94,21.25l.08.14q0-.09,0-.12s0,0-.06,0Z"/><path class="cls-1" d="M29,25.93l.1-.06,0-.08s-.06-.06-.08-.06,0,0-.06,0a.53.53,0,0,1-.58.2l.12.26a1.75,1.75,0,0,1,.36-.22C28.88,26,28.92,25.95,29,25.93Z"/><path class="cls-1" d="M28.8,27.07a.36.36,0,0,0,.08.2s0,0,0-.06.12-.1.18-.14.08,0,.1-.06a.71.71,0,0,0-.28.06S28.82,27.07,28.8,27.07Z"/><path class="cls-1" d="M33.16,21.57s0,0,0-.06v0l-.08.08Z"/><path class="cls-1" d="M29.52,26.19a.43.43,0,0,0-.08.54l.06-.16a.63.63,0,0,1,.14-.36v0h-.12Z"/><path class="cls-1" d="M28.16,25.81a2.33,2.33,0,0,0,.1-.26,0,0,0,0,0,0,0s-.08-.1-.12-.1-.1.12-.1.26v.06s0,.06.14.06Z"/><path class="cls-1" d="M28.18,26.41h0c-.1,0-.1,0-.1,0s0,.06.12.08a.13.13,0,0,1,.1-.08l.06,0s0,0,0-.08h-.18Z"/><path class="cls-1" d="M29.5,22.47s0,0-.06-.06a0,0,0,0,0,0,0s0,0,0,0a.07.07,0,0,1,0,0,.09.09,0,0,0,.06,0S29.48,22.49,29.5,22.47Z"/><path class="cls-1" d="M29.1,25.15s-.1,0-.14,0a.07.07,0,0,0,0,0v0c0,.08.1.14.2.16h0a.45.45,0,0,0,.06-.14.09.09,0,0,0,0-.06Z"/><path class="cls-1" d="M29.4,21.39s.06.06.08.06a.29.29,0,0,0,0-.14.1.1,0,0,0,0-.08h0a.07.07,0,0,0-.06,0l0,0s0,0,.06.08A.07.07,0,0,1,29.4,21.39Z"/><path class="cls-1" d="M43.89,26.61l0,0-.06.06v0a.13.13,0,0,1,0,.12.16.16,0,0,1-.26,0l-.06,0a.07.07,0,0,0,0,0,.08.08,0,0,0,0,.06.42.42,0,0,0,.34,0,.3.3,0,0,0,.18-.26s0-.06,0-.06Z"/><path class="cls-1" d="M28.38,24.61,28,24.47a.34.34,0,0,1-.12.16.6.6,0,0,0,.38.08C28.36,24.71,28.36,24.71,28.38,24.61Z"/><path class="cls-1" d="M43.87,28v0c0,.08,0,.08,0,.08a0,0,0,0,0,0,0v-.08s0-.08,0-.12v0h0A.25.25,0,0,0,43.87,28Z"/><path class="cls-1" d="M43.59,28.51a.4.4,0,0,1,0,.2c.06,0,.1,0,.12,0l-.06-.16Z"/><path class="cls-1" d="M44,21.49v0l.1.08A.16.16,0,0,0,44,21.49Z"/><path class="cls-1" d="M44.29,25.89h0a.08.08,0,0,0-.08.08s0,0,0,0l0,0s.08,0,.08-.06S44.29,25.89,44.29,25.89Z"/><path class="cls-1" d="M44.27,22.67a.09.09,0,0,0,0-.06.29.29,0,0,0,0-.14s-.06,0-.1,0l-.06,0v0a.12.12,0,0,1,0,.14c0,.08,0,.1.08.1S44.27,22.69,44.27,22.67Z"/><path class="cls-1" d="M46.78,4.7H13.22a8.4,8.4,0,0,1-8,8V41a8.4,8.4,0,0,1,8,8H46.78a8.4,8.4,0,0,1,8-8V12.71A8.4,8.4,0,0,1,46.78,4.7ZM25.62,33.19a.88.88,0,0,1,.1.32.34.34,0,0,1,0,.32.39.39,0,0,1-.28.1H22.74c-.34,0-.48-.24-.58-.48-.18-.4-.36-.82-.52-1.24s-.34-.8-.52-1.2l-1.68-3.84,0-.1L19.36,27s0,.08,0,.14v5.08a1.51,1.51,0,0,0,.2.78,1.8,1.8,0,0,1,.18.34.36.36,0,0,1-.36.56h-3c-.24,0-.34-.1-.38-.18a.35.35,0,0,1,.06-.4,3.69,3.69,0,0,0,.36-2V21.81A3.21,3.21,0,0,0,16,20.33c-.08-.2-.14-.36-.08-.46s.24-.12.46-.14h.86c.46,0,1,0,1.44,0a.82.82,0,0,1,.88.58c.36.88.74,1.8,1.12,2.68l.42,1,.44,1c.22.48.42,1,.62,1.46a.07.07,0,0,1,0,.06.21.21,0,0,0,0,.08s0,0,0,0a.09.09,0,0,0,0-.1V23.25c0-.44,0-.9,0-1.36a3,3,0,0,0-.3-1.54c-.12-.22-.14-.36-.08-.46s.26-.16.42-.16h2.9c.26,0,.42.06.48.18s0,.24-.1.44a2.6,2.6,0,0,0-.3,1.5V31.93A2,2,0,0,0,25.62,33.19Zm8.22-.24v.54c0,.38-.26.44-.54.44H28.22c-.5,0-.58-.08-.58-.58s0-1.18,0-1.88c0-.5.12-.6.58-.62,1.62,0,3.3,0,5,0,.48,0,.62.12.62.58S33.86,32.45,33.84,32.95Zm.7-10.84a3.79,3.79,0,0,1,0,.46v3.62A1.5,1.5,0,0,1,34,27.37l0,0a2.16,2.16,0,0,1-2.22.92H30.9c-.66,0-1.32,0-2,0h0A1,1,0,0,1,28.1,28l0,0a3.55,3.55,0,0,0-.58-.52,1.63,1.63,0,0,1-.6-1.54c0-1.38.06-2.56,0-3.74a1.81,1.81,0,0,1,.64-1.66.16.16,0,0,0,.08-.08,2.15,2.15,0,0,1,1.82-.72c.84.06,1.72,0,2.56,0a5.29,5.29,0,0,1,.56,0,1.29,1.29,0,0,1,.92.32l.26.26C34.58,21.11,34.58,21.13,34.54,22.11ZM45.49,33.75a.54.54,0,0,1-.48.18l-.06,0c-.58,0-1.16,0-1.72,0H42.11c-.22,0-.34-.06-.4-.16s0-.22,0-.38a4.54,4.54,0,0,0,.38-2.24V31c0-2.9,0-5.86,0-8.62a4,4,0,0,0-.34-2.1c-.1-.18-.12-.3-.06-.38s.2-.12.4-.14h2.42c.52,0,.54,0,.54.58v7.44c0,1.36,0,2.74,0,4.1a2.42,2.42,0,0,0,.32,1.34C45.51,33.45,45.55,33.61,45.49,33.75Z"/><path class="cls-1" d="M33.36,22.25v0s0,.06,0,.08v.06a.17.17,0,0,0,.12-.06.46.46,0,0,1,.1-.08l-.18-.16S33.36,22.19,33.36,22.25Z"/><path class="cls-1" d="M43.41,30.31h0a.27.27,0,0,0,.16-.32l-.06.08A.28.28,0,0,0,43.41,30.31Z"/><path class="cls-1" d="M43.55,23.75c-.08.08-.14.12-.14.22s0,0,0,0l.08,0c.16-.06.22-.1.2-.26,0,0,0,0-.06,0A.3.3,0,0,1,43.55,23.75Z"/><path class="cls-1" d="M43.67,22.77a0,0,0,0,0,0,0h0s0,0,0-.06v-.12s0,0,0,0a.16.16,0,0,1,0,.1Z"/><path class="cls-1" d="M43.93,25.63h0v0s0-.06,0-.1v-.1s0,0,0,0h0c-.06,0-.12.08-.12.16s0,0,0,.06A.11.11,0,0,0,43.93,25.63Z"/><path class="cls-1" d="M43.37,31.37l0,0,.1,0a.22.22,0,0,0,.16,0l-.08-.06A.17.17,0,0,0,43.37,31.37Z"/><path class="cls-1" d="M43.51,21.49a.71.71,0,0,1,.18.08c0-.18-.1-.22-.26-.24l0,0v0C43.37,21.45,43.41,21.47,43.51,21.49Z"/><path class="cls-1" d="M43.53,24.87s-.06,0-.1,0h0s0,0,.08,0Z"/><path class="cls-1" d="M43.45,32.19h0s0,.08.1.1a0,0,0,0,0,0,0S43.55,32.19,43.45,32.19Z"/><path class="cls-1" d="M43.41,29.67s-.08,0-.12-.06l-.06-.08s0,0,0,0l0,0s0,.1,0,.12a.17.17,0,0,0,.12.06Z"/><path class="cls-1" d="M30.34,26.13a.58.58,0,0,1-.18,0,.07.07,0,0,1-.06,0s-.06,0-.06,0v0s.06,0,.08,0l0,0,.08,0C30.3,26.17,30.34,26.17,30.34,26.13Z"/><path class="cls-1" d="M32.58,32.09a.48.48,0,0,1-.22-.12s0,0-.06,0h0L32.2,32V32s.08,0,.12,0l.06,0c.14,0,.36.06.36.34v.1h0s0,0,0-.06a.33.33,0,0,1,0-.14C32.82,32.21,32.72,32.17,32.58,32.09Z"/><path class="cls-1" d="M31.78,31.71c0,.06,0,.1,0,.12a.07.07,0,0,0,.06,0h.06a.08.08,0,0,0,0-.06.2.2,0,0,0-.1-.16S31.8,31.65,31.78,31.71Z"/><path class="cls-1" d="M32.24,33.07,32,32.89A.34.34,0,0,0,32.24,33.07Z"/><path class="cls-1" d="M32.5,22.21c.08,0,.14.06.18,0s.14-.12.2-.22v0a.47.47,0,0,1-.4.12h0a.07.07,0,0,1,0,0Z"/><path class="cls-1" d="M32.84,25.81l.1.06s0-.06-.08-.06Z"/><path class="cls-1" d="M32.6,24.59s0-.06,0-.12-.08-.06-.18,0h0a.08.08,0,0,0-.12,0h.1l.12.06s.06,0,.08,0Z"/><path class="cls-1" d="M32.24,22.67s.06,0,.1-.06.16-.18.1-.28-.08,0-.12.1a.33.33,0,0,0-.1.08s0,0-.06,0-.06,0-.06,0l0,0A.17.17,0,0,0,32.24,22.67Z"/><path class="cls-1" d="M32.3,25.67a.37.37,0,0,0,.2-.1.28.28,0,0,0,0-.18v0a.15.15,0,0,1,0-.08l-.24.36S32.26,25.67,32.3,25.67Z"/><path class="cls-1" d="M30.16,32.13h0l.32.12-.08-.06C30.32,32.11,30.24,32.07,30.16,32.13Z"/><path class="cls-1" d="M29.66,32.45a.51.51,0,0,1,.14-.08l.06,0,0-.08A.34.34,0,0,0,29.66,32.45Z"/><path class="cls-1" d="M30,32.49a.07.07,0,0,0,0,0l.06,0a.07.07,0,0,0-.08-.08Z"/><path class="cls-1" d="M29.78,31.89l.06,0,.06-.06a.12.12,0,0,0-.08,0S29.76,31.85,29.78,31.89Z"/><path class="cls-1" d="M29.64,32.91a.07.07,0,0,1,0,0s.06,0,.06,0v0a.07.07,0,0,0,0,0Z"/><path class="cls-1" d="M31.46,32.83a.12.12,0,0,0,0,.08s0,0,.06-.08a.15.15,0,0,1,0-.1v0C31.5,32.69,31.48,32.71,31.46,32.83Z"/><path class="cls-1" d="M31.2,32.17l0,0,.06,0,0,0a0,0,0,0,0,0,0Z"/><path class="cls-1" d="M31.3,26c0,.14,0,.24,0,.3a.43.43,0,0,0,.16.06v-.12c0-.14,0-.32.24-.38,0,0,0,0,0,0a.39.39,0,0,1-.16,0C31.42,25.85,31.34,25.87,31.3,26Z"/><path class="cls-1" d="M30.72,32.29h-.06a.22.22,0,0,1,.12.2.13.13,0,0,0,.08-.12S30.86,32.31,30.72,32.29Z"/><path class="cls-1" d="M31,20.67c0-.16-.16-.16-.34-.12l-.1,0a.06.06,0,0,0,0,0C30.74,20.71,30.86,20.79,31,20.67Z"/><path class="cls-1" d="M28.8,23.79s.06,0,.06-.08,0-.08,0-.12h0s0,0,0,0,0,.14,0,.16Z"/><path class="cls-1" d="M30.06,20.55l0,0a.06.06,0,0,1,0,0,.08.08,0,0,0-.08,0v0C30,20.59,30.06,20.57,30.06,20.55Z"/><path class="cls-1" d="M28.9,21.83l.06.06c.06.08.08.1.12.06l0-.08s0,0,0,0A.09.09,0,0,0,28.9,21.83Z"/><path class="cls-1" d="M30.06,21.57s0,0,.08,0a.1.1,0,0,1,0-.08s0-.06,0-.06a.39.39,0,0,0-.1,0h0c-.12,0-.2,0-.22.1a.2.2,0,0,1,.08.1Z"/><path class="cls-1" d="M28.94,20.95H29s.14,0,.14,0v0h0s-.08,0-.12,0h-.06s-.06,0-.06,0v0h.08Z"/><path class="cls-1" d="M28.34,21.75a0,0,0,0,1,0,0c-.12,0-.18.06-.2.16a.4.4,0,0,0,.24-.16A0,0,0,0,0,28.34,21.75Z"/><path class="cls-1" d="M28.24,21.27c.06,0,.08,0,.08,0a0,0,0,0,0,0,0v-.06h-.16a0,0,0,0,0,0,0S28.2,21.25,28.24,21.27Z"/><path class="cls-1" d="M28.22,22.45a.15.15,0,0,0,0,.08s0,0,.08,0a.35.35,0,0,0,.22,0v-.06l0,0a.22.22,0,0,1-.22,0S28.24,22.47,28.22,22.45Z"/><path class="cls-1" d="M28.22,23.71c-.06,0-.08.1-.06.16a.26.26,0,0,0,0,.12l0,.2c.08-.06.1-.16.06-.32a.21.21,0,0,1,0-.1v-.06Z"/><path class="cls-1" d="M30.06,22.83a.41.41,0,0,0-.08.3v1.2c0,.48,0,.72.08.82s.26.08.58.08l.18,0,.34,0c.22,0,.32-.1.32-.3s0-.42,0-.62v-.58c0-.22,0-.44,0-.66a.35.35,0,0,0-.06-.24.24.24,0,0,0-.24-.06h-.84A.3.3,0,0,0,30.06,22.83Z"/><path class="cls-1" d="M27.8,23.75s0,0,0,.06,0,0,0,.06.06,0,.06,0a.06.06,0,0,0,0-.08Z"/><path class="cls-1" d="M30.54,21.15v0s0,0,0,0v.08l0,0A.9.9,0,0,0,30.54,21.15Z"/><path class="cls-1" d="M31.1,21.21s.1-.08.14-.16l.12-.14a.21.21,0,0,1,.12,0,.07.07,0,0,1,.06,0v0s0,0-.06,0a.22.22,0,0,1-.2,0c0,.08-.1.14-.16.2l-.12.12Z"/><path class="cls-1" d="M30.92,21.57s0,.1,0,.12,0,0,.14,0a.15.15,0,0,1,.1,0v0s-.1-.06-.16-.08Z"/><path class="cls-1" d="M31.36,21.73a.06.06,0,0,1,0,0c.06,0,.1-.1.16-.14v0h0S31.4,21.67,31.36,21.73Z"/><path class="cls-1" d="M50.43,0H9.57A9.57,9.57,0,0,1,0,9.57V44.18a9.57,9.57,0,0,1,9.57,9.57H50.43A9.57,9.57,0,0,1,60,44.18V9.57A9.57,9.57,0,0,1,50.43,0Zm6,42.28H56a7.94,7.94,0,0,0-7.93,7.93v.38H11.88v-.37A7.94,7.94,0,0,0,4,42.28H3.58V11.47H4a7.94,7.94,0,0,0,7.93-7.93V3.17H48.12v.38A7.94,7.94,0,0,0,56,11.47h.38Z"/></svg>