<svg id="Layer_1" data-name="Layer 1" xmlns="http://www.w3.org/2000/svg" viewBox="0 0 60 53.75"><defs><style>.cls-1{fill:#86754d;}</style></defs><title>story-button-4</title><path class="cls-1" d="M19.2,31.13a.07.07,0,0,1,0,.06s0,.06,0,.1a.09.09,0,0,0,.06,0s0-.08,0-.12A0,0,0,0,1,19.2,31.13Z"/><path class="cls-1" d="M19.58,29.19c0-.22,0-.3-.12-.32H19.4s0,0,0,.06a.19.19,0,0,1,0,.18c-.06.12-.16.08-.22.06a.07.07,0,0,1,0,0h0a.07.07,0,0,0,0,0v0s0,0,0,.06a.07.07,0,0,0,.06,0A1.07,1.07,0,0,1,19.58,29.19Z"/><path class="cls-1" d="M18.52,27.21s0,.06,0,.12l0,0h0l.34-.06,0,0a.61.61,0,0,0-.22,0A.57.57,0,0,1,18.52,27.21Z"/><path class="cls-1" d="M18.74,28.73s0,0-.06,0h0a.36.36,0,0,1,0,.14,0,0,0,0,0,0,0,.11.11,0,0,0,0-.08S18.74,28.73,18.74,28.73Z"/><path class="cls-1" d="M19.72,31.61a.18.18,0,0,1-.12-.12.13.13,0,0,1,0-.12v-.06a.12.12,0,0,0,0,.1,1.29,1.29,0,0,0,0,.3c0,.08,0,.1,0,.12a.5.5,0,0,0,.08-.12.2.2,0,0,1,.1-.08l0,0Z"/><path class="cls-1" d="M19.94,31.77c0,.1.08.16.24.22s.14,0,.2,0a.55.55,0,0,1-.26-.14Z"/><path class="cls-1" d="M18.36,28.47a.11.11,0,0,1-.12,0c-.06,0-.12,0-.14.08a.21.21,0,0,0,0,.16c0,.06.08.1.24,0s.06,0,.1-.06l-.08-.16Z"/><path class="cls-1" d="M20.32,31.39a0,0,0,0,0,0,0s.06.08.18.08h0v-.06a.32.32,0,0,0-.16-.06A0,0,0,0,0,20.32,31.39Z"/><path class="cls-1" d="M20.12,27.93a.1.1,0,0,0,0-.08s-.06-.08-.1-.12-.1-.08-.12-.14a.32.32,0,0,1-.16.12l-.08,0-.08.08v0a1,1,0,0,1,.22,0C20,27.95,20.06,28,20.12,27.93Z"/><path class="cls-1" d="M19.24,29.87c0,.08,0,.12.1.18h0s0-.06-.06-.1A.29.29,0,0,1,19.24,29.87Z"/><path class="cls-1" d="M15.46,27.77h0a.18.18,0,0,0-.1.06s0,.1-.06.14a.45.45,0,0,1,.22-.1,0,0,0,0,0,0,0s0,0,0,0S15.48,27.79,15.46,27.77Z"/><path class="cls-1" d="M15.68,24.87l0,0L15.6,25s-.06.06-.06.08v0a.07.07,0,0,1,.06,0,.15.15,0,0,1,.08,0,1,1,0,0,0,.24,0h0c0-.08-.06-.18-.1-.18S15.76,24.83,15.68,24.87Z"/><path class="cls-1" d="M16.44,25.81a.54.54,0,0,0-.36.16l-.12.1s0,.06,0,.1a.62.62,0,0,0,.06.12s0,0,.1-.06a.18.18,0,0,1-.08-.16.36.36,0,0,1,.12-.16.22.22,0,0,1,.16,0c.06,0,.06.1.08.14h.08a.15.15,0,0,1,0-.08A.22.22,0,0,1,16.44,25.81Z"/><path class="cls-1" d="M15.14,24.21a.07.07,0,0,0,0,.06s0,0,.1.06Z"/><path class="cls-1" d="M18,27.75a.16.16,0,0,0-.12.1v0h.2v0A.13.13,0,0,0,18,27.75Z"/><path class="cls-1" d="M15.4,27.25c0-.06-.06-.12-.12-.18l0,0a.54.54,0,0,0,.08.32A.15.15,0,0,0,15.4,27.25Z"/><path class="cls-1" d="M17.2,25c.06-.06.08-.1.08-.12l-.08,0Z"/><path class="cls-1" d="M17.82,27.27h0a.07.07,0,0,0,.06,0s0-.08,0-.12a.36.36,0,0,1,0-.2l-.14-.06c-.08,0-.08-.14-.08-.2s0-.06,0-.06-.16.2-.18.28a.28.28,0,0,0,0,.1l.08,0c.08,0,.12,0,.16,0a.18.18,0,0,1,.08.16.32.32,0,0,1,0,.1Z"/><path class="cls-1" d="M17.08,26.41l0,0s0,0,0,0v0s0-.06,0-.08S17.14,26.35,17.08,26.41Z"/><path class="cls-1" d="M17.1,25.27a1,1,0,0,0-.36-.06,1.22,1.22,0,0,1-.58-.16.08.08,0,0,0-.06,0c0,.14.08.2.24.16a.77.77,0,0,1,.2,0,.66.66,0,0,1,.5.2.21.21,0,0,0,.12,0,0,0,0,0,0,0,0s0,0,0-.08Z"/><path class="cls-1" d="M21.16,26.15a.13.13,0,0,0-.14.08h0c.08,0,.1,0,.12,0A.06.06,0,0,0,21.16,26.15Z"/><path class="cls-1" d="M27.16,32.13h0l.32.12-.08-.06C27.32,32.11,27.24,32.07,27.16,32.13Z"/><path class="cls-1" d="M28.2,32.17l0,0,.06,0,0,0a0,0,0,0,0,0,0Z"/><path class="cls-1" d="M27.72,32.29h-.06a.22.22,0,0,1,.12.2.14.14,0,0,0,.08-.12S27.86,32.31,27.72,32.29Z"/><path class="cls-1" d="M26.78,31.89l.06,0,.06-.06a.12.12,0,0,0-.08,0S26.76,31.85,26.78,31.89Z"/><path class="cls-1" d="M27,32.49a.07.07,0,0,0,0,0l.06,0a.08.08,0,0,0,0-.06A.08.08,0,0,0,27,32.49Z"/><path class="cls-1" d="M29.24,33.07,29,32.89A.34.34,0,0,0,29.24,33.07Z"/><path class="cls-1" d="M26.66,32.45a.52.52,0,0,1,.14-.08l.06,0,0-.08A.34.34,0,0,0,26.66,32.45Z"/><path class="cls-1" d="M28.46,32.83a.12.12,0,0,0,0,.08s0,0,.06-.08a.15.15,0,0,1,0-.1v0C28.5,32.69,28.48,32.71,28.46,32.83Z"/><path class="cls-1" d="M29.58,32.09a.46.46,0,0,1-.22-.12s0,0-.06,0h0L29.2,32V32s.08,0,.12,0l.06,0c.14,0,.36.06.36.34v.1h0s0,0,0-.06a.35.35,0,0,1,0-.14C29.82,32.21,29.72,32.17,29.58,32.09Z"/><path class="cls-1" d="M28.78,31.71c0,.06,0,.1,0,.12a.07.07,0,0,0,.06,0h.06a.07.07,0,0,0,0-.06.21.21,0,0,0-.1-.16S28.8,31.65,28.78,31.71Z"/><path class="cls-1" d="M20.92,32.17a.09.09,0,0,0,0-.1.21.21,0,0,0-.1.18A.14.14,0,0,0,20.92,32.17Z"/><path class="cls-1" d="M21.08,30.89l.06,0-.1-.06S21.08,30.87,21.08,30.89Z"/><path class="cls-1" d="M20.7,28.19a.17.17,0,0,0,0,.14v.06s.06,0,.12,0a.15.15,0,0,1,.08-.08l.06-.08a.07.07,0,0,0-.06,0C20.78,28.17,20.72,28.17,20.7,28.19Z"/><path class="cls-1" d="M15,25.43a.21.21,0,0,0,0,.18l.1.06a.86.86,0,0,1-.12-.28Z"/><path class="cls-1" d="M20.7,32.37a.07.07,0,0,0-.06,0c-.06,0-.06.14-.08.2s0,.08,0,.12-.06.26,0,.32h0a.1.1,0,0,1,0-.06c0-.08,0-.18.14-.2a0,0,0,0,1,0,0A.35.35,0,0,1,20.7,32.37Z"/><path class="cls-1" d="M20.76,30.81a.26.26,0,0,1,0,.12s0,0,0,.06v0l0,0C20.8,30.85,20.8,30.81,20.76,30.81Z"/><path class="cls-1" d="M26.64,32.91a.07.07,0,0,1,0,0s.06,0,.06,0v0a.07.07,0,0,0,0,0Z"/><path class="cls-1" d="M21.5,29.21h0a1.13,1.13,0,0,0,0,.52.56.56,0,0,1,0,.18h0a0,0,0,0,1,0,0v-.26a.38.38,0,0,0,0-.26A.38.38,0,0,1,21.5,29.21Z"/><path class="cls-1" d="M21.2,22.43v0l0,.06.06,0a.22.22,0,0,1,.16,0s-.1,0-.18,0Z"/><path class="cls-1" d="M21.14,31.57a.15.15,0,0,1-.08,0h0v.06c0,.1,0,.12.06.14s.08,0,.1-.06S21.2,31.61,21.14,31.57Z"/><path class="cls-1" d="M21.1,24.33v0a0,0,0,0,0,0,0c-.06.08-.14.16-.14.24a.15.15,0,0,0,0,.1.21.21,0,0,0,.16,0,.21.21,0,0,0,.12-.1A.26.26,0,0,1,21.1,24.33Z"/><path class="cls-1" d="M16.2,22s0,0,0-.06l-.06.18v0C16.16,22.13,16.22,22.09,16.2,22Z"/><path class="cls-1" d="M20.3,23.09s0,0,0,0-.08,0-.12.12a.07.07,0,0,1,.06,0C20.3,23.13,20.3,23.13,20.3,23.09Z"/><path class="cls-1" d="M19.64,28.47s0,0,0-.06,0-.12,0-.14a.15.15,0,0,0-.1,0h0a.32.32,0,0,1,.06.16C19.62,28.45,19.62,28.47,19.64,28.47Z"/><path class="cls-1" d="M19.84,27.29h0a0,0,0,0,0,0,0l.08.06S19.86,27.33,19.84,27.29Z"/><path class="cls-1" d="M20.28,26.91a.07.07,0,0,0-.06,0c0,.06,0,.08,0,.1a.12.12,0,0,0,.08,0A.15.15,0,0,0,20.28,26.91Z"/><path class="cls-1" d="M20.34,21.45l0-.1c-.06,0-.08.06-.14.1A.42.42,0,0,0,20.34,21.45Z"/><path class="cls-1" d="M16.92,24.81a.16.16,0,0,1,.08-.08.22.22,0,0,1,0-.22s0,0,0-.06,0,0,0,0a0,0,0,0,0,0,0,.43.43,0,0,0-.2.22s0,.08.06.14S16.92,24.79,16.92,24.81Z"/><path class="cls-1" d="M20.28,31h0l.1,0a.07.07,0,0,0,.06,0s0,0-.08,0S20.3,31,20.28,31Z"/><path class="cls-1" d="M19.18,27.59c0-.06.06-.12,0-.14a.21.21,0,0,0-.12-.06.18.18,0,0,0,0,.14l0,0S19.16,27.59,19.18,27.59Z"/><path class="cls-1" d="M29.84,25.81l.1.06s0-.06-.08-.06Z"/><path class="cls-1" d="M19.14,28.49h0l.1-.08s0,0,0,0h-.08a.07.07,0,0,0-.06,0s0,.06,0,.08Z"/><path class="cls-1" d="M16.58,23.85v0a0,0,0,0,0,0,0l-.06.06a.07.07,0,0,0,.06,0S16.56,23.87,16.58,23.85Z"/><path class="cls-1" d="M20.78,27.81s0,.06.12,0v0c-.06-.06-.08-.06-.12-.06Z"/><path class="cls-1" d="M20.82,21.95s0,0,0,0l.12-.06a.16.16,0,0,0,0-.16l-.12.1C20.84,21.89,20.82,21.93,20.82,21.95Z"/><path class="cls-1" d="M20.74,21.07c0-.06.08-.06.14-.08s0-.1-.06-.1a.16.16,0,0,0-.14.08,2,2,0,0,0-.18.22s0,0,0,0a.17.17,0,0,0,.14,0A.21.21,0,0,0,20.74,21.07Z"/><path class="cls-1" d="M21,23.81l.06,0,.06,0v0a.35.35,0,0,1,0-.14v0A1.17,1.17,0,0,0,21,23.81Z"/><path class="cls-1" d="M21.2,23.11s0,0,0-.08v0s0,0,0,0h0v.1s0,0,0,0Z"/><path class="cls-1" d="M20.5,27.31a.24.24,0,0,1,.26,0,0,0,0,0,0,0,0s0,0,0,0-.08-.14-.16-.14a.29.29,0,0,0-.12,0h0s0,0,0,.06a.48.48,0,0,0,0,.14S20.4,27.35,20.5,27.31Z"/><path class="cls-1" d="M20.52,25.79a0,0,0,0,0,0,0v0a.9.9,0,0,1,0-.1.29.29,0,0,1,0-.12v0h0a.15.15,0,0,0-.12.08.08.08,0,0,0,0,.06C20.42,25.71,20.46,25.79,20.52,25.79Z"/><path class="cls-1" d="M20.62,29.21s-.06,0-.08,0h-.06s-.08,0-.1,0-.12,0-.12.06,0,0,.06,0l0,0c.08,0,.24,0,.26-.06Z"/><path class="cls-1" d="M20.62,22.95s0,.06.06.08v0s0,0,0-.06Z"/><path class="cls-1" d="M20.58,21.65s0,0,0,0l0,0h-.08s-.06,0-.08,0h0a.43.43,0,0,0,0,.22C20.46,21.73,20.54,21.69,20.58,21.65Z"/><path class="cls-1" d="M15.2,20.81a.34.34,0,0,1-.14,0l.12.06S15.2,20.85,15.2,20.81Z"/><path class="cls-1" d="M14.56,31.31a.57.57,0,0,1,0,.18c0,.08-.06.12,0,.16a.31.31,0,0,0,.1-.26v-.06s0,0,0,0,0,0,0,0Z"/><path class="cls-1" d="M14.56,32.09s0,0,0,0,0,0,0,0v0l-.06.06Z"/><path class="cls-1" d="M15.58,23.49l-.12.2-.08-.22-.06.08a0,0,0,0,1,0,0,.56.56,0,0,0,.26.36s0,0,0-.12a.45.45,0,0,1,0-.16A.23.23,0,0,0,15.58,23.49Z"/><path class="cls-1" d="M14.14,26.75c0-.06,0-.1,0-.12A.25.25,0,0,0,14.14,26.75Z"/><path class="cls-1" d="M14.6,24.27a.08.08,0,0,0,0-.06l-.08-.12s0,0,0,0a.34.34,0,0,1-.2-.24.22.22,0,0,0,0,.16C14.26,24,14.54,24.27,14.6,24.27Z"/><path class="cls-1" d="M14.68,32.93a0,0,0,0,1,0,0h0c0,.06.06.08.08.1s.06,0,.08,0,0,0-.06-.06A.07.07,0,0,1,14.68,32.93Z"/><path class="cls-1" d="M14.68,30.13a0,0,0,0,1,0,0v0l.06,0a.07.07,0,0,1,0,0h0a.12.12,0,0,0,.08,0v-.08h0A.12.12,0,0,1,14.68,30.13Z"/><path class="cls-1" d="M14.52,29.51h0a.07.07,0,0,0,0,0s0,0,.06.08a.15.15,0,0,1,0,.08s0,.06,0,.06l0,0a.17.17,0,0,0,0-.14A.43.43,0,0,0,14.52,29.51Z"/><path class="cls-1" d="M14.94,31.83v0s0,0,0-.06v0S14.94,31.79,14.94,31.83Z"/><path class="cls-1" d="M14.52,22.49v-.1l0,0a.26.26,0,0,1,0-.12v-.06l-.08,0h0s-.1,0-.1,0,.1.24.16.26Z"/><path class="cls-1" d="M14.26,28.07v.12a.26.26,0,0,1,0,.12h.12a.15.15,0,0,0,.08,0v0A.45.45,0,0,0,14.26,28.07Z"/><path class="cls-1" d="M14.8,28.95a.1.1,0,0,0,0,.08A.35.35,0,0,0,15,29l.08,0-.1-.06H14.8Z"/><path class="cls-1" d="M15,28l0,0s0,0-.08.06l.08,0S15,28,15,28Z"/><path class="cls-1" d="M14.78,24.73h0s0,.06,0,.1a.44.44,0,0,1,0,.28.16.16,0,0,1,.12.08s0,0,0,.06a1.31,1.31,0,0,1,0-.48A.33.33,0,0,1,14.78,24.73Z"/><path class="cls-1" d="M15.24,23.11a.21.21,0,0,1,.2.08.28.28,0,0,1,0,.24l.16,0a.07.07,0,0,1,0,0,.37.37,0,0,1-.06-.16l0-.06,0-.18-.16.08S15.26,23.11,15.24,23.11Z"/><path class="cls-1" d="M15.24,22.41a.34.34,0,0,1-.26.08.35.35,0,0,0-.24.12.5.5,0,0,0,.38,0A.53.53,0,0,0,15.24,22.41Z"/><path class="cls-1" d="M15.06,30.57s0,0,0,0l-.08.06v0s0,.08,0,.1h0c.06,0,.1,0,.1-.06a.16.16,0,0,0,0-.16A.06.06,0,0,0,15.06,30.57Z"/><path class="cls-1" d="M14.6,21.43a.3.3,0,0,0,.14,0,.91.91,0,0,1,.28.14l0,0s.06,0,.1,0a.28.28,0,0,1,.08.06l.06,0a.22.22,0,0,0,0-.06.16.16,0,0,0,0-.1s0,0-.06,0a.66.66,0,0,1-.62-.24l0,0S14.58,21.43,14.6,21.43Z"/><path class="cls-1" d="M14.6,21.29h0l-.06,0,.06,0Z"/><path class="cls-1" d="M15,23.81c0-.08.06-.18,0-.2s0,0,0,0a.23.23,0,0,1-.12.12c-.06,0-.1.06-.16.08s0,0,0,0a.26.26,0,0,1,0,.12c.06,0,.1,0,.18-.08A.51.51,0,0,1,15,23.81Z"/><path class="cls-1" d="M15.78,22.47s0,0,0,.06,0,0,0,0,0-.1,0-.14l-.06,0a1,1,0,0,0-.24,0l.18.16Z"/><path class="cls-1" d="M42.67,26.31l0,0a.07.07,0,0,0,0,.06h0s0,0,.08,0S42.67,26.31,42.67,26.31Z"/><path class="cls-1" d="M42.11,26v0c0,.08.08.1.12.1v0h0l0,0A.14.14,0,0,0,42.11,26Z"/><path class="cls-1" d="M43.59,26.37v0l0,0v0a0,0,0,0,0,0,0h-.1l0,0A.07.07,0,0,1,43.59,26.37Z"/><path class="cls-1" d="M40.59,24.71c0,.06.08.16.1.16l.08,0a.59.59,0,0,1,.34.14,1,1,0,0,0,.22.1l0,0a1.6,1.6,0,0,0-.8-.4A.07.07,0,0,1,40.59,24.71Z"/><path class="cls-1" d="M41.61,25.19l0,0a.32.32,0,0,0-.14-.06l0,0s.08.08.12.08A0,0,0,0,0,41.61,25.19Z"/><path class="cls-1" d="M41.59,26.17h0v0a.15.15,0,0,0,.16.12c.06,0,.06,0,.08,0A.21.21,0,0,0,41.59,26.17Z"/><path class="cls-1" d="M29.5,22.21c.08,0,.14.06.18,0s.14-.12.2-.22v0a.47.47,0,0,1-.4.12h0a.07.07,0,0,1,0,0Z"/><path class="cls-1" d="M44.37,26a.17.17,0,0,0-.12,0,.15.15,0,0,0,0,.1.35.35,0,0,0,.12.26.88.88,0,0,1,.18-.2.16.16,0,0,0,.08-.08.34.34,0,0,0-.2-.12Z"/><path class="cls-1" d="M44.75,27.31l-.06,0s0,0,0,0h.08v0s0,0,0-.06S44.75,27.29,44.75,27.31Z"/><path class="cls-1" d="M44.27,27.27v0s0,0,.1.06h.08a.1.1,0,0,1-.08,0Z"/><path class="cls-1" d="M40.51,26.09a.07.07,0,0,0,0,0h0v.08a.35.35,0,0,1,0,.14v0c0,.06,0,.08,0,.12s0-.12.1-.2,0-.06,0-.06,0,0-.06-.06Z"/><path class="cls-1" d="M40.21,22a.24.24,0,0,0,.06.12s0,0,0,0S40.23,22,40.21,22Z"/><path class="cls-1" d="M40.31,21.47a.89.89,0,0,1-.12.14C40.25,21.61,40.29,21.57,40.31,21.47Z"/><path class="cls-1" d="M40.11,23.31a.35.35,0,0,1,0,.14v.08l.12-.14Z"/><path class="cls-1" d="M40.95,25.41h0l-.16-.06A.17.17,0,0,0,40.95,25.41Z"/><path class="cls-1" d="M40.31,22.87a.6.6,0,0,1,0,.16.25.25,0,0,0,.1-.1,1.07,1.07,0,0,1,.24-.18,1.28,1.28,0,0,1-.08-.16.72.72,0,0,1-.1-.16.07.07,0,0,0,0,0,.39.39,0,0,1-.06.32A.38.38,0,0,0,40.31,22.87Z"/><path class="cls-1" d="M40.37,23.55a.61.61,0,0,0,.36.66.1.1,0,0,1,.08,0,0,0,0,0,0,0,0v0c.12-.08.12-.1.08-.16l0,0a.57.57,0,0,1-.08-.16.18.18,0,0,1-.1,0s-.1,0-.14,0,0-.14,0-.18,0-.16,0-.16,0,0-.14,0A.29.29,0,0,1,40.37,23.55Z"/><path class="cls-1" d="M40.43,24.63c-.1,0-.1-.12-.1-.16a.15.15,0,0,0,0,.08l0,0s0,.08,0,.14v0a.1.1,0,0,1,0,.08s0,.06-.06.1-.06.1-.12.1A.1.1,0,0,1,40,25h0c-.1.08-.12.1-.08.14a.25.25,0,0,0,.06.08.31.31,0,0,0,.18-.06C40.37,25,40.51,24.85,40.43,24.63Z"/><path class="cls-1" d="M40.73,26.51s-.06,0-.1,0a.46.46,0,0,1,.24.12s0,0,0,0a.13.13,0,0,0,0-.12S40.83,26.49,40.73,26.51Z"/><path class="cls-1" d="M40.85,25.77v0a.16.16,0,0,1,0,.08s0,0,0,.08l.06,0s0,0,0,0a.07.07,0,0,1,0-.06s0,0,0-.06a.15.15,0,0,0-.12-.06Z"/><path class="cls-1" d="M46.83,23.23s.06,0,.1-.06,0,0,0-.06a.38.38,0,0,1-.14,0h-.06v0A.09.09,0,0,0,46.83,23.23Z"/><path class="cls-1" d="M47.13,21.25h0a.25.25,0,0,1-.14.2h0l.08,0a.15.15,0,0,0,.1,0v-.06s0,0,0,0S47.13,21.27,47.13,21.25Z"/><path class="cls-1" d="M46.27,32.07a0,0,0,0,0,0,0,.09.09,0,0,0,.1.1h0C46.37,32.11,46.31,32.07,46.27,32.07Z"/><path class="cls-1" d="M46.47,32.51a0,0,0,0,0,0,0,1.67,1.67,0,0,0,.32.18l0,0C46.75,32.57,46.65,32.51,46.47,32.51Z"/><path class="cls-1" d="M46.49,29.63s-.08,0-.14.06v0c.06,0,.08,0,.14-.06Z"/><path class="cls-1" d="M46.17,27.37l-.28-.24v0s-.06.06-.06.08,0,.14.2.14h.14Z"/><path class="cls-1" d="M46.09,31.41v0a.11.11,0,0,0,.12.08A.26.26,0,0,0,46.09,31.41Z"/><path class="cls-1" d="M46.19,29.21a.07.07,0,0,0-.08.06.07.07,0,0,0,.1,0h0Z"/><path class="cls-1" d="M41,23.73s0-.14,0-.22L41,23.45c-.08.12-.14.2-.08.32S41,23.75,41,23.73Z"/><path class="cls-1" d="M46.87,28.93s0,0,0,.06,0-.06,0-.1a.12.12,0,0,1,0-.08h0S46.87,28.85,46.87,28.93Z"/><path class="cls-1" d="M46.78,4.7H13.22a8.4,8.4,0,0,1-8,8V41a8.4,8.4,0,0,1,8,8H46.78a8.4,8.4,0,0,1,8-8V12.71A8.4,8.4,0,0,1,46.78,4.7ZM22.62,33.19a.86.86,0,0,1,.1.32.34.34,0,0,1,0,.32.39.39,0,0,1-.28.1H19.74c-.34,0-.48-.24-.58-.48-.18-.4-.36-.82-.52-1.24s-.34-.8-.52-1.2l-1.68-3.84,0-.1L16.36,27s0,.08,0,.14v5.08a1.52,1.52,0,0,0,.2.78,1.9,1.9,0,0,1,.18.34.36.36,0,0,1-.36.56h-3c-.24,0-.34-.1-.38-.18a.35.35,0,0,1,.06-.4,3.7,3.7,0,0,0,.36-2V21.81A3.21,3.21,0,0,0,13,20.33c-.08-.2-.14-.36-.08-.46s.24-.12.46-.14h.86c.46,0,1,0,1.44,0a.82.82,0,0,1,.88.58c.36.88.74,1.8,1.12,2.68l.42,1,.44,1c.22.48.42,1,.62,1.46a.07.07,0,0,1,0,.06.22.22,0,0,0,0,.08s0,0,0,0a.09.09,0,0,0,0-.1V23.25c0-.44,0-.9,0-1.36a3,3,0,0,0-.3-1.54c-.12-.22-.14-.36-.08-.46s.26-.16.42-.16h2.9q.39,0,.48.18c.06.1,0,.24-.1.44a2.61,2.61,0,0,0-.3,1.5V31.93A2,2,0,0,0,22.62,33.19Zm8.22-.24v.54c0,.38-.26.44-.54.44H25.22c-.5,0-.58-.08-.58-.58s0-1.18,0-1.88c0-.5.12-.6.58-.62,1.62,0,3.3,0,5,0,.48,0,.62.12.62.58S30.86,32.45,30.84,32.95Zm.7-10.84a3.8,3.8,0,0,1,0,.46v3.62A1.5,1.5,0,0,1,31,27.37l0,0a2.16,2.16,0,0,1-2.22.92H27.9c-.66,0-1.32,0-2,0h0A1,1,0,0,1,25.1,28l0,0a3.63,3.63,0,0,0-.58-.52,1.63,1.63,0,0,1-.6-1.54c0-1.38.06-2.56,0-3.74a1.81,1.81,0,0,1,.64-1.66.16.16,0,0,0,.08-.08,2.15,2.15,0,0,1,1.82-.72c.84.06,1.72,0,2.56,0a5.57,5.57,0,0,1,.56,0,1.29,1.29,0,0,1,.92.32l.26.26C31.58,21.11,31.58,21.13,31.54,22.11Zm16.51.1v.34c0,3.06,0,6.22,0,9.42a2.67,2.67,0,0,0,.28,1.32c.14.26.16.4.1.52s-.2.14-.5.14-.82,0-1.2,0l-1.64,0c-.26,0-.4-.06-.46-.16s0-.26.1-.46a2.57,2.57,0,0,0,.3-1.46V28.61c0-.58,0-.58-.62-.58h-1c-.74,0-1.5,0-2.24,0A1.39,1.39,0,0,1,40,27.55l0,0a1,1,0,0,0-.26-.24A1.72,1.72,0,0,1,39,25.59c0-.36,0-.72,0-1.06v-.44c0-.38,0-.76,0-1.14a8.11,8.11,0,0,1,.06-1.4,1.81,1.81,0,0,0-.2-1l-.06-.14-.12-.3c-.06-.16-.06-.26,0-.34s.16-.14.34-.14c.36,0,.72,0,1.08,0,.66,0,1.32,0,2,0,.12,0,.28,0,.34.12s0,.2-.06.34A3.89,3.89,0,0,0,42,22.43v2c0,.46.06.5.52.5a8.47,8.47,0,0,0,1,0c.38,0,.76,0,1.14,0,.12,0,.2,0,.24-.06a.38.38,0,0,0,.06-.24v-3.5a1.51,1.51,0,0,0-.26-.76l0-.12c-.12-.24-.16-.36-.1-.46s.22-.16.5-.16c1.14,0,2.08,0,3,0,.2,0,.34,0,.4.1s0,.2,0,.4a.07.07,0,0,1,0,.06A3.16,3.16,0,0,0,48,22.21Z"/><path class="cls-1" d="M46.85,24.71v0s0,0,0,.06.12.1.18.08l0-.06c0-.06-.08-.14-.12-.16A.19.19,0,0,0,46.85,24.71Z"/><path class="cls-1" d="M46.59,21s-.06,0-.08.1l0,0S46.55,21,46.59,21Z"/><path class="cls-1" d="M46.69,22.07c0,.06,0,.06,0,.06s0,0,0-.08a.18.18,0,0,0-.1-.16s0,0,0,.06A.27.27,0,0,1,46.69,22.07Z"/><path class="cls-1" d="M46.53,26.19a2.21,2.21,0,0,0,.36.06C46.73,26.07,46.69,26,46.53,26.19Z"/><path class="cls-1" d="M46.61,27.93s0,0,0,0,0,0,.06,0,.06,0,.06,0,0,0,0-.06,0-.08,0-.08S46.63,27.83,46.61,27.93Z"/><path class="cls-1" d="M46.45,23.69a.31.31,0,0,0,0-.12s0,0,0,0a.16.16,0,0,0-.06.14.14.14,0,0,0,0,.08S46.45,23.71,46.45,23.69Z"/><path class="cls-1" d="M45.15,26.81l-.06.08s.08,0,.12-.12h0A0,0,0,0,0,45.15,26.81Z"/><path class="cls-1" d="M46.31,28.47a.07.07,0,0,0,0,0h0v-.1h0a0,0,0,0,1,0,0Z"/><path class="cls-1" d="M46,26.77l0,0a.32.32,0,0,1,.2,0l.06-.14a.36.36,0,0,0,0-.24.89.89,0,0,1-.38.34,0,0,0,0,0,0,0h0C46,26.77,46,26.77,46,26.77Z"/><path class="cls-1" d="M46.29,22.69h0l-.06-.08.06,0s0,0,0,0a.15.15,0,0,1,0-.1s0-.06,0-.06l-.06.16s0,.06,0,.08S46.25,22.69,46.29,22.69Z"/><path class="cls-1" d="M46.21,25l.08.08h0s.06,0,.08,0l0,0,0,0s0,0,0,0l0,.06c0,.1,0,.12.06.12a0,0,0,0,0,0,0s0,0,0-.06-.06-.16,0-.22,0-.1-.12-.08a.15.15,0,0,1-.1,0Z"/><path class="cls-1" d="M43.75,26.81a.29.29,0,0,1-.22,0s-.12-.06-.12-.14v0s-.06.1-.08.18a.07.07,0,0,1,0,.06l.1.06.28.14.1,0a1.12,1.12,0,0,1,0-.14.16.16,0,0,1,0-.14Z"/><path class="cls-1" d="M25.94,20.95H26s.14,0,.14,0v0h0s-.08,0-.12,0h-.06s-.06,0-.06,0v0h.08Z"/><path class="cls-1" d="M25.9,21.83l.06.06c.06.08.08.1.12.06l0-.08s0,0,0,0A.09.09,0,0,0,25.9,21.83Z"/><path class="cls-1" d="M27.06,20.55l0,0,0,0a.08.08,0,0,0-.08,0v0C27,20.59,27.06,20.57,27.06,20.55Z"/><path class="cls-1" d="M27.06,21.57l.08,0a.1.1,0,0,1,0-.08s0-.06,0-.06a.4.4,0,0,0-.1,0h0c-.12,0-.2,0-.22.1a.2.2,0,0,1,.08.1Z"/><path class="cls-1" d="M25.8,23.79s.06,0,.06-.08,0-.08,0-.12h0s0,0,0,0,0,.14,0,.16Z"/><path class="cls-1" d="M25.34,21.75a0,0,0,0,1,0,0c-.12,0-.18.06-.2.16a.4.4,0,0,0,.24-.16A0,0,0,0,0,25.34,21.75Z"/><path class="cls-1" d="M27,23.13v1.2c0,.48,0,.72.08.82s.26.08.58.08l.18,0,.34,0c.22,0,.32-.1.32-.3s0-.42,0-.62v-.58c0-.22,0-.44,0-.66a.35.35,0,0,0-.06-.24.24.24,0,0,0-.24-.06h-.84a.3.3,0,0,0-.28.06A.41.41,0,0,0,27,23.13Z"/><path class="cls-1" d="M25.24,21.27c.06,0,.08,0,.08,0a0,0,0,0,0,0,0v-.06h-.16a0,0,0,0,0,0,0S25.2,21.25,25.24,21.27Z"/><path class="cls-1" d="M25.22,23.71c-.06,0-.08.1-.06.16a.26.26,0,0,0,0,.12l0,.2c.08-.06.1-.16.06-.32a.22.22,0,0,1,0-.1v-.06Z"/><path class="cls-1" d="M25.22,22.45a.15.15,0,0,0,0,.08s0,0,.08,0a.35.35,0,0,0,.22,0v-.06l0,0a.22.22,0,0,1-.22,0S25.24,22.47,25.22,22.45Z"/><path class="cls-1" d="M24.8,23.75s0,0,0,.06,0,0,0,.06.06,0,.06,0,0-.06,0-.08Z"/><path class="cls-1" d="M29.3,25.67a.37.37,0,0,0,.2-.1.26.26,0,0,0,0-.18v0a.15.15,0,0,1,0-.08l-.24.36S29.26,25.67,29.3,25.67Z"/><path class="cls-1" d="M29.24,22.67s.06,0,.1-.06.16-.18.1-.28-.08,0-.12.1a.36.36,0,0,0-.1.08s0,0-.06,0-.06,0-.06,0l0,0A.17.17,0,0,0,29.24,22.67Z"/><path class="cls-1" d="M28.3,26c0,.14,0,.24,0,.3a.46.46,0,0,0,.16.06v-.12c0-.14,0-.32.24-.38,0,0,0,0,0,0a.38.38,0,0,1-.16,0C28.42,25.85,28.34,25.87,28.3,26Z"/><path class="cls-1" d="M29.6,24.59s0-.06,0-.12-.08-.06-.18,0h0a.08.08,0,0,0-.12,0h.1l.12.06.08,0Z"/><path class="cls-1" d="M27.92,21.57s0,.1,0,.12,0,0,.14,0a.15.15,0,0,1,.1,0v0s-.1-.06-.16-.08Z"/><path class="cls-1" d="M27.54,21.15v0l0,0v.08l0,0A.88.88,0,0,0,27.54,21.15Z"/><path class="cls-1" d="M28.36,21.73a.06.06,0,0,1,0,0c.06,0,.1-.1.16-.14v0h0S28.4,21.67,28.36,21.73Z"/><path class="cls-1" d="M28,20.67c0-.16-.16-.16-.34-.12l-.1,0a.06.06,0,0,0,0,0C27.74,20.71,27.86,20.79,28,20.67Z"/><path class="cls-1" d="M28.1,21.21s.1-.08.14-.16l.12-.14a.22.22,0,0,1,.12,0,.08.08,0,0,1,.06,0v0s0,0-.06,0a.22.22,0,0,1-.2,0c0,.08-.1.14-.16.2l-.12.12Z"/><path class="cls-1" d="M30.16,21.57s0,0,0-.06v0l-.08.08Z"/><path class="cls-1" d="M28.58,27.31l0,0a.43.43,0,0,0,.24.2.32.32,0,0,0,.18-.12h-.1A.54.54,0,0,1,28.58,27.31Z"/><path class="cls-1" d="M27.9,27c-.18-.16-.32-.24-.5-.1s-.08,0-.12,0a.45.45,0,0,0,.1.08h.18a.59.59,0,0,1,.34.12v0s.08,0,.08,0l0,0Z"/><path class="cls-1" d="M28.36,26.83l-.06-.06-.14-.12h0a0,0,0,0,0,0,0c0-.06,0-.08-.06-.08h0a.07.07,0,0,0-.06,0,0,0,0,0,0,0,0l0,0a0,0,0,0,1,0,0l.2.26.14.18a.24.24,0,0,1,.08-.16l-.14-.14Z"/><path class="cls-1" d="M27.34,26.13a.6.6,0,0,1-.18,0,.07.07,0,0,1-.06,0s-.06,0-.06,0v0s.06,0,.08,0l0,0a.15.15,0,0,0,.08,0C27.3,26.17,27.34,26.17,27.34,26.13Z"/><path class="cls-1" d="M26.88,27.07c0,.06,0,.12,0,.16s0,0,.1,0h0a1.15,1.15,0,0,1-.08-.1A.17.17,0,0,0,26.88,27.07Z"/><path class="cls-1" d="M30.36,22.25v0s0,.06,0,.08v.06a.17.17,0,0,0,.12-.06.43.43,0,0,1,.1-.08l-.18-.16S30.36,22.19,30.36,22.25Z"/><path class="cls-1" d="M29.88,26.37l-.14,0-.08,0a.15.15,0,0,0,0,.06c0,.1.12.14.26.18l.06,0s.06,0,.08-.1a.07.07,0,0,0,0,0C30.06,26.39,30,26.37,29.88,26.37Z"/><path class="cls-1" d="M28.94,21.25l.08.14c0-.06,0-.1,0-.12s0,0-.06,0Z"/><path class="cls-1" d="M26.64,21.59v0l.06.1-.1,0,0,0,0,0c-.08,0-.12.06-.1.08s.06,0,.08,0l.1,0c.08,0,.1,0,.16-.1a.11.11,0,0,1,0-.08Z"/><path class="cls-1" d="M29.6,27a0,0,0,0,1,0,0l-.06,0-.16,0a.2.2,0,0,1-.14-.08l0,0s0,0,0,0-.1.14-.08.2,0,0,0,.06a.64.64,0,0,1,.52-.14.55.55,0,0,0,.18,0h-.06Z"/><path class="cls-1" d="M25.38,24.61,25,24.47a.35.35,0,0,1-.12.16.6.6,0,0,0,.38.08C25.36,24.71,25.36,24.71,25.38,24.61Z"/><path class="cls-1" d="M26,25.93l.1-.06,0-.08s-.06-.06-.08-.06,0,0-.06,0a.53.53,0,0,1-.58.2l.12.26a1.74,1.74,0,0,1,.36-.22Z"/><path class="cls-1" d="M25.18,26.41h0c-.1,0-.1,0-.1,0s0,.06.12.08a.13.13,0,0,1,.1-.08l.06,0s0,0,0-.08h-.18Z"/><path class="cls-1" d="M25.16,25.81a2.11,2.11,0,0,0,.1-.26,0,0,0,0,0,0,0s-.08-.1-.12-.1-.1.12-.1.26v.06s0,.06.14.06Z"/><path class="cls-1" d="M25.8,27.07a.35.35,0,0,0,.08.2s0,0,0-.06.12-.1.18-.14.08,0,.1-.06a.72.72,0,0,0-.28.06S25.82,27.07,25.8,27.07Z"/><path class="cls-1" d="M26.52,26.19a.43.43,0,0,0-.08.54l.06-.16a.62.62,0,0,1,.14-.36v0h-.12Z"/><path class="cls-1" d="M26.1,25.15s-.1,0-.14,0a.07.07,0,0,0,0,0v0c0,.08.1.14.2.16h0a.47.47,0,0,0,.06-.14.08.08,0,0,0,0-.06Z"/><path class="cls-1" d="M26.5,22.47s0,0-.06-.06a0,0,0,0,0,0,0s0,0,0,0a.07.07,0,0,1,0,0,.08.08,0,0,0,.06,0S26.48,22.49,26.5,22.47Z"/><path class="cls-1" d="M26.4,21.39s.06.06.08.06a.3.3,0,0,0,0-.14.1.1,0,0,0,0-.08h0a.07.07,0,0,0-.06,0l0,0s0,0,.06.08A.07.07,0,0,1,26.4,21.39Z"/><path class="cls-1" d="M50.43,0H9.57A9.57,9.57,0,0,1,0,9.57V44.18a9.57,9.57,0,0,1,9.57,9.57H50.43A9.57,9.57,0,0,1,60,44.18V9.57A9.57,9.57,0,0,1,50.43,0Zm6,42.28H56a7.94,7.94,0,0,0-7.93,7.93v.38H11.88v-.37A7.94,7.94,0,0,0,4,42.28H3.58V11.47H4a7.94,7.94,0,0,0,7.93-7.93V3.17H48.12v.38A7.94,7.94,0,0,0,56,11.47h.38Z"/></svg>