<svg id="Layer_1" data-name="Layer 1" xmlns="http://www.w3.org/2000/svg" viewBox="0 0 60 53.75"><defs><style>.cls-1{fill:#86754d;}</style></defs><title>story-button-1992</title><path class="cls-1" d="M23.51,30.55h.24A.3.3,0,0,0,23.51,30.55Z"/><path class="cls-1" d="M24.17,31h0a.34.34,0,0,0,0,.1s0,.06,0,.07h0a.49.49,0,0,0,.18-.14l0,0Z"/><path class="cls-1" d="M23.29,30.68a.39.39,0,0,0-.14,0l.11.1,0,0,0,0s0-.06,0-.07A.2.2,0,0,1,23.29,30.68Z"/><path class="cls-1" d="M23.26,30.37h0a1,1,0,0,0-.15,0h0s0,0,0,0v0s.06,0,.08,0Z"/><path class="cls-1" d="M24.57,25.42a3.5,3.5,0,0,1,0-.85c0-.17,0-.34,0-.49a.23.23,0,0,0-.27-.27H22.76a.24.24,0,0,0-.27.24V25.4a.25.25,0,0,0,.06.2.29.29,0,0,0,.21.06,2.89,2.89,0,0,1,.5,0h.46a3.94,3.94,0,0,1,.59,0,.28.28,0,0,0,.22-.08A.17.17,0,0,0,24.57,25.42Z"/><path class="cls-1" d="M25.07,30.35h.14s0,0,0,0S25.08,30.33,25.07,30.35Z"/><path class="cls-1" d="M24.71,30.83c0,.06,0,.08.07.07s0,0,0-.08Z"/><path class="cls-1" d="M24.93,27.52a.08.08,0,0,0,0,.06h0s.07,0,.1-.11.06-.14.11-.15.08,0,.15.06l0,0a.07.07,0,0,0,0-.06c0-.08,0-.1-.1-.1s0,0-.06,0a.44.44,0,0,0-.22.08l-.06,0h0s0,0,0,0A.13.13,0,0,1,24.93,27.52Z"/><path class="cls-1" d="M24.17,30.51h0l-.1,0a.4.4,0,0,1,.18.13.1.1,0,0,0,.08.06,0,0,0,0,1,0,0,.18.18,0,0,1-.14-.22Z"/><path class="cls-1" d="M24.65,22.61a.11.11,0,0,1,0-.18.05.05,0,0,0,0,0,0,0,0,0,0,0,0h-.06a.07.07,0,0,0,0,.06.24.24,0,0,1-.17.13v0s0,.1-.06.13a.1.1,0,0,1-.11,0c-.06,0-.07-.08-.07-.14v-.08s0,0,0,0a.07.07,0,0,0-.06,0s.07.08.06.13-.07.1-.13.13l-.08,0a.09.09,0,0,0,0,.1h0a.4.4,0,0,1,.28-.07c.13,0,.22,0,.27-.13a.06.06,0,0,1,.06,0s.07,0,.1,0,0,0,0,0,.07,0,.08,0,0,0,0-.1S24.65,22.62,24.65,22.61Z"/><path class="cls-1" d="M24.29,30.3a.2.2,0,0,0,0,.08s.07,0,.1,0a.22.22,0,0,1,.06.18.05.05,0,0,0,0,0h0l.11,0a.53.53,0,0,0-.18-.34C24.34,30.3,24.31,30.28,24.29,30.3Z"/><path class="cls-1" d="M22.73,30.51v0c0,.07,0,.1.1.11h0v0C22.84,30.54,22.8,30.52,22.73,30.51Z"/><path class="cls-1" d="M23.08,22.93c0,.06,0,.11,0,.17a0,0,0,0,0,0,0h0a.12.12,0,0,1,0-.08.12.12,0,0,1,0-.08l0,0c0-.07,0-.1-.06-.1h0a.6.6,0,0,1,0,.07A.19.19,0,0,1,23.08,22.93Z"/><path class="cls-1" d="M23.54,22.9v0h-.07A.06.06,0,0,0,23.54,22.9Z"/><path class="cls-1" d="M23.29,23s0,0,0-.07V23S23.29,23,23.29,23Z"/><path class="cls-1" d="M24.93,30l.07,0,.07,0h0a.5.5,0,0,1,.11-.13.71.71,0,0,1-.14,0s-.11,0-.14.06S24.92,30,24.93,30Z"/><path class="cls-1" d="M25.06,29.4h0c0,.08-.06.15,0,.21a.1.1,0,0,0,.06-.08A.14.14,0,0,0,25.06,29.4Z"/><path class="cls-1" d="M23.19,26.88a.18.18,0,0,0-.11,0,0,0,0,0,0,0,.06V27l.08,0c.07,0,.08-.06.08-.1h-.06Z"/><path class="cls-1" d="M23.56,27s0,0,0,0a.05.05,0,0,1,0,0s0,0,.07,0l.06,0s0,0,0,0L23.57,27A.62.62,0,0,1,23.56,27Z"/><path class="cls-1" d="M23.79,26.52h0s0,.06,0,.08a1.45,1.45,0,0,0,0,.27h0a.58.58,0,0,1,.15-.21.13.13,0,0,0,0-.07.05.05,0,0,0,0,0A.3.3,0,0,0,23.79,26.52Z"/><path class="cls-1" d="M24.33,26.49h0a.08.08,0,0,0-.06,0c0,.06.06.08.08.08h0s0,0,0,0a.05.05,0,0,0,0,0S24.36,26.49,24.33,26.49Z"/><path class="cls-1" d="M22.49,26.63s0,0,0,0l.07,0c.1,0,.17,0,.2-.14h0C22.59,26.5,22.52,26.53,22.49,26.63Z"/><path class="cls-1" d="M25,30.77l-.06-.08h0s0,0,0,.08a.52.52,0,0,0,.17.14s0,0,0,0h0A.45.45,0,0,1,25,30.77Z"/><path class="cls-1" d="M29.45,25.62h-.07s0,0,0,.07,0,0,0,0l0,0a.11.11,0,0,0,0,0S29.51,25.66,29.45,25.62Z"/><path class="cls-1" d="M29.33,25.91v0s0,0,0,0a.11.11,0,0,1,0-.06s0,0,0,0A.09.09,0,0,0,29.33,25.91Z"/><path class="cls-1" d="M29.66,22.93c-.08.07-.13.1-.1.2h0a.25.25,0,0,0,.08-.08A.33.33,0,0,0,29.66,22.93Z"/><path class="cls-1" d="M25.15,27.92h0a0,0,0,0,1,0,0l.07.07,0-.07A0,0,0,0,1,25.15,27.92Z"/><path class="cls-1" d="M29.92,24.58H30s0-.08,0-.13v0h-.06a.16.16,0,0,1-.18,0v.07s.08.06.2.06Z"/><path class="cls-1" d="M30.14,25.73h0a.12.12,0,0,0-.08,0h0l0,0s.06,0,.13,0Z"/><path class="cls-1" d="M30.35,26l.06,0-.15-.06s0,0,0,0a0,0,0,0,0,0,0C30.31,26.05,30.31,26.05,30.35,26Z"/><path class="cls-1" d="M30.17,26.46h0a.39.39,0,0,0,0,.22h.06v-.08s0,0,0-.07a0,0,0,0,0,0,0h-.06Z"/><path class="cls-1" d="M30,25a.15.15,0,0,0-.11,0h-.08a.29.29,0,0,0-.17.1L30,25S30,25,30,25Z"/><path class="cls-1" d="M29.86,26.38s0,.06,0,.1h0a.11.11,0,0,0,0-.07v-.06h0A0,0,0,0,0,29.86,26.38Z"/><path class="cls-1" d="M29.76,23.78h0c0,.08.06.1.08.1a0,0,0,0,1,0,0h0s0,0-.07-.06S29.76,23.8,29.76,23.78Z"/><path class="cls-1" d="M29.23,24.61s0,0,0,0,.06,0,.06,0,0,0,0,0S29.23,24.6,29.23,24.61Z"/><path class="cls-1" d="M25.49,29.58c0,.08,0,.15,0,.22a1.11,1.11,0,0,1,.07-.14.14.14,0,0,0,0-.08l0,0Z"/><path class="cls-1" d="M25.43,24.46h0s0,0-.08.08l0,0a.15.15,0,0,0,0,.1s.06,0,.08.06l.06,0v-.13a.15.15,0,0,1,0-.1C25.46,24.47,25.46,24.47,25.43,24.46Z"/><path class="cls-1" d="M25.55,26.64s0,0,0,0,0,.07-.07.08h0s0,0,.07-.07A.11.11,0,0,0,25.55,26.64Z"/><path class="cls-1" d="M25.27,30.68s0,0,0,0,.06,0,.1,0l.07,0h0C25.34,30.61,25.29,30.63,25.27,30.68Z"/><path class="cls-1" d="M25.34,28.6a.22.22,0,0,1-.07-.11h0l0,0s0,0,0,0,0,0,0,0S25.29,28.6,25.34,28.6Z"/><path class="cls-1" d="M29.79,23.49s0-.06-.07-.07h0s0,0,.06,0S29.79,23.49,29.79,23.49Z"/><path class="cls-1" d="M26,24.86s-.08,0-.11-.07h0a.1.1,0,0,0,0,.07.21.21,0,0,0,.1.06.12.12,0,0,0,.07,0s0,0,0,0S26.06,24.88,26,24.86Z"/><path class="cls-1" d="M25.73,30.59l0,0h0s0,0,0-.06a0,0,0,0,0,0,0H25.8S25.74,30.56,25.73,30.59Z"/><path class="cls-1" d="M25.77,27.47h0Z"/><path class="cls-1" d="M25.62,28.25a.28.28,0,0,0,0,.11.08.08,0,0,0,.06,0,.23.23,0,0,0,0-.07A0,0,0,0,0,25.62,28.25Z"/><path class="cls-1" d="M21,24.61s0,0,0,0,.06,0,.06,0,0,0,0,0S21,24.6,21,24.61Z"/><path class="cls-1" d="M21.51,23.49s0-.06-.07-.07h0s0,0,.06,0A0,0,0,0,0,21.51,23.49Z"/><path class="cls-1" d="M21.48,23.78h0c0,.08.06.1.08.1a0,0,0,0,1,0,0h0s0,0-.07-.06S21.48,23.8,21.48,23.78Z"/><path class="cls-1" d="M17.53,26h0a.06.06,0,0,0-.06.06s0,0,0,0h0s.06,0,.06,0S17.53,26,17.53,26Z"/><path class="cls-1" d="M17.35,23v0l.07.06A.11.11,0,0,0,17.35,23Z"/><path class="cls-1" d="M17.52,23.78a.06.06,0,0,0,0,0,.22.22,0,0,0,0-.1.11.11,0,0,0-.07,0h0a.08.08,0,0,1,0,.1c0,.06,0,.07.06.07S17.52,23.8,17.52,23.78Z"/><path class="cls-1" d="M21.64,24.58h.06s0-.08,0-.13v0H21.6a.16.16,0,0,1-.18,0v.07s.08.06.2.06Z"/><path class="cls-1" d="M17.25,26.54h0l0,0h0a.09.09,0,0,1,0,.08.11.11,0,0,1-.18,0h0a.05.05,0,0,0,0,0,.05.05,0,0,0,0,0,.29.29,0,0,0,.24,0,.21.21,0,0,0,.13-.18s0,0,0,0Z"/><path class="cls-1" d="M21.39,22.93c-.08.07-.13.1-.1.2h0A.23.23,0,0,0,21.4,23,.36.36,0,0,0,21.39,22.93Z"/><path class="cls-1" d="M21.18,25.62h-.07s0,0,0,.07,0,0,0,0l0,0a.11.11,0,0,0,0,0S21.23,25.66,21.18,25.62Z"/><path class="cls-1" d="M21,25.91v0s0,0,0,0a.1.1,0,0,1,0-.06s0,0,0,0A.09.09,0,0,0,21,25.91Z"/><path class="cls-1" d="M30.31,26.78a.1.1,0,0,1,0,.11c0,.07,0,.07,0,.07a0,0,0,0,0,0,0s0-.06,0-.13A.07.07,0,0,0,30.31,26.78Z"/><path class="cls-1" d="M17.1,23.85a0,0,0,0,0,0,0h0s0,0,0,0v-.08s0,0,0,0a.11.11,0,0,1,0,.07Z"/><path class="cls-1" d="M17.24,27.52v0c0,.06,0,.06,0,.06s0,0,0,0v-.06s0-.06,0-.08v0h0A.17.17,0,0,0,17.24,27.52Z"/><path class="cls-1" d="M17,24.54c-.06.06-.1.08-.1.15s0,0,0,0H17c.11,0,.15-.07.14-.18s0,0,0,0A.21.21,0,0,1,17,24.54Z"/><path class="cls-1" d="M17.28,25.86h0v0a.12.12,0,0,1,0-.07v-.07s0,0,0,0h0s-.08.06-.08.11,0,0,0,0A.08.08,0,0,0,17.28,25.86Z"/><path class="cls-1" d="M16.92,28.69s-.06,0-.08,0l0-.06s0,0,0,0h0s0,.07,0,.08a.12.12,0,0,0,.08,0Z"/><path class="cls-1" d="M21.71,25a.15.15,0,0,0-.11,0h-.08a.29.29,0,0,0-.17.1l.38-.07A0,0,0,0,0,21.71,25Z"/><path class="cls-1" d="M17,25.33a.1.1,0,0,0-.07,0H17Z"/><path class="cls-1" d="M16.92,29.14h0a.19.19,0,0,0,.11-.22L17,29A.2.2,0,0,0,16.92,29.14Z"/><path class="cls-1" d="M25.24,23.13A.3.3,0,0,1,25,23a.47.47,0,0,0-.07-.1.75.75,0,0,1-.06.11l.15.06A.43.43,0,0,0,25.24,23.13Z"/><path class="cls-1" d="M16.95,30.45h0s0,.06.07.07a0,0,0,0,0,0,0S17,30.45,16.95,30.45Z"/><path class="cls-1" d="M16.89,29.88h0l.07,0a.15.15,0,0,0,.11,0l-.06,0A.12.12,0,0,0,16.89,29.88Z"/><path class="cls-1" d="M17,27.87A.28.28,0,0,1,17,28s.07,0,.08,0l0-.11Z"/><path class="cls-1" d="M25.46,23.18a.32.32,0,0,0-.11,0h0v0a.07.07,0,0,0,0,.07s0,0,.1,0a.27.27,0,0,0,.22-.14.23.23,0,0,0,0-.07.07.07,0,0,0,0-.06s0,0-.06,0,0,0,0,0h0s0,0,0,0a.12.12,0,0,1,0,.07.19.19,0,0,1,0,.13A.06.06,0,0,1,25.46,23.18Z"/><path class="cls-1" d="M25.24,23.53h0s0,0,0,0h0a.17.17,0,0,0-.1,0s0,0,0,0h.1C25.22,23.55,25.24,23.53,25.24,23.53Z"/><path class="cls-1" d="M25.62,24.82l0,0-.07,0a.1.1,0,0,0,0,.06s.06,0,.07.06h0s0,0,0-.08A.05.05,0,0,0,25.62,24.82Z"/><path class="cls-1" d="M25.59,25.4h0a.41.41,0,0,0,.21.06h0a.24.24,0,0,0-.15-.08A.09.09,0,0,0,25.59,25.4Z"/><path class="cls-1" d="M25.74,23.84s0-.06,0-.11-.06.07,0,.11Z"/><path class="cls-1" d="M25.07,25.66h0a.07.07,0,0,0,.07.07s0,0,0,0,0,0-.07-.06Z"/><path class="cls-1" d="M26,24.57s0,0,0,0h0a.07.07,0,0,0,.06,0Z"/><path class="cls-1" d="M25.31,24.19s.06-.06.08-.11l0,0h0c-.08,0-.11,0-.1.11s0,0,0,0Z"/><path class="cls-1" d="M25.29,22.51s0,0,.06,0a.73.73,0,0,0-.13-.08h0s0,.06,0,.07Z"/><path class="cls-1" d="M25.36,23.74h-.08S25.34,23.77,25.36,23.74Z"/><path class="cls-1" d="M25.29,26.1c0-.06,0-.08,0-.1h0l.07.1Z"/><path class="cls-1" d="M21.58,26.38s0,.06,0,.1h0a.11.11,0,0,0,0-.07v-.06h0A0,0,0,0,0,21.58,26.38Z"/><path class="cls-1" d="M22.07,26l.06,0L22,25.94s0,0,0,0a.05.05,0,0,0,0,0C22,26.05,22,26.05,22.07,26Z"/><path class="cls-1" d="M22,26.78a.1.1,0,0,1,0,.11c0,.07,0,.07,0,.07a0,0,0,0,0,0,0s0-.06,0-.13A.07.07,0,0,0,22,26.78Z"/><path class="cls-1" d="M22.14,23.28l-.06,0a.05.05,0,0,0,0,0,.47.47,0,0,1-.07.22.1.1,0,0,1,0,.07v.06h0a.2.2,0,0,0,.11-.13.12.12,0,0,0,0-.11A0,0,0,0,0,22.14,23.28Z"/><path class="cls-1" d="M21.86,25.73h0a.12.12,0,0,0-.08,0h0l0,0s.06,0,.13,0Z"/><path class="cls-1" d="M21.89,26.46h0a.38.38,0,0,0,0,.22h.06v-.08s0,0,0-.07a0,0,0,0,0,0,0h-.06Z"/><path class="cls-1" d="M22.34,30.91a.08.08,0,0,0,0-.06h0a.11.11,0,0,0,0,.07s0,0,0,0,0,0,0,.06a.17.17,0,0,0,0-.11Z"/><path class="cls-1" d="M22,22.33h0a.08.08,0,0,0,0,.06c0,.06,0,.07.14.07l.1,0s0-.07,0-.1,0,0,0-.07a.2.2,0,0,1-.15,0Z"/><path class="cls-1" d="M21.47,30l-.08.1a.71.71,0,0,1-.11.07s-.08,0-.08,0,0,0,0,0l0,0c.06,0,.11-.11.21-.08s0,0,0,0,0-.06,0-.11l0,0Z"/><path class="cls-1" d="M21.9,30.69a.39.39,0,0,1-.17.17s-.13.07-.1.18h0a.17.17,0,0,0,.15-.11.75.75,0,0,1,.07-.15V30.7h0Z"/><path class="cls-1" d="M21.4,29.33a.09.09,0,0,1,0-.08l0,0v0l0,0Z"/><path class="cls-1" d="M17,23l.13.06c0-.13-.07-.15-.18-.17h0v0C16.89,22.93,16.92,22.94,17,23Z"/><path class="cls-1" d="M39.36,22.38a.34.34,0,0,0-.07.21s0,0,.06.06,0,.06.06,0,0,0,0,0,0-.06,0-.1A.76.76,0,0,1,39.36,22.38Z"/><path class="cls-1" d="M41,22.8h0s0,0,0,0a.15.15,0,0,0,0,.07,0,0,0,0,0,0,0l0,0,0,0-.06,0Z"/><path class="cls-1" d="M41,22.59s0,0,0-.06a.26.26,0,0,1-.07-.14v0h0l-.28.14a1.63,1.63,0,0,0-.28.11s-.08.07-.07.08,0,0,0,.07l0-.06h0s0,0,0-.07a.08.08,0,0,1,.07,0h.29a.13.13,0,0,1,.07-.11c.06,0,.13,0,.18,0A.13.13,0,0,0,41,22.59Z"/><path class="cls-1" d="M40.35,22.83h0v.08l-.06,0-.17.24s0,0,.06,0,.2-.07.21-.14,0-.1-.07-.18Z"/><path class="cls-1" d="M39.64,23.08c-.08,0-.11,0-.13.06h.1c.06,0,.07,0,.07,0s0,0,0,0S39.65,23.08,39.64,23.08Z"/><path class="cls-1" d="M38.18,27.15s-.06.11,0,.25v.07h0a.18.18,0,0,1-.13.15h0s0,0,0,0a.09.09,0,0,0,.1,0,.2.2,0,0,0,.08-.14.73.73,0,0,1,.2-.42C38.25,27.1,38.19,27.12,38.18,27.15Z"/><path class="cls-1" d="M37.76,27.31s0,0,0-.08,0,0,0,0,0,0,0,0a.06.06,0,0,0,0,.07A0,0,0,0,0,37.76,27.31Z"/><path class="cls-1" d="M38.07,28.06h0s0,.07,0,.1a.14.14,0,0,0,0,.08v-.11C38.11,28.07,38.11,28.06,38.07,28.06Z"/><path class="cls-1" d="M38,29.4l0,0a.15.15,0,0,0-.1-.11S37.91,29.37,38,29.4Z"/><path class="cls-1" d="M37.59,28.45h0s0,0,0,.08a.22.22,0,0,1,.06.08s0,.06,0,.06,0,0,0-.06a.11.11,0,0,0,0-.1s-.06,0-.11-.06Z"/><path class="cls-1" d="M37.7,27.79c0,.06,0,.07.11.08a0,0,0,0,0,0,0h0a.12.12,0,0,0-.1-.1Z"/><path class="cls-1" d="M38.19,26.57s0,0,0,.06l.08,0,.07-.06a.13.13,0,0,0,0-.1.17.17,0,0,0-.14,0h-.1c-.08,0-.14,0-.15.06h0A.26.26,0,0,1,38.19,26.57Z"/><path class="cls-1" d="M38.78,22.93h-.06s0,0,0,0a.49.49,0,0,0,.07.08h0s0,0,0-.08Z"/><path class="cls-1" d="M33.71,24.46h0s0,0-.08.08l0,0a.15.15,0,0,0,0,.1s.06,0,.08.06l.06,0v-.13a.15.15,0,0,1,0-.1C33.74,24.47,33.74,24.47,33.71,24.46Z"/><path class="cls-1" d="M34,27.47h0Z"/><path class="cls-1" d="M33.77,29.58c0,.08,0,.15,0,.22a1.11,1.11,0,0,1,.07-.14.15.15,0,0,0,0-.08l0,0Z"/><path class="cls-1" d="M33.82,26.64s0,0,0,0,0,.07-.07.08h0s0,0,.07-.07A.11.11,0,0,0,33.82,26.64Z"/><path class="cls-1" d="M34,30.59l0,0h0s0,0,0-.06a0,0,0,0,0,0,0h-.06S34,30.56,34,30.59Z"/><path class="cls-1" d="M38.26,22.72v0l0,0s0,0,.07-.07h-.1A.27.27,0,0,1,38.26,22.72Z"/><path class="cls-1" d="M38.29,22.9s0,0,0-.07,0,.08,0,.1Z"/><path class="cls-1" d="M38.18,23.78a.11.11,0,0,0,0,.06s0,0,0,0l.06,0s0,0,.06-.06a.85.85,0,0,0,.07-.27A.38.38,0,0,1,38.18,23.78Z"/><path class="cls-1" d="M34.3,24.86s-.08,0-.11-.07h0a.11.11,0,0,0,0,.07.2.2,0,0,0,.1.06.12.12,0,0,0,.07,0s0,0,0,0S34.34,24.88,34.3,24.86Z"/><path class="cls-1" d="M33.89,28.25a.28.28,0,0,0,0,.11.08.08,0,0,0,.06,0,.23.23,0,0,0,0-.07A0,0,0,0,0,33.89,28.25Z"/><path class="cls-1" d="M41.85,26.64h0l0,.06h.13v0h-.06Z"/><path class="cls-1" d="M41.26,26.74a.11.11,0,0,0,0,.07h0a.14.14,0,0,1,.06-.07s0,0,0,0h0A.2.2,0,0,0,41.26,26.74Z"/><path class="cls-1" d="M40,26.28h0a0,0,0,0,1,0,0h0c.06,0,.08,0,.1,0s0,0,0,0Z"/><path class="cls-1" d="M41.79,24.41s0,0,0,0a0,0,0,0,0,0,0s0,0,0,.06a.77.77,0,0,0,.11.21s0,0,.08,0A.33.33,0,0,1,41.79,24.41Z"/><path class="cls-1" d="M40.56,26.35h0s0,0,0,.06h0s0,0,0-.06S40.56,26.36,40.56,26.35Z"/><path class="cls-1" d="M38.31,29.39c0,.08,0,.14.11.15l.08,0a.15.15,0,0,0,.1,0,1.88,1.88,0,0,0-.28-.24A0,0,0,0,0,38.31,29.39Z"/><path class="cls-1" d="M42.45,25a.37.37,0,0,1-.25.31h.06a.37.37,0,0,1,.13.06l.22-.15,0-.06Z"/><path class="cls-1" d="M42,22.73a.27.27,0,0,0,0,.07s0,0,0,0,0,.07-.06.08-.06,0-.1,0a.18.18,0,0,1-.1-.17.23.23,0,0,1,.06-.2s0-.06,0-.08,0-.06-.07-.07,0,0,0,0h0c0,.13,0,.21-.1.24s-.13,0-.2-.06l-.07,0v.07c0,.11,0,.22,0,.32a.21.21,0,0,1,0,.1.08.08,0,0,0,0,.06s0,0,0,0h0a.23.23,0,0,0,0-.13s0,0,0,0,0,0,0,0a.14.14,0,0,1,0-.13.06.06,0,0,1,.07-.06h0a.35.35,0,0,1,.13.06,1.31,1.31,0,0,1,.21.28s0,.07.07.1,0,0,0,0v0l0,0h0V23l.06,0h0s0-.07,0-.13a.32.32,0,0,1,0-.11Z"/><path class="cls-1" d="M46.78,4.7H13.22a8.4,8.4,0,0,1-8,8V41a8.4,8.4,0,0,1,8,8H46.78a8.4,8.4,0,0,1,8-8V12.71A8.4,8.4,0,0,1,46.78,4.7ZM18.38,31.54a.38.38,0,0,1-.34.13h0c-.41,0-.81,0-1.21,0H16c-.15,0-.24,0-.28-.11s0-.15,0-.27A3.18,3.18,0,0,0,16,29.71v-.1c0-2,0-4.1,0-6a2.79,2.79,0,0,0-.24-1.47c-.07-.13-.08-.21,0-.27s.14-.08.28-.1h1.7c.36,0,.38,0,.38.41v5.21c0,1,0,1.92,0,2.87a1.7,1.7,0,0,0,.22.94C18.39,31.33,18.42,31.45,18.38,31.54Zm8.29-4.83c0,.32,0,.64,0,1,0,.85,0,1.74,0,2.61a1,1,0,0,1-.34.78h0a1.55,1.55,0,0,1-1.54.59h-3a1.12,1.12,0,0,1-.7-.28,1.56,1.56,0,0,1-.71-1.67,2.19,2.19,0,0,0,0-.52v-.32c0-.34.06-.38.38-.39h1.7c.15,0,.24,0,.28.1s0,.2,0,.31a.7.7,0,0,0-.07.15.8.8,0,0,0-.11.31c0,.06,0,.1,0,.11s0,0,.08,0h1.69a.15.15,0,0,0,.17-.17V29.3c0-.42,0-.87,0-1.3,0-.17-.1-.24-.32-.24H21.74a.76.76,0,0,1-.66-.28s0,0,0,0l0,0a1.6,1.6,0,0,1-.66-1.65c0-.74,0-1.48,0-2.21,0-.15,0-.29,0-.45a1.13,1.13,0,0,1,.29-.74,1.91,1.91,0,0,1,1.79-.69c.67,0,1.36.06,2,0a2.17,2.17,0,0,1,1.61.32,2.26,2.26,0,0,1,.41.52,2,2,0,0,1,.17,1c0,.74,0,1.5,0,2.24v.94Zm8.28,0c0,.32,0,.64,0,1,0,.85,0,1.74,0,2.61a1,1,0,0,1-.34.78h0a1.55,1.55,0,0,1-1.54.59h-3a1.12,1.12,0,0,1-.7-.28,1.56,1.56,0,0,1-.71-1.67,2.19,2.19,0,0,0,0-.52v-.32c0-.34.06-.38.38-.39h1.7c.15,0,.24,0,.28.1s0,.2,0,.31a.7.7,0,0,0-.07.15.8.8,0,0,0-.11.31c0,.06,0,.1,0,.11s0,0,.08,0h1.69a.15.15,0,0,0,.17-.17V29.3c0-.42,0-.87,0-1.3,0-.17-.1-.24-.32-.24H30a.76.76,0,0,1-.66-.28s0,0,0,0l0,0a1.6,1.6,0,0,1-.66-1.65c0-.74,0-1.48,0-2.21,0-.15,0-.29,0-.45a1.13,1.13,0,0,1,.29-.74,1.91,1.91,0,0,1,1.79-.69c.67,0,1.36.06,2,0a2.17,2.17,0,0,1,1.61.32,2.24,2.24,0,0,1,.41.52,2,2,0,0,1,.17,1c0,.74,0,1.5,0,2.24v.94Zm8.31-.46a1,1,0,0,1-.34.79h0a1.6,1.6,0,0,1-1.62.64H39.4c-.32,0-.35,0-.35.35s0,.81,0,1.18,0,.29.28.31h2.55a2,2,0,0,0,.8-.17c.18-.08.29-.1.38-.06s.1.2.11.38v1.48c0,.41-.08.49-.49.49H37.42c-.43,0-.5-.06-.5-.5V29.71c0-.9,0-1.81,0-2.72a1,1,0,0,1,.32-.74h0A1.7,1.7,0,0,1,39,25.56c.56,0,1.2,0,1.82,0,.29,0,.31,0,.31-.28s0-.73,0-1.13c0-.25-.06-.29-.32-.29q-.74,0-1.43,0c-.13,0-.2,0-.22.06s0,.1,0,.22a3.18,3.18,0,0,0,.14.34l0,.1a.23.23,0,0,1,0,.21.24.24,0,0,1-.21.08c-.29,0-.59,0-.88,0h-1a.25.25,0,0,1-.28-.28V22.94a.2.2,0,0,1,0-.1,2,2,0,0,1,1.23-1.11H42a1.36,1.36,0,0,1,.69.48,2.46,2.46,0,0,0,.35.32.55.55,0,0,1,.18.49v3.22Z"/><path class="cls-1" d="M42.38,25.84l-.06,0v0a.09.09,0,0,0,.13,0s0,0,0,0S42.4,25.84,42.38,25.84Z"/><path class="cls-1" d="M39.62,26.82s0,0,0,0-.06,0,0,.07a.07.07,0,0,0,0,0h0c.07,0,.08,0,.08-.08s0,0,0,0A0,0,0,0,0,39.62,26.82Z"/><path class="cls-1" d="M42.4,23.81s0,0,.06,0h.1s0,0,0,0v0s0,0,0,0h-.07l-.07,0h-.07a0,0,0,0,0,0,0Z"/><path class="cls-1" d="M41.44,30.54h0c-.08-.06-.13-.08-.2,0s0,0,0,0A.17.17,0,0,0,41.44,30.54Z"/><path class="cls-1" d="M39.86,30.9h0a.11.11,0,0,1,0-.07c-.07,0-.1,0-.11,0h0S39.85,30.87,39.86,30.9Z"/><path class="cls-1" d="M40.36,30.42l0,0-.08,0s-.1,0-.13,0a.57.57,0,0,1,0,.07.34.34,0,0,0,.11,0C40.27,30.45,40.32,30.47,40.36,30.42Z"/><path class="cls-1" d="M41.92,30.7s0,0,0,0h0v-.07s0,0-.06,0h0s0,0,0,0S41.88,30.7,41.92,30.7Z"/><path class="cls-1" d="M41.32,31c-.07,0-.07.06-.06.1s.08-.07.08-.1h0Z"/><path class="cls-1" d="M39.41,30.7l.06-.06.07-.06v-.08a.22.22,0,0,0,0-.08h0s0,0,0,0,0,.06,0,.08a.25.25,0,0,1,0,.1h0A.28.28,0,0,0,39.41,30.7Z"/><path class="cls-1" d="M39.13,27.12s0,0,0,.06h0s0-.07,0-.08l0,0S39.13,27.1,39.13,27.12Z"/><path class="cls-1" d="M39.43,30.14h0s-.06,0-.07,0a0,0,0,0,0,0,0S39.37,30.16,39.43,30.14Z"/><path class="cls-1" d="M39.64,30.62h0s0,0,.07,0Z"/><path class="cls-1" d="M39.41,26.31l0,0a.27.27,0,0,0,0,.1h0s0-.06,0-.11S39.41,26.32,39.41,26.31Z"/><path class="cls-1" d="M34,23.73c0,.06-.06.07,0,.11h0S34.06,23.78,34,23.73Z"/><path class="cls-1" d="M33.57,22.51s0,0,.06,0a.7.7,0,0,0-.13-.08h0s0,.06,0,.07Z"/><path class="cls-1" d="M33.64,23.74h-.08S33.61,23.77,33.64,23.74Z"/><path class="cls-1" d="M33.59,24.19s.06-.06.08-.11l0,0h0c-.08,0-.11,0-.1.11s0,0,0,0Z"/><path class="cls-1" d="M30.27,22.33h0a.08.08,0,0,0,0,.06c0,.06,0,.07.14.07l.1,0s0-.07,0-.1,0,0,0-.07a.2.2,0,0,1-.15,0Z"/><path class="cls-1" d="M33.54,30.68s0,0,0,0,.06,0,.1,0l.07,0h0C33.61,30.61,33.57,30.63,33.54,30.68Z"/><path class="cls-1" d="M33.57,26.1c0-.06,0-.08,0-.1h0l.07.1Z"/><path class="cls-1" d="M33.33,29.4h0c0,.08-.06.15,0,.21a.1.1,0,0,0,.06-.08A.14.14,0,0,0,33.33,29.4Z"/><path class="cls-1" d="M31.82,22.9v0h-.07A.06.06,0,0,0,31.82,22.9Z"/><path class="cls-1" d="M33.52,23.13a.3.3,0,0,1-.21-.14.41.41,0,0,0-.07-.1.73.73,0,0,1-.06.11l.15.06A.43.43,0,0,0,33.52,23.13Z"/><path class="cls-1" d="M33.21,27.52a.09.09,0,0,0,0,.06h0s.07,0,.1-.11.06-.14.11-.15.08,0,.15.06l0,0a.07.07,0,0,0,0-.06c0-.08,0-.1-.1-.1s0,0-.06,0a.44.44,0,0,0-.22.08l-.06,0h0s0,0,0,0A.13.13,0,0,1,33.21,27.52Z"/><path class="cls-1" d="M33.21,30l.07,0,.07,0h0a.47.47,0,0,1,.11-.13.72.72,0,0,1-.14,0s-.11,0-.14.06S33.19,30,33.21,30Z"/><path class="cls-1" d="M30.18,30.69c0,.06-.07.13-.17.17s-.13.07-.1.18h0a.17.17,0,0,0,.15-.11.7.7,0,0,1,.07-.15V30.7h0Z"/><path class="cls-1" d="M34.31,24.57s0,0,0,0h0a.08.08,0,0,0,.06,0Z"/><path class="cls-1" d="M30.42,23.28l-.06,0a.05.05,0,0,0,0,0,.48.48,0,0,1-.07.22.11.11,0,0,1,0,.07v.06h0a.2.2,0,0,0,.11-.13.12.12,0,0,0,0-.11A0,0,0,0,0,30.42,23.28Z"/><path class="cls-1" d="M33.35,25.66h0a.07.07,0,0,0,.07.07s0,0,0,0,0,0-.07-.06Z"/><path class="cls-1" d="M29.75,30l-.08.1a.67.67,0,0,1-.11.07s-.08,0-.08,0,0,0,0,0l0,0c.06,0,.11-.11.21-.08s0,0,0,0,0-.06,0-.11l0,0Z"/><path class="cls-1" d="M31.57,23s0,0,0-.07V23S31.57,23,31.57,23Z"/><path class="cls-1" d="M30.62,30.91a.07.07,0,0,0,0-.06h0a.11.11,0,0,0,0,.07s0,0,0,0,0,0,0,.06a.17.17,0,0,0,0-.11Z"/><path class="cls-1" d="M33.74,23.18a.31.31,0,0,0-.11,0h0v0a.07.07,0,0,0,0,.07s0,0,.1,0a.26.26,0,0,0,.22-.14.23.23,0,0,0,0-.07.07.07,0,0,0,0-.06s0,0-.06,0,0,0,0,0h0s0,0,0,0a.12.12,0,0,1,0,.07.18.18,0,0,1,0,.13A.06.06,0,0,1,33.74,23.18Z"/><path class="cls-1" d="M33.87,25.4h0a.41.41,0,0,0,.21.06h0a.25.25,0,0,0-.15-.08A.08.08,0,0,0,33.87,25.4Z"/><path class="cls-1" d="M33.52,23.53h0s0,0,0,0h0a.17.17,0,0,0-.1,0s0,0,0,0h.1C33.5,23.55,33.52,23.53,33.52,23.53Z"/><path class="cls-1" d="M33.89,24.82l0,0-.07,0a.1.1,0,0,0,0,.06s.06,0,.07.06h0s0,0,0-.08A.05.05,0,0,0,33.89,24.82Z"/><path class="cls-1" d="M31.54,30.37h0a1,1,0,0,0-.15,0h0s0,0,0,0v0s.06,0,.08,0Z"/><path class="cls-1" d="M32.56,30.3a.19.19,0,0,0,0,.08s.07,0,.1,0a.22.22,0,0,1,.06.18,0,0,0,0,0,0,0h0l.11,0a.53.53,0,0,0-.18-.34C32.62,30.3,32.59,30.28,32.56,30.3Z"/><path class="cls-1" d="M33,30.83c0,.06,0,.08.07.07s0,0,0-.08Z"/><path class="cls-1" d="M32.93,22.61a.11.11,0,0,1,0-.18.05.05,0,0,0,0,0,0,0,0,0,0,0,0h-.06a.08.08,0,0,0,0,.06.24.24,0,0,1-.17.13v0s0,.1-.06.13a.1.1,0,0,1-.11,0c-.06,0-.07-.08-.07-.14v-.08s0,0,0,0a.08.08,0,0,0-.06,0s.07.08.06.13-.07.1-.13.13l-.08,0a.09.09,0,0,0,0,.1h0a.4.4,0,0,1,.28-.07c.13,0,.22,0,.27-.13a.06.06,0,0,1,.06,0s.07,0,.1,0,0,0,0,0,.07,0,.08,0,0,0,0-.1S32.93,22.62,32.93,22.61Z"/><path class="cls-1" d="M32.45,30.51h0l-.1,0a.4.4,0,0,1,.18.13.1.1,0,0,0,.08.06,0,0,0,0,1,0,0,.21.21,0,0,1-.1-.06A.22.22,0,0,1,32.45,30.51Z"/><path class="cls-1" d="M32.45,31h0a.36.36,0,0,0,0,.1.11.11,0,0,1,0,.07h0a.49.49,0,0,0,.18-.14l0,0Z"/><path class="cls-1" d="M33.25,30.77l-.06-.08h0s0,0,0,.08a.52.52,0,0,0,.17.14s0,0,0,0h0A.5.5,0,0,1,33.25,30.77Z"/><path class="cls-1" d="M33.61,28.6a.22.22,0,0,1-.07-.11h0l0,0s0,0,0,0,0,0,0,0S33.57,28.6,33.61,28.6Z"/><path class="cls-1" d="M31.79,30.55H32A.3.3,0,0,0,31.79,30.55Z"/><path class="cls-1" d="M31.36,22.93c0,.06,0,.11,0,.17a0,0,0,0,0,0,0h0a.12.12,0,0,1,0-.08.12.12,0,0,1,0-.08l0,0c0-.07,0-.1-.06-.1h0a.6.6,0,0,1,0,.07A.19.19,0,0,1,31.36,22.93Z"/><path class="cls-1" d="M33.35,30.35h.14s0,0,0,0S33.36,30.33,33.35,30.35Z"/><path class="cls-1" d="M33.43,27.92h0a0,0,0,0,1,0,0l.07.07,0-.07A0,0,0,0,1,33.43,27.92Z"/><path class="cls-1" d="M32.6,26.49h0a.08.08,0,0,0-.06,0c0,.06.06.08.08.08h0s0,0,0,0a.05.05,0,0,0,0,0S32.63,26.49,32.6,26.49Z"/><path class="cls-1" d="M31.57,30.68a.4.4,0,0,0-.14,0l.11.1,0,0,0,0s0-.06,0-.07A.2.2,0,0,1,31.57,30.68Z"/><path class="cls-1" d="M31.83,27s0,0,0,0a.05.05,0,0,1,0,0s0,0,.07,0l.06,0s0,0,0,0a.27.27,0,0,0-.08-.06A.62.62,0,0,1,31.83,27Z"/><path class="cls-1" d="M31.47,26.88a.19.19,0,0,0-.11,0,0,0,0,0,0,0,.06V27l.08,0c.07,0,.08-.06.08-.1h-.06Z"/><path class="cls-1" d="M30.77,26.63s0,0,0,0l.07,0c.1,0,.17,0,.2-.14h0C30.87,26.5,30.8,26.53,30.77,26.63Z"/><path class="cls-1" d="M32.07,26.52h0s0,.06,0,.08a1.54,1.54,0,0,0,0,.27h0a.58.58,0,0,1,.15-.21.13.13,0,0,0,0-.07.05.05,0,0,0,0,0A.3.3,0,0,0,32.07,26.52Z"/><path class="cls-1" d="M31,30.51v0c0,.07,0,.1.1.11h0v0C31.12,30.54,31.08,30.52,31,30.51Z"/><path class="cls-1" d="M29.68,29.33a.09.09,0,0,1,0-.08l0,0v0l0,0Z"/><path class="cls-1" d="M32.84,25.42a3.55,3.55,0,0,1,0-.85c0-.17,0-.34,0-.49a.23.23,0,0,0-.27-.27H31a.24.24,0,0,0-.27.24V25.4a.25.25,0,0,0,.06.2.29.29,0,0,0,.21.06,2.89,2.89,0,0,1,.5,0H32a3.94,3.94,0,0,1,.59,0,.27.27,0,0,0,.22-.08A.16.16,0,0,0,32.84,25.42Z"/><path class="cls-1" d="M50.43,0H9.57A9.57,9.57,0,0,1,0,9.57V44.18a9.57,9.57,0,0,1,9.57,9.57H50.43A9.57,9.57,0,0,1,60,44.18V9.57A9.57,9.57,0,0,1,50.43,0Zm6,42.28H56a7.94,7.94,0,0,0-7.93,7.93v.38H11.88v-.37A7.94,7.94,0,0,0,4,42.28H3.58V11.47H4a7.94,7.94,0,0,0,7.93-7.93V3.17H48.12v.38A7.94,7.94,0,0,0,56,11.47h.38Z"/></svg>