<svg id="Layer_1" data-name="Layer 1" xmlns="http://www.w3.org/2000/svg" viewBox="0 0 682.07 296.25"><defs><style>.cls-1,.cls-2{fill:#eae6de;}.cls-2{font-size:201.55px;font-family:WheatAged-Regular, Wheat Aged;}.cls-3{letter-spacing:-0.05em;}.cls-4{letter-spacing:-0.03em;}.cls-5{letter-spacing:-0.04em;}.cls-6{letter-spacing:-0.05em;}.cls-7{letter-spacing:-0.02em;}.cls-8{letter-spacing:-0.01em;}.cls-9{letter-spacing:-0.01em;}.cls-10{letter-spacing:-0.03em;}</style></defs><title>story-pasttopresent3</title><path class="cls-1" d="M250.22,23.75c.08.25.18.54.32.86l1.6,3.84a2.63,2.63,0,0,1-.07,2.47c-.21.32-.25.52-.19.65s.23.25.65.34A2.16,2.16,0,0,1,254,33.33c.85,2.24,1.73,4.31,2.55,6.11a2.43,2.43,0,0,1,0,2.14l-.09.08a1.57,1.57,0,0,1-.11.31,4.05,4.05,0,0,1-2.48,2.6l-.17.07c-2.54,1-5.07,2.21-7.46,3.41-1.17.56-1.75.85-2.91,1.43l-.2.1-.33.17c-.38.15-.64.16-.81.06a.78.78,0,0,1-.2-.65,6.12,6.12,0,0,0-1-3.54l-.11-.22-2.4-4.75-1-2.08-1-2.08c-.91-1.79-1.85-3.71-2.76-5.55a4.69,4.69,0,0,0-1.66-2,2.52,2.52,0,0,1-.56-.55A.57.57,0,0,1,231,28a.92.92,0,0,1,.36-.38l.66-.34c1.31-.66,2-1,3.3-1.63,3.65-1.77,5.49-2.62,9.2-4.23a2.61,2.61,0,0,1,2.16-.17l.87.28C249.56,22.15,249.73,22.24,250.22,23.75Zm-15.28,6.66a.49.49,0,0,0-.1-.11h-.05l.08.16,0,0Zm2.82,4.7a.67.67,0,0,0,.28-.41s0-.1,0-.13a.51.51,0,0,1,.46-.42c.05,0,.14,0,.15,0s0,0,.05,0,0,0,0,0a.29.29,0,0,0-.21-.33s-.05,0-.09,0a.33.33,0,0,0-.13.1.75.75,0,0,1-.22.27.7.7,0,0,0-.3.38.65.65,0,0,1-.12.3s-.1.16-.08.2,0,0,.07,0S237.69,35.14,237.76,35.11Zm2.93,4.69a.49.49,0,0,0-.17-.07l-.15,0-.15,0a.12.12,0,0,0,0,.08l0,.13c0,.11,0,.32.05.37a.42.42,0,0,0,.22,0A.4.4,0,0,1,240.68,39.8ZM239,36.11a3.74,3.74,0,0,0-.61,0s.12.06.2.06h.05l0,0,.24,0c.1,0,.15,0,.19,0l0,0,0,0A.12.12,0,0,0,239,36.11Zm-2.64-4.28a.17.17,0,0,0,.12.06.16.16,0,0,0,.12,0,.14.14,0,0,0,0-.21.88.88,0,0,1-.13-.17l-.1.17A.19.19,0,0,0,236.36,31.83Zm8.19,15.33s0-.06-.15-.13,0,0-.1,0c0,.18.08.24.16.24l0,0A.12.12,0,0,1,244.55,47.16Zm-9.14-18.63h.05c0-.1.1-.17.07-.23s-.1-.11-.22-.17A.56.56,0,0,0,235.41,28.53ZM236.3,30l0,0,.06.13a1.15,1.15,0,0,1,.21.61.77.77,0,0,0,0-.64C236.41,29.92,236.38,29.94,236.3,30Zm5.75,10.76,0,0a.82.82,0,0,0-.35-.18.77.77,0,0,1-.22-.09c-.08.2,0,.26,0,.29S241.89,40.77,242.05,40.74Zm.48,1.33,0,0a.16.16,0,0,0-.17-.08s0,0-.06.15-.05.07,0,.1S242.39,42.22,242.53,42.07Zm.28.92s-.07,0-.08-.08,0-.1-.12-.06,0,0,0,0,0,0,0,.06l0,.06a.53.53,0,0,0,.18,0Zm-5.08-10.46c0,.1,0,.19.23.28.05,0,.1,0,.12.06a1.62,1.62,0,0,1-.1-.38c0-.06-.12-.06-.19,0A.15.15,0,0,0,237.73,32.53Zm4.08,6.83c0,.18-.1.32-.26.44l-.07.11-.05.07s0,0,0,.1c.34-.28.45-.48.44-.61a.17.17,0,0,0-.13-.17S241.8,39.33,241.81,39.36Zm-4.4-10.17c0-.1.06-.15,0-.18s-.07,0-.16,0l-.24-.12a.44.44,0,0,1-.19-.57l0,0a.78.78,0,0,1-.56,0,.53.53,0,0,0-.16.51.19.19,0,0,0,0,.14.14.14,0,0,0,.06-.07,1.11,1.11,0,0,1,.3-.22.27.27,0,0,1,.16,0c.19,0,.23.21.27.38s.13.37.32.39A.75.75,0,0,0,237.42,29.2Zm2.72,6.36a.12.12,0,0,0-.07,0,1.42,1.42,0,0,1-.4-.28,1.07,1.07,0,0,0-.45-.29l0,0c0,.18.21.27.39.36a1.28,1.28,0,0,1,.45.29l0,0S240.15,35.58,240.14,35.55Zm5.18,10.69a.45.45,0,0,0-.26.16l0,0c.08,0,.08,0,.19-.13A.12.12,0,0,0,245.32,46.24ZM238,30.93a.49.49,0,0,0-.32,0l-.11.05a.74.74,0,0,0,.24.12s.07,0,.08.08.2-.06.25,0A.26.26,0,0,0,238,30.93Zm5.8,12.58,0,.06c0,.06.1.11.13.09v-.08a0,0,0,0,1-.05,0S243.84,43.55,243.83,43.52Zm-2.4-6.74a.12.12,0,0,0-.08-.08l-.07,0a.33.33,0,0,0,0,.11s0,.11,0,.16l0,0a.18.18,0,0,0,.18-.09C241.49,36.89,241.47,36.79,241.42,36.77Zm.63,1.3s0,0-.05,0l-.07,0,0,.1,0,.1S242.08,38.14,242.05,38.07ZM238,29.51c.16,0,.22-.19.27-.37A.87.87,0,0,0,238,29.51Zm3.39,6.23s0-.1,0-.13-.09-.19-.29-.14l-.11.05v.16l.05,0,0,.06a.54.54,0,0,0,.19,0Zm1.47,1,0,0c-.17-.08-.33,0-.52.17l-.23.15C242.39,37.17,242.57,37.08,242.83,36.72Zm-4.91-8.82c0,.1.19.09.26.07a.28.28,0,0,0,.22-.3l0,0-.11.05-.07,0c-.05,0-.05,0-.09,0l-.15.07,0,0S237.9,27.87,237.92,27.9Zm3.89,7,.08.16s0,.08,0,.11a.15.15,0,0,1,.09-.08.38.38,0,0,0,0-.26c-.06-.13-.11-.14-.27-.11A.41.41,0,0,1,241.81,34.94Zm-1.43-3.18c.13.34.31.76.48,1.1.3.58.44.57,1.14.28.39-.16.87-.35,1.27-.56s.78-.4,1.21-.6,1-.45,1.53-.65a.62.62,0,0,0,.38-.32.59.59,0,0,0,0-.42L245.66,29c-.19-.42-.42-.85-.61-1.27-.1-.22-.19-.34-.35-.38a.7.7,0,0,0-.57.1l-1.91.87-.11.05-1.21.56c-1.46.68-1.47.71-.88,2C240.16,31.2,240.29,31.51,240.39,31.76ZM249,36.45a.56.56,0,0,0-.33-.36.72.72,0,0,0-.47.09l-2,.91-1.16.54-.67.31c-.74.35-.78.42-.51,1.1.2.49.43.95.65,1.37s.54,1,.75,1.48a.52.52,0,0,0,.27.3.81.81,0,0,0,.58-.12,12.65,12.65,0,0,1,1.31-.61l.45-.21.1,0c.21-.1.42-.21.57-.3a12.78,12.78,0,0,1,1.4-.6.84.84,0,0,0,.46-.36.59.59,0,0,0,0-.48C249.81,38.28,249.35,37.31,249,36.45Zm-10.82-9.64s.12.06.12.06.1-.08.09-.28l0,0,0-.06a.26.26,0,0,0-.16,0c-.07,0-.06.07-.06.07S238.12,26.71,238.17,26.81Zm9.2,17.79c0-.1,0-.1-.26,0l-.15.11c0,.1.15,0,.3,0a.14.14,0,0,1,.12,0S247.38,44.63,247.36,44.6Zm-4.17-8.94a.13.13,0,0,0-.09,0l0,0s0,.08,0,.13,0,.1.19,0h.09s0,0,.09,0A.53.53,0,0,0,243.19,35.65Zm-3.69-8.31v0a.75.75,0,0,0,0-.39v-.08l0,0,0,0C239.33,27.07,239.32,27.16,239.5,27.34Zm4.19,7.06a.69.69,0,0,1-.72-.05l-.13.1v0l.1,0,.05,0A.92.92,0,0,0,243.69,34.41Zm4.93,10.22c0-.1-.06-.13-.11-.14s-.14.06-.2.09l-.17.08-.1,0a.11.11,0,0,0,.06,0,.35.35,0,0,0,.43.11A.22.22,0,0,0,248.62,44.63Zm-.49-1.05c0-.06-.06,0-.15,0a.6.6,0,0,1-.34.08,0,0,0,0,0,0,0c.07.16.14.13.38,0S248.16,43.64,248.13,43.58Zm-4.3-8.22a.43.43,0,0,0,.12,0,.15.15,0,0,1,.12,0l.1-.16s-.09,0-.12,0a.22.22,0,0,0-.22,0l0,.1C243.78,35.34,243.83,35.35,243.83,35.35Zm-3.85-9a.67.67,0,0,1,.27.19c0-.24-.18-.38-.34-.54l-.22-.17s-.06.07-.1.08C239.59,26.1,239.73,26.19,240,26.34Zm-.68-1.16a.49.49,0,0,0,.16.16l.2.14a.26.26,0,0,0-.1-.22c0-.1-.11-.14-.15-.12h-.05S239.32,25.13,239.3,25.18Zm2,1.71v0c.24-.46.37-.75-.09-1,0,0,0,.1-.08.12l.31.28-.42.16C241,26.59,241.13,26.7,241.31,26.89Zm4,7.08a.13.13,0,0,0-.06.06l0,0v0l.12.06c0-.08,0-.13,0-.19Zm5.54,8.48a.65.65,0,0,0-.14-.21l-.1,0-.58.26,0,0c-.14.06-.23.14-.37.09a.42.42,0,0,1-.19-.23c0-.06,0-.18-.09-.19l-.1,0c-.1,0-.09.08,0,.24l0,.06a.37.37,0,0,0,.12.26s0,0,.05-.06a.32.32,0,0,1,.22,0,.55.55,0,0,1,.28.26.46.46,0,0,1-.19.32s-.11.13-.09.16v0l0,0v0a.3.3,0,0,1,.14-.14.78.78,0,0,0,.29-.36c.1-.32.15-.49.32-.57A.72.72,0,0,1,250.85,42.45Zm-4.36-7.7a1.12,1.12,0,0,0-.55-.25s0,0,0,0a.22.22,0,0,0,0,.29.21.21,0,0,0,.14,0,2.75,2.75,0,0,1,.64.09A2,2,0,0,0,246.48,34.75Zm-4.12-9.86.22.09.42-.15-.14.49-.32-.32-.1,0a1.12,1.12,0,0,0,.18.3.24.24,0,0,0,.2.14l.11-.05a.83.83,0,0,0,.11-1.05l0,0c-.07,0-.13,0-.23,0a.47.47,0,0,1-.51,0c-.07,0-.08-.08-.13-.1l.06.13A2.93,2.93,0,0,0,242.36,24.9Zm9,17.81s.05-.06.09-.08a.14.14,0,0,0,.05-.06c-.06,0-.15,0-.24.11S251.36,42.68,251.38,42.71Zm.77.89a.29.29,0,0,0-.23,0s-.05.06-.07.11a.26.26,0,0,0,.13.1c.06,0,.1,0,.1,0l0-.1A.49.49,0,0,1,252.14,43.61Zm-4.53-10.83s0-.1-.09-.11l-.1,0a0,0,0,0,0,0,0l.06,0,0,.1s0,.1-.13.1l0,0,0,.1a1.22,1.22,0,0,0,.2-.13A.31.31,0,0,0,247.61,32.78Zm-4-9.29,0,0s-.06.07-.07.15a.1.1,0,0,0,.07,0s0,0,0-.13S243.63,23.52,243.61,23.49Zm9.84,18.35,0,0s0,0-.12,0a.39.39,0,0,0-.11.32v.08a.54.54,0,0,1-.18.43.45.45,0,0,1-.39.05s0,.08,0,.1l.2.18a1.63,1.63,0,0,1,.2.18.14.14,0,0,1,.09-.08.75.75,0,0,1,0-.21,4.87,4.87,0,0,0,.12-.67.43.43,0,0,1,.1-.24S253.46,41.87,253.45,41.84ZM245.1,25.26a.25.25,0,0,1,.15.13l0,.06c0,.06.09.11.11.14l0-.06-.07-.16a1.24,1.24,0,0,0-.23-.63.2.2,0,0,0-.13.21s.05,0,.07,0v0l0,0v.06S245,25.22,245.1,25.26Zm4.4,8.92a.8.8,0,0,1,.15.24c.16.28.27.42.42.39a1.24,1.24,0,0,0,.19-.81l0-.1a.51.51,0,0,1,0-.35.31.31,0,0,0,0-.35.24.24,0,0,0-.21-.1c-.07,0-.11,0-.11.24a.7.7,0,0,1,0,.32l0,.1a.12.12,0,0,1,.08.08c.18.23.07.36,0,.43a.33.33,0,0,1-.44,0l0-.1,0,0Zm-3.35-8.11s0,0,.05,0l0-.13s0,0,.06-.06-.05,0-.09,0l0,0S246.17,26,246.16,26.06Zm2.47,5c-.18.08-.2.13-.17.19v0l.14-.06.07,0a.32.32,0,0,1,.19,0,.44.44,0,0,1,.33.16.53.53,0,0,1,.11.15l0-.21c0-.22,0-.4-.15-.44s-.1,0-.21,0A.87.87,0,0,1,248.64,31Zm-1.26-3.18s.07,0,.1-.16,0-.16,0-.19h-.09c-.07,0-.11,0-.16,0a.12.12,0,0,0,.08.08,1.36,1.36,0,0,1,0,.18Zm4.48,8.73c.09-.07.16-.11.2-.2s-.08,0-.14.06a.53.53,0,0,1-.22.06l-.14.06a.15.15,0,0,0-.09.08c-.06.06,0,.16,0,.22s0,0,.06.05A1,1,0,0,1,251.86,36.57Zm1.42,3.65a.33.33,0,0,0-.29-.1l0,0c0,.06.08.08.2.07S253.24,40.23,253.28,40.22Zm-2-4.3v0a.26.26,0,0,0,.32.06v0A1.17,1.17,0,0,0,251.24,35.92Zm-2.81-7.65c0,.06.17.08.34.08a.56.56,0,0,0-.05-.63l-.25.22C248.4,28.08,248.37,28.21,248.43,28.26Zm.45.34c-.15.26-.2.43.06.55a.14.14,0,0,0,.09,0C249.16,28.95,249.09,28.78,248.88,28.6ZM254.55,41l-.06-.05a1.76,1.76,0,0,1-.16.11.14.14,0,0,1-.09.08l-.14.14.08.19a0,0,0,0,0,0,0,.32.32,0,0,1,.23-.14c.12,0,.19,0,.17-.07S254.61,41,254.55,41Zm-7.36-16s0,0,.06,0c.34.08.39.29.33.47a.3.3,0,0,0,.09-.19c0-.08-.12-.18-.35-.31l-.12-.07Zm2.29,5.11a.61.61,0,0,0,.15.24.42.42,0,0,0,.16.08l0,0a.51.51,0,0,0-.09-.11.26.26,0,0,1-.13-.1C249.54,30.13,249.53,30.09,249.48,30.08Zm-.86-2.51s-.06.06-.08.11l.16,0v0l0-.06Zm.21-1.13a0,0,0,0,1,.05,0s0-.08,0-.15a.52.52,0,0,1-.1-.34,1.06,1.06,0,0,1-.31,0,.73.73,0,0,0-.21,0l0,0a.08.08,0,0,0,0,.1c0,.13.08.19.42.28A.46.46,0,0,1,248.82,26.44Zm-1.34-2.72.05,0a.12.12,0,0,0,0-.08l0-.1,0,0,0,.06A.1.1,0,0,0,247.48,23.72Zm5.76,12c-.06,0-.11-.07-.29,0l-.11,0,0,0a2.38,2.38,0,0,0,.27,0S253.17,35.74,253.24,35.71Zm-1-1.34.09.11c.14.13.15.16.22.13a0,0,0,0,0,0,0,0,0,0,0,0,0-.06s-.06,0-.11-.07S252.32,34.34,252.25,34.37Zm2.48,5a.12.12,0,0,0-.08-.08s0,0-.08,0a0,0,0,0,0,0,.06c.06.05.09.12.14.13v0S254.75,39.43,254.73,39.4Z" transform="translate(-6.03 -0.1)"/><path class="cls-1" d="M272.19,12.06a6.15,6.15,0,0,0,.43,3.74l0,.1,2.06,6.67,3,9.59a2.08,2.08,0,0,1-.22,1.8V34c-1.26,2.28-1.32,2.29-3.79,3.12l-1.6.54c-1.7.58-3.47,1.21-5.23,1.86a0,0,0,0,1,0,0,2.56,2.56,0,0,1-2,0l-.23-.1a2.81,2.81,0,0,0-.42-.18,3.47,3.47,0,0,1-2.79-2.66c-.64-1.82-1.4-3.69-2.09-5.46l-.88-2.27-.05-.13.07,0-.82-2.1-2.22-5.71a4.69,4.69,0,0,0-1.59-2.29c-.32-.25-.45-.48-.41-.71s.3-.38.75-.56c1.77-.71,3.64-1.41,5.55-2.08.42-.15.68-.15.85,0s.2.3.13.59a7.58,7.58,0,0,0,.85,4.38c.16.41.35.9.48,1.33.79,2.57,1.88,5.31,2.86,7.88L266,32.66l0,.1.13.36c.29.68.38.68,1,.45,1.34-.46,2.56-.84,3.67-1.24.76-.28.77-.3.53-1l-2.06-6.15-.35-1-.82-2.44-1.79-5.34a3.74,3.74,0,0,0-1.27-2c-.33-.22-.44-.41-.42-.6s.42-.4.69-.49c2.33-.78,3.5-1.16,5.85-1.88.32-.06.67-.14.85,0S272.28,11.67,272.19,12.06ZM258.5,23.37a.67.67,0,0,1,.26,0c.1,0,.11.07.15.06s0-.1-.09-.12a.47.47,0,0,1,0-.26c.09-.11.21-.12.32-.16s0,0,.09,0a.19.19,0,0,0,.1-.08.12.12,0,0,0,0-.08v-.07a.37.37,0,0,0-.34,0l-.11,0c-.24.05-.32.27-.41.49,0,0,0,.08,0,.13A.14.14,0,0,1,258.5,23.37ZM260,26.75v0s-.06-.05-.06-.05-.07,0-.11,0,0,.07.06.05S260,26.76,260,26.75Zm2.22,5.64s0,0,.06.05a.55.55,0,0,1,.32.3.76.76,0,0,0,0-.4.26.26,0,0,0-.28-.2h0a.3.3,0,0,0-.15.13S262.11,32.33,262.26,32.39Zm.65,1.83a.48.48,0,0,0,.15.17.43.43,0,0,0,.29,0c.07,0,.12-.12.16-.21h-.17l-.14-.06a12.43,12.43,0,0,0-.26-.05A.26.26,0,0,0,262.91,34.22Zm1.59,1.88c-.15,0-.23.13-.34.28l-.16.21c-.09.07-.08.11-.08.11h0a0,0,0,0,0,0,0l.14-.17A5.48,5.48,0,0,1,264.5,36.1ZM258,20.91l.11,0a.57.57,0,0,1,.24-.05,1,1,0,0,1,.34-.92,1.73,1.73,0,0,0,.41-.87,1.38,1.38,0,0,0,.08-.37.16.16,0,0,0-.07-.08.58.58,0,0,1-.28.52.89.89,0,0,1-.7,0h0a.33.33,0,0,0-.13.12s.1,0,.15.06c.39,0,.54.06.58.16s-.14.2-.32.31a.91.91,0,0,0-.21.12c-.17.13-.19.3-.17.59A1,1,0,0,1,258,20.91Zm2.9,6.25-.33.12a.15.15,0,0,1-.1.08.56.56,0,0,0,.13.14.25.25,0,0,1,.07.08.13.13,0,0,0,.06-.06l.06-.17Zm-2.48-5.69a.25.25,0,0,0,0,.19.1.1,0,0,0,.06.05h0v0C258.51,21.6,258.45,21.55,258.46,21.47Zm2,3.23a1.08,1.08,0,0,0-.26-.58.54.54,0,0,0-.36-.17.35.35,0,0,0-.28.14c0,.09,0,.19.12.22a.13.13,0,0,1,.09,0,.33.33,0,0,1,.3,0c.07,0,.08.18.06.28s-.17.21-.37.25a.34.34,0,0,0,.09.12l.17-.1A.55.55,0,0,1,260.48,24.7Zm2.82,9.07c.06-.06.08-.11.06-.17l.07-.14-.12.12A.26.26,0,0,0,263.3,33.77Zm-4.51-12.68a.15.15,0,0,0,.06-.06l0,0c-.06-.05-.1,0-.22.08a.18.18,0,0,1,0,.16h0A.32.32,0,0,0,258.79,21.08Zm4.44,10.75,0,.13a1.78,1.78,0,0,0,.19,0v0s0,0,0-.08c-.17,0-.26-.19-.35-.28a2.3,2.3,0,0,0-.16-.2.41.41,0,0,0-.26-.05s-.07,0-.06.06a.17.17,0,0,0-.07.14.33.33,0,0,0,.22,0C263.17,31.45,263.22,31.69,263.23,31.84Zm-1.31-2.29a.76.76,0,0,0,.28-.25.28.28,0,0,0,0-.23l-.07,0C261.94,29.27,261.85,29.34,261.92,29.54Zm-1.17-3.66,0,.24c.07,0,.1-.07.15-.17s-.07-.31-.21-.34A.25.25,0,0,1,260.76,25.88Zm.89,1.59-.15-.06s-.09,0-.15-.06v.19l0,.07c0,.18,0,.21.16.2,0,0,0,0,0-.08S261.67,27.53,261.64,27.46Zm3,7.22a2.84,2.84,0,0,1-.23-.52c0,.09,0,.13,0,.22a1,1,0,0,1,0,.32.36.36,0,0,0,0,.18l.09,0c.07,0,.11,0,.13-.09A.26.26,0,0,0,264.66,34.69Zm-2.31-6a.64.64,0,0,0,.14-.28s0-.08,0-.13A.39.39,0,0,0,262.35,28.7Zm2.27,4.8s0,0,0-.07-.06.06-.08.11l-.07,0a.73.73,0,0,0-.06.59l0-.09A.65.65,0,0,1,264.62,33.5Zm-2.79-6.86h0l0-.07c-.09-.12-.15-.17-.22-.14h0v0A.23.23,0,0,0,261.83,26.64Zm3.51,8.81c.06.16.2.23.44.21a.68.68,0,0,1-.37-.35.12.12,0,0,0-.07-.09A.48.48,0,0,0,265.34,35.45Zm1.42,2a1.29,1.29,0,0,1-.55-.32l0,.13a1.67,1.67,0,0,1,0,.27l.07.2a.22.22,0,0,0,.22,0A.74.74,0,0,0,266.76,37.48Zm0-1.1a.46.46,0,0,0-.46.05.13.13,0,0,1-.06.06s0,.08,0,.09a.37.37,0,0,0,.22.07c.27.09.32,0,.36-.09S266.81,36.41,266.8,36.38Zm1.44-.29c-.53,0-.58-.39-.62-.75l0,0-.28.21-.07-.42.35.1a.29.29,0,0,1,0-.2s0-.2,0-.22v0a.69.69,0,0,0-.34.16,1.61,1.61,0,0,1-.36.21l0,0c.08.12.19.19.12.33a.2.2,0,0,1-.12.12c.32.45.65.7,1.16.59a.05.05,0,0,0,.07,0Zm1.66-.66a.08.08,0,0,0-.09,0,.2.2,0,0,1-.12.12.29.29,0,0,1-.2,0l-.11,0a1.84,1.84,0,0,1,.43,0,.05.05,0,0,0,.07,0S269.91,35.46,269.89,35.42Zm2-.93c0-.16-.23-.33-.39-.46l-.19-.2c.06.17.11.35,0,.44s-.29.06-.5,0a.29.29,0,0,0-.16,0,1.15,1.15,0,0,0,0,.27.78.78,0,0,1,0,.08l.13-.08s.06-.06.1-.07h0a.51.51,0,0,1,.58.21s.06.05.07.09a.49.49,0,0,1,.2-.1C271.92,34.58,271.94,34.56,271.94,34.5Zm-.59.57c-.14,0-.29.06-.4.1a.12.12,0,0,1,.08,0C271.17,35.24,271.23,35.19,271.35,35.07Zm1.22-.34h-.07c-.2.1-.19.25-.17.54l0,.07a1,1,0,0,0,.23-.49S272.59,34.8,272.57,34.73Zm1-1.09c-.08.25,0,.42.17.5h0C273.92,33.87,273.86,33.78,273.61,33.64Zm-2.07-8.89a1.14,1.14,0,0,1-.18-.16c-.12-.11-.18-.17-.29-.13s-.06.06-.05.09.16.1.21.15.13.14.27.1A0,0,0,0,0,271.54,24.75Zm-1.06-3.4c.21-.11.23-.3.25-.49,0,0,0-.08,0-.11s-.06-.05-.1,0c-.23.19-.35.34-.24.52S270.47,21.32,270.48,21.36Zm-1.41-4.58s0,0,.07-.06c0-.39.29-.54.5-.68l.11,0a.39.39,0,0,0-.2,0,.84.84,0,0,0-.28.17A.6.6,0,0,0,269.07,16.78Zm6,16.86-.14-.07a.34.34,0,0,0-.21,0,.14.14,0,0,0-.1.07s0,0,.09,0a.2.2,0,0,0,.13,0s.18.09.17.06S275.08,33.72,275.1,33.64Zm-3.29-10.19a.38.38,0,0,0-.27.31v0c.11,0,.14-.08.21-.22S271.78,23.49,271.81,23.45ZM271.37,22c0-.07-.07-.09-.17-.13,0,.15.05.17.09.16h.08Zm-.68-3.67a.53.53,0,0,1,.29.13s.11.08.15.07a.13.13,0,0,0,.06-.06.26.26,0,0,0,0-.16c0-.11-.1-.19-.25-.25a2.48,2.48,0,0,0-.58-.26s-.06.06-.1.07a.29.29,0,0,0,0,.24c0,.1.14.18.4.21Zm.53,1.39c.08.24.18.31.33.26s.11,0,.1-.22a.47.47,0,0,1,0-.23l0-.1h-.08l-.15,0C271.17,19.54,271.18,19.58,271.22,19.68Zm2.86,8.3a.24.24,0,0,1,.13-.08.14.14,0,0,0,.06-.06.11.11,0,0,0-.06-.06s-.06-.06-.07-.09a.43.43,0,0,0-.23-.11l0,.07a1.17,1.17,0,0,0,0,.36l0,0A.14.14,0,0,1,274.07,28Zm-2-6.54s-.05.09,0,.12a.1.1,0,0,1,.06.06s.05-.09,0-.12S272.07,21.44,272.07,21.44Zm3.29,9.94s-.08,0-.14-.07l.11.33a.82.82,0,0,0,.11.22s0,0,.12,0,.06-.06,0-.26l0-.1S275.49,31.44,275.35,31.38Zm-4.16-14.13c-.05-.17-.09-.27-.18-.31a.39.39,0,0,1,0,.15c0,.13,0,.21.15.21s0,0,0,0Z" transform="translate(-6.03 -0.1)"/><path class="cls-1" d="M298.39,25l.79,3.76c.22,1.07.14,1.19-1,1.43l-1.89.41-2.42.55c-3.6.85-5.39,1.3-9,2.3l-.74.21a.41.41,0,0,1-.4-.07.54.54,0,0,1-.15-.4l0-.12a7.07,7.07,0,0,0-.35-4.11c-.51-1.74-1-3.55-1.52-5.28l-.62-2.21,0-.1h0L280.57,19c-.59-2.1-1.28-4.35-1.8-6.45a3.86,3.86,0,0,0-1.31-2c-.28-.25-.46-.44-.39-.62s.34-.28.72-.42c2.45-.69,3.68-1,6.15-1.64.39-.1.64-.09.76,0s.08.31,0,.59a4.83,4.83,0,0,0,0,3.08c.89,3.43,1.82,7,2.67,10.37l1,3.76.05.2.13.51a.41.41,0,0,0,.2.35.6.6,0,0,0,.43,0c.7-.2,1.44-.4,2.13-.56l.62-.15.69-.16c.58-.14,1.17-.27,1.76-.37a6.86,6.86,0,0,0,2.71-1.07c.44-.27.71-.37.89-.3S298.3,24.61,298.39,25Zm-14.25.49s.06-.05.08-.13,0,0-.08,0a.2.2,0,0,0-.13,0l-.05.09,0,.07v0A.3.3,0,0,0,284.14,25.51Zm-2.46-9.66a.12.12,0,0,0,0-.08l-.09-.34a.37.37,0,0,0-.22,0h0A.41.41,0,0,0,281.68,15.85Zm3.84,12.87a.24.24,0,0,0,.06-.2s0,0-.06.05l-.07,0a.85.85,0,0,1-.29.08.39.39,0,0,0-.12,0l0,.1a.44.44,0,0,0,.24,0A.27.27,0,0,0,285.52,28.72Zm-1.88-9.38a1.25,1.25,0,0,1-.52-.44,1,1,0,0,0-.42-.36h-.08c-.13,0-.18-.06-.21,0s-.06.09,0,.19l0,.1a1.24,1.24,0,0,0,1.14.64.13.13,0,0,0,.07-.05A0,0,0,0,0,283.63,19.34Zm-1.43-2.61a1.5,1.5,0,0,0-.24.17h0c.09,0,.3.06.33,0a.19.19,0,0,0,0-.15S282.2,16.73,282.2,16.73Zm1.88,5.92s0,0,0,0,0,0-.09,0a.25.25,0,0,0-.14.07l0,.34c0,.19-.06.35.11.41A1.73,1.73,0,0,0,284.08,22.65Zm2.57,7.7a1.13,1.13,0,0,1-.26-.26.4.4,0,0,0-.19-.13.4.4,0,0,0-.16,0,.43.43,0,0,1,.22.23.29.29,0,0,1-.11.32v0c-.22.31-.2.38-.2.38s.05.06.38,0a.32.32,0,0,1,.28,0c.1.07.09.19.12.3a.13.13,0,0,0,0,.11c0,.07,0,.1.07.13l.07,0a.13.13,0,0,0,.11-.17l-.11-.41,0-.14a.07.07,0,0,1,0-.1C286.87,30.47,286.82,30.45,286.64,30.35ZM284,17.21h0l0-.1,0,0a.4.4,0,0,0-.24-.3.15.15,0,0,0-.12,0,.58.58,0,0,0-.29.15,2.58,2.58,0,0,0-.73.74s0,0,0,.08l0,0h0A1.74,1.74,0,0,1,284,17.21Zm.7,6.85a.42.42,0,0,1,0,.21c.07,0,.13,0,.17.06a.55.55,0,0,0,.28,0A.48.48,0,0,0,285,24a1,1,0,0,0-.67-.15l-.07,0a.2.2,0,0,1,.13,0A.26.26,0,0,1,284.65,24.06Zm-3.8-13c.13,0,.19-.05.27-.22-.2,0-.24,0-.29.15ZM282,13.35a.47.47,0,0,0-.2.16.32.32,0,0,0,0,.22.4.4,0,0,0,.23.09,0,0,0,0,0,0,0v0s-.07-.09-.11-.12A.29.29,0,0,1,282,13.35Zm2.25,8.3a1.82,1.82,0,0,0-.2,0,.18.18,0,0,0-.1.06.12.12,0,0,0,0,.11s.07.13.15.11,0,0,.08,0l0-.12C284.28,21.76,284.3,21.71,284.29,21.65Zm-1.73-6a1,1,0,0,1-.14.25l.09,0c.23-.06.4.13.51.23s.16.14.24.12a.47.47,0,0,1-.08-.45,1.39,1.39,0,0,1,0-.18l-.22-.2-.06-.06-.1-.08C282.69,15.36,282.64,15.48,282.55,15.62Zm1.39,4.88s0,0,0,0,0,0,0,.11l0,.14A.28.28,0,0,0,283.94,20.5Zm-2.22-8.78a.83.83,0,0,0,.38,0l.12,0Zm3.21,11.47s0-.07-.09,0a.12.12,0,0,0,0,.11,0,0,0,0,1,0,0l.07,0Zm-2.1-9.61a.15.15,0,0,0-.11.07l-.08,0c.06.06.07.09.11.12s.16.14.28.14l-.07-.27Zm.68.55a.31.31,0,0,0-.21,0l-.05.27a.18.18,0,0,1,.11.12c.06.09,0,.15-.06.23a.74.74,0,0,1-.1.25l.15,0a.47.47,0,0,0,.3-.11.32.32,0,0,0,0-.26l0-.14A.36.36,0,0,0,283.51,14.12Zm3.41,14.08s0-.07-.13,0,0,0-.08,0a.51.51,0,0,0,.17.06Zm-4-14.89s0,0,.06.06l.1,0c0-.15,0-.22-.08-.31s0,0,0,0,0,0-.07.06S282.82,13.21,282.88,13.31Zm1.9,5.4c-.25.1-.35.2-.35.35s.06.06.06.06a.45.45,0,0,0,.24,0,.3.3,0,0,0,.3-.22C285,18.78,285,18.74,284.79,18.71Zm-1.9-7-.34,0a.22.22,0,0,0,.13,0c.1,0,.1,0,.17,0Zm3.7,12.65a3.93,3.93,0,0,1-.4,0l-.13,0h0l.14.07c.13,0,.33.13.41.07S286.6,24.43,286.59,24.39Zm.24,1.36a.31.31,0,0,0-.23-.12s-.06.05,0,.12,0,.17.16.18a.15.15,0,0,0,.1-.06A.34.34,0,0,0,286.82,25.75Zm1,3h.07c-.06-.09-.1-.08-.11-.12l0,0S287.77,28.78,287.8,28.77Zm.72,1.45a.7.7,0,0,0-.16.41v0a.13.13,0,0,0,0,.11s.1-.06.12-.1,0-.15,0-.22A.49.49,0,0,1,288.52,30.22Zm.12-.72a.52.52,0,0,0-.35-.17A.33.33,0,0,0,288.64,29.5Zm1.28-.22v0a1.47,1.47,0,0,0-.12-.33,1,1,0,0,1-.15-.44.44.44,0,0,0-.07-.27.65.65,0,0,0-.16.11c-.07,0-.14.07-.21.09,0,.22.12.35.28.51a3.4,3.4,0,0,1,.31.47.16.16,0,0,0,.12,0S290,29.41,289.92,29.28Zm1.34.65a.44.44,0,0,1-.24-.34c0-.07,0-.15,0-.17a.17.17,0,0,0-.12,0s0,.18,0,.21c.06.24.19.32.34.31Zm1.05-2.25a2.64,2.64,0,0,0-.37.52s0,0,0,0h0c.24-.13.36-.23.31-.44Zm1.17,1.1s0,0-.05-.06l-.08.13a.14.14,0,0,1-.1.06s0,0-.06.05v0a.42.42,0,0,0,.17-.08h0a.17.17,0,0,0,.1-.06Zm0-.69h-.07a.53.53,0,0,0-.12.14l0,.07h0c.17-.08.17-.08.15-.18Zm1.47.13a1.9,1.9,0,0,1-.49.69,1.36,1.36,0,0,0-.18.19c0,.06-.07.18,0,.22s0,0,.11,0a.34.34,0,0,1,.17-.08s.08-.13.1-.2a.44.44,0,0,1,.23-.31s.07,0,.14,0l0-.14A.94.94,0,0,0,295,28.23Zm1.11.22s0,0-.06.05-.15.22-.29.21a.46.46,0,0,0-.42.17l0,.17c0,.08,0,.26,0,.25s.06-.05.09-.09.12-.14.15-.18.06-.05.1-.06a.81.81,0,0,0,.16-.14.69.69,0,0,0,.23-.3Zm-1.14-1.19c0-.13,0-.2,0-.32v-.07a.13.13,0,0,0,0,.08v.15Z" transform="translate(-6.03 -0.1)"/><path class="cls-1" d="M319.16,21.64l.45,3.82c.13,1.08,0,1.2-1.09,1.34l-1.91.24-2.45.33c-3.64.52-5.46.81-9.09,1.48l-.75.14a.41.41,0,0,1-.39-.11.54.54,0,0,1-.11-.41l.05-.12a7.1,7.1,0,0,0,0-4.13c-.35-1.78-.71-3.63-1-5.4l-.42-2.25,0-.1h0L302,14.08c-.4-2.15-.88-4.45-1.22-6.58a3.87,3.87,0,0,0-1.12-2.08c-.26-.27-.42-.48-.33-.66s.36-.25.76-.36c2.49-.46,3.74-.68,6.24-1.08.4-.06.64,0,.75.1s0,.31-.07.58a4.85,4.85,0,0,0-.24,3.07c.58,3.49,1.18,7.13,1.73,10.57l.61,3.83,0,.21.08.52a.41.41,0,0,0,.17.37.6.6,0,0,0,.43.08c.71-.13,1.47-.26,2.17-.37l.63-.09.7-.1c.59-.08,1.19-.16,1.77-.21a6.81,6.81,0,0,0,2.79-.82c.46-.23.73-.31.91-.22S319.11,21.22,319.16,21.64ZM305,20.85s.07,0,.09-.12,0,0-.08,0a.2.2,0,0,0-.12,0l-.06.08v.1A.3.3,0,0,0,305,20.85ZM303.39,11a.12.12,0,0,0,0-.08l-.06-.35a.37.37,0,0,0-.21-.07h0A.41.41,0,0,0,303.39,11Zm2.66,13.16a.24.24,0,0,0,.08-.19s0,0-.07,0H306a.84.84,0,0,1-.29.05.39.39,0,0,0-.12,0l0,.1a.44.44,0,0,0,.24.07A.27.27,0,0,0,306.06,24.16Zm-1-9.51a1.25,1.25,0,0,1-.48-.49,1,1,0,0,0-.38-.4l-.08,0c-.13,0-.17-.08-.2,0s-.06.08,0,.19l0,.1a1.24,1.24,0,0,0,1.07.74.13.13,0,0,0,.07,0A0,0,0,0,0,305,14.65Zm-1.19-2.73a1.49,1.49,0,0,0-.25.15h0c.09.06.29.09.33,0a.19.19,0,0,0,0-.15S303.84,11.93,303.84,11.93ZM305.17,18s0,0,0,0,0,0-.09-.06a.24.24,0,0,0-.14.06l-.06.33c0,.19-.09.34.07.42A1.73,1.73,0,0,0,305.17,18Zm1.86,7.9a1.13,1.13,0,0,1-.24-.28.4.4,0,0,0-.18-.15.39.39,0,0,0-.16,0,.43.43,0,0,1,.19.25.29.29,0,0,1-.13.31v0c-.25.29-.24.36-.24.36s0,.06.38,0a.32.32,0,0,1,.27.06c.09.07.07.2.09.31a.13.13,0,0,0,0,.11c0,.07,0,.1.06.13h.07a.13.13,0,0,0,.12-.16l-.07-.42,0-.14a.07.07,0,0,1,0-.1C307.25,26,307.2,26,307,25.89Zm-1.51-13.32h0l0-.1,0,0a.4.4,0,0,0-.21-.32.15.15,0,0,0-.12,0,.57.57,0,0,0-.3.12,2.57,2.57,0,0,0-.79.67s0,0,0,.08l0,0h0A1.72,1.72,0,0,1,305.53,12.56Zm.09,6.88a.42.42,0,0,1,0,.21c.07,0,.12.05.17.08a.55.55,0,0,0,.28.06.48.48,0,0,0-.1-.38,1,1,0,0,0-.65-.21h-.08a.2.2,0,0,1,.13.05A.26.26,0,0,1,305.62,19.45ZM303,6.21c.12,0,.2,0,.29-.19-.2,0-.24,0-.3.12Zm1,2.34a.47.47,0,0,0-.22.14.32.32,0,0,0,0,.22.4.4,0,0,0,.22.11,0,0,0,0,0,0,0v0s-.06-.1-.1-.13A.29.29,0,0,1,304,8.54Zm1.5,8.46a1.8,1.8,0,0,0-.2,0,.17.17,0,0,0-.11.05.12.12,0,0,0,0,.11s.06.13.14.12,0,0,.08,0l.06-.12C305.45,17.12,305.48,17.08,305.47,17Zm-1.18-6.16a1,1,0,0,1-.16.24l.09.06c.23,0,.38.16.48.27s.15.15.22.14a.48.48,0,0,1,0-.46,1.39,1.39,0,0,1,0-.18l-.2-.22-.05-.06-.1-.09C304.44,10.6,304.38,10.72,304.28,10.85Zm.94,5s0,0,0,0,0,0,0,.11l0,.14A.28.28,0,0,0,305.22,15.83ZM303.8,6.89a.83.83,0,0,0,.37,0l.12,0ZM306,18.6s0-.07-.09-.06a.12.12,0,0,0,0,.11,0,0,0,0,1,0,0H306Zm-1.23-9.76a.15.15,0,0,0-.11.06h-.08c.05.06.06.1.1.13s.15.15.27.17l0-.28Zm.62.61a.31.31,0,0,0-.21,0l-.08.26a.18.18,0,0,1,.1.13c.06.1,0,.15-.08.23a.74.74,0,0,1-.12.24l.15,0a.46.46,0,0,0,.3-.09.32.32,0,0,0,0-.26l0-.14A.36.36,0,0,0,305.36,9.45Zm2.14,14.32s0-.07-.12-.05,0,0-.08,0a.51.51,0,0,0,.16.08Zm-2.69-15.2s0,0,.05.06l.09.06c0-.15,0-.22-.05-.31s0,0,0,0,0,0-.07,0S304.76,8.48,304.81,8.58Zm1.41,5.55c-.26.08-.36.17-.38.31a.12.12,0,0,0,0,.06.45.45,0,0,0,.24,0,.3.3,0,0,0,.32-.2C306.48,14.23,306.39,14.17,306.22,14.13ZM305,7,304.62,7a.22.22,0,0,0,.13,0c.09.06.09.06.17,0Zm2.55,12.93a3.89,3.89,0,0,1-.4-.08l-.12-.05h0l.13.09c.12.05.32.16.4.11S307.51,20,307.51,19.95Zm.11,1.37a.3.3,0,0,0-.21-.14s-.07,0-.06.12,0,.17.15.19a.15.15,0,0,0,.11-.05A.34.34,0,0,0,307.62,21.32Zm.7,3.1h.07c-.05-.1-.09-.09-.1-.13l0,0S308.29,24.43,308.32,24.42Zm.59,1.51a.7.7,0,0,0-.2.39v0a.13.13,0,0,0,0,.11s.1-.05.13-.09,0-.14,0-.22A.49.49,0,0,1,308.91,25.93Zm.18-.71a.52.52,0,0,0-.33-.2A.33.33,0,0,0,309.09,25.22Zm1.29-.1v0a1.48,1.48,0,0,0-.09-.34,1,1,0,0,1-.11-.45.45.45,0,0,0,0-.28.64.64,0,0,0-.17.1c-.07,0-.14.06-.21.07,0,.22.09.36.23.53a3.42,3.42,0,0,1,.27.49.16.16,0,0,0,.12.05S310.44,25.26,310.38,25.12Zm1.27.77a.44.44,0,0,1-.2-.36c0-.07,0-.14,0-.17a.16.16,0,0,0-.11,0s0,.18,0,.21c0,.24.16.33.31.34Zm1.25-2.14a2.63,2.63,0,0,0-.41.49s0,0,0,0h0c.24-.11.38-.2.35-.41Zm1.07,1.2s0,0,0-.06l-.1.12a.14.14,0,0,1-.1.05s0,0-.07,0v0a.41.41,0,0,0,.18-.06h0A.17.17,0,0,0,314,25Zm.05-.68h-.07a.52.52,0,0,0-.13.13v.07h0c.18-.06.18-.06.16-.16Zm1.45.26a1.89,1.89,0,0,1-.54.64,1.35,1.35,0,0,0-.2.17c0,.05-.09.17,0,.22s0,0,.11,0a.34.34,0,0,1,.18-.06s.09-.12.12-.19a.43.43,0,0,1,.26-.28s.07,0,.15,0l0-.14A.94.94,0,0,0,315.46,24.52Zm1.08.32s0,0-.07,0-.17.21-.31.18a.45.45,0,0,0-.43.13l0,.17c0,.08,0,.25,0,.25s.07,0,.1-.08.13-.12.16-.16.07,0,.1,0a.81.81,0,0,0,.17-.13.68.68,0,0,0,.26-.28Zm-1-1.29,0-.32v-.07a.12.12,0,0,0,0,.08l0,.14Z" transform="translate(-6.03 -0.1)"/><path class="cls-1" d="M363.64,25.51c-.13.19-.45.21-.67.2-2.53-.18-3.8-.26-6.34-.37a.79.79,0,0,1-.64-.27.54.54,0,0,1,.1-.56,2.33,2.33,0,0,0,0-2c-.35-1.11-.53-1.67-.89-2.78s-.62-2-.94-3-.38-1.07-1.63-1.1h-.45l-.83,0c-.72,0-.81.11-.84.72s-.06,1.23-.07,1.83V19c0,.21,0,.47,0,.67,0,.48,0,1,0,1.48a4.56,4.56,0,0,0,.5,2.72l.1.35,0,.07c.1.39.13.6,0,.74s-.33.17-.69.16l-2.79,0H345c-.33,0-.66,0-.76-.2s0-.39.14-.71A7.62,7.62,0,0,0,345,20.3v-.39c0-4.79-.06-9.62-.06-14.3V3.7a4.23,4.23,0,0,0-.49-2.11,1.79,1.79,0,0,1-.25-.49c-.16-.39-.19-.63-.09-.77s.4-.21.84-.22c1.56,0,2.34,0,3.9,0l1.69,0,3.5.08c2,.06,3.06.1,5.11.2a1.9,1.9,0,0,1,1.58.68,1.66,1.66,0,0,0,.3.3c.14.12.31.26.42.38,1.26,1.1,1.27,1.16,1.16,2.65a5.91,5.91,0,0,0,0,.81l-.16,2.57c-.09,1.44-.18,3-.25,4.43A2.72,2.72,0,0,1,361,14.35c-1.28,1-1.27,1-.83,2.46l0,.07c.41,1.36.92,3,1.33,4.49A6.25,6.25,0,0,0,363,24.16a7.85,7.85,0,0,1,.51.6C363.71,25.13,363.75,25.35,363.64,25.51ZM347,9.55a.18.18,0,0,1,.08-.14S347,9.34,347,9.3l-.23.21a.62.62,0,0,0,.27.11A.1.1,0,0,1,347,9.55Zm.12-1.76.12-.11c.12-.07.16-.14.16-.18l0-.21L347.22,7h-.27a.42.42,0,0,1,.12.49c0,.11,0,.21,0,.25Zm0,3.84a.25.25,0,0,0,.15,0c.15,0,.23-.14.23-.39v0s-.07,0-.12.14a.33.33,0,0,1-.19.21S347.13,11.59,347.13,11.63Zm.32,7a.39.39,0,0,0-.11,0s0,0,0,0-.11,0-.15-.07,0,.14.07.21.15,0,.19,0A0,0,0,0,0,347.45,18.64Zm.23-9.9c0,.1-.16.18-.23.21l-.16.1s0,.07,0,.11l0,0a.13.13,0,0,0,.08,0,1.19,1.19,0,0,0,.51-.31s0-.07,0-.11l-.23-.21h-.16A.22.22,0,0,1,347.68,8.74Zm-.32,3.66a.12.12,0,0,0,0,.11.11.11,0,0,0,0,.07.24.24,0,0,0,.15,0l.08-.42C347.43,12.16,347.39,12.26,347.36,12.4Zm.14,3.31s0-.07-.07-.11c-.08.18-.15.32-.11.39s.19.07.41.11C347.76,16,347.65,15.86,347.5,15.72ZM347.37,7l.16.25v0s.08,0,.12,0,.31-.07.43.14a.12.12,0,0,1,0,.11v.11a.15.15,0,0,0,.12,0h0c-.08-.11-.15-.22-.12-.32a.4.4,0,0,1,.35-.21c.51-.14.51-.42.48-.77V6.07a.24.24,0,0,0,0-.14v.18a.68.68,0,0,1-.36.49s0,.11,0,.18a.29.29,0,0,1-.12.21c-.08.07-.23,0-.35,0V6.88l0,.11a.73.73,0,0,1-.39-.21A.58.58,0,0,1,347.37,7Zm.3,10a.25.25,0,0,0-.07-.21h-.11s-.08,0-.08,0v0c0,.18.07.21.11.21s0,0,0,0S347.64,17,347.68,17ZM347.62,5.5c0,.07,0,.11.08.11a.06.06,0,0,0,.08,0v0a.86.86,0,0,1,.32-.74,1.09,1.09,0,0,1,.91-.06.16.16,0,0,0,.12,0,.31.31,0,0,0-.12-.18.46.46,0,0,0-.51-.15.16.16,0,0,0-.12,0l0,.11-.12-.11A1.14,1.14,0,0,0,347.62,5.5Zm1,8.78a2.33,2.33,0,0,0-.11-.74,2,2,0,0,1-.46,0,.67.67,0,0,0-.38.07c.15.07.19.25.23.39a1.52,1.52,0,0,0,.15-.1l0-.07a.14.14,0,0,1,.15-.1.08.08,0,0,1,.08.07l.19,0-.11.07a.41.41,0,0,1,.15.28c0,.18-.12.32-.27.42l-.12.1-.08.07-.08.07a0,0,0,0,0,0,0s.08,0,.23,0,0,0,.08,0c.23-.07.27-.24.27-.49Zm-.89-4.62c0,.14.11.18.31.18l.08,0h0V9.8l-.12-.11c-.08-.11-.12-.14-.19-.14h0C347.75,9.55,347.75,9.62,347.75,9.66Zm.1,3.14.15.11a.3.3,0,0,0,.19-.07A1.14,1.14,0,0,0,347.85,12.79Zm.13,9.69c-.07,0-.11-.11-.18-.14s0,.07,0,.11S347.91,22.48,348,22.48Zm.34-1.34s0-.07-.22-.11-.26.1-.22.21v0a.42.42,0,0,0,.18,0h.07c.07,0,.15,0,.19-.07Zm-.3-4.65,0-.07s-.07,0-.11,0a.25.25,0,0,1,0,.14C348,16.53,348,16.53,348,16.49Zm.46-5.07.12-.14a.15.15,0,0,0-.12,0s-.08,0-.08,0c-.15.07-.15.07-.12.1S348.4,11.46,348.47,11.42Zm-.12.77s-.08,0-.08.07l.08.11v0l0-.14Zm.38-9,.56.08c.08,0,.12,0,.12-.07V3A1.51,1.51,0,0,1,348.74,3.22ZM349,15.58s-.11-.07-.15,0-.11,0-.19.1v0C348.78,15.72,348.86,15.65,349,15.58Zm.13-4.68s0,0,0-.07a.12.12,0,0,0,0-.07.08.08,0,0,0-.08.07.52.52,0,0,0-.12.21c.08,0,.15,0,.23,0a.18.18,0,0,0,.12,0Zm-.06,2.46a.12.12,0,0,0,0-.11.16.16,0,0,1-.15.1c.11.07.15.07.19,0Zm.32-1.51a.26.26,0,0,1-.08-.14.31.31,0,0,0-.27.1s0,.11,0,.21.08.07.15.11a.24.24,0,0,0,.15,0C349.5,12,349.47,12,349.39,11.85Zm.69-.13h.15v0c0-.07-.08-.14-.19-.21s0,0-.15.1l0,0C349.89,11.72,349.93,11.72,350.08,11.72Zm.06-9.27h.12a.57.57,0,0,1,.24,0c.08,0,.16,0,.2.07a.25.25,0,0,1,.08.18,0,0,0,0,0,0,0s0-.1,0-.21,0,0,0,0,0-.11,0-.18a1.79,1.79,0,0,1-.24.07C350.3,2.34,350.18,2.35,350.14,2.46Zm.83,9.35h0a1,1,0,0,0-.46.1.33.33,0,0,1-.2.38l-.12.07s-.08,0-.12,0h.08s.08,0,.15,0a.15.15,0,0,1,.11,0l.15.11s0,0,0,0a.23.23,0,0,1,.23,0s0,0,.08,0,.08-.21.08-.39S350.93,11.91,351,11.81Zm-.61,1.89h0a.84.84,0,0,0-.19,0,.12.12,0,0,0,0,.07c.08,0,.11.07.19-.07S350.36,13.7,350.36,13.7Zm5.39-3.41c.39,0,.59-.15.6-.51L356.5,6c0-.35-.18-.54-.57-.55l-1.66-.06-.51,0-.63,0-.67,0-.83,0c-.67,0-.77.11-.8.69s-.06,1.23-.07,1.83l0,1.55a.69.69,0,0,0,.15.53.81.81,0,0,0,.54.19C353.15,10.2,354,10.22,355.75,10.29Zm-4.07-7.34c.08.2.23.46,0,.74h0c.08,0,.2.11.24.08v0c0-.1.12-.17.16-.28s.16-.17.12-.21a1.18,1.18,0,0,1-.35-.43.89.89,0,0,0-.31-.39v0l0,0C351.53,2.62,351.62,2.77,351.69,2.94Zm1.83,10.9c0-.11-.08-.13-.37-.19a1.44,1.44,0,0,1-.57-.19.86.86,0,0,0-1,0c.19.29.41.26.76.19q.06-.1.12-.1a.18.18,0,0,1,.19,0c.08,0,.07.07.11.11s0,0,.08,0a1.31,1.31,0,0,1,.53.15S353.48,13.81,353.52,13.84ZM352.38,2.18a.19.19,0,0,1,0,.14v.14h0c0-.07.12-.1.16-.17s.08-.07,0-.14a.38.38,0,0,0-.23-.18C352.34,2,352.34,2,352.38,2.18Zm1,.48a.63.63,0,0,1,.24-.06s.08,0,.12,0,.15.25.19.36a.33.33,0,0,0,0,.14.33.33,0,0,0,.16,0c.16-.07.21-.24.29-.41a.83.83,0,0,1,.58-.55.1.1,0,0,1,0-.07h-.08a.69.69,0,0,0-.32-.12l-.4.16s0,0,0,.07a.4.4,0,0,1,0,.21.22.22,0,0,1-.16.07h0s-.12,0-.12-.07,0-.07,0-.11l-.16.07.08-.17c-.2,0-.36,0-.36.1S353.33,2.45,353.36,2.66Zm1.91.17c0,.11.07.18.19.22,0,0,0,0,0-.11s0-.18-.07-.21S355.27,2.79,355.27,2.83Zm.84,10c.07,0,.19,0,.3.08a.53.53,0,0,1-.15-.11c-.37-.37-.68-.24-1.07,0a.15.15,0,0,1-.12,0s0,0,0,0l0,0c.08,0,.11.07.15.11s0,.07,0,.11,0,0,0-.07a.56.56,0,0,1,.28-.31A.67.67,0,0,1,356.11,12.87Zm-.08-10,.2,0h0l.08-.07a.6.6,0,0,0-.24-.08s0,0,0,.07Zm.43.19,0,0c.19.22.34.44.62.48,0,0,0-.07,0-.11s-.11-.29,0-.42a0,0,0,0,1,0,0,1.49,1.49,0,0,0-.56-.06Zm.81,12.23a.57.57,0,0,1,.48.2c0-.07,0-.14,0-.18s0-.18,0-.21a.63.63,0,0,1,0-.53c0-.1.12-.21.05-.28s0-.11,0-.14,0-.18-.07-.18a.43.43,0,0,0-.27.09,2.89,2.89,0,0,0-1,1l-.24.38a.29.29,0,0,0-.13.31.37.37,0,0,0,.18.25c.18-.66.26-.73.9-.7Zm-.56,1.49,0-.14a.19.19,0,0,1-.11,0c-.11,0-.3,0-.33-.19,0,0,0,.07,0,.11a.38.38,0,0,1-.13.45A.5.5,0,0,0,356.71,16.78Zm-.07.77c.23,0,.25,0,.31-.13a.42.42,0,0,0,0-.17h0l-.08.07c-.08.1-.19.1-.27.13s-.07,0-.08,0v0h0A.13.13,0,0,1,356.64,17.55Zm.12-4.58h.11a.52.52,0,0,1,.23,0,.6.6,0,0,0-.07-.25.61.61,0,0,1-.07-.25v.07a.37.37,0,0,1-.21.41Zm.59-9.21a.15.15,0,0,0,0,.11s.09,0,.16,0l.64-.18A1.3,1.3,0,0,0,357.35,3.76ZM357,18.69a0,0,0,0,0,0,0s-.07,0-.15,0l0,0s0,0,.11,0Zm.65-7.73a.33.33,0,0,1-.2.06h0v0a.49.49,0,0,0,.26.19h0v0a.29.29,0,0,1,0-.17s.08-.07.08-.1.08,0,.08-.07A.47.47,0,0,0,357.65,11Zm.51-6a.35.35,0,0,1-.31,0,.62.62,0,0,0-.05.25.94.94,0,0,0,.49.41l.23.12c.08,0,.11.08.15.11l.11.11s0,0,.12-.06,0-.07.08-.1.25-.23.17-.31-.15-.08-.39,0h-.08c-.16.06-.28.09-.39,0s0-.18,0-.42Zm-.22,11.24c-.08.1-.23.09-.42.12h0a1.12,1.12,0,0,0,.34.05S357.94,16.3,357.94,16.23Zm.33-13.67a.47.47,0,0,1,.32.09c0,.07.07.14,0,.21a.19.19,0,0,1-.13.17h-.08c.07.14.11.18.27.12l.12,0a2.36,2.36,0,0,1,.6-.11.63.63,0,0,1-.1-.36,1.4,1.4,0,0,0-.07-.22.36.36,0,0,1-.17.17H359c-.08,0-.12,0-.16,0a.53.53,0,0,1-.15-.11l-.28.09.08-.1c-.08,0-.16,0-.16,0Zm-.42,14.72s-.11-.11-.15-.11l.07.07.07.07Zm.22-1.4s.08-.07.08-.1l-.19,0c-.07,0-.11,0-.15-.08s0,0,0,.07,0,.11,0,.14A.26.26,0,0,1,358,16Zm.5-8.76a.32.32,0,0,0-.19-.08.21.21,0,0,0-.12,0v.07a.85.85,0,0,0,.25.44V7.44A.47.47,0,0,0,358.57,7.13ZM359,4.18s0,0,0,0c-.32.06-.36.16-.34.41a.63.63,0,0,1,.17-.17,1.63,1.63,0,0,0,.25-.24Zm-.75,15.91c-.15,0-.3.06-.3.09a.6.6,0,0,0,.1.25s0,0,0-.07A1,1,0,0,0,358.2,20.09Zm.58-10.91a.21.21,0,0,1-.16.06l-.12.06a.12.12,0,0,0,0,.07s0,0,.08-.07.08,0,.16,0h0l.08,0V9.4s0,.07,0,.14a.56.56,0,0,1,.13-.35c.13-.17.32-.09.43,0a.14.14,0,0,1,.08,0h.27C359.54,8.94,359.23,9,358.79,9.18Zm-.6,7.41s0,0,0,0a.07.07,0,0,0,.11,0v0C358.3,16.53,358.3,16.53,358.19,16.6Zm2-5.93c.08-.14.09-.24.05-.28a.13.13,0,0,0-.16,0,.76.76,0,0,1-.59.11c-.14-.06-.21-.27-.25-.4s-.06-.25-.1-.25-.15-.11-.22-.19a.11.11,0,0,1,0,.07,1,1,0,0,1,0,.74.46.46,0,0,1-.52.26,1.45,1.45,0,0,1,.56.31s0,0,0-.07a1.05,1.05,0,0,1,.4-.26c.12,0,.35-.05.46.06s0,0,0,.07S360.18,10.74,360.22,10.67Zm-1.4,11.11h-.07a.89.89,0,0,1-.36-.19h0l-.08.17a.55.55,0,0,0-.12.28.38.38,0,0,1,.3-.2.32.32,0,0,1,.18.12c.07,0,.07.07.07.14a.71.71,0,0,1-.16.27l.21.12A.6.6,0,0,0,358.82,21.78Zm.71-.1a.37.37,0,0,0-.22-.08.39.39,0,0,1-.32-.33c0-.07,0-.11,0-.14l-.1-.15a.8.8,0,0,0-.22.06.57.57,0,0,1-.23.13l-.19,0a0,0,0,0,0,0,0,.32.32,0,0,1,.18,0c.07,0,.11.08.14.11a.7.7,0,0,1,.39.27h0a.13.13,0,0,1,.07,0,.3.3,0,0,1,.29.09s.07,0,.11,0v0Zm-1-1.85s.08,0,.08-.07a.12.12,0,0,0,0-.11l-.07-.07h0v.25Zm.85-6.8a.67.67,0,0,0,.38,0c.07,0,.08-.07.12-.06s0-.07,0-.14a.15.15,0,0,1-.12,0h-.11s0,0,0-.07l-.12.06c-.16.06-.2.1-.2.13S359.36,13,359.4,13Zm.22-5.56c.08,0,.16,0,.2-.09a.1.1,0,0,1,0-.07A1,1,0,0,0,359.62,7.46Zm.44-3s0,.07.11.08V4.39C360.05,4.42,360.05,4.42,360.05,4.45Zm-.74,18.45c0-.07,0-.11,0-.14h-.11S359.28,22.83,359.31,22.9ZM360,8.4a.5.5,0,0,0,.14.33.22.22,0,0,0,.2,0c.08,0,0-.14,0-.35a0,0,0,0,1,0,0c-.08,0-.19-.08-.23-.08S360,8.26,360,8.4Zm.44,1.22c0-.07,0-.07-.15-.11h-.16a.06.06,0,0,0,0,.11s0,0,.11.08a.25.25,0,0,0,.16,0S360.47,9.63,360.47,9.63ZM360.42,5h.2q.12,0,.12-.1c0-.11-.11-.11-.31-.09V5Zm.28.69s.07.08.11.08v0h.08c0-.07-.07-.11-.11-.15S360.74,5.69,360.7,5.69Z" transform="translate(-6.03 -0.1)"/><path class="cls-1" d="M374.58,25.88c0,.29,0,.46-.11.59a.82.82,0,0,1-.61.21l-.61-.07-.25,0-1.26-.14-1.59-.17-1.63-.16c-.43,0-.71-.18-.81-.36s0-.46.22-.79a7.28,7.28,0,0,0,.91-3.38c.56-6.09,1.14-12.12,1.6-16.66a5.09,5.09,0,0,0-.32-2.54c-.2-.41-.29-.74-.12-.93s.5-.2,1.06-.15c2.23.22,3.34.34,5.57.6.48.06.75.16.85.35s0,.39-.25.72a7,7,0,0,0-1.08,3.67c-.2,1.8-.4,3.68-.62,5.5l-.27,2.24-.3,2.48c-.26,2.2-.55,4.42-.83,6.61a3.51,3.51,0,0,0,.27,2A.84.84,0,0,1,374.58,25.88Zm-2.68-14.77s0,0,.07.11,0,0,.07,0v0a.12.12,0,0,0,0-.11.14.14,0,0,0-.07,0Zm-.66,7.76c.1.08.14.09.18.05a.12.12,0,0,0,0-.07h0c-.11,0-.13-.16-.16-.23s0,0-.07-.08v0s-.08.06-.09.1A.24.24,0,0,0,371.25,18.87Zm.38,3.09a.51.51,0,0,0-.17-.12,1,1,0,0,0-.42.06l.25.1a1.64,1.64,0,0,0,.19,0A.41.41,0,0,0,371.63,22Zm.24-2.21c0-.14,0-.21,0-.21s-.16.09-.24.15a.08.08,0,0,1-.08.06l-.13.13a.49.49,0,0,0-.13.13s.07.08.1.12l.12-.06a.76.76,0,0,1,.36-.17Zm.54-9.3a.15.15,0,0,1,.12,0h0a.14.14,0,0,0-.07,0S372.45,10.42,372.4,10.46Zm-1.1,12.81s0,0,0-.07h-.07c-.08,0-.11,0-.15.05a.25.25,0,0,0,.06.15s.06.11.09.15,0,0,.08,0S371.35,23.49,371.3,23.27Zm1.78-18.84c0,.11.18.16.37.25l.16.05c0-.25-.16-.41-.47-.44A.33.33,0,0,0,373.08,4.43Zm-.47,4.41,0,.07c.36,0,.6-.08.67-.39l0,0a.12.12,0,0,0,0-.07A1.08,1.08,0,0,0,372.61,8.85ZM373.1,14a.71.71,0,0,1,.24-.43.3.3,0,0,0-.3-.07c-.05,0-.09.13-.18.19s0,.28-.08.35a.49.49,0,0,1-.49-.12h-.08s0,0-.09.1v.07l.15,0a5.74,5.74,0,0,1,.77,0h.08S373.09,14.11,373.1,14ZM373,10.73a0,0,0,0,1,0,0l0,0-.3-.14c.07,0,.11.08.15.09S372.92,10.72,373,10.73ZM372,18.78c0-.14-.06-.15-.06-.15l-.12.09a0,0,0,0,1,0,0Zm.21-1.61s-.07,0-.15-.05-.08.06-.09.1v0s0,0,.07,0h0s.08,0,.12-.06Zm1.13-10.4v.11s0,0,.07,0h0V6.61h-.08S373.37,6.63,373.39,6.77Zm-.72,6.62,0,0s0,0,0,0l0,0Zm.38-1.7c0,.14.13.23.24.28h.08v-.1s0-.07,0-.11l0-.21s0-.1,0-.1h0a.21.21,0,0,0-.12,0A.34.34,0,0,0,373.05,11.69Zm-.23,4.23h0V16l0,.21,0,.14s0,0,0-.07,0-.14,0-.21S372.85,16,372.82,15.92ZM374.3,4.67c0,.1,0,.14.13.26A.55.55,0,0,0,374.3,4.67Zm0,2.24h.08c.09-.13.19-.26.12-.38s-.07-.11-.18-.2h-.12a.58.58,0,0,1,0,.36A.36.36,0,0,0,374.33,6.91Zm-.32,5.6s0,0,0-.07h0a.83.83,0,0,0-.21.12.08.08,0,0,0,.07.08A.16.16,0,0,0,374,12.51Z" transform="translate(-6.03 -0.1)"/><path class="cls-1" d="M401.58,10.13a50.32,50.32,0,0,0-1.52,6l-.56,2.51-.5,2.23-1.39,6.19a2.18,2.18,0,0,1-1,1.51c-.69.4-1.28.77-1.77,1.06a2,2,0,0,1-1.46.2c-2.73-.57-4.1-.83-6.84-1.31-1.86-.33-3.73-.64-5.64-.92-.5-.08-.74-.19-.82-.41s0-.43.27-.82a6.41,6.41,0,0,0,1.13-3.32c.61-4.82,1.37-10.09,2.38-15.78a5.71,5.71,0,0,0-.15-3.3,1.38,1.38,0,0,1-.12-.55.48.48,0,0,1,.15-.44.65.65,0,0,1,.5-.1l.16,0,2.15.33,2.87.47c3.55.61,5.32.94,8.85,1.67h0a2.76,2.76,0,0,1,1.89,1.19c.33.5.73,1,1,1.38A2.14,2.14,0,0,1,401.58,10.13Zm-15.47,2.24h.08a.31.31,0,0,1,.14.09l0,0,0,0a.2.2,0,0,0,0-.28.17.17,0,0,0-.21-.14,3,3,0,0,0-1.41.67.71.71,0,0,0,.75-.24A.43.43,0,0,1,386.11,12.37Zm-1.85,6.13a.36.36,0,0,0-.12-.2c0,.14,0,.14.08.19Zm.23-.46a.26.26,0,0,0,0-.11.12.12,0,0,0-.07,0,.12.12,0,0,0,0,.06s0,.06-.1.13h.07l.15,0Zm.91-3.71c0-.11-.07-.15-.2-.21a.81.81,0,0,1-.25-.18c0,.11.12.2.3.3A.3.3,0,0,1,385.4,14.32Zm.34-5.08a0,0,0,0,0,0,0l0,0a.31.31,0,0,0,.15.1s.08,0,.07-.17,0-.1,0-.15-.12,0-.17,0S385.74,9.24,385.74,9.24Zm-2.18,17.1s0,0,0-.08a.13.13,0,0,0,0,.21h0C383.62,26.46,383.62,26.46,383.57,26.34ZM387,6.09a.31.31,0,0,0,.08-.49C386.91,5.72,386.93,5.86,387,6.09Zm-.21,1.57c-.13.05-.16.12-.12.27a.4.4,0,0,1,0,.29.83.83,0,0,0-.05.31.75.75,0,0,1,.12-.26C386.94,8,387,7.87,386.8,7.66Zm-1.58,12c0-.18-.15-.27-.37-.31h0v.07C384.85,19.59,385,19.68,385.22,19.68ZM384.77,21s0,0-.12.05l-.12.05h0a.15.15,0,0,0,.19,0V21Zm-.21,1V22c0-.11,0-.15-.05-.15h0s0,.06,0,.07A.48.48,0,0,0,384.56,22.08Zm2-11.5s0,0-.08,0v0c.05.15.1.34.16.49l0-.21a.35.35,0,0,0,0-.28A.44.44,0,0,0,386.52,10.58Zm-.9,8.31c.15,0,.22,0,.22-.14v0h-.07l-.12.05a.53.53,0,0,0-.4.11s0,0,.07,0h0Zm2.57-11.36c0-.07,0-.11,0-.19a.43.43,0,0,1,0-.5l-.12,0,.3-.13s0,0-.07,0a.6.6,0,0,1-.43-.36.54.54,0,0,1,0-.25l-.5.56.12,0a.65.65,0,0,1,.38.17.73.73,0,0,1,.06.62l0,.14v.07a.33.33,0,0,0,.19.07C388.13,7.67,388.21,7.64,388.19,7.53ZM386.3,13.4a.32.32,0,0,1-.06.13.27.27,0,0,0,.15.27v0a.35.35,0,0,1,0-.18C386.37,13.45,386.37,13.41,386.3,13.4Zm1.34-3.78a.48.48,0,0,0-.11-.27.63.63,0,0,0-.27-.08l.22.36.15.06Zm-2.93,16.55a.18.18,0,0,0-.22,0v0s0,0,.15,0A.13.13,0,0,0,384.71,26.17Zm4-18a.14.14,0,0,0-.09,0,.67.67,0,0,0-.25.06,0,0,0,0,1,0,0A.47.47,0,0,0,388.72,8.2Zm1-1.14.15-.19a1.47,1.47,0,0,1-.33,0l-.12,0c-.16,0-.16,0-.18.08s0,.07.1.12S389.66,7.21,389.76,7.05Zm5.4,3.91c.09-.57-.06-.73-.68-.85l-2.14-.41-2.1-.38h0a.69.69,0,0,0-.89.49,2.39,2.39,0,0,0-.08.49l0,.14c-.52,3-1.09,6-1.61,9l-.15.87c-.12.69-.23,1.41-.33,2.09s0,.71.68.87l3.08.57.48.09c1.06.21,1.06.21,1.27-.86l.81-4,.36-1.8h.08l.25-1.28.74-3.73c0-.17.06-.36.1-.52A7,7,0,0,0,395.17,11Zm-5-4.6,0,.14s.06-.1.1-.13l.17-.29s0-.08-.07-.08h0l-.14.08C390.09,6.14,390.11,6.25,390.13,6.37Zm-1.81,20.29a.63.63,0,0,0-.28-.12,1,1,0,0,1-.55-.46.84.84,0,0,0-.21-.29.41.41,0,0,1-.34,0l-.11,0s0,.07,0,.08.17.13.31.16a.71.71,0,0,1,.62.72,1.14,1.14,0,0,0,.34.2.12.12,0,0,0,0-.06A1.25,1.25,0,0,0,388.32,26.66Zm2.56-19.52,0,.17,0,.17.17-.26c.06-.1,0-.14,0-.14h0s-.08,0-.09,0S390.85,7.1,390.88,7.14Zm-2.64,18.53c.15,0,.18,0,.24-.06s0,0-.14-.06a.29.29,0,0,1-.18-.07l-.11,0h0a0,0,0,0,0,0,0C388,25.55,387.95,25.62,388.24,25.68Zm3.71-18.59c.1-.12.06-.25,0-.43a.57.57,0,0,1,.12-.66V5.93a2,2,0,0,0,0-.26.16.16,0,0,0-.09-.16l0,.1a1.37,1.37,0,0,1-.09.52A.8.8,0,0,0,391.95,7.09Zm.55,1,.14-.08c.36-.18.59-.32.53-.65-.08,0-.15-.06-.23-.08s-.08,0-.12,0l-.18.32C392.47,7.76,392.37,7.88,392.5,8Zm-1.79,17.88a.73.73,0,0,1-.42-.19.64.64,0,0,1-.08-.55.29.29,0,0,0-.19,0,1.46,1.46,0,0,0-.14.55H390c.11,0,.36.1.31.35s-.36.29-.51.3l-.14,0h0a0,0,0,0,1,0,0c.39.11.66.09.84-.27C390.51,26,390.64,25.91,390.71,25.93ZM394,6.56l.14-.08s.4-.21.51-.08a.34.34,0,0,1-.09.45v0a.43.43,0,0,1-.28.16c.18.14.43.3.31.71,0,0,0,.08,0,.08h0a1.15,1.15,0,0,1,.37-.22.89.89,0,0,0,.48-.37c.09-.18,0-.21-.18-.32a.61.61,0,0,1-.29-.17,1.51,1.51,0,0,1-.18-.32l-.09-.16a.5.5,0,0,1-.09-.16l-.09.05-.45.24Zm-2.59,19.85,0,.14h.12v0a0,0,0,0,1,0,0,.26.26,0,0,1,0-.19c0-.07.09-.09.14-.12a0,0,0,0,1,0,0l0-.06h-.07c-.07,0-.14-.06-.25-.08l-.18,0a.58.58,0,0,0-.23,0,2.41,2.41,0,0,1,.31.13A.4.4,0,0,1,391.37,26.41Zm.16.35c.19,0,.27,0,.26-.16v-.07l-.21.1-.08,0-.2.07.11,0Zm.28-.48c0-.07,0-.11-.08-.16l0,0a0,0,0,0,0,0,0A.12.12,0,0,1,391.81,26.28Zm-.2,1.58-.11,0a.16.16,0,0,0-.11,0v.07a.16.16,0,0,0,.09.12s0,0,.1-.12a0,0,0,0,0,0,0Zm.22-1.47a.79.79,0,0,1-.14.15h.12Zm4.59-19.85h0c-.17,0-.19.11-.19.14l0,0v0C396.31,6.67,396.4,6.61,396.41,6.54Zm.42,2-.42-.16a.29.29,0,0,1-.24.17l.29.38a.33.33,0,0,0,.2,0c.09-.05.12-.19.15-.33Zm-4,19.32-.18,0a.56.56,0,0,0,0,.33l.08,0Zm.83-.58,0,0h-.07a.34.34,0,0,0-.25.09.76.76,0,0,0-.19.39.51.51,0,0,0,.14-.15.54.54,0,0,1,.18-.14l.09-.05A.16.16,0,0,0,393.69,27.24Zm2-8.36a1,1,0,0,1,.37-.46v0c0-.19-.07-.23-.11-.24h0v0c0,.07,0,.17-.12.19s-.23.26-.29.44a.75.75,0,0,1-.43.56v0C395.44,19.33,395.57,19.1,395.73,18.88Zm1.09-6.57c.15,0,.24,0,.32-.19l-.08,0s-.08,0-.18.11S396.83,12.27,396.82,12.31Zm-.34,3.35a.81.81,0,0,0-.26.09.7.7,0,0,1,.2.55.88.88,0,0,0,.29-.44c0-.07,0-.11-.05-.12A.31.31,0,0,0,396.48,15.66Zm-1.27,6.47c.2,0,.44-.05.49-.15l-.07,0-.18,0a.24.24,0,0,0-.14-.07.3.3,0,0,0-.2,0s-.09.05-.07.16a.15.15,0,0,0,0,.11A.3.3,0,0,1,395.21,22.12Zm-.78,3.54a0,0,0,0,1,0,0s-.06-.09-.1-.09v.07c0,.08.06.08.1.09S394.42,25.7,394.43,25.67Zm.94-4.48a.24.24,0,0,0,.19.22A1,1,0,0,0,395.37,21.18Zm2.12-7.47a.53.53,0,0,1-.28.37h0a.54.54,0,0,0,.15.25c.11,0,.21,0,.3-.3a1.39,1.39,0,0,1,.07-.16.2.2,0,0,0,.07-.13.21.21,0,0,1-.13,0h0s-.11-.06-.1-.09l-.06-.08.27-.16.09.13a1.28,1.28,0,0,1,.08-.38c.1-.27.12-.37,0-.39s-.33,0-.52.36c-.05.06-.07.16-.12.19A.47.47,0,0,1,397.49,13.71Zm-2.42,13.57c0-.07,0-.1,0-.15l-.11,0-.09.05a.34.34,0,0,1-.25-.09l-.11,0,0,.1,0,.1,0,.1s0,0,.08,0,.22,0,.33,0,.15,0,.15,0S395.06,27.35,395.07,27.28Zm3.31-17.41c0,.18.07.23.11.24l0,0h0A.79.79,0,0,0,398.38,9.86Zm-.17.79h0a.28.28,0,0,0,.22-.06h0a.2.2,0,0,0-.17,0S398.22,10.66,398.22,10.66Zm-1,4.7a.53.53,0,0,0,.12.57A.8.8,0,0,0,397.26,15.35Zm.11,1.9-.08,0h-.08c-.11,0-.19,0-.24,0s0,.11.18.26h.08a.26.26,0,0,1,.11-.16Zm1.42-5.32a1.38,1.38,0,0,0,.11-.16.47.47,0,0,1,.13-.22s-.07-.05-.15-.07-.11-.06-.18-.11a.27.27,0,0,0-.18-.11s0,0,0,0-.11.12.06.27.13.14.15.25ZM396.37,23l-.11.16s.07,0,.08,0S396.38,23.13,396.37,23Zm.59-2.18a.41.41,0,0,0,.24-.06.73.73,0,0,0-.11-.38l0,0,0,.17A.89.89,0,0,1,397,20.83Zm.12,1.25A.13.13,0,0,0,397,22l-.07-.05-.11,0a.3.3,0,0,1,.17.11s0,0,.07.05Zm1.66-7.1a.06.06,0,0,1-.08,0l-.1-.09s0,0,0,.08a.11.11,0,0,0,.1.09S398.73,15,398.73,15Z" transform="translate(-6.03 -0.1)"/><path class="cls-1" d="M409.22,32.84c0,.29-.05.46-.2.57a.83.83,0,0,1-.64.11l-.6-.17-.25-.07L406.29,33l-1.56-.41-1.59-.41c-.43-.11-.68-.29-.75-.48s0-.46.34-.75a7.24,7.24,0,0,0,1.42-3.2c1.49-5.93,3-11.81,4.12-16.22a5.06,5.06,0,0,0,.07-2.56c-.14-.43-.17-.77,0-.94s.53-.12,1.08,0c2.18.56,3.27.85,5.45,1.45.47.13.72.28.79.48s-.07.38-.36.67A7,7,0,0,0,413.69,14c-.47,1.75-1,3.57-1.45,5.34l-.61,2.17L411,24c-.6,2.14-1.22,4.29-1.83,6.4a3.49,3.49,0,0,0,0,2A.84.84,0,0,1,409.22,32.84Zm-.42-15s0,0,0,.12,0,0,.07.05v0a.12.12,0,0,0,0-.11.14.14,0,0,0-.07-.05ZM407,25.4c.09.1.13.11.17.08s0,0,.06-.06h0a.35.35,0,0,1-.13-.25s0,0-.06-.09v0s-.09,0-.1.08A.24.24,0,0,0,407,25.4Zm-.09,3.11a.51.51,0,0,0-.15-.15,1,1,0,0,0-.42,0l.23.14a1.66,1.66,0,0,0,.19,0A.41.41,0,0,0,406.87,28.51Zm.57-2.15c0-.14.05-.2,0-.21s-.17.06-.26.11a.08.08,0,0,1-.09,0l-.14.11a.49.49,0,0,0-.15.11s.06.09.08.13l.13,0a.76.76,0,0,1,.38-.12Zm1.94-9.11a.15.15,0,0,1,.12,0h0a.14.14,0,0,0-.07-.05S409.43,17.23,409.39,17.26Zm-3,12.5s0,0,0-.08l-.07,0c-.08,0-.12,0-.16,0a.25.25,0,0,0,0,.16s0,.12.07.16,0,0,.08,0S406.36,30,406.35,29.76ZM411,11.41c0,.11.16.19.33.31l.15.08c0-.25-.09-.43-.4-.51A.33.33,0,0,0,411,11.41Zm-1.13,4.29,0,.08c.36,0,.61,0,.73-.28l0,0a.12.12,0,0,0,0-.08A1.09,1.09,0,0,0,409.84,15.7Zm-.3,5.21a.7.7,0,0,1,.31-.39.3.3,0,0,0-.29-.12c-.06,0-.11.12-.2.16s0,.29-.13.33-.34-.06-.47-.2l-.07,0s0,0-.1.08l0,.07.15,0a5.81,5.81,0,0,1,.75.17l.07,0S409.52,21,409.54,20.91Zm.36-3.3a0,0,0,0,1,0,0l0,0-.28-.18c.07.05.1.1.13.11S409.86,17.6,409.9,17.61Zm-2.13,7.82c0-.15,0-.16,0-.16l-.14.07a0,0,0,0,1,0,0Zm.45-1.56s-.06-.05-.14-.07-.09,0-.1.08v0s0,0,.06.05h0s.08,0,.13,0Zm2.7-10.11,0,.07v0s0,0,.07.05h0l0-.1,0-.1,0-.1-.08,0S410.93,13.62,410.93,13.77Zm-1.72,6.43,0,0s0,0,0,0l0,0Zm.63-1.62c0,.14.1.24.2.31l.07,0,0-.1s0-.08,0-.11l.06-.2s.07-.09,0-.1h0a.22.22,0,0,0-.12,0A.34.34,0,0,0,409.84,18.58ZM409,22.73h0l0,.07-.05.2,0,.14s0,0,.06-.06,0-.14.06-.2S409,22.77,409,22.73Zm3.18-10.89c0,.1,0,.15.09.28A.55.55,0,0,0,412.15,11.83ZM411.84,14l.08,0c.11-.12.23-.23.18-.35s0-.12-.15-.22l-.12,0a.58.58,0,0,1,0,.36A.36.36,0,0,0,411.84,14Zm-1.17,5.49s0,0,0-.08h0a.83.83,0,0,0-.22.08.08.08,0,0,0,.06.09A.16.16,0,0,0,410.67,19.54Z" transform="translate(-6.03 -0.1)"/><path class="cls-1" d="M431.56,40.14c.07.52,0,.8-.17.92s-.45.13-1-.08l-1.62-.63-2.45-.92h0a1.34,1.34,0,0,1-.94-1.28c-.08-1.41-.17-2.69-.28-3.84-.17-2.19-.42-4.37-.69-6.55-.05-.6-.08-.9-.14-1.5a.26.26,0,0,1,0-.19,1.69,1.69,0,0,0,0-.27c-.12,0-.18.05-.22.3,0,0,0,.11,0,.18l-1.48,4.37-.6,1.77-.27.8a6.94,6.94,0,0,0-.32.82,3.2,3.2,0,0,0-.14,2,3.32,3.32,0,0,1,0,.57.72.72,0,0,1-.27.58.66.66,0,0,1-.59,0l-1.5-.5-1-.33-2.66-.85c-.51-.2-.67-.43-.7-.59a.71.71,0,0,1,.33-.71,4.8,4.8,0,0,0,1.41-2.55l1.44-4.61L421.46,15a4.9,4.9,0,0,0,.14-2.5c-.08-.43,0-.64.11-.78s.54-.09,1,0l1.59.5c.89.29,1.81.62,2.75.9a1.72,1.72,0,0,1,1.43,1.6c.23,2.09.49,4.16.7,6.21.08.74.15,1.47.26,2.22l.06.54c.1,1.11.15,1.67.24,2.79a.12.12,0,0,1,0,.11c0,.16,0,.16.06.17s.08-.12.12-.22L431.18,23l.36-1h0l.37-1c.29-.91.63-1.89,1-2.75a3.41,3.41,0,0,0,.14-1.56l-.06-.43c0-.34,0-.65.19-.76s.49,0,.88.09c2.22.81,3.33,1.23,5.54,2.1.53.21.76.41.81.62s-.12.41-.47.64a5.13,5.13,0,0,0-1.79,2.66c-1.88,4.79-4.13,10.47-6.35,16.06A4.45,4.45,0,0,0,431.56,40.14Zm-9.87-18.8a1.38,1.38,0,0,0,.35-.07c-.06-.06-.11,0-.25,0a.61.61,0,0,1-.44,0l-.11,0s0,0-.06.06-.1,0-.11.08l0,0A.73.73,0,0,0,421.69,21.34Zm-2.19,9.88v0a1.14,1.14,0,0,1-1-.31s-.06-.06-.14,0a.49.49,0,0,0-.15.1l.11,0,.07,0a1.68,1.68,0,0,1,.52.35l.22.18a.82.82,0,0,0,.31,0C419.53,31.49,419.5,31.33,419.5,31.22ZM422.19,19l.08,0c.08,0,.09,0,.09,0l0-.1a.13.13,0,0,0-.06-.06C422.24,18.85,422.16,19,422.19,19ZM420,26.86h0l-.07,0-.07,0c-.07,0-.11,0-.12,0a.25.25,0,0,0,.05.09c.05.07.14.19.19.17a.26.26,0,0,0,.26-.06v0A.52.52,0,0,1,420,26.86ZM418.25,33a.26.26,0,0,0,0-.19.55.55,0,0,0-.18.09c-.11.11-.05.17,0,.21s.06.06.07,0A.14.14,0,0,0,418.25,33Zm4-12.82c0,.13-.05.17.06.2s.11,0,.16,0a.5.5,0,0,0,.17-.13.54.54,0,0,1,.08-.38c.08-.16,0-.25-.07-.28s-.21.12-.32.34l0,.07Zm-.62,3.32c-.06-.2-.09-.22-.18-.21s-.12.11-.09.27a.3.3,0,0,1,.06.2s.05.09.05.09,0,0,0,0,.13,0,.14-.06,0-.13,0-.19Zm-1.77,5.58c-.08,0-.13,0-.17.17,0,0,0,0,.06-.06a.3.3,0,0,1,.3.06C420,29.12,419.92,29.06,419.84,29.07Zm.52-1.24a.24.24,0,0,0,.13.08c.06.06.13.08.2.14l.06-.05a.38.38,0,0,0-.14-.31l-.07,0a0,0,0,0,0,0,0,.08.08,0,0,0-.1,0Zm1.09-3.09s.06.06.05.09.07-.09.08-.12A.21.21,0,0,0,421.45,24.74ZM422.74,21s0,0,0,.08a.51.51,0,0,1,0,.52v0c.17-.13.3-.27.41-.38s-.07-.17-.1-.22l0,0a.15.15,0,0,0-.1-.07h0A.19.19,0,0,0,422.74,21Zm-2.09,8.73a.12.12,0,0,0-.08,0,.43.43,0,0,1-.38-.05.34.34,0,0,1-.12-.23l-.05.17,0,.07.11,0c.17.09.27.16.41.1A.19.19,0,0,0,420.65,29.78Zm1.61-5.52s0,0-.06-.06a.25.25,0,0,0-.16,0s-.08.12-.11.22l0,.13a.54.54,0,0,0,.23,0c.08,0,.12-.11.14-.18S422.28,24.31,422.26,24.27Zm3.13-8.76a.52.52,0,0,1,.08.54s0,0-.06.05h0a.9.9,0,0,1,.22,0,.43.43,0,0,0,.48-.29c0-.07,0-.1.08-.12l-.23-.08,0,0a.74.74,0,0,1-.21,0s-.08,0-.07-.06c-.14-.08-.15-.2-.19-.32l-.08,0-.11,0a.25.25,0,0,0,0,.11A.64.64,0,0,0,425.39,15.5Zm.35-.81c.17.13.08.29,0,.42l.17.13a2.65,2.65,0,0,0,.14-.55s0-.07,0-.08-.07-.06-.14-.08-.13,0-.14,0S425.72,14.61,425.74,14.69Zm-.86,3c.17,0,.27-.06.3-.16l-.11,0c-.08,0-.11,0-.12,0a.24.24,0,0,0-.12.22A0,0,0,0,1,424.88,17.67Zm-.92,4s0,0,0,0-.08-.14-.23-.19v0c0,.07-.09.15-.07.2S423.78,21.76,424,21.71Zm.66-2a.21.21,0,0,1-.13,0s0,0,0,0a.56.56,0,0,0,.11.18.44.44,0,0,1,.22-.3.62.62,0,0,1,.51.1c0-.08,0-.11-.08-.14a.27.27,0,0,0-.14-.08A1.14,1.14,0,0,0,424.62,19.74Zm-.74,4a.81.81,0,0,0-.45-.37,1,1,0,0,1,.14.82l0-.13A.37.37,0,0,1,423.88,23.69Zm.91-3.34a.76.76,0,0,1-.17.13c-.06.05-.16.1-.17.13l0,0a.26.26,0,0,0,.12-.11.35.35,0,0,1,.25-.14v0Zm-.33,1.75s-.06-.06-.14-.08,0,.19.09.22Zm1.83-5.33.08,0,.08,0s0,0,.06-.05.21-.12.24-.22V16.4c-.13,0-.17,0-.27.17s-.07.09-.13.14S426.29,16.73,426.28,16.76Zm-1.49,4.7.07,0,0-.1a.36.36,0,0,1,.19-.2.25.25,0,0,0-.26,0l0,.13A.12.12,0,0,1,424.79,21.47Zm.1,1.19-.37-.13s0,.08,0,.13S424.74,22.72,424.89,22.65Zm.83-2.32a.12.12,0,0,0,0-.08l-.1-.07-.08.23c.1.07.1.07.15.05S425.76,20.45,425.72,20.33Zm.05,1.21s0,0-.05-.09l0,.1s0,0,0,.08A.16.16,0,0,0,425.77,21.54Zm.93-2.36s.08,0,.12-.11a.44.44,0,0,0-.06-.43.67.67,0,0,1-.12.48A.15.15,0,0,0,426.69,19.17Zm-.82,3.89c0-.13-.13-.23-.4-.29a2.69,2.69,0,0,0,.33.37A.33.33,0,0,1,425.87,23.06Zm1.38-1.95,0,0c-.17-.24-.3-.22-.4-.17a.52.52,0,0,0-.18,0,.44.44,0,0,0-.24.1h.07s.09,0,.16,0A1.42,1.42,0,0,1,427.25,21.11ZM426,24s0-.07-.08-.14l-.07,0s-.07,0-.09,0l0,.07s0,0,.1.07A.12.12,0,0,0,426,24Zm.23,2.77,0,0s-.08,0-.12,0-.06.05,0,.1,0,.07,0,.08S426.25,26.84,426.22,26.8Zm1.12-.16s-.06-.06-.17-.1a.46.46,0,0,1-.34-.31h0a.18.18,0,0,0-.12,0,.33.33,0,0,0,0,.19C426.82,26.63,427,26.68,427.35,26.63Zm.3.44s0-.08-.11-.15l0,.07s.06.06.09.11S427.63,27.11,427.65,27.08ZM429,28.25a.12.12,0,0,0,0-.08.36.36,0,0,0-.15-.17h0a1.94,1.94,0,0,1-.39.27,1.75,1.75,0,0,0-.38.27.21.21,0,0,0,.12.12c0-.32.32-.33.53-.33a.3.3,0,0,0,.17,0C429,28.28,429,28.25,429,28.25Zm-.88,2.87a0,0,0,0,0,0,0h0c-.13,0-.14.06-.16.21a.2.2,0,0,1,0,.15C428.1,31.36,428.17,31.27,428.15,31.12Zm.76-1a1.44,1.44,0,0,0,.86.32s0,0,.08,0h0a.64.64,0,0,1-.24-.35s0,0,0-.08-.11.19-.19.19-.08,0-.16,0l-.07,0A.23.23,0,0,1,429,30a.27.27,0,0,1,.12-.22h0l-.14-.05h0a.1.1,0,0,1-.06.05C428.83,29.82,428.77,30,428.91,30.15ZM428,34.27s.06.06.13.09.14.05.19,0a.11.11,0,0,0,.06-.05s0-.1-.1-.15a.55.55,0,0,1-.22-.38s-.11.07-.2.11a.86.86,0,0,1-.24.1Zm1.23-2.66a.2.2,0,0,1,0-.15c-.11,0-.11,0-.18.16s-.11.3-.29.34l-.13,0h0s0,0,0,0,.09.07.14.05a.82.82,0,0,0,.41-.11A.6.6,0,0,1,429.19,31.61Zm-1.35,4.5c0-.08,0-.13-.07-.14a.14.14,0,0,0-.09-.07h0a.16.16,0,0,0-.15.09s0,0,0,.07,0,.09.08.11a.4.4,0,0,0,.2,0A.08.08,0,0,0,427.84,36.11Zm2.34-6.31.09-.23.09-.23c0-.24,0-.29,0-.29a.44.44,0,0,0-.25,0c.19.26.06.51,0,.71,0,0,0,.08,0,.11h0S430.19,29.91,430.19,29.8Zm3.1-7.42s0,.08,0,.16a.33.33,0,0,0,0,.11s0,0,.08,0,.3,0,.33-.1-.14-.2-.25-.24a.25.25,0,0,0-.16,0ZM429,36a.77.77,0,0,1-.27-.36s0,0-.06-.06c.06.47-.22.59-.52.63a.57.57,0,0,0,0,.37v0A.92.92,0,0,1,429,36Zm2.29-6.29c0-.11-.07-.14-.25-.21h0l-.07,0c0,.1,0,.13.2.23l.07,0S431.23,29.78,431.24,29.74Zm2.24-6.08.06.06s0,0,.09,0v0c0-.08-.11-.15-.3-.22a.21.21,0,0,0-.17,0A1,1,0,0,0,433.48,23.66Zm-1.87,4.53v0a.14.14,0,0,0-.08,0s0,0,0,0,0,.1.1.19h.07l0-.1C431.72,28.23,431.65,28.2,431.61,28.19Zm-1.72,4.47c.06.06.14.17.15.13a.15.15,0,0,0,.07-.08A.52.52,0,0,0,429.89,32.66Zm4.24-10.86s0,.06.16,0a1.35,1.35,0,0,1,.27,0,1.13,1.13,0,0,0,.29.15l-.13-.24c-.06-.06,0-.13,0-.19h0a.32.32,0,0,0-.12-.12h0a.46.46,0,0,0-.11.07.54.54,0,0,1-.14.14C434.15,21.65,434.09,21.7,434.14,21.8Zm-2.28,7.5,0,0a.25.25,0,0,0,0-.11h0l-.33-.12-.07,0A.8.8,0,0,0,431.86,29.3Zm-1.29,2.75a.15.15,0,0,1,.12,0l.07,0,0-.1s-.06-.06-.15-.13a.25.25,0,0,1-.13-.09h0l0,.07,0,.07a.12.12,0,0,0,0,.08S430.54,32,430.57,32.05Zm4.87-13.15s.05.09.11.16,0,0,.05,0a.46.46,0,0,1,0-.23c0-.1,0-.13,0-.15a.25.25,0,0,0-.13.1C435.43,18.82,435.42,18.85,435.44,18.9ZM429,37.79a.77.77,0,0,1,0-.2,0,0,0,0,0,0,0,.2.2,0,0,0-.1-.15.12.12,0,0,0-.08,0,1,1,0,0,0-.18.27c.17.18.24.2.32.2S429,37.82,429,37.79Zm4.58-12.73a.33.33,0,0,1,0-.11s0-.08,0-.11l0-.07s0,0-.06.05-.11.18-.07.2Zm1.4-3.92c.05,0,.13,0,.18,0a.3.3,0,0,0,.2-.08l.15-.06s.14,0,.15-.06l0,0,0,0s-.09,0-.22,0l-.1,0A.47.47,0,0,0,435,21.14Zm-2.38,7.28a.32.32,0,0,0-.13-.09s-.07.08-.13.14a.12.12,0,0,1-.07.08.69.69,0,0,0-.13.44c0,.06.17.1.24.13a.64.64,0,0,0,.32-.29C432.81,28.64,432.75,28.58,432.61,28.41Zm2.29-4.9a.32.32,0,0,0,.21,0h0a.47.47,0,0,0-.17-.1.74.74,0,0,0-.34.1l-.1,0s0,0,0,0,.05,0,.17,0A1.08,1.08,0,0,1,434.89,23.52ZM436,20a.19.19,0,0,0,0,.15h.09c.21,0,.34,0,.38-.08a.14.14,0,0,0,0-.11s0,0-.06-.06h-.21C436,19.84,436,19.83,436,20Zm-5.48,16.5v0l.09-.23c.08-.2.07-.28,0-.35s-.13,0-.25.13l-.16.09c0,.13.19.45.29.49S430.51,36.59,430.51,36.48Zm4-11.59h0a.25.25,0,0,1,0,.11s.1.08.17.1v0l0-.1S434.61,24.92,434.54,24.89ZM434,27.77c0-.07,0-.08-.23-.16a.74.74,0,0,1-.24-.13,1.73,1.73,0,0,0,.26.4.3.3,0,0,0,.18,0Zm-2.15,4.31.09-.23A.28.28,0,0,0,431.83,32.08Zm-.3,1.85c.06-.16.09-.23-.09-.3a0,0,0,0,0,0,0l-.06.05s0,.09.08.11S431.51,33.88,431.53,33.92Z" transform="translate(-6.03 -0.1)"/><path class="cls-1" d="M456.81,37.78a1,1,0,0,1-.12.77l-.27.53c-.66,1.21-1.27,2.4-1.89,3.63l0,.09c-.72,1.41-1.44,2.88-2.14,4.29a1.83,1.83,0,0,1-1.24,1h0c-2.59.71-2.62.72-5.1-.47l-2.22-1c-1.52-.71-3.07-1.41-4.6-2.08h0a2.52,2.52,0,0,1-1.29-1.22l0,0c-1.15-2.3-1.19-2.34-.19-4.72l2.94-7v-.11l.93-2.21c.9-2,1.77-4.17,2.62-6.24a1.71,1.71,0,0,1,1.35-1.11,8.09,8.09,0,0,0,1.86-.51,1.73,1.73,0,0,1,1.39.1c2.29,1,3.43,1.52,5.7,2.58q2.24,1,4.46,2.14l.11.05a1.13,1.13,0,0,1,.57.44c.16.32.31.67.51,1,.63,1.14,1.22,2.31.32,3.55a5.44,5.44,0,0,0-.67,1.4,7.75,7.75,0,0,1-.48,1.22c-.5.89-.76.94-1.79.43l-3.91-1.92c-.46-.23-.68-.42-.72-.62s.1-.5.38-.8c.13-.09.24-.2.36-.3a3,3,0,0,0,.42-.42.46.46,0,0,0,.15-.4.61.61,0,0,0-.34-.32c-1.72-.82-2.58-1.22-4.32-2a.48.48,0,0,0-.65.17,4.53,4.53,0,0,0-.33.63l-3.63,8.07-1.14,2.54-.06.13-.07.16c-.48,1.06-.48,1.06.69,1.63l.72.33,2.41,1.13c.67.28.69.25,1-.28.16-.29.34-.62.49-.94l.33-.7a.53.53,0,0,0,.06-.4c-.06-.15-.17-.22-.37-.3s-.52-.25-.77-.36l-.07,0c-.84-.39-1-.69-.66-1.51s.72-1.51,1.09-2.25c.15-.31.35-.65.5-1s.6-.54,1.13-.29l1,.47c1.69.84,3.49,1.7,5.21,2.55A.92.92,0,0,1,456.81,37.78Zm-17.39.42c.07,0,.14.06.29-.1l0-.1h-.07a.31.31,0,0,0-.34.12S439.34,38.12,439.43,38.2Zm1.34-1.57a.64.64,0,0,0-.24-.41c-.07,0-.09-.08-.13-.09s-.14.13-.12.18a.14.14,0,0,0,.06.06c.07.22.19.43,0,.67h.12A.62.62,0,0,0,440.77,36.63Zm2-6.14a.69.69,0,0,1,.44-.23.13.13,0,0,0,.16-.08l-.07,0a.6.6,0,0,0-.24,0c-.1,0-.19.15-.28.34Zm-3.53,8.8s0-.08-.08-.11-.11.07-.14.13v0s.12,0,.17,0A.11.11,0,0,0,439.29,39.29ZM445,25.89c.07,0,.1.08.13.1l.11,0s.1.08.13.1l0-.1a.19.19,0,0,0,0-.15l-.07,0A.56.56,0,0,0,445,25.89ZM446,24.12c.11,0,.16,0,.18,0s0-.11,0-.13l0,0a.14.14,0,0,0-.08.08Zm-4.18,11.05a.12.12,0,0,0,.06,0,.54.54,0,0,1-.21-.28l0,0c-.16,0-.24,0-.28.07s.13.29.31.36S441.75,35.32,441.85,35.18Zm2.89-8,0,.1v0a.74.74,0,0,0,.21,0l.07-.16A.91.91,0,0,0,444.74,27.21Zm-1.85,4.5a.78.78,0,0,1-.2.37.44.44,0,0,0,.21,0,1.14,1.14,0,0,1,.67.21l0,0s.06.06.09.08l.06.06a.89.89,0,0,0,.7.35.4.4,0,0,0-.12-.51,1.38,1.38,0,0,0-.63-.24A1.74,1.74,0,0,1,442.89,31.71Zm-.69,1.89a.15.15,0,0,0-.12,0,.34.34,0,0,0-.08.08.26.26,0,0,0,0,.16s0,0,.06.06.13-.1.15-.16v-.07A.14.14,0,0,0,442.2,33.6Zm2.93-6.07c0,.08,0,.11,0,.13a.28.28,0,0,0,.27.08l0,0c.21,0,.3,0,.3-.1s0-.14-.11-.16a.28.28,0,0,1-.18-.08l-.11,0Zm-4.58,11.53a.38.38,0,0,0-.12-.4l0,0a.49.49,0,0,0,.11.32A.08.08,0,0,1,440.54,39.06Zm2.37-4.38a1.54,1.54,0,0,1,.9-.6.83.83,0,0,0-.23-.14l-.11,0a.7.7,0,0,0-.44.23,0,0,0,0,0,0,0l0,.06,0,0c-.06.51-.4.52-.69.51l-.13,0a.38.38,0,0,1,.12.21A.55.55,0,0,0,442.91,34.68Zm2.17-5.05,0,.06c.23.18.38.32.58.25s.11-.26.07-.35c-.13-.4-.3-.79-.47-1.21l-.06-.06,0,0s-.05,0-.06,0a.93.93,0,0,0,0,.73,1.6,1.6,0,0,1,0,.4A.39.39,0,0,1,445.08,29.63Zm.75-2.82a.74.74,0,0,0,.36,0l-.31,0Zm-1.77,4.26a.24.24,0,0,1,0,.14c-.06.13-.06.13,0,.21l.07,0,0-.06Zm-2,5.39a1.17,1.17,0,0,0,.07-.35l0-.14,0,0c-.08.08-.06.24-.07.35l0,0A.12.12,0,0,0,442.05,36.46Zm4.45-10.09q.14.12.22.1a.72.72,0,0,0,.58-.52.72.72,0,0,1-.35.19,2.06,2.06,0,0,0-.37.15v0A.1.1,0,0,0,446.51,26.37ZM448,24a.51.51,0,0,1,.35-.19v0a.27.27,0,0,0-.13-.1l0,0a0,0,0,0,0-.05,0Zm-6,16.09-.19-.32s0,0-.08,0l-.1,0a.16.16,0,0,1,0-.16l0-.14c0-.18-.07-.22-.15-.22s-.1,0-.06.24a.76.76,0,0,1,0,.21v0a1,1,0,0,1,.23.22c.08.09.21.28.27.23A.12.12,0,0,0,441.93,40.06Zm6-15.58,0-.13v.11a.08.08,0,0,0,0,.1A.1.1,0,0,0,447.91,24.48Zm-2.42,6.59,0,.13a.29.29,0,0,1,.11-.15s0,0,0,0,0,0,0,0S445.53,31,445.48,31.07Zm3.43-7.27a.26.26,0,0,1,0,.19s0,0-.07,0,.09,0,.12-.06,0-.1,0-.1A.44.44,0,0,0,448.92,23.81Zm.31,1.41a.22.22,0,0,0,0-.21.39.39,0,0,0-.19-.08.36.36,0,0,1,0,.27c0,.06-.08.08-.09.11h.14C449.23,25.3,449.23,25.3,449.22,25.22ZM442,43a.51.51,0,0,0-.18,0s0,0,.05.06A.38.38,0,0,0,442,43Zm.71-.65s0,0,0-.08l0,.1a.12.12,0,0,0-.06,0l0,.06a.13.13,0,0,0,.05.06A.13.13,0,0,0,442.72,42.35Zm1,0a1.61,1.61,0,0,1-.45-.2c-.12-.07-.21-.17-.33-.19A1.83,1.83,0,0,0,443.74,42.38ZM450.9,25a.12.12,0,0,0,0,.11.21.21,0,0,0,.19.08.27.27,0,0,0,.16-.16,1.56,1.56,0,0,0,0-.48s0-.06,0-.08C451,24.42,450.92,24.63,450.9,25Zm-7.57,18s0,0-.05-.06-.07,0-.08,0-.06,0-.09.11-.14.21-.21.29-.19.15-.12.26l.36-.15,0-.06v0l0-.06a.12.12,0,0,0,.08-.08C443.38,43,443.4,43,443.33,42.93ZM451,26.31l.18.08c.11.05.16,0,.3-.06a2.81,2.81,0,0,0-.29-.05l0,0c-.05,0-.13,0-.14,0Zm-6.87,16,0,0a.29.29,0,0,1-.2.07.2.2,0,0,0,.12,0A.27.27,0,0,0,444.09,42.35Zm-.29,1.88s-.05-.06-.12-.1l0,0a.14.14,0,0,0-.18,0s0,0,.05.06,0,0,.05.06.07.11.09.08a.12.12,0,0,0,.06,0A.13.13,0,0,1,443.8,44.23Zm8-18.08a0,0,0,0,1,.05,0,.3.3,0,0,1,.25-.16l0,0a.46.46,0,0,0,0-.23C451.92,25.86,451.79,26,451.79,26.15Zm-7.53,17.36a.13.13,0,0,0-.05-.06s0,.08,0,.13Zm.86.28s-.05-.06-.09-.08a.33.33,0,0,1-.07-.3l0,0v0a.18.18,0,0,0-.13.1.3.3,0,0,0,.11.21A.28.28,0,0,0,445.12,43.8Zm7.63-16.73a.28.28,0,0,0,.16,0l0-.14Zm.47-.52.21-.06c0-.08,0-.15,0-.23a.28.28,0,0,0,0-.18C453.32,26.24,453.17,26.36,453.22,26.54Zm.22.1-.18.11,0,0c0,.08,0,.1-.1.11l-.24.24a.75.75,0,0,0,.45-.1c.17-.11.13-.17.1-.22Zm.43-.54c.38.45.52.52.95.49,0,0,0-.1,0-.13s0-.12,0-.19l.17.12.11.05,0,0,0-.1a.8.8,0,0,0-.56-.15A1.47,1.47,0,0,1,453.88,26.11Zm1.4.39v.08l0,0,0,.13h-.05c0,.05.09.09.13.1l0,0,0-.05,0,0A1.06,1.06,0,0,0,455.27,26.5Zm0,1a.26.26,0,0,0-.15-.15l0,0a.17.17,0,0,0-.13,0l0,.1s0,.14,0,.16,0,0,.07,0A.23.23,0,0,0,455.3,27.49ZM450.56,38.3a.18.18,0,0,0,.09.08c.17,0,.21,0,.24,0s-.06-.07-.13-.1A.14.14,0,0,0,450.56,38.3Zm-2.71,7c-.07,0-.09-.08-.12-.1a0,0,0,0,1,0,0c-.19-.13-.29-.18-.4-.12s0,0,0,0l.07,0c.14.22.23.31.39.23S447.84,45.36,447.86,45.33Zm-.72,1,0,0c-.15,0-.23,0-.28.06l0,.06A.31.31,0,0,0,447.13,46.31Zm3.53-7.14a.21.21,0,0,1-.17,0,.31.31,0,0,1-.11-.13l0,.06c0,.06,0,.18.07.31s.09.08.12.1.05,0,.1,0S450.72,39.32,450.66,39.17Zm5.13-10.91c0,.06-.13.09-.2.14s.24,0,.31-.08.13-.16.15-.32a.65.65,0,0,1,.28-.57.31.31,0,0,0,.1-.11.69.69,0,0,0-.26-.12,1.13,1.13,0,0,1-.22.75A.72.72,0,0,0,455.79,28.27Zm-5.08,12.85a.15.15,0,0,1,.09.08l0,0,.07,0a1.92,1.92,0,0,0-.24-.82c-.13.17-.27.3-.25.43S450.5,41,450.71,41.11ZM456.78,28l0,.21a9,9,0,0,0,.21.88.22.22,0,0,0,.08.12.37.37,0,0,0,.3-.05.6.6,0,0,0,.26-.34.81.81,0,0,1,0-.14l-.35.26v-.19a.61.61,0,0,1-.39-.31c-.11-.25,0-.45.22-.64a.62.62,0,0,1,.23-.2.76.76,0,0,1,.19-.1s0,0-.09-.2a.73.73,0,0,1-.44.34C456.83,27.71,456.71,27.77,456.78,28Zm-7.22,16.35.15.11a0,0,0,0,0,0,0l0-.06s-.09-.08-.15-.11l-.1-.05a.44.44,0,0,0-.15-.11c-.07,0-.1,0-.15,0a.23.23,0,0,0-.08.16A.56.56,0,0,1,449.55,44.35Zm2.58-5.8a.54.54,0,0,0,.2.13s.1.05.12,0,.08-.08.11-.14,0-.16,0-.19l-.07,0a.32.32,0,0,0-.08.08c-.05,0-.08.08-.18.11A.08.08,0,0,1,452.13,38.55Zm-.51,3.24-.06-.15a.45.45,0,0,0-.18-.33.44.44,0,0,0-.2.06.12.12,0,0,1,0,.11l0,0-.18,0,0,0c.06.23.12.37.24.39S451.4,42,451.62,41.8ZM449,46.11a.13.13,0,0,1-.05-.06l-.07,0-.07,0,0,0a.43.43,0,0,0,0,.35.18.18,0,0,1,.13-.09C448.94,46.21,449,46.19,449,46.11Zm8.58-17.49.13,0,0-.06,0-.09a.15.15,0,0,1-.09,0C457.63,28.5,457.57,28.51,457.56,28.62Zm-5.38,11.49a.12.12,0,0,0,0,.08l.06.15a.28.28,0,0,0,0-.22l0,0Zm.24,2a.62.62,0,0,0-.18-.6s0,.08,0,.11a.49.49,0,0,1,0,.53l0,0-.09.19.1.05c.08,0,.1,0,.1,0S452.39,42.21,452.42,42.08Zm-1.28,2.67q.09-.31-.06-.39l-.16.31a.67.67,0,0,0,0,.18l0,0c.07,0,.1.05.12,0S451.09,44.84,451.14,44.74Zm6.46-13.43,0,0,0,0a.34.34,0,0,1,.13.1.49.49,0,0,0,.32.08s0,0,0,0A.87.87,0,0,0,457.6,31.31Z" transform="translate(-6.03 -0.1)"/><path class="cls-1" d="M321.47,84l-.08.34c.13.13.08.3,0,.55l-.13.21a.76.76,0,0,1-.3.21l-.13,0-.3.13h-.13l-.38.13,0,0a.54.54,0,0,1-.3.17h-.25l0,0a.72.72,0,0,1-.42.13.34.34,0,0,1-.17.17.25.25,0,0,1-.3,0l-.13,0-.25.17a.39.39,0,0,1-.34,0l-.08,0a.57.57,0,0,1-.34.08l-.17.13a.25.25,0,0,1-.17,0h0l0,.08c0,.08-.17.13-.25.17l0,0h-.3l-.21,0L316,87a.32.32,0,0,1-.17.08l-.21.13-.25.08-.13.08a.21.21,0,0,1-.13,0l-.17,0-.13.08a.53.53,0,0,1-.25,0h0l-.08,0-.21.08a.48.48,0,0,1-.34,0l0,0a.44.44,0,0,1-.3.21l-.13,0h-.13l-.21,0c0,.08-.21.08-.42.08,0,.17-.13.21-.21.17l-.3.13a.47.47,0,0,1-.38.13l-.17.08a.52.52,0,0,1-.42.08l-.21,0-.13.08s-.08.08-.13.08l-.38.13a.58.58,0,0,1-.17.13h-.25l-.17,0c-.08.17-.17.21-.3.21l-.34,0-.17.08a.65.65,0,0,1-.38.13l-.08,0c-.08.08-.21.08-.21,0h0a.48.48,0,0,1-.47.13v0a.63.63,0,0,1-.25.21.27.27,0,0,1-.25,0,.43.43,0,0,1-.42.08l0,0a1,1,0,0,1-.34.25s-.17,0-.21,0l-.13,0a.51.51,0,0,1-.34.13h0l-.25.08-.08.08a.39.39,0,0,1-.3.13h-.17l0,.13s-.08.08-.13.08l-.08.08-.34-.13-.13.13-.13.13-.08,0h-.21c0,.08-.25.13-.47.08a.34.34,0,0,1-.38.08l-.13.13a.48.48,0,0,1-.47.13h0l-.21.08a.24.24,0,0,1-.3.08l-.17.08-.13,0a.26.26,0,0,1-.17,0l0,0-.38.13a.52.52,0,0,1-.38.17h0c-.08,0-.17-.34-.13-.51a.32.32,0,0,1,.08-.17h0l.17-.21,0-.17a.44.44,0,0,1,0-.17l.21-.25,0-.3a.39.39,0,0,1,.13-.3l.08-.08V90.1l.17-.3.13-.17v-.08c0-.17.08-.3.21-.3V89a.46.46,0,0,1,.08-.25l0-.08.13-.17v0a.32.32,0,0,1,.08-.17l.17-.21.08-.13a.73.73,0,0,1,.08-.34l0-.08a.51.51,0,0,1,.21-.34l0-.08.13-.17,0,0a.35.35,0,0,1,.08-.34h0l.17-.17,0-.08c0-.17,0-.34.13-.38a.34.34,0,0,1,.21-.34v-.13a.72.72,0,0,1,0-.3.15.15,0,0,0,0-.08l.25-.38v0a.43.43,0,0,1,.21-.17l.08-.25.13-.21v-.25l0-.08.13-.13.13-.13a.16.16,0,0,1,0-.13.74.74,0,0,1,.17-.21l.13-.13.13-.25a.55.55,0,0,1,0-.38c0-.17.13-.3.17-.3l.34-.38-.08-.3,0,0v-.08l-.08-.3-.13-.17-.08-.21,0,0a.76.76,0,0,1-.17-.21l0-.08L304.4,80s-.08-.08-.13-.13l0,0-.13-.3-.21-.34a.51.51,0,0,1-.34-.21v0l-.08,0-.13-.21a.32.32,0,0,1,0-.21l-.13-.13-.38-.42,0,0v-.08l-.13-.25-.21,0s-.08-.08-.13-.08a.61.61,0,0,1-.08-.38.24.24,0,0,1-.25-.21l-.21-.21s-.17-.08-.21-.17l0-.08-.08-.08s-.08,0-.13-.13l-.13-.21a.54.54,0,0,1-.21-.3v0l-.08-.13-.13-.13-.21-.13,0,0c-.17-.17-.25-.34-.21-.42v-.08c0-.21.17-.3.38-.38l.08,0H301l.25,0,.08,0h0c.17-.08.3-.13.38-.08l.08-.08.25,0,.34-.21a.46.46,0,0,1,.38,0l.21-.08,0,0a.32.32,0,0,1,.21-.08h.13c0-.13.17-.17.38-.17h.17v0l.17-.17a.23.23,0,0,1,.21-.08l.25-.08h.17a.26.26,0,0,1,.3,0l.17,0,0,0a.52.52,0,0,1,.34-.17h.08l.25-.08.17-.08a.39.39,0,0,1,.34,0h.13l0,0a.35.35,0,0,1,.21-.21c.08,0,.17,0,.21,0h0l.21-.08a.15.15,0,0,1,.13,0h.34a.34.34,0,0,1,.38-.13l.13-.13.17-.08a.48.48,0,0,1,.34,0s0,0,.08,0a.41.41,0,0,1,.13.42v.42a.32.32,0,0,1-.08.3l0,.17s0,.08,0,.13v.3l0,.08,0,.25,0,.17,0,.08a.61.61,0,0,1-.08.3v.34l0,.08L309,75l0,.17v.08l-.17.3a.46.46,0,0,1,.08.34V76l0,.17,0,.21,0,.13c0,.08.08.08.08.17a.57.57,0,0,1-.13.34v.08a.58.58,0,0,1,0,.38l.08.13v.25a.58.58,0,0,1-.08.42l0,.13a.61.61,0,0,1,.08.25v0a.51.51,0,0,1-.13.34v.81a.62.62,0,0,1,0,.3v.08a.47.47,0,0,1,0,.34v.13a.26.26,0,0,1,0,.25s0,0,0,0v.25a.59.59,0,0,1,0,.38l0,.3c0,.08,0,.21-.08.42l.13.08v0a.53.53,0,0,1-.08.42c.08.21,0,.34,0,.38l0,.21a.46.46,0,0,1,0,.25.33.33,0,0,1-.08.21l0,.34v.42a.32.32,0,0,1,0,.3l0,.34c.08.08.08.21.08.42a.49.49,0,0,1,.08.3.71.71,0,0,1-.08.21l-.08.08,0,.17a.73.73,0,0,1,.08.21V87l.3.25.38-.21a.32.32,0,0,1,.34,0l.25-.17a.21.21,0,0,1,.13,0l.13-.08.17.13a.43.43,0,0,1,.42-.13.52.52,0,0,1,.42-.21h0l0-.08a.75.75,0,0,1,.42-.17l.08,0,.21,0,0-.13.13,0a.57.57,0,0,1,.38,0,.47.47,0,0,1,.38-.13h0c.13-.13.25-.17.25-.08l.25-.17a.13.13,0,0,1,.08,0l.08-.08h.47l.3-.13.34-.17s.21,0,.3,0h0a.48.48,0,0,1,.47-.13h0c0-.17.13-.21.25-.17l.3-.13.13,0h.17l.17-.08a.6.6,0,0,1,.38,0l.21-.13c0-.08.13-.13.3-.13l.21-.08s.17,0,.21,0h.13a.53.53,0,0,1,.34-.17c0-.13.25-.17.42-.13l0-.08.08-.08a.8.8,0,0,1,.3-.08l.13,0h.13l.13,0a.51.51,0,0,1,.38-.21l.21,0,.17-.08a.13.13,0,0,1,.08,0,.34.34,0,0,1,.38.13s.08,0,.17.17A.52.52,0,0,1,321.47,84ZM358.2,53.84l-.08.21,0,.08,0,.17,0,.34v.13l0,.3v.08a.45.45,0,0,1-.08.21v.08l0,.08a.6.6,0,0,1,.08.25v0l0,.3s0,0,0,.08l0,.17,0,.13V57l0,.13a.32.32,0,0,1,0,.17v.55l0,.13V58a.45.45,0,0,1-.08.21l0,.13,0,.13a.61.61,0,0,1,.08.25v.13a.52.52,0,0,1-.17.34v0a.63.63,0,0,1,.13.42s0,.08-.08.17v.42l0,.17v.13a.59.59,0,0,1,0,.38l0,.13a.45.45,0,0,1,.08.34v.21a1.22,1.22,0,0,1-.08.38v.17l0,.08a.61.61,0,0,1,.08.25v.21c0,.08,0,.13,0,.17l-.13.3c.08.13.08.21,0,.25l0,.25v0a.47.47,0,0,1,0,.34v.13a.64.64,0,0,1-.08.34v.17c.08.21.08.42,0,.47v.34c.08,0,.08.21,0,.34v0a.4.4,0,0,1,0,.38v.42l0,.08V67a.59.59,0,0,1,0,.47l0,0,0,.34,0,.25,0,.13v.25a.54.54,0,0,1,0,.25.75.75,0,0,1-.17.21l-.08.08a.56.56,0,0,1-.21.13l-.38.13h-.13l-.25.13a.33.33,0,0,1-.34,0l-.21.17,0,0a.72.72,0,0,1-.42,0h0l-.21.08c0,.13-.25.17-.42.13l-.08.08-.3.13-.13,0a.54.54,0,0,1-.25,0h0l-.08,0-.3.08-.25.17-.17.08a.47.47,0,0,1-.34,0h0l-.08.08-.17.17h-.42l-.3.17L352,71l-.21.13a.25.25,0,0,1-.17,0l-.08,0a.32.32,0,0,1-.17.08c-.13,0-.25,0-.3,0l-.51.21-.08,0,0,0,0,0a.46.46,0,0,1-.3.13l0,0H350a.62.62,0,0,1-.3.08l-.34,0-.08.08-.08,0a.49.49,0,0,1-.34.13l-.25,0-.13,0-.3.13-.08.08a.56.56,0,0,1-.21.13h0l-.17,0-.08,0-.38,0a.23.23,0,0,1-.34.08l-.34.08a.51.51,0,0,1-.21.21.91.91,0,0,1-.21.13l-.17,0v0l0,0-.13.08a.26.26,0,0,1-.17,0h-.13a.5.5,0,0,1-.47.13l-.21.08a.39.39,0,0,1-.34.17l-.13.08a.41.41,0,0,1-.38,0h-.17l-.25.08c-.13.17-.21.21-.25.17l0,0a.33.33,0,0,1-.34.08l-.34.17s-.13,0-.3,0l-.34.17c0,.08-.17.08-.34,0l0,0c0,.08-.13.13-.17.17H341c-.08.17-.25.17-.42.13l-.17.08s-.08,0-.17,0l-.21.08-.3.21-.08.08-.08,0h-.3l-.21.08-.17.08a.13.13,0,0,1-.08,0l-.21.08h-.08l-.17,0-.42.13h-.3l-.17.13a.13.13,0,0,1-.08,0l-.25.13s-.08.08-.17.08l-.17,0h-.13l-.25.08-.13.08-.13.08-.13,0a.45.45,0,0,1-.34,0l-.13,0,0,0a.52.52,0,0,1-.34.17.49.49,0,0,1-.3.08l-.21.08-.08.08h-.08l-.17,0,0,0-.17.08-.08.08a.59.59,0,0,1-.38.13.39.39,0,0,1-.47,0c0,.17-.21.25-.47.3h0l-.34.13,0,0s-.13,0-.17.08L332,78l-.25.08h-.42c0,.08-.21.13-.38.08a.5.5,0,0,1-.25.25s-.17,0-.25,0l-.21.17a.56.56,0,0,1-.42.13l-.34,0-.13.13-.17.13c-.08.08-.13,0-.17,0l-.34.17a.13.13,0,0,1-.08,0l-.13,0h-.08l-.3,0,0,0c0,.08-.08.08-.17.13l0,0-.3,0a.5.5,0,0,1-.3.08h-.08l-.17.08a.88.88,0,0,1-.47,0l-.17.08-.3.17c-.17.13-.34.17-.42.08l-.21.17s-.17,0-.21,0l0,0-.25.13s-.13.08-.25,0l-.13,0a.52.52,0,0,1-.38.17h0a.35.35,0,0,1-.34.13c-.17.13-.34.17-.38.08l-.21.21a.49.49,0,0,1-.38,0h-.08a.34.34,0,0,1-.38.08l-.13.13a.31.31,0,0,1-.25.08h0l-.08.08h0a.4.4,0,0,1-.3.08h-.17c0,.08,0,.13-.08.13a.57.57,0,0,1-.34.08l-.17,0c0,.13-.21.17-.38.13l-.25.17a.33.33,0,0,1-.21.08h0l-.08.08a1.43,1.43,0,0,1-.25.13s-.17,0-.25,0h0l-.25,0-.13.08,0,0a.46.46,0,0,1-.3.13h-.3l-.13.08a.15.15,0,0,1-.08,0l-.25.08-.34.17h-.13l-.34.08a.6.6,0,0,1-.38,0c-.08.17-.3.17-.47.13-.08.13-.17.21-.25.21s-.34.13-.38,0l-.21.08a.15.15,0,0,1-.13,0l-.17,0a.44.44,0,0,1-.34.25h-.25l-.21.08-.13.08a.25.25,0,0,1-.17,0h-.25a.43.43,0,0,1-.51.13l-.13.08,0,0h0l-.34.21-.25.08,0,0a.25.25,0,0,1-.17,0l-.08,0-.25,0-.17.13,0,0a.46.46,0,0,1-.47,0s-.08-.08-.13-.08l-.08,0v-.08a.49.49,0,0,1,0-.42l0,0,0-.17V83.9l0-.21,0-.13a.37.37,0,0,1,0-.3l0-.08a.25.25,0,0,1,0-.3l0-.08a.6.6,0,0,1,0-.47v0l-.08-.13a.61.61,0,0,1,0-.47h0l0-.13V81.4l0-.21a.54.54,0,0,1,0-.25l0-.08c0-.13,0-.25,0-.3l-.13-.21v-.17c0-.08,0-.21.08-.25l0-.17v-.3l0-.21v-.17l-.08-.21V78.6l.08-.21,0-.17,0-.3v-.17l.08-.3a.37.37,0,0,1-.13-.25V77l0-.08,0,0v-.38a.46.46,0,0,1,.08-.21l.08-.08-.13-.13a.32.32,0,0,1,0-.38l.08-.34,0-.21V74.9l0-.08,0,0a.58.58,0,0,1,0-.38l0,0v-.17l0-.34a.73.73,0,0,1,.08-.34l0,0,0-.21v-.17l0-.13c-.08-.08-.13-.13-.13-.21a.15.15,0,0,1,0-.08l0-.25a.45.45,0,0,1,0-.51.25.25,0,0,1,0-.3v-.68l0-.13v-.17l0-.13v-.25c-.08-.13-.13-.3,0-.34l0,0c0-.17,0-.34,0-.38l-.08-.17a.37.37,0,0,1,0-.3v-.21l0-.13v-.21l0,0,.08-.25a.59.59,0,0,1-.13-.38v0a.78.78,0,0,1,.08-.3l0-.08.13-.13.13-.13.17-.08c.17-.13.3-.17.38-.13a.67.67,0,0,1,.34-.08l.17-.08.13-.08a.62.62,0,0,1,.47-.08c.13-.13.21-.17.3-.17l.3,0,.08,0,.08-.08a.36.36,0,0,1,.3,0l.08-.08a.51.51,0,0,1,.34-.08.56.56,0,0,1,.51-.13l.21,0,.13-.08.25-.25s.13,0,.3,0h0l.08,0s.17,0,.21,0h.13l.08-.13.17-.17h.38l.17,0a.53.53,0,0,1,.42-.08l.17,0,.25-.17a.54.54,0,0,1,.3-.17h.08c.13-.08.25-.08.3,0l.3-.08.08,0h.13l0,0c.08-.08.21-.21.34-.21h0l.21,0,.17-.13c0-.13.17-.13.3-.08a.41.41,0,0,1,.42-.17l.08,0c.08,0,.21-.13.3-.08l.38-.13.08,0h.13a.45.45,0,0,1,.47-.17l.3-.13.25-.08c.17-.13.3-.17.38-.13l.17,0,.38-.08c0-.13.13-.13.21-.17l.38-.08.08-.13a.4.4,0,0,1,.38,0l.13-.08a.54.54,0,0,1,.25,0l.08,0,0-.08a.43.43,0,0,1,.42-.13c0-.13.17-.17.34-.21s.17,0,.3,0l.21-.13a.16.16,0,0,1,.13,0l.21,0c0-.08.17-.08.38,0l0,0a.48.48,0,0,1,.34-.13c.08-.13.25-.13.42-.13a.41.41,0,0,1,.38-.17h0c.08-.08.21-.17.3-.13l.08-.08a.31.31,0,0,1,.25-.08h.08l.17,0,.21,0,.13-.08a.37.37,0,0,1,.25-.13h.08l.08,0a.32.32,0,0,1,.17-.08.35.35,0,0,1,.3,0l.21-.08.17-.08a.6.6,0,0,1,.25-.08l.08,0,0,0,.13-.08a.39.39,0,0,1,.3,0h0l0-.08c0-.08.13-.08.17-.13a.34.34,0,0,1,.3,0l.34-.13a.65.65,0,0,1,.51-.17l.13,0,.13-.13.13-.08.21,0,.25-.13a.53.53,0,0,1,.25,0h.08l.3-.13,0,0a.91.91,0,0,1,.3-.13l.21-.08.08,0h.13l.13-.08a.13.13,0,0,1,.08,0l.13,0,.3,0H336l.08-.08.21-.08s.13,0,.21,0l.3-.17a.32.32,0,0,1,.21-.08l.38,0a.44.44,0,0,1,.38-.21h0c0-.13.17-.13.38-.13a.46.46,0,0,1,.34-.08h0v0a.76.76,0,0,1,.42-.17l.08,0c.17-.08.34-.13.38,0l.08-.08a1.85,1.85,0,0,1,.3-.17l.25-.08h0c.17-.08.25-.13.42,0l0,0c0-.08.17-.17.3-.17l.3-.08.17-.08c.08-.08.21-.13.25-.08l.38-.13c.08-.13.17-.13.3-.13l.25-.08.08,0a.79.79,0,0,1,.3-.08h0c0-.13.13-.13.25-.08l.38-.17c0-.08.13-.13.25-.13l.17-.08a.44.44,0,0,1,.21-.08h.08l.3,0,.17,0a.35.35,0,0,1,.34-.13l.08-.08a.57.57,0,0,1,.34-.08l0,0h.17a.45.45,0,0,1,.38-.21h0a.65.65,0,0,1,.3-.21.9.9,0,0,1,.25.08h0c0-.17.13-.21.25-.17.21-.13.42-.17.47-.08l.08-.13a.56.56,0,0,1,.34-.13l.3,0a.4.4,0,0,1,.38,0l0,0c.08-.08.13-.13.21-.13l.38-.08.17-.17a.32.32,0,0,1,.21-.08h.42c0-.08.17-.17.25-.13l.17-.08a.47.47,0,0,1,.25-.13l.13,0,.59-.17.08,0a.15.15,0,0,1,.13,0h.13l.25-.08c0-.08.13-.08.3-.08l.42-.25a.13.13,0,0,1,.08,0h0c.08,0,.13-.08.17,0h.34l.08-.08a.42.42,0,0,1,.21-.17l.25-.08.17,0,.17-.08a.37.37,0,0,1,.3,0l0,0,.21,0,0,0a.54.54,0,0,1,.17-.25h0l.21.08.25,0L356,52c.08-.17.21-.25.34-.21l.21-.08a.55.55,0,0,1,.34-.08l.13-.08.3-.08,0,0s.13-.13.17-.13l.17,0a.37.37,0,0,1,.3,0,.66.66,0,0,1,.13.3l0,0,0,.17v.55a.57.57,0,0,1,0,.38v.08a.58.58,0,0,1,0,.38l0,.25v0a.89.89,0,0,1,.13.3A.22.22,0,0,1,358.2,53.84ZM324.1,67.38l0-.21a.5.5,0,0,1,0-.34l0-.13v-.17L324,66l-.21-.17-.51.13c-.13.08-.25.17-.3.13l-.17.13a.57.57,0,0,1-.38,0h-.13l-.17.08a.06.06,0,0,1-.08,0l-.13.08h-.08l-.34.17a.72.72,0,0,1-.38.08h-.17a.27.27,0,0,1-.38.13l-.17.17s0,0-.13,0-.25.08-.3,0l0,0a.72.72,0,0,1-.3,0h0l-.21.08a.46.46,0,0,1-.3.08h0a.46.46,0,0,1-.34.08l-.08.08a.46.46,0,0,1-.3.13h-.08l-.34.3,0,.17.08.38v.21l0,0a.39.39,0,0,1,.13.3v.08a.59.59,0,0,1-.13.38l.08.25a.42.42,0,0,1,0,.34l0,.25v0a.36.36,0,0,1,0,.3l0,.08,0,.17,0,.08a.44.44,0,0,1,0,.51l0,.08,0,0a.43.43,0,0,1,0,.47l0,.13v.17l0,.3,0,0a.59.59,0,0,1,0,.47l0,.08,0,.34v.42c0,.08,0,.13,0,.17l-.08.25,0,.21a.38.38,0,0,1,0,.21v.21a.34.34,0,0,1-.08.38l.13.21V76c0,.08,0,.17,0,.25l0,0v0a.47.47,0,0,1,0,.25l-.08.13.08.17c0,.08.08.13.08.17v.13a.46.46,0,0,1,0,.25l-.08.17v.08s0,.17,0,.21l0,.13v.42l.13.17.42-.13a.29.29,0,0,1,.34-.13l.17-.13a.15.15,0,0,1,.13,0l.38-.08.21,0c0-.08.21-.17.51-.17h.08l0-.21,0-.38-.13-.42s0,0,0-.13l0-.55a.37.37,0,0,1,0-.3l0-.13,0-.17a.57.57,0,0,1,0-.38l0-.08a.39.39,0,0,1,0-.34l0-.34a.72.72,0,0,1-.13-.51l0-.08s0-.08.08-.13l0,0,.25-.13.59-.34a.13.13,0,0,1,.08,0,.73.73,0,0,1,.3,0h.21a.4.4,0,0,1,.38,0h.13l.47-.13.08-.25v-.42a.66.66,0,0,1,0-.3c0-.08,0-.13.13-.17l-.08-.25v-.17l0-.17a.22.22,0,0,1,0-.34l-.21-.3a.38.38,0,0,1,0-.21l-.38.3a1.12,1.12,0,0,1-.34.13h-.13l-.17.13s-.08,0-.13,0l-.3.08h-.08l-.25.17a.16.16,0,0,1-.13,0,.55.55,0,0,1-.55-.17.15.15,0,0,1,0-.08c-.08-.25-.08-.42,0-.47l-.13-.25v-.55a.63.63,0,0,1,.13-.3l.08-.13v0c0-.13.17-.17.3-.21s.38-.08.42,0l.17-.08a.71.71,0,0,1,.3,0h0l.13-.13.13,0s0-.08.08-.08l.17,0,.25-.13s.08,0,.13,0h0l.55-.13h.13l.08,0a.73.73,0,0,1,.3,0h.38v-.08c0-.08.08-.13.08-.17l.21-.42Zm9.13,6v0c-.17-.08-.34-.21-.34-.38a.43.43,0,0,1-.3-.17.45.45,0,0,1-.08-.21l-.25-.47s-.08,0-.08-.13v-.3l0-.21a.42.42,0,0,1-.21-.3l0-.08s0-.17,0-.21v-.25l-.13-.17,0,0-.08-.17a.45.45,0,0,1-.08-.21v0a.38.38,0,0,1,.21-.34l.21-.34,0-.21c0-.08.08-.13.13-.21l.08-.08,0-.38v-.13l.08-.42a.38.38,0,0,1,0-.42l-.08-.17s0-.08,0-.13v-.25a.38.38,0,0,1,.13-.3l-.08-.21v0l0-.25v-.42a.18.18,0,0,1,.13-.25h0a.56.56,0,0,1-.13-.42l0,0,.08-.38-.08-.13c0-.08-.08-.13-.08-.21l-.08-.08s-.08-.17-.13-.21l-.08-.21h-.13a.39.39,0,0,1-.34-.13l-.34.08h-.47l-.25,0H330l0,.08a.39.39,0,0,1-.25.17s-.13,0-.21,0l-.13,0-.08.08c0,.08-.13.13-.17.17H329a.46.46,0,0,1-.34,0l-.08.13a1.4,1.4,0,0,1-.25.13h-.13l0,0h-.25l-.21.08-.08,0a.32.32,0,0,1-.17.08l-.13,0H327l-.13.08a.51.51,0,0,1-.34.08l-.17.13a.06.06,0,0,1-.08,0h0l-.13.13s0,0-.13.08l-.3.08-.21.17.17.47a.46.46,0,0,1-.08.42l0,.08a.74.74,0,0,1,0,.51.5.5,0,0,1,0,.42l0,0a.68.68,0,0,1,.13.34v0l-.17.21,0,.21v.17l0,.13,0,.13,0,.08a.59.59,0,0,1,0,.47c0,.17,0,.25,0,.3l.13.25s0,0,0,.08v.08a.62.62,0,0,1-.08.3l0,0v.64l0,.17a.7.7,0,0,1,0,.42v0l0,.25,0,0,.08.25v0a.47.47,0,0,1,0,.42V73c.08.21.08.34,0,.42l.13.3a.64.64,0,0,1,0,.3l0,.13a.46.46,0,0,1-.08.38l0,0v.38c0,.13.08.34,0,.42l.08.08-.08.42,0,.08.42,0h.3c0-.08.21-.13.38-.08l.08,0,.3-.21a.16.16,0,0,1,.13,0l.21,0,.34-.08.21-.25,0-.42,0-.17a.37.37,0,0,1,0-.3l-.13-.47,0-.21s0-.08,0-.13v-.17l0-.17.13-.08,0-.3a.45.45,0,0,1,0-.34l0-.08,0-.13-.08-.13v-.42c0-.13.08-.17.13-.25v0l.25-.13.21-.17a.13.13,0,0,1,.08,0l.17-.08a.45.45,0,0,1,.47,0,.7.7,0,0,1,.42.42v.08a.46.46,0,0,1,.17.38V72l.17.13a.73.73,0,0,1,.08.21l0,.25,0,.17a.23.23,0,0,1,.13.21v.3l.13.42,0,.08a.84.84,0,0,1,0,.34l.13.25h.3l.21-.08a.54.54,0,0,1,.25,0l.08,0a.35.35,0,0,1,.34-.08l.21,0,.08,0a.46.46,0,0,1,.3-.13h.13l.13,0,.21-.21.08-.08.21-.08Zm-3.1-6.79a.2.2,0,0,1,0,.25l0,.17a.54.54,0,0,1,0,.51l0,.38v.21l-.17.08a.32.32,0,0,1-.17.08l-.38.08c-.08.08-.21.17-.3.13a.59.59,0,0,1-.38.13h-.08a.48.48,0,0,1-.25.13h-.13a.37.37,0,0,1-.3-.17s0,0,0-.13l-.08-.21a.6.6,0,0,1,0-.38c0-.21,0-.3,0-.34v-.3a.46.46,0,0,1,.17-.38l.17-.13.34-.21.08,0a.16.16,0,0,1,.13,0h.13l.21-.08.21-.17,0,0,.08,0c.25,0,.47.08.47.17S330,66.41,330.13,66.58Zm10.79,2.76,0-.3v0a.41.41,0,0,1-.08-.3s0-.08,0-.13l0-.13v-.25l-.08-.17s0-.17,0-.21v-.08l.13,0-.08-.21s0-.08,0-.17v-.17a.57.57,0,0,1,.13-.21l0-.08,0-.34-.08-.38v-.25l0-.13h0a.52.52,0,0,1,.08-.38l0-.21v-.47s0-.08,0-.13v-.08l0-.08a.46.46,0,0,1,0-.34l0-.08s0-.08-.08-.08a.57.57,0,0,1-.08-.34l0-.13v-.08l0,0,.08-.25,0,0a.47.47,0,0,1,0-.47.61.61,0,0,1-.08-.3l0-.17v-.21l-.13-.25,0-.13v0a.52.52,0,0,1-.34-.38v0l-.34-.13h-.59l-.08,0-.25,0-.34.17,0-.08-.25.21s0,0-.13,0a.53.53,0,0,1-.25,0l-.3,0-.21,0c0,.13-.21.13-.42.08l-.21.21s-.08,0-.17.08l-.13,0-.17,0a.37.37,0,0,1-.3,0l0,.08s-.13,0-.17.08l-.34.13-.17.13-.17.08-.21.17-.3.34,0,.13-.25.34-.13.34,0,0-.08.25,0,.38a.33.33,0,0,1-.13.38l0,.08a.36.36,0,0,1,.08.3c0,.08,0,.13,0,.17l-.08.21v.13l0,.3,0,.25a.69.69,0,0,1,0,.3l0,.08,0,0-.08.21.13.34c0,.08,0,.13,0,.3l-.08.17,0,.21a.61.61,0,0,1,.08.25l0,.21,0,.3v.93l0,.3v.08c0,.08,0,.13,0,.17l0,.17v.08l-.08.17V71l0,.13.08.21c0,.08,0,.21,0,.3l-.08.17.08.17.08,0a.88.88,0,0,1,.17.25l.38.34.17.13s.13.08.13.08h.38l.08,0,.08-.08a.76.76,0,0,1,.42-.17l.25,0a.36.36,0,0,1,.47-.08l.21-.17c0-.08.17-.08.38,0l0-.08.25-.13a.16.16,0,0,1,.13,0l.17,0h.08l.17,0,.17-.08a.32.32,0,0,1,.38,0l.08-.08.42-.21.21-.17s.13,0,.13,0l.08-.13s.08-.17.13-.21l.38-.3,0-.08.17-.38.08-.13.08-.34v0l0-.21Zm-2.08-2.08-.13.21,0,.17v.17l0,.17a.27.27,0,0,1,0,.38l.08.13a.59.59,0,0,1,0,.38l0,0,0,.13a.53.53,0,0,1-.08.42s-.08.13-.17.17h0l-.38.13-.21.13s0,0,0,0h0l-.08.08a.5.5,0,0,1-.42,0l-.17.13a.13.13,0,0,1-.08,0,.26.26,0,0,1-.25,0,.23.23,0,0,1-.21-.13.61.61,0,0,1-.08-.3v-.3a.46.46,0,0,1,0-.47l0-.08s0-.08,0-.17v0a.74.74,0,0,1,0-.34l0-.13,0-.17V68a.51.51,0,0,1,.08-.34l.08,0a.22.22,0,0,1,0-.34l-.08-.3v-.59l0-.3c0-.08,0-.17,0-.25l0-.13,0-.25a.57.57,0,0,1,0-.38l0,0v-.08l0-.08a.42.42,0,0,1-.13-.34v0a.56.56,0,0,1,.25-.38l.08-.13.38-.25a.81.81,0,0,1,.34-.08l0,0a.54.54,0,0,1,.3-.17h0a.73.73,0,0,1,.3,0l.21,0h.38l.08.42a.41.41,0,0,1,0,.13.39.39,0,0,1-.13.3l0,.34a.32.32,0,0,1,0,.38V65c0,.08,0,.13,0,.17l0,.21v.21l0,.21a.35.35,0,0,1-.08.38l.13.34,0,.21a.48.48,0,0,1,0,.34ZM352,67.17l0-.3c-.13-.21-.17-.38-.13-.47v-.47l0,0a.46.46,0,0,1-.13-.3v0l0-.21v0l.08-.21-.08-.34s0,0,0-.08v-.21l.08-.21a.41.41,0,0,1,.08-.38l-.08-.08a.46.46,0,0,1-.08-.34c0-.08,0-.08.08-.17v-.13a.84.84,0,0,1,0-.3v-.08l-.08-.25s0-.08,0-.17V62.2c0-.08,0-.13.08-.25l0-.08a.62.62,0,0,1,0-.3l0-.08-.08-.3-.08-.08v-.3l.08-.21a.38.38,0,0,1,0-.42l0-.21a.38.38,0,0,1,0-.42l-.08-.13v-.47l0-.21,0-.13a.39.39,0,0,1,0-.21l0-.17-.08-.25v-.34l0-.21v0a.67.67,0,0,1,.13-.34l.08-.13-.13-.13-.42,0-.13.13a.19.19,0,0,1-.13.13L351,57l-.3-.08c-.13.17-.3.17-.51.13l-.3.25-.21.13-.21.25-.08.25c0,.08,0,.08,0,.13l-.08.13-.13.3a.2.2,0,0,1,0,.25v.13a.54.54,0,0,1-.17.3l-.08.13-.08.08a.36.36,0,0,1-.13.38V60a.41.41,0,0,1-.08.3l-.13.25-.08.21,0,.08a.53.53,0,0,1-.13.51l-.13.13,0,.08a.58.58,0,0,1,0,.38l0,0s0,0,0,.08l-.08.13-.08.08-.08.34v0a.54.54,0,0,1-.17.3v0l0,.21v0a.57.57,0,0,1-.13.34c-.08.08-.21.17-.21.08l-.25-.3-.08-.08,0,0a.29.29,0,0,1-.17-.25v-.34l-.13-.25-.13-.13a.56.56,0,0,1-.13-.42l-.13-.17-.08-.08a.22.22,0,0,1-.08-.17l0-.08v0c-.13-.08-.25-.13-.3-.25v0l0-.13-.13-.34,0,0,0-.08,0-.17-.13-.25a.45.45,0,0,1,0-.34l-.3-.21c-.08-.08-.13-.08-.17-.21v0l-.34-.08-.42,0-.13.17s-.08.08-.13.08l-.08.08a.16.16,0,0,0-.13,0,.46.46,0,0,1-.34,0l-.08,0-.34.21-.17.21.13.47,0,.17v.34c0,.3,0,.51,0,.51l0,.17c0,.08,0,.21,0,.25v.55l0,.25c.08.08.08.25,0,.3l0,.3a.39.39,0,0,1,0,.21v.17l0,.13,0,.25a1.79,1.79,0,0,0,0,.21l-.13.25v.21a.46.46,0,0,1,.08.42l0,.21,0,.25s0,.08,0,.13v.55a.59.59,0,0,1,0,.38v.13a.39.39,0,0,1,0,.42v0a.46.46,0,0,1,0,.47l0,.08.08.21V68a.27.27,0,0,1-.13.34l0,.08c0,.17.08.25,0,.34l-.08.42a.49.49,0,0,1,0,.42v0a.84.84,0,0,1,0,.3l-.08.38,0,.13.76-.34c.13,0,.21,0,.25,0H344l.3-.13a.59.59,0,0,1,.38-.13l.25-.13.13-.25v-.34l0-.38,0-.21V68l0-.08a1.06,1.06,0,0,1,0-.34v0l0-.25,0-.21v-.21c-.13-.13-.08-.25,0-.42l0-.3v-.21l0-.08a.41.41,0,0,1,0-.38l0-.13-.08-.25a.36.36,0,0,1,0-.3.51.51,0,0,1,.21,0c.08,0,.17.08.25.17v.34l.34.38a.5.5,0,0,1,0,.38v0c.13.08.21.17.17.17l.13.08a1.09,1.09,0,0,1,.17.3l.21.38a.32.32,0,0,1,0,.17v0a.56.56,0,0,1,.13.42.43.43,0,0,1,.21.34l.17.3a.15.15,0,0,1,0,.08l.17.3.17.08.21-.42a.36.36,0,0,1,.13-.21l.08-.08v-.3a.74.74,0,0,1,.08-.21l.21-.21V67c0-.13,0-.21.08-.38l0,0c0-.13.08-.17.17-.25l0,0,0-.17,0-.3,0-.13a.36.36,0,0,1,.13-.21h0a.4.4,0,0,1,0-.38l0-.17a.48.48,0,0,1,.13-.25,1,1,0,0,1,.08-.34l.13-.17v-.34l.17-.17v-.21l0-.08,0-.17.13-.25s.17.25.13.3l0,.13a.53.53,0,0,1,0,.25v.17l0,.17s0,.08,0,.17v.08a.89.89,0,0,1-.13.3l0,.08,0,.3c.08.17.13.25.08.34v.51a.73.73,0,0,1-.08.34l0,0a.37.37,0,0,1,0,.42v.81l0,.08a.67.67,0,0,1-.17.51l.25.08.47,0a.19.19,0,0,1,.25-.08l.17-.13s.17,0,.21,0H351l.21,0c0-.13.13-.17.21-.13l.55-.3Zm16.48-5.27h0l-.3.21s-.17,0-.21,0l-.08,0,0,0a.43.43,0,0,1-.21.17h-.17l-.3.17a.45.45,0,0,1-.34,0l-.08,0-.3.17,0,0a.73.73,0,0,1-.3,0l-.08,0-.21.13s-.13.08-.17.08a.19.19,0,0,1-.21,0l-.38.17a.73.73,0,0,1-.3,0l-.13.08-.08.08a.26.26,0,0,1-.34,0l-.25.17-.21.13-.08,0a.46.46,0,0,1-.34,0h-.21l-.17.13a.56.56,0,0,1-.21.13l-.17.08-.13.08a.16.16,0,0,1-.13,0l-.21.08h-.17l-.25,0a.51.51,0,0,1-.34.08h-.08l-.17.08a.54.54,0,0,1-.3.17h-.3a.66.66,0,0,1-.47-.42l0-.21V63.9l0-.13,0-.21,0-.13,0,0v-.25l0-.17a.15.15,0,0,0,0-.08l.08-.13v-.42l0,0a.46.46,0,0,1-.13-.3.15.15,0,0,1,0-.08l.13-.3,0-.13v-.55l0-.13-.13-.25a.55.55,0,0,1,.13-.3l0,0a.46.46,0,0,1,0-.47l-.08-.13v-.17l0-.38a1.82,1.82,0,0,1,0-.21.52.52,0,0,1,.13-.38l0,0-.08-.17,0,0a.4.4,0,0,1,0-.38v-.34l.08-.13v-.13a.54.54,0,0,1,0-.25l0,0v-.25l0-.25,0,0a.93.93,0,0,1,0-.34h0l0-.25,0,0a.56.56,0,0,1,0-.59h0l0-.3s0-.21.08-.38c-.08-.13-.13-.3,0-.38a.57.57,0,0,1,0-.47l0,0,0,0v-.3l0-.21,0-.3a.4.4,0,0,1,.13-.3l-.08-.08a.32.32,0,0,1-.08-.21v-.25a.71.71,0,0,1,.08-.21l.08-.13-.08-.21,0,0v-.42l0-.21a.41.41,0,0,1,.08-.38l0-.21v-.13l0-.17-.08-.25-.34-.3-.21.13a.53.53,0,0,1-.25,0h-.08a.34.34,0,0,1-.38.13l-.08.08a.42.42,0,0,1-.21.17l-.34.08-.17,0-.13,0-.08.08-.13.08s-.13,0-.17,0H357a.26.26,0,0,1-.3.13l-.34.21a1,1,0,0,1-.3.13l-.13,0h-.38a.4.4,0,0,1-.42.17c-.08.08-.21.13-.21.08a.56.56,0,0,1-.51.13h0l-.25.13-.17.13a.35.35,0,0,1-.3,0l-.3.13h-.08l-.13,0-.13.08s0,.08-.08.08l-.17.08-.08,0a.48.48,0,0,1-.47.08l-.13.13s-.17.08-.21.13l-.34.08a.45.45,0,0,1-.34,0,.58.58,0,0,1-.34.21.31.31,0,0,1-.21,0h-.25l-.17,0-.17.08s-.08,0-.13,0l-.21,0,0,0-.17.17h0l-.21,0h0l-.25.08s0,0,0,0l0,0-.13.13a.28.28,0,0,1-.3.08l-.13.08a.26.26,0,0,1-.17,0l-.25,0a.75.75,0,0,1-.42-.17h0v-.21a.52.52,0,0,1,.13-.38l0,0-.08-.21,0,0v-.25l.08-.34a.15.15,0,0,0,0-.08.34.34,0,0,1,.17-.17s0,0,.08,0l.51-.25.08,0a.4.4,0,0,1,.3-.08l.25-.08c.13-.08.25-.17.34-.13l.21,0,.17-.08.21-.08.13-.13a.32.32,0,0,1,.21,0l.17,0h.08l.21-.08h.3l.21-.17s.17,0,.25,0h.17l.17-.08,0-.08a.42.42,0,0,1,.21-.17.48.48,0,0,1,.25,0h0l.3-.08v0l.08,0,.13,0h.38c0-.08.13-.17.25-.13l.25-.08c0-.13.25-.21.51-.17l0-.13h0a.4.4,0,0,1,.3-.08h.13l.17,0a.39.39,0,0,1,.21,0,.29.29,0,0,1,.42-.13l0,0,.17-.17.08,0a.16.16,0,0,1,.13,0h.08l.17,0s.08,0,.13,0l.21,0,.21-.13c.08-.08.21-.13.25-.08l.13-.13a.23.23,0,0,1,.21-.08l.13,0,.34,0,.38,0,0-.08.25-.17s.08-.08.13-.08a.57.57,0,0,1,.34.08.4.4,0,0,1,.47-.21l.08-.08a.57.57,0,0,1,.34-.08l.08,0c0-.17.21-.21.38-.17l.25-.13.17-.13.08,0a.32.32,0,0,1,.21-.08h.13a.45.45,0,0,1,.38,0l.25,0,.21,0,.08-.17s.08-.08.13-.08l.08-.08.3.13.08-.13c0-.08.08-.08.13,0L363,46a.31.31,0,0,1,.25-.08l.08,0,.34,0c0-.08.13-.17.3-.17h.17l.34-.13c0-.08.13-.13.3-.13s.13,0,.13,0a.67.67,0,0,1,.42-.21l.13,0a.53.53,0,0,1,.25,0l.38,0a.22.22,0,0,1,.08-.17.44.44,0,0,1,.38-.08l.13,0,.08-.08a.64.64,0,0,1,.34-.17h.08l.13-.08.34-.13a.46.46,0,0,1,.42,0l0,0a.59.59,0,0,1,.42-.21.32.32,0,0,1,.17.08l-.17.47a.34.34,0,0,1-.21.3.59.59,0,0,1,0,.38v.08a.47.47,0,0,1-.38.3l0,.13a.73.73,0,0,1,0,.3l0,0-.13.17-.17.21,0,.13c0,.13,0,.25-.08.3l0,.13a1.31,1.31,0,0,1-.21.3l0,0-.13.25s0,.08,0,.21-.08.13-.08.13l-.13.17v.13l0,.17a.56.56,0,0,1-.13.21l0,.08,0,.13a.15.15,0,0,0,0,.08l0,.08a.63.63,0,0,1-.25.21l0,0,0,.13v.13l-.13.21c0,.08,0,.21-.17.3l0,.21,0,0,0,.08a.56.56,0,0,1-.13.21h0l0,.17a.67.67,0,0,1-.21.34l0,.21a.45.45,0,0,1-.08.25l-.08.08a.56.56,0,0,1-.13.34l0,0c0,.08,0,.17-.13.25l-.17.3,0,0a.79.79,0,0,1-.3.38l-.08.17a.33.33,0,0,1-.08.17v.08a.61.61,0,0,1-.21.47v0c0,.08,0,.21,0,.25l-.17.3-.08.3-.13.34.13.13.08.08.21.21.17.21s0,0,0,0l.17.17c.08.08.13.13.13.21v0l.17.3v0c.08,0,.25.08.3.21l.08.17.08.13c0,.08.08.08.08.17v.17l.17.08.08.08a.44.44,0,0,1,.17.34l.13,0a.35.35,0,0,1,.21.21l0,.13c.17.08.3.21.3.34l.17.13a.13.13,0,0,0,.08,0l.08.08.08.13a.61.61,0,0,1,.08.3v0a.71.71,0,0,1,.3.38l.25.08a.71.71,0,0,1,.25.34v.17l.17.25.21.13,0,0,0,0s.08,0,.08.08l0,.08s.08,0,.08.13v.17l.3.25S368.61,61.86,368.52,61.91Z" transform="translate(-6.03 -0.1)"/><text class="cls-2" transform="translate(0 255.94) scale(1.02 1)"><tspan class="cls-3">p</tspan><tspan class="cls-4" x="40.72" y="0">a</tspan><tspan class="cls-5" x="91.51" y="0">s</tspan><tspan x="136.65" y="0">t</tspan><tspan class="cls-6" x="190.47" y="0"> </tspan><tspan class="cls-7" x="215.66" y="0">t</tspan><tspan x="265.45" y="0">o</tspan><tspan class="cls-6" x="318.45" y="0"> </tspan><tspan class="cls-8" x="343.64" y="0">pr</tspan><tspan class="cls-4" x="440.99" y="0">e</tspan><tspan class="cls-9" x="479.29" y="0">s</tspan><tspan class="cls-7" x="530.48" y="0">e</tspan><tspan class="cls-10" x="570.79" y="0">n</tspan><tspan x="618.16" y="0">t</tspan></text></svg>