<svg id="Layer_1" data-name="Layer 1" xmlns="http://www.w3.org/2000/svg" viewBox="0 0 60 53.75"><defs><style>.cls-1{fill:#86754d;}</style></defs><title>story-button-1850</title><path class="cls-1" d="M23.56,22.51h0s0,0,0,0v0s0,0,0,0Z"/><path class="cls-1" d="M23.58,23.66a0,0,0,0,0,0,0s0,0,0,0h0a0,0,0,0,0,0,0s0,0,0,0Z"/><path class="cls-1" d="M23.27,23.2h.14l-.08-.08L23.24,23a1.76,1.76,0,0,0-.17-.17H23c.08.1.17.21.25.29Z"/><path class="cls-1" d="M25.17,22.78h.06a.38.38,0,0,0-.18,0h0l.06,0S25.12,22.79,25.17,22.78Z"/><path class="cls-1" d="M23.8,23v0h.06S23.82,23,23.8,23Z"/><path class="cls-1" d="M23.1,25.28l0-.07v0a.22.22,0,0,1,0-.13.23.23,0,0,1-.13-.13.81.81,0,0,0,0,.2.16.16,0,0,1,0,.11,0,0,0,0,0,0,0h.1Z"/><path class="cls-1" d="M25.74,22.61s0,.06.06.08,0,0,0,.06a.2.2,0,0,1,.13-.15.24.24,0,0,1-.14,0s0,0,0,0l-.07,0s0,0,0,0,0,0,0,.06S25.74,22.59,25.74,22.61Z"/><path class="cls-1" d="M24,23.25h0a.21.21,0,0,0-.11.11,0,0,0,0,0,0,0S24,23.34,24,23.25Z"/><path class="cls-1" d="M23.1,25.61l-.06,0s0,0,0,0l.18.11,0-.18A.24.24,0,0,1,23.1,25.61Z"/><path class="cls-1" d="M23.7,26.39v-.06h0v.07c0,.1,0,.13.13.17s0,0,0,0l.1,0s0,0-.08,0S23.7,26.49,23.7,26.39Z"/><path class="cls-1" d="M23.19,24.71s0-.08-.06-.14,0,0,0,0a.7.7,0,0,0-.08.33.14.14,0,0,1,0-.06C23.14,24.78,23.19,24.74,23.19,24.71Z"/><path class="cls-1" d="M23.75,25.3a0,0,0,0,1,0,0,0,0,0,0,1,0,0h0v0l0,0Z"/><path class="cls-1" d="M23.35,25.93l0,.1s.05,0,.08,0A.2.2,0,0,1,23.35,25.93Z"/><path class="cls-1" d="M23.49,25.37a.09.09,0,0,0,0-.06h0s-.06,0-.08.07,0,0,0,0a.23.23,0,0,1,0,.14.59.59,0,0,1,.14-.13A.05.05,0,0,0,23.49,25.37Z"/><path class="cls-1" d="M26.16,22.51s0,0,0,0h0s0,0,0,.06A.08.08,0,0,0,26.16,22.51Z"/><path class="cls-1" d="M23.3,24a.34.34,0,0,1-.14-.17.31.31,0,0,0-.08-.17H23l-.07,0,0,0c.06,0,.11.07.08.14a.07.07,0,0,1,0,.06l0,0v0a.19.19,0,0,1,.11,0,.18.18,0,0,1,.14.1s0,.06.06.06h.08A.67.67,0,0,0,23.3,24Z"/><path class="cls-1" d="M18.63,30.55l-.11,0a.23.23,0,0,1,.13,0c.06.07.07.07.07.07s0,0,0-.13v-.13A.15.15,0,0,1,18.63,30.55Z"/><path class="cls-1" d="M18.83,29.89v-.06l0,0s-.08,0-.13,0a.11.11,0,0,1-.06-.06c0,.07,0,.11.11.17a.42.42,0,0,0,.24.06A.17.17,0,0,1,18.83,29.89Z"/><path class="cls-1" d="M19.19,29.49h0s-.07,0-.07,0,0,.08.13.11h0l0,0A.29.29,0,0,0,19.19,29.49Z"/><path class="cls-1" d="M19.14,30.58h0s-.07,0-.08,0,0,.08,0,.11v0s0,0,0,0,.08-.07.11-.08h0a0,0,0,0,0,0,0A.08.08,0,0,0,19.14,30.58Z"/><path class="cls-1" d="M19,28.5a0,0,0,0,0,0,0c0,.06,0,.08.08.13a.43.43,0,0,1,.13.1.23.23,0,0,0,.08-.08l.06-.1s-.06,0-.13,0A.2.2,0,0,1,19,28.5Z"/><path class="cls-1" d="M18.31,27.17l.06,0h0s0,0-.07.06Z"/><path class="cls-1" d="M19.49,28.2l-.1,0a.14.14,0,0,0-.11.06.37.37,0,0,0,.21,0Z"/><path class="cls-1" d="M23.83,24.64s0,.06-.07.1a0,0,0,0,1,0,0s0,0,.06-.1Z"/><path class="cls-1" d="M18.48,26.73a.14.14,0,0,0,0,0c-.07,0-.1.11-.11.18h.1c.06,0,.08,0,.1,0A.13.13,0,0,1,18.48,26.73Z"/><path class="cls-1" d="M19.52,23.45h0c0,.1.06.11.07.11s0,0,0,0a.15.15,0,0,0-.08-.1Z"/><path class="cls-1" d="M27.75,22.71h0s0,0,0,0,0,0-.06,0h0s-.06,0,0,.07S27.75,22.72,27.75,22.71Z"/><path class="cls-1" d="M19.53,28.76a.11.11,0,0,1,0-.06s0-.07,0-.1a.12.12,0,0,0-.1,0s0,.07.06.11Z"/><path class="cls-1" d="M26.58,22.52s.07,0,.1,0,.11,0,.11,0a.12.12,0,0,0,0-.08.23.23,0,0,0-.17-.06h-.17c0,.08,0,.11,0,.13S26.45,22.54,26.58,22.52Z"/><path class="cls-1" d="M19.81,24.9s0,0,0,0a0,0,0,0,0,0,0s0,0,0,0a0,0,0,0,0,0-.06A0,0,0,0,0,19.81,24.9Z"/><path class="cls-1" d="M19.68,24.43c0,.06,0,.1,0,.14s.06-.1,0-.15Z"/><path class="cls-1" d="M19.46,30.49a.16.16,0,0,1,0,.11c0,.07,0,.1.06.11s0,0,0,0a.17.17,0,0,1,0-.08C19.53,30.52,19.52,30.49,19.46,30.49Z"/><path class="cls-1" d="M26.53,22.85a.11.11,0,0,1,0-.06h-.08a.36.36,0,0,1-.21,0h-.08a.39.39,0,0,0,.32.11A.11.11,0,0,1,26.53,22.85Z"/><path class="cls-1" d="M25.12,30.35h0s0,0,0,0H25a.66.66,0,0,1-.22,0,.19.19,0,0,0,0,.14.11.11,0,0,1,0,.13.14.14,0,0,1-.13,0C24.84,30.59,25,30.48,25.12,30.35Z"/><path class="cls-1" d="M26.59,31s0,0,0,0h0s0,0,0,0h0S26.59,31,26.59,31Z"/><path class="cls-1" d="M26.07,30.33s-.1-.06-.13,0,0,0,0,0H26a.11.11,0,0,1,.1,0c0,.06,0,.11,0,.17a.17.17,0,0,0,0,.1s.06,0,.08.06h0c0-.06,0-.11,0-.14s.1-.11.1-.11-.07,0-.11-.06Z"/><path class="cls-1" d="M27.92,28.52h0s-.06,0-.07.08h0C27.88,28.59,27.92,28.56,27.92,28.52Z"/><path class="cls-1" d="M24,23.7s0,0,0-.06-.06,0-.14,0a.29.29,0,0,1-.15.06h-.06l-.06.06a.2.2,0,0,0,.11.13c.06,0,.11,0,.15-.06l.07,0S24,23.74,24,23.7Z"/><path class="cls-1" d="M25.48,30.28a.36.36,0,0,0,0-.11.23.23,0,0,0,0,.14Z"/><path class="cls-1" d="M26.8,26.36s0,0,0,.08,0,0,.06,0,0,0,0,0,0-.06,0-.06S26.83,26.35,26.8,26.36Z"/><path class="cls-1" d="M26.08,31h0s0,.06,0,.07,0,0,0,0,0,0,0-.06v0a.08.08,0,0,0-.06,0Z"/><path class="cls-1" d="M25.1,30.7l0,0a.16.16,0,0,1,0-.14l0,0a.18.18,0,0,0-.08.06Z"/><path class="cls-1" d="M25.58,30.61l0,0h0s0,0-.06,0Z"/><path class="cls-1" d="M27.28,30.44s0,0,0,0a.28.28,0,0,1,0,.24v0s.06,0,.07,0a.13.13,0,0,0,.08-.11s0,0-.06-.07Z"/><path class="cls-1" d="M27.51,29.51a0,0,0,0,1,0,0,.11.11,0,0,1,0,.11s0,0,0,0h0l.1,0h0A.28.28,0,0,0,27.51,29.51Z"/><path class="cls-1" d="M26.9,30.49h0s0,0,0,.06a.24.24,0,0,1,0,.07s0,0,0,0,0,0,0-.06,0-.06-.06-.06Z"/><path class="cls-1" d="M27.57,27.45s0,0,0,.06v.06h0a.11.11,0,0,1,0-.07S27.58,27.45,27.57,27.45Z"/><path class="cls-1" d="M27.28,28.39v.06s0,.07,0,.08,0,0,0,0a.06.06,0,0,0,0-.07l-.06-.08Z"/><path class="cls-1" d="M27.32,26.8a.21.21,0,0,1,.13,0,.23.23,0,0,1,.14,0h0l0-.15a.26.26,0,0,1-.11,0s-.1,0-.15-.11,0,0,0,0a.21.21,0,0,1-.08.06l.06.07S27.3,26.8,27.32,26.8Z"/><path class="cls-1" d="M27.05,29.84l0,0a.57.57,0,0,0,0,.07s0,0,.1-.07S27.07,29.82,27.05,29.84Z"/><path class="cls-1" d="M27,26h0s0,0,.06,0l.06,0H27Z"/><path class="cls-1" d="M26.74,26.92a0,0,0,0,0,0,0s0,0,0,0,0,0,0,0h0a0,0,0,0,0,0,0c0-.06,0-.07,0-.07S26.74,26.92,26.74,26.92Z"/><path class="cls-1" d="M26.25,26.18s0,0,.07,0,0,0,0-.08S26.25,26.18,26.25,26.18Z"/><path class="cls-1" d="M24.66,26.11a.15.15,0,0,1-.13-.11,0,0,0,0,0,0,0s0,.06,0,.07a.21.21,0,0,1,0,.1.08.08,0,0,0,0,.06h0c.08,0,.21,0,.22-.13v0s0,0,0,0A.09.09,0,0,1,24.66,26.11Z"/><path class="cls-1" d="M25.2,26.1h-.06s0,0,0,.07.06.17.14.18l-.07-.17.17,0-.1.14h.18C25.41,26.11,25.38,26.1,25.2,26.1Z"/><path class="cls-1" d="M26.45,26.36a.06.06,0,0,1,0,.08h0v-.06s0,0,0,0S26.44,26.36,26.45,26.36Z"/><path class="cls-1" d="M24.63,26.59h-.07v0s0,.06,0,.08a.09.09,0,0,0,.08-.06.1.1,0,0,0,0-.1A.09.09,0,0,0,24.63,26.59Z"/><path class="cls-1" d="M24,25.87h0s0,0,0,0,0,0,0,0L24,26s.1,0,.13,0h0l0,0s0,0,0,0A.3.3,0,0,0,24,25.87Z"/><path class="cls-1" d="M24.28,22.94v.13h0a.13.13,0,0,0,.07,0h0a.28.28,0,0,0-.08-.06A0,0,0,0,0,24.28,22.94Z"/><path class="cls-1" d="M23.34,29.61a0,0,0,0,1,0,0s0,0,0,0,0,0,0-.06l0,0S23.35,29.6,23.34,29.61Z"/><path class="cls-1" d="M17.93,27.71H16.58c-.27,0-.34.07-.35.34s0,.77,0,1.22c0,.24,0,.27.29.28H18a.25.25,0,0,0,.2-.06.28.28,0,0,0,.07-.2V29c0-.34,0-.67,0-1S18.19,27.72,17.93,27.71Z"/><path class="cls-1" d="M24.85,30.83h0s0,0,0,.07,0,.06,0,.07a.17.17,0,0,1-.18.07h-.06a.12.12,0,0,0-.11.07h.08a.43.43,0,0,1,.14,0,.27.27,0,0,1,.14,0s.06,0,.07,0,0,0,0,0a.17.17,0,0,1,0-.2A0,0,0,0,1,24.85,30.83Z"/><path class="cls-1" d="M24.56,30.55h0l-.07,0a.06.06,0,0,0,0,.06h.11Z"/><path class="cls-1" d="M24.26,30.84a.11.11,0,0,0,0,0l.07-.06h-.06A0,0,0,0,0,24.26,30.84Z"/><path class="cls-1" d="M23.49,29.82v0a.11.11,0,0,1,0,.1.2.2,0,0,0,0,.1.18.18,0,0,1,.17-.14l.06,0a.46.46,0,0,0-.21-.07Z"/><path class="cls-1" d="M23.87,30.14h-.08s.06.08.07.08a.08.08,0,0,0,.06,0,.13.13,0,0,0,0-.07S23.93,30.14,23.87,30.14Z"/><path class="cls-1" d="M23.51,30.47s0,0,0,.06,0,0,0,0a.08.08,0,0,0,0-.06s0,0,0,0Z"/><path class="cls-1" d="M23.51,29.4l-.07-.06h0a0,0,0,0,1,0,0s0,0,0,.06h0Z"/><path class="cls-1" d="M10.62,29.88h0l.07,0a.15.15,0,0,0,.11,0l-.06,0S10.66,29.85,10.62,29.88Z"/><path class="cls-1" d="M19.43,23.13v0a0,0,0,0,0,0,0l0,0s0,0,0,0,0,0,.06,0S19.43,23.15,19.43,23.13Z"/><path class="cls-1" d="M19.15,23.87v-.06s0-.1-.06-.11h0l.08.18Z"/><path class="cls-1" d="M19.28,23.36l0-.07h0s0,0,0,.06S19.22,23.38,19.28,23.36Z"/><path class="cls-1" d="M19.1,25s.08,0,.1,0,0-.06,0-.1,0,0,0-.07a.08.08,0,0,0-.06,0s-.06,0-.08.07S19,25,19,25l0,.06C19,25,19.05,25,19.1,25Z"/><path class="cls-1" d="M19.12,26.68a0,0,0,0,0,0,0s0,0,0,0a.09.09,0,0,1-.08,0c-.07,0-.1,0-.13,0h0l.06,0a.21.21,0,0,1,.1,0h.07S19.11,26.68,19.12,26.68Z"/><path class="cls-1" d="M19.53,24h0a.26.26,0,0,0,0-.11s0,0-.1.07a.36.36,0,0,1-.1.06h0a.18.18,0,0,0,0,.14h0l.06.06c0-.08.1-.11.15-.15Z"/><path class="cls-1" d="M19.19,27.45a.36.36,0,0,0,0-.1.11.11,0,0,1,0-.07,0,0,0,0,1,0,0s0,0,0-.06.08-.15.07-.2,0,0,0,0h0s0,0,0,.06v.06h0a.12.12,0,0,1-.1.13.6.6,0,0,0-.06.1s-.06.06-.06.08l0,0Z"/><path class="cls-1" d="M19.4,25.45v0a0,0,0,0,0,0,0s0,0-.07,0l-.06,0a.27.27,0,0,0-.22-.08s0,0,.08.06a.17.17,0,0,1,.14.07C19.36,25.44,19.39,25.45,19.4,25.45Z"/><path class="cls-1" d="M19,26a.17.17,0,0,0,0-.17,0,0,0,0,1,0,0,.23.23,0,0,1,0,.11Z"/><path class="cls-1" d="M17,22.94h0a.17.17,0,0,0,0-.07.22.22,0,0,0-.07.08s0,0,0,.06a.3.3,0,0,1-.06.08.18.18,0,0,0,.08-.07Z"/><path class="cls-1" d="M16.49,25.59H18c.27,0,.28,0,.28-.25,0-.39,0-.8,0-1.18s-.06-.28-.29-.28H16.5c-.18,0-.27.07-.27.24,0,.43,0,.87,0,1.27a.18.18,0,0,0,.06.15A.29.29,0,0,0,16.49,25.59Z"/><path class="cls-1" d="M18.16,26.5h0c.07,0,.13,0,.15-.07s0,0,0,0a.33.33,0,0,1-.1.06S18.19,26.47,18.16,26.5Z"/><path class="cls-1" d="M17.12,23.15a.22.22,0,0,0,0-.11v0h0s0,0,0-.07a.19.19,0,0,1-.08.1.05.05,0,0,1,0,0s0,.07,0,.08,0,0,0,0Z"/><path class="cls-1" d="M17.56,23c.07,0,.08-.07.08-.15s0-.08,0-.13l0,0,0,0h0c.1.08.06.18,0,.25A.55.55,0,0,0,17.56,23Z"/><path class="cls-1" d="M18.23,22.57h0c.07-.06.11-.08.13-.14a.28.28,0,0,1-.17.11h-.1s0,0,0,0,0,0,0,0S18.17,22.61,18.23,22.57Z"/><path class="cls-1" d="M18,31h0s0-.07,0-.07A.53.53,0,0,0,18,31Z"/><path class="cls-1" d="M18.91,23.18h0a0,0,0,0,0,0,0h-.06a0,0,0,0,0,0,0Z"/><path class="cls-1" d="M18.13,22.9s0,.06,0,.08,0-.06,0-.08a.05.05,0,0,1,0,0h-.07Z"/><path class="cls-1" d="M10.73,25.33s0,0-.07,0h.07Z"/><path class="cls-1" d="M10.65,28.69s-.06,0-.08,0l0-.06s0,0,0,0h0s0,.07,0,.08a.13.13,0,0,0,.08,0Z"/><path class="cls-1" d="M10.68,30.45h0s0,.06.07.07a0,0,0,0,0,0,0S10.75,30.45,10.68,30.45Z"/><path class="cls-1" d="M10.72,23l.13.06c0-.13-.07-.15-.18-.17h0v0C10.62,22.93,10.65,22.94,10.72,23Z"/><path class="cls-1" d="M10.75,24.54c-.06.06-.1.08-.1.15s0,0,0,0h.06c.11,0,.15-.07.14-.18s0,0,0,0A.21.21,0,0,1,10.75,24.54Z"/><path class="cls-1" d="M11,25.86h0v0s0,0,0-.07v-.07s0,0,0,0h0s-.08.06-.08.11,0,0,0,0A.08.08,0,0,0,11,25.86Z"/><path class="cls-1" d="M27.58,27.37s0,0,0,.07,0-.06,0-.08Z"/><path class="cls-1" d="M10.83,23.85a0,0,0,0,0,0,0h0s0,0,0,0v-.08s0,0,0,0a.11.11,0,0,1,0,.07Z"/><path class="cls-1" d="M10.65,29.14h0a.19.19,0,0,0,.11-.22l0,.06A.2.2,0,0,0,10.65,29.14Z"/><path class="cls-1" d="M11.25,23.78a.06.06,0,0,0,0,0,.2.2,0,0,0,0-.1.11.11,0,0,0-.07,0h0a.09.09,0,0,1,0,.1c0,.06,0,.07.06.07S11.25,23.8,11.25,23.78Z"/><path class="cls-1" d="M19.54,22.83a.28.28,0,0,0-.13-.13s0,0,0,0A.17.17,0,0,0,19.54,22.83Z"/><path class="cls-1" d="M11.08,23v0l.07.06A.11.11,0,0,0,11.08,23Z"/><path class="cls-1" d="M11.27,26h0a.06.06,0,0,0-.06.06s0,0,0,0h0s.06,0,.06,0S11.27,26,11.27,26Z"/><path class="cls-1" d="M10.78,27.87a.27.27,0,0,1,0,.14s.07,0,.08,0l0-.11Z"/><path class="cls-1" d="M11,27.52v0c0,.06,0,.06,0,.06a0,0,0,0,0,0,0v-.06s0-.06,0-.08v0h0S11,27.47,11,27.52Z"/><path class="cls-1" d="M11,26.54h0l0,0h0a.08.08,0,0,1,0,.08.11.11,0,0,1-.18,0h0a0,0,0,0,0,0,0,.05.05,0,0,0,0,0,.29.29,0,0,0,.24,0,.21.21,0,0,0,.13-.18s0,0,0,0Z"/><path class="cls-1" d="M18.06,26.75s-.07,0-.07.08a.06.06,0,0,0,.06.06h0s0,0,0-.08h0a.06.06,0,0,0,0,0,0,0,0,0,0,0,0Z"/><path class="cls-1" d="M15.43,29.78c-.08.07-.14.08-.2.06s0-.06-.06-.1,0,.1,0,.15.14,0,.22,0l.06,0s0,0,0,0a0,0,0,0,1,0,0Z"/><path class="cls-1" d="M15.41,28.94l0,0c.07,0,.1,0,.11-.08h0a.29.29,0,0,0-.17.13Z"/><path class="cls-1" d="M15.68,25.82h0s0,0,0,0a.06.06,0,0,0,0,0s.06,0,.06,0S15.71,25.83,15.68,25.82Z"/><path class="cls-1" d="M15.48,26.47c-.08,0-.18,0-.22-.14h0l-.06,0-.07,0a.33.33,0,0,1,.22.13.33.33,0,0,0,.13.08s.13,0,.14-.07a0,0,0,0,0,0,0A.26.26,0,0,0,15.48,26.47Z"/><path class="cls-1" d="M17.67,26.49h0l0,0c0-.07,0-.11-.12-.11h0s0,0,0,0S17.6,26.49,17.67,26.49Z"/><path class="cls-1" d="M15.44,27.26s0-.06,0-.08h0v0h0l0,0a0,0,0,0,1,0,0,.26.26,0,0,1-.21.08.33.33,0,0,0-.11,0v0h.18a.16.16,0,0,1,.14-.06A.06.06,0,0,0,15.44,27.26Z"/><path class="cls-1" d="M15.27,27.5h.08s0-.06-.07-.08Z"/><path class="cls-1" d="M15.09,27.64c.06,0,.07,0,.08,0s0,0,0-.08H15Z"/><path class="cls-1" d="M15.8,30.56a0,0,0,0,0,0,0h0l0,0s0,0,0-.07Z"/><path class="cls-1" d="M15.69,30.84h0a0,0,0,0,0,0,0h0S15.71,30.82,15.69,30.84Z"/><path class="cls-1" d="M16.6,30.68l-.11,0h.1a1,1,0,0,0-.1-.17.1.1,0,0,1,0-.06s0,0,0,0h0c-.06,0-.08.06-.11.13s0,0,0,.06l0,0c.14.07.29.18.21.41a.14.14,0,0,1,.07-.06s.07,0,0-.08A.68.68,0,0,0,16.6,30.68Z"/><path class="cls-1" d="M16.06,31l0,0h0l.18.11h0Z"/><path class="cls-1" d="M17.67,30.65v0s0,0,0,0,0,0,0,0,0,0,0-.07a.22.22,0,0,1,0-.07h0l0,0a0,0,0,0,0,0,0S17.71,30.58,17.67,30.65Z"/><path class="cls-1" d="M16.92,30.79s0,0,0,0,0,0,0,.06l0,0s0,0,0,0h-.06Z"/><path class="cls-1" d="M16,27.33v0a.24.24,0,0,0,0-.14h0a.18.18,0,0,1-.07.15c0,.06,0,.08.07.08S16,27.41,16,27.33Z"/><path class="cls-1" d="M15.13,24.55h0a.11.11,0,0,0-.07,0,.33.33,0,0,0-.17,0,.12.12,0,0,1,.08,0l.11,0A0,0,0,0,0,15.13,24.55Z"/><path class="cls-1" d="M16,26.8a0,0,0,0,0,0,0h0s0,0-.07.07l-.06.06h0C16,26.89,16,26.89,16,26.8Z"/><path class="cls-1" d="M15.15,28.34a.14.14,0,0,0,0-.07H15a0,0,0,0,0,0,0s0,.07.1.1a.11.11,0,0,0,.07,0A.13.13,0,0,1,15.15,28.34Z"/><path class="cls-1" d="M16.24,26.67h.06c.1,0,.13,0,.14,0a.14.14,0,0,0,0,0,.11.11,0,0,1-.07,0C16.28,26.63,16.25,26.64,16.24,26.67Z"/><path class="cls-1" d="M15,24.72h-.07a.1.1,0,0,0,0,.08h0a.05.05,0,0,0,0,0Z"/><path class="cls-1" d="M15.62,23.06h0s0-.06.06-.1a.28.28,0,0,1-.17,0,.29.29,0,0,1,0-.2s0,0,0,0a.4.4,0,0,1-.21.24h0l.06,0A.94.94,0,0,0,15.62,23.06Z"/><path class="cls-1" d="M16,23.31a.36.36,0,0,1,.11-.27h-.08a.27.27,0,0,0-.25.2h.07A.2.2,0,0,1,16,23.31Z"/><path class="cls-1" d="M15.94,22.62h0s0,0,0,0h0s0,0,.06,0l.06,0h0a.08.08,0,0,0,0-.08S16,22.62,15.94,22.62Z"/><path class="cls-1" d="M17.44,26.89h0c.06,0,.06,0,.07,0s0,0,0,0S17.47,26.84,17.44,26.89Z"/><path class="cls-1" d="M17.18,26.31s0,0,0,0v.1A.24.24,0,0,0,17.18,26.31Z"/><path class="cls-1" d="M16.78,26.89A.2.2,0,0,0,17,27a.25.25,0,0,0,0-.11.2.2,0,0,0-.1,0S16.8,26.89,16.78,26.89Z"/><path class="cls-1" d="M16,22.4H16s0,0,0,0h0a.19.19,0,0,0-.13,0l.07,0Z"/><path class="cls-1" d="M14.78,25.66h-.06v0a.25.25,0,0,1,0,.14.16.16,0,0,0,0,.07,0,0,0,0,0,0,0,1.34,1.34,0,0,0,.11-.2s0,0,0,0,0,0,0,0Z"/><path class="cls-1" d="M15.16,24.19a.05.05,0,0,0,0,0h0l-.06-.06a1.54,1.54,0,0,0-.22-.2.39.39,0,0,0-.13.17s.07.06.2.1S15.15,24.2,15.16,24.19Z"/><path class="cls-1" d="M14.91,27.72s0,0,0,.06a0,0,0,0,0,0,0s0,0,0-.07v0s0,0,0,0Z"/><path class="cls-1" d="M15.65,23.7a.32.32,0,0,1-.11-.13c0-.06,0-.08-.06-.08s0,0,0,0,0,0,0,.08a.55.55,0,0,1-.07.17s0,.11,0,.17v0c0-.08.08-.18.24-.2Z"/><path class="cls-1" d="M15.45,25.38a.12.12,0,0,0,0,.08s0,0,.06,0,0,0,0-.08a0,0,0,0,1,0,0Z"/><path class="cls-1" d="M15,23.57h.06s0,0,0,0l-.08,0c-.06,0-.07,0-.07,0s0,.06,0,.07Z"/><path class="cls-1" d="M15.37,26.07c0-.06,0-.07-.08-.08h0s0,0,0,0a.05.05,0,0,0,0,0c0,.06,0,.08.08.1S15.34,26.15,15.37,26.07Z"/><path class="cls-1" d="M31.42,24.54a.24.24,0,0,0-.1.06.12.12,0,0,1,.11.07c.06,0,.06,0,.06,0l0,0S31.42,24.57,31.42,24.54Z"/><path class="cls-1" d="M46,30.47l0,0h0s0,0,0,.06l0,0Z"/><path class="cls-1" d="M46.31,30.24v.11c0,.07.08.18-.06.24s-.18,0-.25-.1l-.06,0s0,0,0,0,.17.1.28.1h.1s0,0,.07-.08h0a.31.31,0,0,0-.1-.31Z"/><path class="cls-1" d="M45.76,30.52s-.06-.06-.07-.06,0,0,0,0l0,.06s0,0,.13,0h.06s0,0,0,0Z"/><path class="cls-1" d="M48.75,29c0-.11-.07-.17-.13-.18s0,0,0,.06h0s0,.07,0,.08a.12.12,0,0,0,.08,0S48.73,29,48.75,29Z"/><path class="cls-1" d="M44.54,31s0,0,.08,0,.06,0,.1-.07a.07.07,0,0,1,0-.06.19.19,0,0,1-.12,0C44.56,31,44.54,31,44.54,31Z"/><path class="cls-1" d="M44.36,30.62a.08.08,0,0,0,.06,0s0,0-.07,0Z"/><path class="cls-1" d="M45.06,30.55a.15.15,0,0,0,0,.07l0,0v0s0,0,0,0Z"/><path class="cls-1" d="M44,29.54c-.06,0-.15.11-.25,0a.62.62,0,0,1,.07.14.1.1,0,0,1,0,.11.05.05,0,0,0,0,0h0s0,0,.07,0a.14.14,0,0,1,.06-.07.39.39,0,0,1,.15-.11l.06,0s0,0,0-.06h0C44.17,29.47,44.14,29.49,44,29.54Z"/><path class="cls-1" d="M48.34,29.22h0s0,0,0,.06h.06s.06,0,.07,0,0,0,0,0S48.36,29.25,48.34,29.22Z"/><path class="cls-1" d="M47.66,27.48h.07a0,0,0,0,0,0,0v0l-.11-.21h0c-.06.06-.08.08-.08.13S47.56,27.47,47.66,27.48Z"/><path class="cls-1" d="M47.54,29.54s0,0,0,0,0,0,0,.1v0l0,0A.12.12,0,0,0,47.54,29.54Z"/><path class="cls-1" d="M47.81,30.51h0s0,0,0,.06v.06s0,0,0-.07Z"/><path class="cls-1" d="M48.45,28.44s0,0-.06,0v.06h0l0,0Z"/><path class="cls-1" d="M47.43,27h0a.18.18,0,0,1,0-.08c0-.06,0-.06,0-.06V27h0Z"/><path class="cls-1" d="M48.08,27.1h0a.14.14,0,0,0-.13,0s0,0,0,0h0S48,27.15,48.08,27.1Z"/><path class="cls-1" d="M48.22,27.5c.08.06.13.07.17,0a.11.11,0,0,1,.13,0h.06s0,0,0-.06a.23.23,0,0,1,0-.13c0-.06,0-.07,0-.08s0,0,0,0c0,.18-.17.24-.29.28Z"/><path class="cls-1" d="M48,26.59a.1.1,0,0,1,.11.06s0,0,0,0a0,0,0,0,0,0,0,.2.2,0,0,0-.07-.08.28.28,0,0,0-.15,0H48Z"/><path class="cls-1" d="M36.14,28.1h0a.18.18,0,0,0-.1.07s0,.08.07.13h0v0a.09.09,0,0,1,0-.08s0-.06.08-.07Z"/><path class="cls-1" d="M35.83,26.39a.41.41,0,0,0,0-.18v0c-.08,0-.13.07-.11.15s.1,0,.11.06A0,0,0,0,0,35.83,26.39Z"/><path class="cls-1" d="M35.13,29.84a.13.13,0,0,1-.07.06h0a.3.3,0,0,1-.15.1s0,0,0,0L35,30a.49.49,0,0,1,.15,0,.11.11,0,0,0,.1,0,.16.16,0,0,0,0-.11h-.11S35.13,29.79,35.13,29.84Z"/><path class="cls-1" d="M36.25,27.68s0,0,0,.07h0l0,0a0,0,0,0,1,0,0Z"/><path class="cls-1" d="M47.5,30.3c0-.06,0-.07-.06-.07h0l.11.08A0,0,0,0,0,47.5,30.3Z"/><path class="cls-1" d="M35.95,29.57a0,0,0,0,1,0,0h-.06a0,0,0,0,0,0,0v.08a.22.22,0,0,1-.06.21v0s0,0,.07,0l.11,0,.08,0a.32.32,0,0,0-.06-.21A.58.58,0,0,1,35.95,29.57Z"/><path class="cls-1" d="M35.58,29l0,0a.22.22,0,0,0,0,.07,0,0,0,0,0,0,0c.07,0,.08,0,.1,0s0,0,0,0,0,0,0-.07Z"/><path class="cls-1" d="M35.32,30.26h0v0a.26.26,0,0,1,0,.1.27.27,0,0,1,.06.17l0,.08.08.06v-.11c0-.11,0-.25.14-.32h0C35.47,30.21,35.4,30.24,35.32,30.26Z"/><path class="cls-1" d="M35.62,29.54s0,0,0,0-.06,0-.08,0Z"/><path class="cls-1" d="M39.75,20.86a.15.15,0,0,1,0,0h0a.17.17,0,0,0,0-.11s0,0,0,0A.09.09,0,0,1,39.75,20.86Z"/><path class="cls-1" d="M39.83,22.4h0a.12.12,0,0,0,0,.08h0s0,0,0,0a.08.08,0,0,1,.06,0s0-.07,0-.08a0,0,0,0,0,0,0Z"/><path class="cls-1" d="M40.08,20.94h.07S40.08,20.93,40.08,20.94Z"/><path class="cls-1" d="M39.84,22.19s0,0,0-.06-.06,0-.07-.07l0-.06,0,0v0a.51.51,0,0,1,0,.14v0C39.75,22.2,39.83,22.22,39.84,22.19Z"/><path class="cls-1" d="M39.39,21a0,0,0,0,1,0,0,.26.26,0,0,0,.15.07.28.28,0,0,1,.15,0A.47.47,0,0,0,39.39,21Z"/><path class="cls-1" d="M36,26.46h.07a.29.29,0,0,0,.18-.06.35.35,0,0,1,.13-.07v0s0,0-.06,0A.78.78,0,0,0,36,26.46Z"/><path class="cls-1" d="M40.16,21h0a.38.38,0,0,0,.2.07s0-.06,0-.06-.06,0-.07,0A.17.17,0,0,1,40.16,21Z"/><path class="cls-1" d="M39.77,20.74a.26.26,0,0,0,0-.08h0s0,0,0,0Z"/><path class="cls-1" d="M35.82,30.58s0,0,.06,0,0,0,.06,0a0,0,0,0,0,0,0S35.88,30.56,35.82,30.58Z"/><path class="cls-1" d="M46.66,22.45l0,.08a1.28,1.28,0,0,1-.07.15c0,.08,0,.11,0,.11l.08,0h0a.2.2,0,0,1,0-.08.19.19,0,0,1,.15,0l0-.11s0,0,0,0S46.72,22.43,46.66,22.45Z"/><path class="cls-1" d="M45.44,22.79h-.06a0,0,0,0,1,0,0,.18.18,0,0,0,0,.08.1.1,0,0,0,.07,0,0,0,0,0,0,0,0s0-.06,0-.08Z"/><path class="cls-1" d="M44.36,22.87a.22.22,0,0,1-.08.11.26.26,0,0,1-.2,0v0h0c.08,0,.18,0,.21.13s0,0,0,0h0c0-.08.08-.14.14-.15a.35.35,0,0,1,.17,0h0s-.08-.06-.15-.07A.28.28,0,0,1,44.36,22.87Z"/><path class="cls-1" d="M46.72,22.92s0,0,0,0h0a.11.11,0,0,0,0-.07h-.07S46.7,22.92,46.72,22.92Z"/><path class="cls-1" d="M45.4,22.5s.07,0,.08,0h0S45.44,22.45,45.4,22.5Z"/><path class="cls-1" d="M45.15,22.34a.23.23,0,0,0-.11.1l0,.13h0s0,0,.06,0,.1,0,.11,0,0,0,0-.07l-.06,0A.18.18,0,0,1,45.15,22.34Z"/><path class="cls-1" d="M44.87,26.59s0,.06,0,.07,0,0,.1,0,0,0,0,0,0,0-.07,0Z"/><path class="cls-1" d="M45,26.31s-.06,0-.07,0-.06.06,0,.08a.3.3,0,0,1,.2-.1H45Z"/><path class="cls-1" d="M45.72,22.87h0a.11.11,0,0,0,0,.06h0s0,0,0,.06v0s0,0,0-.07S45.72,22.89,45.72,22.87Z"/><path class="cls-1" d="M48.34,23.29a0,0,0,0,1,0,0h0Z"/><path class="cls-1" d="M46.78,4.7H13.22a8.4,8.4,0,0,1-8,8V41a8.4,8.4,0,0,1,8,8H46.78a8.4,8.4,0,0,1,8-8V12.71A8.4,8.4,0,0,1,46.78,4.7ZM12.11,31.54a.38.38,0,0,1-.34.13h0c-.41,0-.81,0-1.21,0H9.74c-.15,0-.24,0-.28-.11s0-.15,0-.27a3.19,3.19,0,0,0,.27-1.57v-.1c0-2,0-4.1,0-6A2.8,2.8,0,0,0,9.5,22.1c-.07-.13-.08-.21,0-.27s.14-.08.28-.1h1.7c.36,0,.38,0,.38.41v5.21c0,1,0,1.92,0,2.87a1.69,1.69,0,0,0,.22.94C12.12,31.33,12.15,31.45,12.11,31.54Zm8.33-7.79c0,.6,0,1.23,0,1.82v.11a1.06,1.06,0,0,1-.36,1,.23.23,0,0,0-.11.18.2.2,0,0,0,.11.17,1.06,1.06,0,0,1,.36,1c0,.76,0,1.51,0,2.24a1,1,0,0,1-.34.78l-.14.13a6.09,6.09,0,0,0-.45.42.42.42,0,0,1-.36.11H15.4a.6.6,0,0,1-.53-.24,2.67,2.67,0,0,0-.37-.34,1,1,0,0,1-.42-1c0-.77,0-1.56,0-2.33a1,1,0,0,1,.34-.85.24.24,0,0,0,.11-.17.26.26,0,0,0-.11-.2,1,1,0,0,1-.34-.9c0-.81,0-1.67,0-2.54a1.17,1.17,0,0,1,.38-.88,1.65,1.65,0,0,1,1.44-.57c.85,0,1.71,0,2.55,0h.62a.74.74,0,0,1,.58.21s0,0,0,0l0,0c.14.14.25.25.34.32C20.44,22.72,20.47,22.78,20.44,23.76Zm8.31,5.67c0,.2,0,.41,0,.6a1.48,1.48,0,0,1-.52,1.13,1.85,1.85,0,0,1-1.36.53h-.11c-.84,0-1.69,0-2.54,0H23.9a1.1,1.1,0,0,1-.83-.32l-.28-.28c-.38-.36-.38-.36-.38-.87,0-.08,0-.2,0-.34s0-.2,0-.29v-.67c0-.35.07-.41.39-.41H24.5c.14,0,.24,0,.28.1s0,.15,0,.31l-.08.21a1.37,1.37,0,0,0-.1.21.13.13,0,0,0,.14.2h1.65a.18.18,0,0,0,.2-.2v0c0-.53,0-1.08,0-1.61,0-.17-.11-.24-.34-.24H24a1.35,1.35,0,0,1-1-.36,1.63,1.63,0,0,1-.62-1.47c0-.83,0-1.67,0-2.48,0-.34,0-.69,0-1s0-.42.42-.42h5.34c.42,0,.49.06.49.48v1.51a.4.4,0,0,1-.11.34.26.26,0,0,1-.27,0A5.29,5.29,0,0,0,26,23.78a11.94,11.94,0,0,1-1.22,0,.19.19,0,0,0-.18,0s-.06.1-.06.18,0,.38,0,.57V25c0,.29,0,.29.29.29h.46c.56,0,1.15,0,1.72,0a1.51,1.51,0,0,1,1.12.45,1.69,1.69,0,0,1,.63,1.56C28.72,28,28.73,28.73,28.75,29.43Zm8.28.76a1.08,1.08,0,0,1-.34.76,1.82,1.82,0,0,1-1.5.66H35c-.78,0-1.6,0-2.37,0h-.52a1,1,0,0,1-.63-.24,1.68,1.68,0,0,1-.77-1.68c.06-.71,0-1.44,0-2.14,0-.29,0-.6,0-.9h0V23a.73.73,0,0,1,.31-.7l.06,0a.75.75,0,0,0,.22-.18,1,1,0,0,1,1-.41c1.16,0,2.31,0,3.39,0a.64.64,0,0,1,.55.22h0a.74.74,0,0,0,.18.18A1.31,1.31,0,0,1,37,23.32C37,25.66,37,28,37,30.19ZM40.09,23a.2.2,0,0,1-.17.2l-.6,0a.19.19,0,0,1-.18-.17L39,20.25a.14.14,0,0,1,.15-.17L40.53,20a.17.17,0,0,1,.18.17Zm9.3,1.27a1.11,1.11,0,0,1,.1.24.21.21,0,0,1-.24.32H47.4a1.13,1.13,0,0,1-.31,0c-.11,0-.2,0-.24-.07a.3.3,0,0,1,0-.27A1.14,1.14,0,0,1,47,24.3a.81.81,0,0,0,.07-.17.23.23,0,0,0,0-.21.22.22,0,0,0-.18-.07c-.29,0-.59,0-.87,0h-.66a.24.24,0,0,0-.18.06.25.25,0,0,0-.06.18v1.18c0,.29,0,.29.29.29h2.37a1,1,0,0,1,.81.35c.08.08.15.17.22.22.48.48.48.49.46,1.23v.31c0,.94,0,1.72,0,2.45a1.28,1.28,0,0,1-.36.9,1.59,1.59,0,0,1-1.36.63h-.14c-.84,0-1.71,0-2.54,0h-.46a.91.91,0,0,1-.76-.31s0,0,0,0c-.74-.63-.74-.67-.71-1.36,0-.08,0-.17,0-.27a1.4,1.4,0,0,0-.11-.6,1,1,0,0,1-.11-.28c0-.13,0-.22,0-.28s.14-.08.27-.08h2.12c.14,0,.22,0,.27.1s0,.15,0,.28l-.08.18a2.49,2.49,0,0,0-.13.28.2.2,0,0,0,0,.18.26.26,0,0,0,.18,0h1.57c.08,0,.14,0,.17-.06a.18.18,0,0,0,0-.14V27.89a.19.19,0,0,0,0-.14c0-.06-.14-.06-.22-.06H44.15a.39.39,0,0,1-.25-.06l-.06-.06A5.74,5.74,0,0,1,43,26.7a.63.63,0,0,1-.08-.42v-.06c0-1.16,0-2.12,0-3a1.13,1.13,0,0,1,.35-.85,1.72,1.72,0,0,1,1.63-.64,8.4,8.4,0,0,0,.84,0h2.2a.84.84,0,0,1,.63.27,1.78,1.78,0,0,1,.71,1.74A.82.82,0,0,0,49.39,24.3Z"/><path class="cls-1" d="M48.33,23.41a.05.05,0,0,1,0,0h0s0,0,0-.06,0,0,0,0A.13.13,0,0,1,48.33,23.41Z"/><path class="cls-1" d="M47.08,30.79c-.06,0-.08,0-.08,0a.14.14,0,0,0,0,.06h.08a.15.15,0,0,0,0-.1s0,0,0,0Z"/><path class="cls-1" d="M47.11,22.51H47a.15.15,0,0,1,.1.13s0,0,0,0,0-.06,0-.08S47.11,22.52,47.11,22.51Z"/><path class="cls-1" d="M47.68,23.69a.22.22,0,0,0,0-.15.3.3,0,0,0-.15,0,.72.72,0,0,1,.24.36c0,.08.06.1.14.1h.07l0,0A.41.41,0,0,1,47.68,23.69Z"/><path class="cls-1" d="M48,22.73s0,0,0,0a0,0,0,0,0,0,0h0s.06,0,.07,0Z"/><path class="cls-1" d="M48.08,23.49l.07.1a.13.13,0,0,1,0,.18v0s0,.07,0,.13a2.23,2.23,0,0,0,.06-.29.32.32,0,0,1,0-.11h-.13Z"/><path class="cls-1" d="M46.67,27s0-.06-.06-.07,0,0,0,0,0,0-.07,0l0,0Z"/><path class="cls-1" d="M46.62,26.47h0s0,0,0,0a.12.12,0,0,1,0-.07.23.23,0,0,1,0-.1v0h0a.27.27,0,0,0-.06.15A.08.08,0,0,0,46.62,26.47Z"/><path class="cls-1" d="M46.37,26.73v-.07h0s0,0,0,0A0,0,0,0,0,46.37,26.73Z"/><path class="cls-1" d="M46.14,26.49s.18,0,.17-.11-.08-.08-.14-.1h0s0,.06,0,.08,0,.08,0,.11S46.14,26.47,46.14,26.49Z"/><path class="cls-1" d="M47,27.12c.08,0,.1,0,.1-.07a.11.11,0,0,0-.07,0,0,0,0,0,0,0,0c-.11,0-.13.06-.13.1h0Z"/><path class="cls-1" d="M47.09,30.49a.1.1,0,0,0-.1.07.49.49,0,0,1,.15-.06h-.06Z"/><path class="cls-1" d="M47.09,26.47h0a.1.1,0,0,0,0-.06h-.06v0s0,0,0,0Z"/><path class="cls-1" d="M46.13,26.89s0,0,0,0a.14.14,0,0,0-.14-.08s0,0,0,0h0C46,26.89,46.09,26.91,46.13,26.89Z"/><path class="cls-1" d="M44.14,26.61c0,.06,0,.06.07,0a0,0,0,0,0,0,0s0,0,0,0-.06,0-.1,0A0,0,0,0,1,44.14,26.61Z"/><path class="cls-1" d="M43.86,25h0a.27.27,0,0,0,.1-.17c0-.06-.07-.11-.18-.17a.08.08,0,0,0-.06,0l-.07.06a.74.74,0,0,0,.11.06C43.87,24.88,43.86,25,43.86,25Z"/><path class="cls-1" d="M44.25,25.21h-.13s0,.07,0,.11v0a.12.12,0,0,1,0,.1s.08,0,.14-.08a.51.51,0,0,1,.21-.11h0A.2.2,0,0,0,44.25,25.21Z"/><path class="cls-1" d="M44.24,25.75a.53.53,0,0,0-.2-.2s0,0,0,0a.14.14,0,0,1-.1.1s-.06,0-.07,0a.19.19,0,0,1-.07-.11h0a.19.19,0,0,1,0-.15s0,0,0,0a.05.05,0,0,0,0,0h0a.28.28,0,0,1-.13.07c-.08,0-.17.07-.18.14s0,.07.08.11a.26.26,0,0,1,.13.08.22.22,0,0,1,.15.11,0,0,0,0,1,0,0,.13.13,0,0,1,.18-.11.24.24,0,0,1,.15.28h0a.31.31,0,0,1,.17.07h0a0,0,0,0,0,0,0,.11.11,0,0,0,0-.06A.43.43,0,0,1,44.24,25.75Z"/><path class="cls-1" d="M45.67,27.09a.64.64,0,0,1,.38.1s0,0,0,0l.06,0-.13,0a.67.67,0,0,0-.46-.06Z"/><path class="cls-1" d="M43.72,24.58h.06l.21,0a.75.75,0,0,0,.39-.11l0,0c.06,0,.08-.06.07-.1s0,0-.1,0h0a.17.17,0,0,1-.14.18,1,1,0,0,1-.28,0l-.21,0h0Z"/><path class="cls-1" d="M45.39,26.42h.07l.14,0c.13,0,.13,0,.14,0v0h0s-.06,0-.07,0a.21.21,0,0,1-.08-.11s0-.06,0-.06h-.06s0,.06-.06.11a.17.17,0,0,1,0,.14s0,0,0,0Z"/><path class="cls-1" d="M44.22,23.84l.06,0c.07-.06.1-.08.08-.14s0,0,0,0a.24.24,0,0,1-.15.15l0,0h-.08a0,0,0,0,0,0,0,0,0,0,0,0,0,0A.14.14,0,0,0,44.22,23.84Z"/><path class="cls-1" d="M35.44,26.61s0,0,0,0,0,0,0,.06h0s0,0,0,0S35.44,26.63,35.44,26.61Z"/><path class="cls-1" d="M32.14,28.41s0,.07,0,.11l.08.1a.07.07,0,0,0,0,0C32.22,28.5,32.21,28.44,32.14,28.41Z"/><path class="cls-1" d="M34.71,22.72v0h0l.13.11a.22.22,0,0,0,0-.13.11.11,0,0,1-.07,0,.17.17,0,0,1,0-.08h0s0,0-.06,0,0,0,0,.08Z"/><path class="cls-1" d="M34.52,22.79s0,.06.06,0h0c-.18-.08-.14-.25-.11-.39v0s0,0,0,0a1,1,0,0,0-.1.17s0,.1.07.14S34.49,22.76,34.52,22.79Z"/><path class="cls-1" d="M35.47,23.13s0,0,0,0-.07-.07-.1-.08v0C35.4,23.14,35.44,23.14,35.47,23.13Z"/><path class="cls-1" d="M35.53,23.92l0-.1v0s0,.06,0,.06Z"/><path class="cls-1" d="M34.18,23.07a0,0,0,0,0,0,0,.08.08,0,0,0,0,.07h0A.05.05,0,0,0,34.18,23.07Z"/><path class="cls-1" d="M27.71,27h-.14v0l0,0h0c.07,0,.13,0,.15,0h-.07Z"/><path class="cls-1" d="M35.47,26.46V26.4l0,.11a.37.37,0,0,0,0,.1.15.15,0,0,1,0-.11S35.47,26.47,35.47,26.46Z"/><path class="cls-1" d="M33.06,22.66s0,0,0,0a.14.14,0,0,1,.06-.07c0-.06,0-.07,0-.07h0l0,.07h0s0,0-.06.06l0,0h0Z"/><path class="cls-1" d="M32,24.95a.23.23,0,0,0-.06-.2,0,0,0,0,0,0,0s0,.07-.06.08,0,0,.08.07Z"/><path class="cls-1" d="M31.94,25.27c.13,0,.21-.07.2-.22l-.06,0a.12.12,0,0,1-.12.15.08.08,0,0,0-.07.06Z"/><path class="cls-1" d="M33.7,22.93s0-.06-.07-.07,0-.07-.07-.07h-.07a.58.58,0,0,1,0,.07s0,.08,0,.13a.14.14,0,0,1-.07.06h0s0,0-.06,0h0A.42.42,0,0,0,33.7,22.93Z"/><path class="cls-1" d="M32,26.32s0,.1-.06.18,0,.07,0,.08a.15.15,0,0,0,.11,0,.76.76,0,0,0,.14-.08.38.38,0,0,1-.07-.13c0-.06,0-.1-.06-.1l-.06,0c-.07,0-.11,0-.14,0h0C31.94,26.26,32,26.26,32,26.32Z"/><path class="cls-1" d="M35,30.83A.43.43,0,0,0,35,31h.07s.06,0,.06,0,0,0,0,0a.26.26,0,0,0-.08-.1Z"/><path class="cls-1" d="M32,24.54h0a0,0,0,0,0,0,0c0-.08-.07-.11-.14-.11h0s0,0,0,0,0,0,0,0A.14.14,0,0,0,32,24.54Z"/><path class="cls-1" d="M33,23h0v0s0,0,0,0,0,0,0,0S33,23,33,23Z"/><path class="cls-1" d="M35,22.68a.15.15,0,0,0,.11,0,.31.31,0,0,0-.1-.1s0,0-.07.06h0Z"/><path class="cls-1" d="M35.88,28.84h0a.08.08,0,0,0,0,.06s0,0,0,0h.07s.06,0,.06,0,0-.06-.06-.07Z"/><path class="cls-1" d="M36.11,25.93a.13.13,0,0,1,0-.07c-.06.08-.11.14-.17.21a.27.27,0,0,0,.11,0S36.11,26,36.11,25.93Z"/><path class="cls-1" d="M36.09,23.85s.06,0,.08-.07,0,0,0-.06,0-.07,0-.13a.18.18,0,0,1-.14.1.09.09,0,0,1,0,.06c0,.07,0,.08,0,.08Z"/><path class="cls-1" d="M36.16,27.08C36.09,27,36,27,36,27a.12.12,0,0,0-.08,0s0,0,0,.1a.05.05,0,0,1,0,0,.47.47,0,0,1,.15-.07Z"/><path class="cls-1" d="M36.23,25.56h0a.25.25,0,0,0-.14-.21,0,0,0,0,0,0,0l.1.17A.07.07,0,0,1,36.23,25.56Z"/><path class="cls-1" d="M36.31,24.46h0l0,0h0s0,0,0,.06Z"/><path class="cls-1" d="M27.84,29.78v0s0,0,0,0,0,0,0,0h0S27.84,29.75,27.84,29.78Z"/><path class="cls-1" d="M28,29.16c-.1,0-.14,0-.15.11v0h0c.13,0,.18,0,.2-.13a.05.05,0,0,1,0,0H28Z"/><path class="cls-1" d="M35.85,24.36s0,0,0,0h.07s0,0,0,0h0s0,0-.06,0Z"/><path class="cls-1" d="M35.76,23h0c-.07,0-.07,0-.07,0a0,0,0,0,0,0,0Z"/><path class="cls-1" d="M35.89,23.28h-.06s0,0,0,0,0,0,0,0S35.89,23.31,35.89,23.28Z"/><path class="cls-1" d="M35.53,28.56a.53.53,0,0,1,.13.13.59.59,0,0,0,0-.15c0-.06-.06-.07-.07-.07h0s0,0,0,0S35.51,28.53,35.53,28.56Z"/><path class="cls-1" d="M35.54,24.53a0,0,0,0,1,0,0,.18.18,0,0,1,0-.11C35.5,24.45,35.5,24.5,35.54,24.53Z"/><path class="cls-1" d="M35.72,24.82a.13.13,0,0,0-.1.07.33.33,0,0,1,0,.32s0,0,0,.06l0,0c.13-.24.17-.31.35-.41h-.11A.24.24,0,0,1,35.72,24.82Z"/><path class="cls-1" d="M36,23.55h0s0,0,0,0Z"/><path class="cls-1" d="M35.54,24.33a0,0,0,0,0,0,0v.05a.13.13,0,0,1,0-.07Z"/><path class="cls-1" d="M35.58,23.94h.06l0-.06a.49.49,0,0,1,.11-.14,0,0,0,0,1,0,0,.27.27,0,0,1-.14,0c-.07,0-.1,0-.11.06l.14,0Z"/><path class="cls-1" d="M32.32,30.12a.15.15,0,0,1,0-.06v0c0-.06,0-.06,0-.06h0v.14h0A0,0,0,0,0,32.32,30.12Z"/><path class="cls-1" d="M32.32,30.76s0,0,0,0h0s0,0,0,0Z"/><path class="cls-1" d="M32.36,29.63s0,0,0,0h0s0,0,0,0a.06.06,0,0,0-.06,0Z"/><path class="cls-1" d="M32.46,22.87a.14.14,0,0,1-.14,0s0-.08,0-.14a.23.23,0,0,1-.11-.08c-.06-.06-.08-.1-.17,0s0,0,0,0l0,0a.12.12,0,0,1,.06.1.12.12,0,0,1,0,.08l0,0a.41.41,0,0,1,.11.18s0,0,0,0a.17.17,0,0,1,.21-.06h.06s0,0,0-.06A.11.11,0,0,0,32.46,22.87Z"/><path class="cls-1" d="M32.15,29.3s-.06,0-.06.1v.06a.17.17,0,0,1,0,.08h.07a.16.16,0,0,0,0-.1s0-.07,0-.1,0,0,0,0Z"/><path class="cls-1" d="M32,27.79l.07,0a0,0,0,0,0,0,0S32,27.79,32,27.79Z"/><path class="cls-1" d="M32.11,30.87s0,0,0,0h.06s0,0-.06,0A0,0,0,0,1,32.11,30.87Z"/><path class="cls-1" d="M32.11,27.13a.18.18,0,0,1-.15,0H31.9v0h0a.26.26,0,0,1,.13,0c.06,0,.07,0,.07,0A0,0,0,0,0,32.11,27.13Z"/><path class="cls-1" d="M34.15,30.26a.21.21,0,0,0-.14,0s.07,0,.08.1v.07s0,.06,0,.07h0l.06,0v0a.37.37,0,0,1,0-.13c0-.07,0-.11,0-.15Z"/><path class="cls-1" d="M34.28,30.06a.15.15,0,0,0,0,.07l.06,0v0Z"/><path class="cls-1" d="M34.9,27.29V24.06a.51.51,0,0,0,0-.21s-.06-.08-.18-.08H33.07c-.14,0-.21.06-.22.21v0c0,.07,0,.15,0,.22,0,.34,0,.69,0,1v3.81c0,.35,0,.36.36.36h1.28c.39,0,.41,0,.41-.42C34.91,28.45,34.9,27.86,34.9,27.29Z"/><path class="cls-1" d="M32.12,28.08s0,0,0,0l0,0a.09.09,0,0,0,.06,0h0s0,0,0,0h0A.15.15,0,0,1,32.12,28.08Z"/><path class="cls-1" d="M33.56,30.63l.07.13a.08.08,0,0,0,0,.06v0h0s0,0,0,0a.15.15,0,0,0-.15-.17Z"/><path class="cls-1" d="M32.63,22.89a.77.77,0,0,1,.07.11.34.34,0,0,0,.06.1.55.55,0,0,0,0-.18A.18.18,0,0,0,32.63,22.89Z"/><path class="cls-1" d="M32.67,30s0,0,0,.07,0,.06,0,.07a0,0,0,0,0,0,0,.37.37,0,0,0,0-.13Z"/><path class="cls-1" d="M33.2,31v0s.06,0,.07,0h0S33.21,31,33.2,31Z"/><path class="cls-1" d="M31.42,26.75l-.08-.06A.08.08,0,0,0,31.42,26.75Z"/><path class="cls-1" d="M31.32,28.29h-.06a.21.21,0,0,0,0,.08S31.32,28.34,31.32,28.29Z"/><path class="cls-1" d="M31.42,25.16h0s.06.06.07,0v0s0,0,0,0h-.08Z"/><path class="cls-1" d="M32,29.78s0,0,0-.08a.25.25,0,0,0-.08.08Z"/><path class="cls-1" d="M31.39,23.73s0,0,0-.1l0-.1c-.11,0-.17,0-.17.14l0,0Z"/><path class="cls-1" d="M32.37,25.87s0,0,0-.07,0-.11-.11-.11h0a.33.33,0,0,0,.14.21A0,0,0,0,0,32.37,25.87Z"/><path class="cls-1" d="M31.5,27.22h0s0,0,0,0,0,.06,0,.07,0,0,.07,0,0,0,0,0h0A0,0,0,0,1,31.5,27.22Z"/><path class="cls-1" d="M31.72,26.45a.23.23,0,0,0,0-.11l-.08,0a.15.15,0,0,0,0,.1S31.7,26.45,31.72,26.45Z"/><path class="cls-1" d="M31.28,25.1a0,0,0,0,0,0,0h0v.06h0Z"/><path class="cls-1" d="M31.59,28.34s0,0,0,.11h0s.1,0,.13.07a.13.13,0,0,1,0,.13h0s0,0,0,0v-.15a.08.08,0,0,1-.07,0C31.62,28.34,31.6,28.34,31.59,28.34Z"/><path class="cls-1" d="M31.94,29.11h0Z"/><path class="cls-1" d="M31.86,29.46h0a.32.32,0,0,0,0-.13h0S31.84,29.37,31.86,29.46Z"/><path class="cls-1" d="M31.45,29.15a.15.15,0,0,0-.17,0l.14.08,0,0s0,0,0,0l0,0a0,0,0,0,0,0,0s0,0,0,0Z"/><path class="cls-1" d="M31.76,28a.1.1,0,0,1,.07,0v-.1s0,0,0,0a.17.17,0,0,1-.15,0,.31.31,0,0,1-.07-.15s0-.07,0-.08,0,0-.06,0h-.07a0,0,0,0,0,0,0s0,0,0,.06a1.1,1.1,0,0,0,.11.15.92.92,0,0,1,.13.2A.19.19,0,0,1,31.76,28Z"/><path class="cls-1" d="M50.43,0H9.57A9.57,9.57,0,0,1,0,9.57V44.18a9.57,9.57,0,0,1,9.57,9.57H50.43A9.57,9.57,0,0,1,60,44.18V9.57A9.57,9.57,0,0,1,50.43,0Zm6,42.28H56a7.94,7.94,0,0,0-7.93,7.93v.38H11.88v-.37A7.94,7.94,0,0,0,4,42.28H3.58V11.47H4a7.94,7.94,0,0,0,7.93-7.93V3.17H48.12v.38A7.94,7.94,0,0,0,56,11.47h.38Z"/></svg>