<svg id="Layer_1" data-name="Layer 1" xmlns="http://www.w3.org/2000/svg" viewBox="0 0 60 53.75"><defs><style>.cls-1{fill:#86754d;}</style></defs><title>story-button-2</title><path class="cls-1" d="M18.91,27.21s0,.06,0,.12l0,0h0l.34-.06,0,0a.62.62,0,0,0-.22,0A.56.56,0,0,1,18.91,27.21Z"/><path class="cls-1" d="M19.13,28.73s0,0-.06,0h0a.38.38,0,0,1,0,.14,0,0,0,0,0,0,0,.1.1,0,0,0,0-.08S19.13,28.73,19.13,28.73Z"/><path class="cls-1" d="M20,29.19c0-.22,0-.3-.12-.32h-.06s0,0,0,.06a.19.19,0,0,1,0,.18c-.06.12-.16.08-.22.06a.07.07,0,0,1,0,0h0a.07.07,0,0,0,0,0v0s0,0,0,.06a.07.07,0,0,0,.06,0A1.08,1.08,0,0,1,20,29.19Z"/><path class="cls-1" d="M18.75,28.47a.11.11,0,0,1-.12,0c-.06,0-.12,0-.14.08a.21.21,0,0,0,0,.16c0,.06.08.1.24,0s.06,0,.1-.06l-.08-.16Z"/><path class="cls-1" d="M19.59,31.13a.07.07,0,0,1,0,.06s0,.06,0,.1a.08.08,0,0,0,.06,0s0-.08,0-.12A0,0,0,0,1,19.59,31.13Z"/><path class="cls-1" d="M20.51,27.93a.1.1,0,0,0,0-.08s-.06-.08-.1-.12-.1-.08-.12-.14a.31.31,0,0,1-.16.12s-.06,0-.08,0l-.08.08v0a1,1,0,0,1,.22,0C20.37,27.95,20.45,28,20.51,27.93Z"/><path class="cls-1" d="M20.33,31.77c0,.1.08.16.24.22s.14,0,.2,0a.54.54,0,0,1-.26-.14Z"/><path class="cls-1" d="M20.71,31.39a0,0,0,0,0,0,0s.06.08.18.08h0v-.06a.31.31,0,0,0-.16-.06A0,0,0,0,0,20.71,31.39Z"/><path class="cls-1" d="M20.11,31.61a.18.18,0,0,1-.12-.12.13.13,0,0,1,0-.12v-.06a.12.12,0,0,0,0,.1,1.36,1.36,0,0,0,0,.3c0,.08,0,.1,0,.12a.5.5,0,0,0,.08-.12.2.2,0,0,1,.1-.08l0,0Z"/><path class="cls-1" d="M19.63,29.87c0,.08,0,.12.1.18h0s0-.06-.06-.1A.27.27,0,0,1,19.63,29.87Z"/><path class="cls-1" d="M18.37,27.75a.16.16,0,0,0-.12.1v0h.2v0A.13.13,0,0,0,18.37,27.75Z"/><path class="cls-1" d="M15.85,27.77h0a.18.18,0,0,0-.1.06s0,.1-.06.14a.44.44,0,0,1,.22-.1,0,0,0,0,0,0,0s0,0,0,0S15.87,27.79,15.85,27.77Z"/><path class="cls-1" d="M30,32.09a.47.47,0,0,1-.22-.12s0,0-.06,0h0l-.08.06V32s.08,0,.12,0l.06,0c.14,0,.36.06.36.34v.1h0s0,0,0-.06a.33.33,0,0,1,0-.14C30.21,32.21,30.11,32.17,30,32.09Z"/><path class="cls-1" d="M15.45,30.57s0,0,0,0l-.08.06v0s0,.08,0,.1h0c.06,0,.1,0,.1-.06a.16.16,0,0,0,0-.16A.06.06,0,0,0,15.45,30.57Z"/><path class="cls-1" d="M18.21,27.27h0a.07.07,0,0,0,.06,0s0-.08,0-.12a.36.36,0,0,1,0-.2l-.14-.06c-.08,0-.08-.14-.08-.2s0-.06,0-.06-.16.2-.18.28a.27.27,0,0,0,0,.1l.08,0c.08,0,.12,0,.16,0a.18.18,0,0,1,.08.16.34.34,0,0,1,0,.1Z"/><path class="cls-1" d="M16.07,24.87l0,0L16,25s-.06.06-.06.08v0A.07.07,0,0,1,16,25a.15.15,0,0,1,.08,0,1,1,0,0,0,.24,0h0c0-.08-.06-.18-.1-.18S16.15,24.83,16.07,24.87Z"/><path class="cls-1" d="M15.53,24.21a.07.07,0,0,0,0,.06s0,0,.1.06Z"/><path class="cls-1" d="M17.59,25c.06-.06.08-.1.08-.12l-.08,0Z"/><path class="cls-1" d="M16.83,25.81a.54.54,0,0,0-.36.16l-.12.1s0,.06,0,.1a.68.68,0,0,0,.06.12s0,0,.1-.06a.18.18,0,0,1-.08-.16.37.37,0,0,1,.12-.16.21.21,0,0,1,.16,0c.06,0,.06.1.08.14h.08a.15.15,0,0,1,0-.08A.22.22,0,0,1,16.83,25.81Z"/><path class="cls-1" d="M17.49,25.27a1,1,0,0,0-.36-.06,1.21,1.21,0,0,1-.58-.16.07.07,0,0,0-.06,0c0,.14.08.2.24.16a.75.75,0,0,1,.2,0,.66.66,0,0,1,.5.2.21.21,0,0,0,.12,0,0,0,0,0,0,0,0s0,0,0-.08Z"/><path class="cls-1" d="M17.47,26.41l0,0s0,0,0,0v0s0-.06,0-.08S17.53,26.35,17.47,26.41Z"/><path class="cls-1" d="M15.41,25.43a.21.21,0,0,0,0,.18l.1.06a.85.85,0,0,1-.12-.28Z"/><path class="cls-1" d="M27.55,32.13h0l.32.12-.08-.06C27.71,32.11,27.63,32.07,27.55,32.13Z"/><path class="cls-1" d="M27.37,32.49a.07.07,0,0,0,0,0l.06,0a.07.07,0,0,0-.08-.08Z"/><path class="cls-1" d="M27.17,31.89l.06,0,.06-.06a.12.12,0,0,0-.08,0S27.15,31.85,27.17,31.89Z"/><path class="cls-1" d="M27.05,32.45a.49.49,0,0,1,.14-.08l.06,0,0-.08A.33.33,0,0,0,27.05,32.45Z"/><path class="cls-1" d="M28.11,32.29h-.06a.22.22,0,0,1,.12.2.14.14,0,0,0,.08-.12S28.25,32.31,28.11,32.29Z"/><path class="cls-1" d="M29.63,33.07l-.22-.18A.34.34,0,0,0,29.63,33.07Z"/><path class="cls-1" d="M28.59,32.17l0,0,.06,0a.06.06,0,0,0,0,0,0,0,0,0,0,0,0Z"/><path class="cls-1" d="M27,32.91a.07.07,0,0,1,0,0s.06,0,.06,0v0a.07.07,0,0,0,0,0Z"/><path class="cls-1" d="M29.23,31.63s0,0-.06.08,0,.1,0,.12a.08.08,0,0,0,.06,0h.06a.07.07,0,0,0,0-.06A.2.2,0,0,0,29.23,31.63Z"/><path class="cls-1" d="M28.85,32.83a.12.12,0,0,0,0,.08s0,0,.06-.08a.16.16,0,0,1,0-.1v0C28.89,32.69,28.87,32.71,28.85,32.83Z"/><path class="cls-1" d="M21.89,29.21h0a1.14,1.14,0,0,0,0,.52.57.57,0,0,1,0,.18h0a0,0,0,0,1,0,0v-.26a.4.4,0,0,0,0-.26A.37.37,0,0,1,21.89,29.21Z"/><path class="cls-1" d="M21.09,28.19a.17.17,0,0,0,0,.14v.06s.06,0,.12,0a.16.16,0,0,1,.08-.08l.06-.08a.07.07,0,0,0-.06,0C21.17,28.17,21.11,28.17,21.09,28.19Z"/><path class="cls-1" d="M21.31,32.17a.09.09,0,0,0,0-.1.21.21,0,0,0-.1.18A.14.14,0,0,0,21.31,32.17Z"/><path class="cls-1" d="M21.55,26.15a.13.13,0,0,0-.14.08h0c.08,0,.1,0,.12,0A.06.06,0,0,0,21.55,26.15Z"/><path class="cls-1" d="M21.15,30.81a.25.25,0,0,1,0,.12s0,0,0,.06v0l0,0C21.19,30.85,21.19,30.81,21.15,30.81Z"/><path class="cls-1" d="M21.53,31.57a.15.15,0,0,1-.08,0h0v.06c0,.1,0,.12.06.14s.08,0,.1-.06S21.59,31.61,21.53,31.57Z"/><path class="cls-1" d="M21.49,24.33v0a0,0,0,0,0,0,0c-.06.08-.14.16-.14.24a.16.16,0,0,0,0,.1.22.22,0,0,0,.16,0,.21.21,0,0,0,.12-.1A.26.26,0,0,1,21.49,24.33Z"/><path class="cls-1" d="M21.59,22.43v0l0,.06.06,0a.22.22,0,0,1,.16,0s-.1,0-.18,0Z"/><path class="cls-1" d="M21.09,32.37a.07.07,0,0,0-.06,0c-.06,0-.06.14-.08.2s0,.08,0,.12-.06.26,0,.32h0a.1.1,0,0,1,0-.06c0-.08,0-.18.14-.2a0,0,0,0,1,0,0A.35.35,0,0,1,21.09,32.37Z"/><path class="cls-1" d="M21.47,30.89l.06,0-.1-.06S21.47,30.87,21.47,30.89Z"/><path class="cls-1" d="M15.79,27.25c0-.06-.06-.12-.12-.18a.07.07,0,0,0,0,0,.55.55,0,0,0,.08.32A.15.15,0,0,0,15.79,27.25Z"/><path class="cls-1" d="M20,28.47s0,0,0-.06,0-.12,0-.14a.15.15,0,0,0-.1,0h0a.32.32,0,0,1,.06.16C20,28.45,20,28.47,20,28.47Z"/><path class="cls-1" d="M20.23,27.29h0a0,0,0,0,0,0,0l.08.06S20.25,27.33,20.23,27.29Z"/><path class="cls-1" d="M20.69,23.09s0,0,0,0-.08,0-.12.12a.07.07,0,0,1,.06,0C20.69,23.13,20.69,23.13,20.69,23.09Z"/><path class="cls-1" d="M20.67,26.91a.07.07,0,0,0-.06,0c0,.06,0,.08,0,.1a.12.12,0,0,0,.08,0S20.69,26.93,20.67,26.91Z"/><path class="cls-1" d="M20.67,31h0l.1,0a.07.07,0,0,0,.06,0s0,0-.08,0S20.69,31,20.67,31Z"/><path class="cls-1" d="M16.59,22s0,0,0-.06l-.06.18v0C16.55,22.13,16.61,22.09,16.59,22Z"/><path class="cls-1" d="M17,23.85v0a0,0,0,0,0,0,0l-.06.06a.07.07,0,0,0,.06,0S16.95,23.87,17,23.85Z"/><path class="cls-1" d="M19.57,27.59c0-.06.06-.12,0-.14a.21.21,0,0,0-.12-.06.18.18,0,0,0,0,.14l0,0S19.55,27.59,19.57,27.59Z"/><path class="cls-1" d="M17.31,24.81a.15.15,0,0,1,.08-.08.22.22,0,0,1,0-.22s0,0,0-.06,0,0,0,0a0,0,0,0,0,0,0,.43.43,0,0,0-.2.22s0,.08.06.14S17.31,24.79,17.31,24.81Z"/><path class="cls-1" d="M21,29.21s-.06,0-.08,0h-.06s-.08,0-.1,0-.12,0-.12.06,0,0,.06,0l0,0c.08,0,.24,0,.26-.06Z"/><path class="cls-1" d="M19.53,28.49h0l.1-.08s0,0,0,0h-.08a.07.07,0,0,0-.06,0s0,.06,0,.08Z"/><path class="cls-1" d="M21.21,21.95s0,0,0,0a.31.31,0,0,0,.12-.06.15.15,0,0,0,0-.16l-.12.1C21.23,21.89,21.21,21.93,21.21,21.95Z"/><path class="cls-1" d="M21.35,23.81l.06,0,.06,0v0a.35.35,0,0,1,0-.14v0A1.13,1.13,0,0,0,21.35,23.81Z"/><path class="cls-1" d="M20.89,27.31a.24.24,0,0,1,.26,0,0,0,0,0,0,0,0s0,0,0,0-.08-.14-.16-.14a.28.28,0,0,0-.12,0h0s0,0,0,.06a.52.52,0,0,0,0,.14S20.79,27.35,20.89,27.31Z"/><path class="cls-1" d="M21.59,23.11s0,0,0-.08v0s0,0,0,0h0v.1s0,0,0,0Z"/><path class="cls-1" d="M21.17,27.81s0,.06.12,0v0c-.06-.06-.08-.06-.12-.06Z"/><path class="cls-1" d="M20.91,25.79a0,0,0,0,0,0,0v0a.9.9,0,0,1,0-.1.28.28,0,0,1,0-.12v0h0a.15.15,0,0,0-.12.08.08.08,0,0,0,0,.06C20.81,25.71,20.85,25.79,20.91,25.79Z"/><path class="cls-1" d="M21,22.95s0,.06.06.08v0s0,0,0-.06Z"/><path class="cls-1" d="M21.13,21.07c0-.06.08-.06.14-.08s0-.1-.06-.1a.16.16,0,0,0-.14.08,2.07,2.07,0,0,0-.18.22s0,0,0,0a.17.17,0,0,0,.14,0A.21.21,0,0,0,21.13,21.07Z"/><path class="cls-1" d="M21,21.65s0,0,0,0l0,0h-.08s-.06,0-.08,0h0a.43.43,0,0,0,0,.22C20.85,21.73,20.93,21.69,21,21.65Z"/><path class="cls-1" d="M15.07,30.13a0,0,0,0,1,0,0v0l.06,0a.07.07,0,0,1,0,0h0a.12.12,0,0,0,.08,0v-.08h0A.12.12,0,0,1,15.07,30.13Z"/><path class="cls-1" d="M14.95,32.09s0,0,0,0,0,0,0,0v0l-.06.06Z"/><path class="cls-1" d="M14.65,28.07v.12a.26.26,0,0,1,0,.12h.12l.08,0v0A.46.46,0,0,0,14.65,28.07Z"/><path class="cls-1" d="M14.53,26.75c0-.06,0-.1,0-.12A.26.26,0,0,0,14.53,26.75Z"/><path class="cls-1" d="M14.91,22.49v-.1l0,0a.25.25,0,0,1,0-.12v-.06l-.08,0h0s-.1,0-.1,0,.1.24.16.26Z"/><path class="cls-1" d="M15,21.43a.29.29,0,0,0,.14,0,.92.92,0,0,1,.28.14l0,0s.06,0,.1,0a.28.28,0,0,1,.08.06l.06,0a.22.22,0,0,0,0-.06.16.16,0,0,0,0-.1s0,0-.06,0a.66.66,0,0,1-.62-.24l0,0S15,21.43,15,21.43Z"/><path class="cls-1" d="M15,24.27a.07.07,0,0,0,0-.06l-.08-.12s0,0,0,0a.34.34,0,0,1-.2-.24.22.22,0,0,0,0,.16C14.65,24,14.93,24.27,15,24.27Z"/><path class="cls-1" d="M15.33,31.83v0s0,0,0-.06v0S15.33,31.79,15.33,31.83Z"/><path class="cls-1" d="M14.95,31.31a.59.59,0,0,1,0,.18c0,.08-.06.12,0,.16a.31.31,0,0,0,.1-.26v-.06s0,0,0,0l0,0Z"/><path class="cls-1" d="M15.07,32.93a0,0,0,0,1,0,0h0c0,.06.06.08.08.1s.06,0,.08,0,0,0-.06-.06A.07.07,0,0,1,15.07,32.93Z"/><path class="cls-1" d="M14.91,29.51h0a.07.07,0,0,0,0,0s0,0,.06.08a.15.15,0,0,1,0,.08s0,.06,0,.06l0,0a.17.17,0,0,0,0-.14A.44.44,0,0,0,14.91,29.51Z"/><path class="cls-1" d="M15.17,24.73h0s0,.06,0,.1a.44.44,0,0,1,0,.28.17.17,0,0,1,.12.08s0,0,0,.06a1.29,1.29,0,0,1,0-.48A.33.33,0,0,1,15.17,24.73Z"/><path class="cls-1" d="M15.19,28.95a.11.11,0,0,0,0,.08.34.34,0,0,0,.14,0l.08,0-.1-.06h-.16Z"/><path class="cls-1" d="M16.17,22.47s0,0,0,.06,0,0,0,0,0-.1,0-.14l-.06,0a1,1,0,0,0-.24,0l.18.16Z"/><path class="cls-1" d="M15.63,23.11a.21.21,0,0,1,.2.08.28.28,0,0,1,0,.24l.16,0a.07.07,0,0,1,0,0,.39.39,0,0,1-.06-.16l0-.06,0-.18-.16.08S15.65,23.11,15.63,23.11Z"/><path class="cls-1" d="M16,23.49l-.12.2-.08-.22-.06.08a0,0,0,0,1,0,0,.51.51,0,0,0,.12.24.54.54,0,0,0,.14.12s0,0,0-.12a.43.43,0,0,1,0-.16A.23.23,0,0,0,16,23.49Z"/><path class="cls-1" d="M15.63,22.41a.34.34,0,0,1-.26.08.35.35,0,0,0-.24.12.5.5,0,0,0,.38,0A.53.53,0,0,0,15.63,22.41Z"/><path class="cls-1" d="M15.59,20.81a.34.34,0,0,1-.14,0,.33.33,0,0,0,.12.06S15.59,20.85,15.59,20.81Z"/><path class="cls-1" d="M15.37,28l0,0s0,0-.08.06l.08,0S15.37,28,15.37,28Z"/><path class="cls-1" d="M15,21.29h0l-.06,0,.06,0S15,21.29,15,21.29Z"/><path class="cls-1" d="M15.37,23.81c0-.08.06-.18,0-.2s0,0,0,0a.23.23,0,0,1-.12.12l-.16.08s0,0,0,0A.26.26,0,0,1,15,24c.06,0,.1,0,.18-.08A.53.53,0,0,1,15.37,23.81Z"/><path class="cls-1" d="M20.73,21.45l0-.1c-.06,0-.08.06-.14.1A.43.43,0,0,0,20.73,21.45Z"/><path class="cls-1" d="M40.26,28.37a.09.09,0,0,0-.06,0c0,.08.06.1.16.12a0,0,0,0,0,0,0l0,0A.17.17,0,0,0,40.26,28.37Z"/><path class="cls-1" d="M40,29.33l-.06,0v0s0,.06.06.12a.3.3,0,0,1,.08.12s0,.08.06.08,0-.06,0-.08a.17.17,0,0,0,0-.14s-.08-.06-.16-.08Z"/><path class="cls-1" d="M46.22,32.55s0,0,0,0v-.12s0,0-.08,0l0,0v0s0,0,0,0S46.16,32.55,46.22,32.55Z"/><path class="cls-1" d="M40.9,26.65s0,.06.06.08l.12-.06.1-.08a.19.19,0,0,0,0-.14.24.24,0,0,0-.2,0H40.8c-.12,0-.2,0-.22.08h.06A.38.38,0,0,1,40.9,26.65Z"/><path class="cls-1" d="M44.88,21.27h0a0,0,0,0,0,0,0,.22.22,0,0,0,0,.1,0,0,0,0,0,0,0s0,0,.06,0,0,0,.06,0a.28.28,0,0,0-.08-.06A.07.07,0,0,0,44.88,21.27Z"/><path class="cls-1" d="M41.06,30.67c0,.12.06.2.16.22l.12.06a.22.22,0,0,0,.14,0,2.8,2.8,0,0,0-.4-.34A0,0,0,0,0,41.06,30.67Z"/><path class="cls-1" d="M40.48,30.57s0,.08.08.12,0,0,.06,0A.22.22,0,0,0,40.48,30.57Z"/><path class="cls-1" d="M44.94,21s0,0-.06-.08a.38.38,0,0,1-.1-.2v0s0,0,0,0-.28.14-.4.2a2.39,2.39,0,0,0-.4.16c-.06,0-.12.1-.1.12s0,.06.06.1l0-.08v0s0-.06,0-.1a.11.11,0,0,1,.1-.06,1.78,1.78,0,0,1,.34,0h.08a.18.18,0,0,1,.1-.16c.08,0,.18,0,.26.06S44.92,21,44.94,21Z"/><path class="cls-1" d="M40.88,27.47c-.06,0-.08.16-.06.36v.1l0,0a.25.25,0,0,1-.18.22s0,0,0,0a0,0,0,0,1,0,0,.12.12,0,0,0,.14,0,.29.29,0,0,0,.12-.2,1,1,0,0,1,.28-.6C41,27.41,40.9,27.43,40.88,27.47Z"/><path class="cls-1" d="M40.72,28.77l0,0s0,.1.06.14a.22.22,0,0,0,0,.12v-.16C40.78,28.79,40.78,28.77,40.72,28.77Z"/><path class="cls-1" d="M40.28,27.71s0,0,0-.12,0,0,0-.06,0,0,0,.06a.09.09,0,0,0,0,.1A0,0,0,0,0,40.28,27.71Z"/><path class="cls-1" d="M40.88,22.67a.15.15,0,0,0,0,.08,0,0,0,0,0,0,0l.08,0s.06,0,.08-.08a1.19,1.19,0,0,0,.1-.38A.53.53,0,0,1,40.88,22.67Z"/><path class="cls-1" d="M30.75,22.25v0s0,.06,0,.08v.06a.17.17,0,0,0,.12-.06.4.4,0,0,1,.1-.08l-.18-.16S30.75,22.19,30.75,22.25Z"/><path class="cls-1" d="M41,21.41s0-.06,0-.1,0,.12,0,.14Z"/><path class="cls-1" d="M30.55,21.57s0,0,0-.06v0l-.08.08Z"/><path class="cls-1" d="M44,21.31l0,0,0,.12-.08,0c-.08.1-.16.22-.24.34s0,0,.08,0,.28-.1.3-.2,0-.14-.1-.26Z"/><path class="cls-1" d="M30.27,26.37l-.14,0-.08,0a.16.16,0,0,0,0,.06c0,.1.12.14.26.18l.06,0s.06,0,.08-.1a.06.06,0,0,0,0,0C30.45,26.39,30.39,26.37,30.27,26.37Z"/><path class="cls-1" d="M42.56,20.67a.49.49,0,0,0-.1.3s.06.06.08.08.06.08.08.06.06,0,.06-.06,0-.08,0-.14A1,1,0,0,1,42.56,20.67Z"/><path class="cls-1" d="M41,21.15v0l.06-.06s.06-.06.1-.1A.46.46,0,0,0,41,21,.4.4,0,0,1,41,21.15Z"/><path class="cls-1" d="M41.74,21.45h-.08s0,0,0,0a.67.67,0,0,0,.1.12l0,0s0,0,0-.12S41.76,21.45,41.74,21.45Z"/><path class="cls-1" d="M43,21.67c-.12,0-.16,0-.18.08v0h.14c.08,0,.1,0,.1,0s0,0,0,0S43,21.67,43,21.67Z"/><path class="cls-1" d="M46.12,26.75a.07.07,0,0,0,0,0,.28.28,0,0,0-.06.08.26.26,0,0,1,.12,0h.06v0s0,0,0,0S46.14,26.75,46.12,26.75Z"/><path class="cls-1" d="M46,23.57s0,0-.06,0a0,0,0,0,0,0,0s0,.06,0,.08a1.05,1.05,0,0,0,.16.3s.06,0,.12,0A.47.47,0,0,1,46,23.57Z"/><path class="cls-1" d="M46.3,21.17a.45.45,0,0,0-.06.1s0,0,0,0,0,.1-.08.12-.08,0-.14,0a.26.26,0,0,1-.14-.24.33.33,0,0,1,.08-.28s.06-.08.06-.12,0-.08-.1-.1,0,0,0,0v0c0,.18-.06.3-.14.34s-.18,0-.28-.08l-.1-.06V21c0,.16,0,.32,0,.46a.28.28,0,0,1,0,.14.12.12,0,0,0,0,.08s0,0,0,0,0,0,.06,0a.34.34,0,0,0,0-.18s0,0,0-.06,0,0,0,0a.2.2,0,0,1,0-.18.09.09,0,0,1,.1-.08s0,0,0,0a.49.49,0,0,1,.18.08,1.86,1.86,0,0,1,.3.4s.06.1.1.14,0,0,.06,0v-.06l0,0,0,0,0-.12.08.06h0s0-.1,0-.18a.45.45,0,0,1,0-.16Z"/><path class="cls-1" d="M45.28,26.89a.15.15,0,0,0,0,.1l.06,0a.2.2,0,0,1,.08-.1s0,0,0-.06,0,0,0,0A.26.26,0,0,0,45.28,26.89Z"/><path class="cls-1" d="M44.28,26.33l0,0s0,0,0,.08a.07.07,0,0,0,.06,0,.2.2,0,0,0,0-.08S44.28,26.35,44.28,26.33Z"/><path class="cls-1" d="M45.36,32.95c-.1,0-.1.08-.08.14s.12-.1.12-.14h0Z"/><path class="cls-1" d="M43.46,26.23h0a0,0,0,0,1,0,0v0a.06.06,0,0,0,0,0c.08,0,.12,0,.14,0s0,0-.06,0Z"/><path class="cls-1" d="M46.78,4.7H13.22a8.4,8.4,0,0,1-8,8V41a8.4,8.4,0,0,1,8,8H46.78a8.4,8.4,0,0,1,8-8V12.71A8.4,8.4,0,0,1,46.78,4.7ZM23,33.19a.85.85,0,0,1,.1.32.34.34,0,0,1,0,.32.39.39,0,0,1-.28.1H20.13c-.34,0-.48-.24-.58-.48-.18-.4-.36-.82-.52-1.24s-.34-.8-.52-1.2l-1.68-3.84,0-.1L16.75,27s0,.08,0,.14v5.08a1.52,1.52,0,0,0,.2.78,1.79,1.79,0,0,1,.18.34.36.36,0,0,1-.36.56h-3c-.24,0-.34-.1-.38-.18a.35.35,0,0,1,.06-.4,3.7,3.7,0,0,0,.36-2V21.81a3.21,3.21,0,0,0-.34-1.48c-.08-.2-.14-.36-.08-.46s.24-.12.46-.14h.86c.46,0,1,0,1.44,0a.82.82,0,0,1,.88.58c.36.88.74,1.8,1.12,2.68l.42,1L19,25c.22.48.42,1,.62,1.46a.07.07,0,0,1,0,.06.23.23,0,0,0,0,.08s0,0,0,0a.09.09,0,0,0,0-.1V23.25c0-.44,0-.9,0-1.36a3,3,0,0,0-.3-1.54c-.12-.22-.14-.36-.08-.46s.26-.16.42-.16h2.9q.39,0,.48.18c.06.1,0,.24-.1.44a2.61,2.61,0,0,0-.3,1.5V31.93A2,2,0,0,0,23,33.19Zm8.22-.24v.54c0,.38-.26.44-.54.44H25.61c-.5,0-.58-.08-.58-.58s0-1.18,0-1.88c0-.5.12-.6.58-.62,1.62,0,3.3,0,5,0,.48,0,.62.12.62.58S31.25,32.45,31.23,32.95Zm.7-10.84a3.6,3.6,0,0,1,0,.46v3.62a1.5,1.5,0,0,1-.48,1.18l0,0a2.16,2.16,0,0,1-2.22.92h-.88c-.66,0-1.32,0-2,0h0a1,1,0,0,1-.78-.32l0,0a3.63,3.63,0,0,0-.58-.52,1.63,1.63,0,0,1-.6-1.54c0-1.38.06-2.56,0-3.74a1.81,1.81,0,0,1,.64-1.66.16.16,0,0,0,.08-.08,2.15,2.15,0,0,1,1.82-.72c.84.06,1.72,0,2.56,0a5.57,5.57,0,0,1,.56,0,1.29,1.29,0,0,1,.92.32l.26.26C32,21.11,32,21.13,31.93,22.11Zm16.19,4.08a1.44,1.44,0,0,1-.48,1.12l0,0a2.28,2.28,0,0,1-2.32.92H42.62c-.46,0-.5,0-.5.5s0,1.16,0,1.68,0,.42.4.44c1.42,0,2.58,0,3.64,0a2.91,2.91,0,0,0,1.14-.24c.26-.12.42-.14.54-.08s.14.28.16.54v2.12c0,.58-.12.7-.7.7H39.8c-.62,0-.72-.08-.72-.72v-2c0-1.28,0-2.58,0-3.88a1.37,1.37,0,0,1,.46-1.06l0,0a2.42,2.42,0,0,1,2.44-1c.8,0,1.72,0,2.6,0,.42,0,.44,0,.44-.4s0-1,0-1.62c0-.36-.08-.42-.46-.42q-1.05,0-2,0c-.18,0-.28,0-.32.08s0,.14,0,.32a5,5,0,0,0,.2.48l.06.14a.33.33,0,0,1,0,.3.35.35,0,0,1-.3.12c-.42,0-.84,0-1.26,0H39.48a.35.35,0,0,1-.4-.4v-1.6l0-.74a.3.3,0,0,1,0-.14,2.86,2.86,0,0,1,1.76-1.58c1.32,0,2.64,0,3.92,0h1.5a.19.19,0,0,1,.1,0,1.94,1.94,0,0,1,1,.68,3.59,3.59,0,0,0,.5.46.78.78,0,0,1,.26.7l0,.84Z"/><path class="cls-1" d="M47,24.37a.52.52,0,0,1-.36.44v0l.08,0a.49.49,0,0,1,.18.08l.32-.22,0-.08Z"/><path class="cls-1" d="M46.88,25.61l-.08,0v0a.13.13,0,0,0,.18,0s0,0,0,0S46.9,25.61,46.88,25.61Z"/><path class="cls-1" d="M46.9,22.71s.06,0,.08,0a.07.07,0,0,1,0,0h.1c.06,0,.06,0,.06,0v0s0,0,0,0h0l-.06,0s-.08,0-.1,0h0l-.06,0a.07.07,0,0,0,0,0Z"/><path class="cls-1" d="M43.28,32.83v0a.16.16,0,0,1,0-.1c-.1,0-.14,0-.16,0l0,0a.07.07,0,0,0,0,0S43.26,32.79,43.28,32.83Z"/><path class="cls-1" d="M42.94,27s0,0,0,0-.08,0-.06.1a.09.09,0,0,0,0,.06h0c.1,0,.12-.06.12-.12s0,0,0,0A0,0,0,0,0,42.94,27Z"/><path class="cls-1" d="M44,32.15l-.06,0L43.82,32c-.06,0-.14-.06-.18,0s0,0,0,.1a.47.47,0,0,0,.16,0C43.86,32.19,43.94,32.21,44,32.15Z"/><path class="cls-1" d="M45.54,32.31h0c-.12-.08-.18-.12-.28-.06a0,0,0,0,1,0,0A.24.24,0,0,0,45.54,32.31Z"/><path class="cls-1" d="M43,32.43v0s.06,0,.1,0Z"/><path class="cls-1" d="M42.28,27.35s0,.06,0,.08,0,0,.06.08h0s0-.1,0-.12S42.3,27.35,42.28,27.35Z"/><path class="cls-1" d="M42.64,32.55l.08-.08.1-.08v-.12a.3.3,0,0,0,0-.12.07.07,0,0,0-.06,0s-.06,0-.06,0,0,.08,0,.12a.33.33,0,0,1,0,.14l0,0A.4.4,0,0,0,42.64,32.55Z"/><path class="cls-1" d="M42.64,26.27l-.06.06a.36.36,0,0,0,0,.14.06.06,0,0,1,0,0s0-.08,0-.16S42.64,26.29,42.64,26.27Z"/><path class="cls-1" d="M42.66,31.75v0s-.08,0-.1,0a0,0,0,0,0,0,0S42.58,31.77,42.66,31.75Z"/><path class="cls-1" d="M30,27a0,0,0,0,1,0,0l-.06,0-.16,0a.2.2,0,0,1-.14-.08l0,0s0,0,0,0-.1.14-.08.2,0,0,0,.06a.64.64,0,0,1,.52-.14.55.55,0,0,0,.18,0h-.06Z"/><path class="cls-1" d="M26.33,20.95h.06s.14,0,.14,0v0h0s-.08,0-.12,0h-.06s-.06,0-.06,0v0h.08Z"/><path class="cls-1" d="M27.93,21.15v0s0,0,0,0v.08l0,0A.85.85,0,0,0,27.93,21.15Z"/><path class="cls-1" d="M27.45,21.57l.08,0a.11.11,0,0,1,0-.08s0-.06,0-.06a.41.41,0,0,0-.1,0h0c-.12,0-.2,0-.22.1a.2.2,0,0,1,.08.1Z"/><path class="cls-1" d="M27.37,23.13v1.2c0,.48,0,.72.08.82s.26.08.58.08l.18,0,.34,0c.22,0,.32-.1.32-.3s0-.42,0-.62v-.58c0-.22,0-.44,0-.66a.35.35,0,0,0-.06-.24.24.24,0,0,0-.24-.06h-.84a.3.3,0,0,0-.28.06A.42.42,0,0,0,27.37,23.13Z"/><path class="cls-1" d="M27.45,20.55l0,0a.06.06,0,0,1,0,0,.08.08,0,0,0-.08,0v0C27.43,20.59,27.45,20.57,27.45,20.55Z"/><path class="cls-1" d="M25.61,23.71c-.06,0-.08.1-.06.16a.25.25,0,0,0,0,.12l0,.2c.08-.06.1-.16.06-.32a.21.21,0,0,1,0-.1v-.06Z"/><path class="cls-1" d="M29.89,22.21c.08,0,.14.06.18,0s.14-.12.2-.22v0a.47.47,0,0,1-.4.12h0a.07.07,0,0,1,0,0Z"/><path class="cls-1" d="M26.29,21.83l.06.06c.06.08.08.1.12.06l0-.08s0,0,0,0A.09.09,0,0,0,26.29,21.83Z"/><path class="cls-1" d="M26.19,23.79s.06,0,.06-.08,0-.08,0-.12h0s0,0,0,0,0,.14,0,.16Z"/><path class="cls-1" d="M25.63,21.27c.06,0,.08,0,.08,0a0,0,0,0,0,0,0v-.06h-.16a0,0,0,0,0,0,0S25.59,21.25,25.63,21.27Z"/><path class="cls-1" d="M29.69,25.67a.37.37,0,0,0,.2-.1.26.26,0,0,0,0-.18v0a.15.15,0,0,1,0-.08l-.24.36S29.65,25.67,29.69,25.67Z"/><path class="cls-1" d="M29.63,22.67s.06,0,.1-.06.16-.18.1-.28-.08,0-.12.1a.35.35,0,0,0-.1.08s0,0-.06,0-.06,0-.06,0l0,0A.17.17,0,0,0,29.63,22.67Z"/><path class="cls-1" d="M28.69,26c0,.14,0,.24,0,.3a.44.44,0,0,0,.16.06v-.12c0-.14,0-.32.24-.38,0,0,0,0,0,0a.39.39,0,0,1-.16,0C28.81,25.85,28.73,25.87,28.69,26Z"/><path class="cls-1" d="M30,24.59s0-.06,0-.12-.08-.06-.18,0h0a.08.08,0,0,0-.12,0h.1l.12.06.08,0Z"/><path class="cls-1" d="M30.23,25.81l.1.06s0-.06-.08-.06Z"/><path class="cls-1" d="M28.75,21.73a.06.06,0,0,1,0,0c.06,0,.1-.1.16-.14v0h0S28.79,21.67,28.75,21.73Z"/><path class="cls-1" d="M28.31,21.57s0,.1,0,.12,0,0,.14,0a.16.16,0,0,1,.1,0v0s-.1-.06-.16-.08Z"/><path class="cls-1" d="M28.39,20.67c0-.16-.16-.16-.34-.12l-.1,0a.06.06,0,0,0,0,0C28.13,20.71,28.25,20.79,28.39,20.67Z"/><path class="cls-1" d="M28.49,21.21s.1-.08.14-.16l.12-.14a.21.21,0,0,1,.12,0,.07.07,0,0,1,.06,0v0s0,0-.06,0a.22.22,0,0,1-.2,0c0,.08-.1.14-.16.2l-.12.12Z"/><path class="cls-1" d="M25.61,22.45a.15.15,0,0,0,0,.08s0,0,.08,0a.36.36,0,0,0,.22,0v-.06l0,0a.22.22,0,0,1-.22,0S25.63,22.47,25.61,22.45Z"/><path class="cls-1" d="M27,21.59v0l.06.1-.1,0,0,0,0,0c-.08,0-.12.06-.1.08s.06,0,.08,0l.1,0c.08,0,.1,0,.16-.1a.11.11,0,0,1,0-.08Z"/><path class="cls-1" d="M26.89,22.47s0,0-.06-.06a0,0,0,0,0,0,0s0,0,0,0a.07.07,0,0,1,0,0,.09.09,0,0,0,.06,0S26.87,22.49,26.89,22.47Z"/><path class="cls-1" d="M27.27,27.07a1.55,1.55,0,0,0,0,.16s0,0,.1,0h0s-.06-.08-.08-.1A.16.16,0,0,0,27.27,27.07Z"/><path class="cls-1" d="M26.91,26.19a.43.43,0,0,0-.08.54l.06-.16a.61.61,0,0,1,.14-.36v0h-.12Z"/><path class="cls-1" d="M27.73,26.13a.6.6,0,0,1-.18,0,.08.08,0,0,1-.06,0s-.06,0-.06,0v0s.06,0,.08,0l0,0a.15.15,0,0,0,.08,0C27.69,26.17,27.73,26.17,27.73,26.13Z"/><path class="cls-1" d="M29,27.31l0,0a.43.43,0,0,0,.24.2.32.32,0,0,0,.18-.12h-.1A.54.54,0,0,1,29,27.31Z"/><path class="cls-1" d="M29.33,21.25l.08.14q0-.09,0-.12s0,0-.06,0Z"/><path class="cls-1" d="M25.73,21.75a0,0,0,0,1,0,0c-.12,0-.18.06-.2.16a.4.4,0,0,0,.24-.16A0,0,0,0,0,25.73,21.75Z"/><path class="cls-1" d="M28.75,26.83l-.06-.06-.14-.12h0a0,0,0,0,0,0,0c0-.06,0-.08-.06-.08h0a.07.07,0,0,0-.06,0,0,0,0,0,0,0,0l0,0a0,0,0,0,1,0,0l.2.26.14.18a.25.25,0,0,1,.08-.16l-.14-.14Z"/><path class="cls-1" d="M28.29,27c-.18-.16-.32-.24-.5-.1s-.08,0-.12,0a.47.47,0,0,0,.1.08H28a.59.59,0,0,1,.34.12v0s.08,0,.08,0l0,0Z"/><path class="cls-1" d="M25.57,26.41h0c-.1,0-.1,0-.1,0s0,.06.12.08a.13.13,0,0,1,.1-.08l.06,0s0,0,0-.08h-.18Z"/><path class="cls-1" d="M25.55,25.81a2.35,2.35,0,0,0,.1-.26,0,0,0,0,0,0,0s-.08-.1-.12-.1-.1.12-.1.26v.06s0,.06.14.06Z"/><path class="cls-1" d="M25.77,24.61l-.34-.14a.34.34,0,0,1-.12.16.59.59,0,0,0,.38.08C25.75,24.71,25.75,24.71,25.77,24.61Z"/><path class="cls-1" d="M25.19,23.75s0,0,0,.06,0,0,0,.06.06,0,.06,0,0-.06,0-.08Z"/><path class="cls-1" d="M26.37,25.93l.1-.06,0-.08s-.06-.06-.08-.06,0,0-.06,0a.53.53,0,0,1-.58.2l.12.26a1.74,1.74,0,0,1,.36-.22Z"/><path class="cls-1" d="M26.49,25.15s-.1,0-.14,0a.07.07,0,0,0,0,0v0c0,.08.1.14.2.16h0a.51.51,0,0,0,.06-.14.09.09,0,0,0,0-.06Z"/><path class="cls-1" d="M26.79,21.39s.06.06.08.06a.3.3,0,0,0,0-.14.11.11,0,0,0,0-.08h0a.07.07,0,0,0-.06,0l0,0s0,0,.06.08A.07.07,0,0,1,26.79,21.39Z"/><path class="cls-1" d="M26.19,27.07a.36.36,0,0,0,.08.2s0,0,0-.06.12-.1.18-.14.08,0,.1-.06a.71.71,0,0,0-.28.06S26.21,27.07,26.19,27.07Z"/><path class="cls-1" d="M50.43,0H9.57A9.57,9.57,0,0,1,0,9.57V44.18a9.57,9.57,0,0,1,9.57,9.57H50.43A9.57,9.57,0,0,1,60,44.18V9.57A9.57,9.57,0,0,1,50.43,0Zm6,42.28H56a7.94,7.94,0,0,0-7.93,7.93v.38H11.88v-.37A7.94,7.94,0,0,0,4,42.28H3.58V11.47H4a7.94,7.94,0,0,0,7.93-7.93V3.17H48.12v.38A7.94,7.94,0,0,0,56,11.47h.38Z"/></svg>