<svg id="Layer_1" data-name="Layer 1" xmlns="http://www.w3.org/2000/svg" viewBox="0 0 60 53.75"><defs><style>.cls-1{fill:#86754d;}</style></defs><title>story-button-7</title><path class="cls-1" d="M17.5,25c.06-.06.08-.1.08-.12l-.08,0Z"/><path class="cls-1" d="M18.12,27.27h0a.07.07,0,0,0,.06,0s0-.08,0-.12a.36.36,0,0,1,0-.2l-.14-.06c-.08,0-.08-.14-.08-.2s0-.06,0-.06-.16.2-.18.28a.28.28,0,0,0,0,.1l.08,0c.08,0,.12,0,.16,0a.18.18,0,0,1,.08.16.34.34,0,0,1,0,.1Z"/><path class="cls-1" d="M15,32.93a0,0,0,0,1,0,0h0c0,.06.06.08.08.1s.06,0,.08,0,0,0-.06-.06A.07.07,0,0,1,15,32.93Z"/><path class="cls-1" d="M17.4,25.27a1,1,0,0,0-.36-.06,1.22,1.22,0,0,1-.58-.16.07.07,0,0,0-.06,0c0,.14.08.2.24.16a.76.76,0,0,1,.2,0,.66.66,0,0,1,.5.2.21.21,0,0,0,.12,0,0,0,0,0,0,0,0s0,0,0-.08Z"/><path class="cls-1" d="M18.82,27.21s0,.06,0,.12l0,0h0l.34-.06,0,0a.61.61,0,0,0-.22,0A.57.57,0,0,1,18.82,27.21Z"/><path class="cls-1" d="M19,28.73s0,0-.06,0h0a.38.38,0,0,1,0,.14,0,0,0,0,0,0,0,.1.1,0,0,0,0-.08S19,28.73,19,28.73Z"/><path class="cls-1" d="M17.38,26.41l0,0,0,0v0s0-.06,0-.08S17.44,26.35,17.38,26.41Z"/><path class="cls-1" d="M18.66,28.47a.11.11,0,0,1-.12,0c-.06,0-.12,0-.14.08a.21.21,0,0,0,0,.16c0,.06.08.1.24,0s.06,0,.1-.06l-.08-.16Z"/><path class="cls-1" d="M15.24,31.83v0s0,0,0-.06v0S15.24,31.79,15.24,31.83Z"/><path class="cls-1" d="M19.88,29.19c0-.22,0-.3-.12-.32H19.7s0,0,0,.06a.19.19,0,0,1,0,.18c-.06.12-.16.08-.22.06a.07.07,0,0,1,0,0h0a.07.07,0,0,0,0,0v0s0,0,0,.06a.07.07,0,0,0,.06,0A1.08,1.08,0,0,1,19.88,29.19Z"/><path class="cls-1" d="M15.36,30.57s0,0,0,0l-.08.06v0s0,.08,0,.1h0c.06,0,.1,0,.1-.06a.16.16,0,0,0,0-.16A.06.06,0,0,0,15.36,30.57Z"/><path class="cls-1" d="M15,30.13a0,0,0,0,1,0,0v0l.06,0a.07.07,0,0,1,0,0h0a.12.12,0,0,0,.08,0v-.08h0A.12.12,0,0,1,15,30.13Z"/><path class="cls-1" d="M15.32,25.43a.21.21,0,0,0,0,.18l.1.06a.84.84,0,0,1-.12-.28Z"/><path class="cls-1" d="M15.44,24.21a.07.07,0,0,0,0,.06s0,0,.1.06Z"/><path class="cls-1" d="M16,24.87l0,0L15.9,25s-.06.06-.06.08v0a.08.08,0,0,1,.06,0A.15.15,0,0,1,16,25a1,1,0,0,0,.24,0h0c0-.08-.06-.18-.1-.18S16.06,24.83,16,24.87Z"/><path class="cls-1" d="M15.76,27.77h0a.18.18,0,0,0-.1.06s0,.1-.06.14a.44.44,0,0,1,.22-.1,0,0,0,0,0,0,0s0,0,0,0S15.78,27.79,15.76,27.77Z"/><path class="cls-1" d="M15.7,27.25c0-.06-.06-.12-.12-.18a.07.07,0,0,0,0,0,.55.55,0,0,0,.08.32A.15.15,0,0,0,15.7,27.25Z"/><path class="cls-1" d="M16.74,25.81a.54.54,0,0,0-.36.16l-.12.1s0,.06,0,.1a.68.68,0,0,0,.06.12s0,0,.1-.06a.18.18,0,0,1-.08-.16.37.37,0,0,1,.12-.16.22.22,0,0,1,.16,0c.06,0,.06.1.08.14h.08a.15.15,0,0,1,0-.08A.22.22,0,0,1,16.74,25.81Z"/><path class="cls-1" d="M18.28,27.75a.16.16,0,0,0-.12.1v0h.2v0A.13.13,0,0,0,18.28,27.75Z"/><path class="cls-1" d="M21.44,31.57a.15.15,0,0,1-.08,0h0v.06c0,.1,0,.12.06.14s.08,0,.1-.06S21.5,31.61,21.44,31.57Z"/><path class="cls-1" d="M21.5,22.43v0l0,.06.06,0a.22.22,0,0,1,.16,0s-.1,0-.18,0Z"/><path class="cls-1" d="M21.4,24.33v0a0,0,0,0,0,0,0c-.06.08-.14.16-.14.24a.16.16,0,0,0,0,.1.22.22,0,0,0,.16,0,.21.21,0,0,0,.12-.1A.26.26,0,0,1,21.4,24.33Z"/><path class="cls-1" d="M21.38,30.89l.06,0-.1-.06S21.38,30.87,21.38,30.89Z"/><path class="cls-1" d="M21.46,26.15a.13.13,0,0,0-.14.08h0c.08,0,.1,0,.12,0A.06.06,0,0,0,21.46,26.15Z"/><path class="cls-1" d="M19.5,31.13a.07.07,0,0,1,0,.06s0,.06,0,.1a.08.08,0,0,0,.06,0s0-.08,0-.12A0,0,0,0,1,19.5,31.13Z"/><path class="cls-1" d="M21.8,29.21h0a1.14,1.14,0,0,0,0,.52.56.56,0,0,1,0,.18h0a0,0,0,0,1,0,0v-.26a.39.39,0,0,0,0-.26A.37.37,0,0,1,21.8,29.21Z"/><path class="cls-1" d="M27,32.45a.5.5,0,0,1,.14-.08l.06,0,0-.08A.34.34,0,0,0,27,32.45Z"/><path class="cls-1" d="M26.94,32.91a.07.07,0,0,1,0,0s.06,0,.06,0v0a.07.07,0,0,0,0,0Z"/><path class="cls-1" d="M27.08,31.89l.06,0,.06-.06a.12.12,0,0,0-.08,0S27.06,31.85,27.08,31.89Z"/><path class="cls-1" d="M20.42,27.93a.1.1,0,0,0,0-.08s-.06-.08-.1-.12-.1-.08-.12-.14a.31.31,0,0,1-.16.12s-.06,0-.08,0l-.08.08v0a1,1,0,0,1,.22,0C20.28,27.95,20.36,28,20.42,27.93Z"/><path class="cls-1" d="M21,28.19a.17.17,0,0,0,0,.14v.06s.06,0,.12,0a.15.15,0,0,1,.08-.08l.06-.08a.07.07,0,0,0-.06,0C21.08,28.17,21,28.17,21,28.19Z"/><path class="cls-1" d="M20.24,31.77c0,.1.08.16.24.22s.14,0,.2,0a.54.54,0,0,1-.26-.14Z"/><path class="cls-1" d="M19.54,29.87c0,.08,0,.12.1.18h0s0-.06-.06-.1A.27.27,0,0,1,19.54,29.87Z"/><path class="cls-1" d="M20,31.61a.18.18,0,0,1-.12-.12.13.13,0,0,1,0-.12v-.06a.12.12,0,0,0,0,.1,1.36,1.36,0,0,0,0,.3c0,.08,0,.1,0,.12a.5.5,0,0,0,.08-.12.2.2,0,0,1,.1-.08l0,0Z"/><path class="cls-1" d="M21.06,30.81a.25.25,0,0,1,0,.12s0,0,0,.06v0l0,0C21.1,30.85,21.1,30.81,21.06,30.81Z"/><path class="cls-1" d="M21.22,32.17a.09.09,0,0,0,0-.1.21.21,0,0,0-.1.18A.14.14,0,0,0,21.22,32.17Z"/><path class="cls-1" d="M21,32.37a.07.07,0,0,0-.06,0c-.06,0-.06.14-.08.2s0,.08,0,.12-.06.26,0,.32h0a.1.1,0,0,1,0-.06c0-.08,0-.18.14-.2a0,0,0,0,1,0,0A.35.35,0,0,1,21,32.37Z"/><path class="cls-1" d="M20.62,31.39a0,0,0,0,0,0,0s.06.08.18.08h0v-.06a.31.31,0,0,0-.16-.06A0,0,0,0,0,20.62,31.39Z"/><path class="cls-1" d="M17.22,24.81a.15.15,0,0,1,.08-.08.22.22,0,0,1,0-.22s0,0,0-.06,0,0,0,0a0,0,0,0,0,0,0,.43.43,0,0,0-.2.22s0,.08.06.14S17.22,24.79,17.22,24.81Z"/><path class="cls-1" d="M27.28,32.49a.07.07,0,0,0,0,0l.06,0a.07.07,0,0,0-.08-.08Z"/><path class="cls-1" d="M20.58,26.91a.07.07,0,0,0-.06,0c0,.06,0,.08,0,.1a.11.11,0,0,0,.08,0S20.6,26.93,20.58,26.91Z"/><path class="cls-1" d="M20.58,31h0l.1,0a.07.07,0,0,0,.06,0s0,0-.08,0S20.6,31,20.58,31Z"/><path class="cls-1" d="M20.6,23.09s0,0,0,0-.08,0-.12.12a.07.07,0,0,1,.06,0C20.6,23.13,20.6,23.13,20.6,23.09Z"/><path class="cls-1" d="M20.14,27.29h0a0,0,0,0,0,0,0l.08.06S20.16,27.33,20.14,27.29Z"/><path class="cls-1" d="M20.92,29.21s-.06,0-.08,0h-.06s-.08,0-.1,0-.12,0-.12.06,0,0,.06,0l0,0c.08,0,.24,0,.26-.06Z"/><path class="cls-1" d="M19.48,27.59c0-.06.06-.12,0-.14a.21.21,0,0,0-.12-.06.18.18,0,0,0,0,.14l0,0S19.46,27.59,19.48,27.59Z"/><path class="cls-1" d="M19.44,28.49h0l.1-.08s0,0,0,0h-.08a.07.07,0,0,0-.06,0s0,.06,0,.08Z"/><path class="cls-1" d="M19.94,28.47s0,0,0-.06,0-.12,0-.14a.15.15,0,0,0-.1,0h0a.32.32,0,0,1,.06.16C19.92,28.45,19.92,28.47,19.94,28.47Z"/><path class="cls-1" d="M20.64,21.45l0-.1c-.06,0-.08.06-.14.1A.42.42,0,0,0,20.64,21.45Z"/><path class="cls-1" d="M21.08,27.81s0,.06.12,0v0c-.06-.06-.08-.06-.12-.06Z"/><path class="cls-1" d="M21.26,23.81l.06,0,.06,0v0a.35.35,0,0,1,0-.14v0A1.13,1.13,0,0,0,21.26,23.81Z"/><path class="cls-1" d="M21.12,21.95s0,0,0,0a.32.32,0,0,0,.12-.06.16.16,0,0,0,0-.16l-.12.1C21.14,21.89,21.12,21.93,21.12,21.95Z"/><path class="cls-1" d="M21.5,23.11s0,0,0-.08v0s0,0,0,0h0v.1s0,0,0,0Z"/><path class="cls-1" d="M20.8,27.31a.24.24,0,0,1,.26,0,0,0,0,0,0,0,0s0,0,0,0-.08-.14-.16-.14a.29.29,0,0,0-.12,0h0s0,0,0,.06a.51.51,0,0,0,0,.14S20.7,27.35,20.8,27.31Z"/><path class="cls-1" d="M20.92,22.95s0,.06.06.08v0s0,0,0-.06Z"/><path class="cls-1" d="M21,21.07c0-.06.08-.06.14-.08s0-.1-.06-.1A.16.16,0,0,0,21,21a2.07,2.07,0,0,0-.18.22s0,0,0,0a.16.16,0,0,0,.14,0A.21.21,0,0,0,21,21.07Z"/><path class="cls-1" d="M20.82,25.79a0,0,0,0,0,0,0v0a.9.9,0,0,1,0-.1.28.28,0,0,1,0-.12v0h0a.15.15,0,0,0-.12.08.08.08,0,0,0,0,.06C20.72,25.71,20.76,25.79,20.82,25.79Z"/><path class="cls-1" d="M20.88,21.65s0,0,0,0l0,0h-.08s-.06,0-.08,0h0a.43.43,0,0,0,0,.22C20.76,21.73,20.84,21.69,20.88,21.65Z"/><path class="cls-1" d="M15.54,22.41a.34.34,0,0,1-.26.08.35.35,0,0,0-.24.12.5.5,0,0,0,.38,0A.53.53,0,0,0,15.54,22.41Z"/><path class="cls-1" d="M14.9,21.43a.29.29,0,0,0,.14,0,.92.92,0,0,1,.28.14l0,0s.06,0,.1,0a.28.28,0,0,1,.08.06l.06,0a.22.22,0,0,0,0-.06.16.16,0,0,0,0-.1s0,0-.06,0a.66.66,0,0,1-.62-.24l0,0S14.88,21.43,14.9,21.43Z"/><path class="cls-1" d="M14.82,22.49v-.1l0,0a.25.25,0,0,1,0-.12v-.06l-.08,0h0s-.1,0-.1,0,.1.24.16.26Z"/><path class="cls-1" d="M14.9,21.29h0l-.06,0,.06,0S14.91,21.29,14.9,21.29Z"/><path class="cls-1" d="M14.9,24.27a.07.07,0,0,0,0-.06l-.08-.12s0,0,0,0a.34.34,0,0,1-.2-.24.22.22,0,0,0,0,.16C14.56,24,14.84,24.27,14.9,24.27Z"/><path class="cls-1" d="M15.5,20.81a.33.33,0,0,1-.14,0l.12.06S15.5,20.85,15.5,20.81Z"/><path class="cls-1" d="M14.86,31.31a.6.6,0,0,1,0,.18c0,.08-.06.12,0,.16a.31.31,0,0,0,.1-.26v-.06s0,0,0,0l0,0Z"/><path class="cls-1" d="M14.86,32.09s0,0,0,0,0,0,0,0v0l-.06.06Z"/><path class="cls-1" d="M14.44,26.75c0-.06,0-.1,0-.12A.26.26,0,0,0,14.44,26.75Z"/><path class="cls-1" d="M14.56,28.07v.12a.26.26,0,0,1,0,.12h.12l.08,0v0A.46.46,0,0,0,14.56,28.07Z"/><path class="cls-1" d="M16.08,22.47s0,0,0,.06,0,0,0,0,0-.1,0-.14l-.06,0a1,1,0,0,0-.24,0l.18.16Z"/><path class="cls-1" d="M15.08,24.73h0s0,.06,0,.1a.44.44,0,0,1,0,.28.17.17,0,0,1,.12.08s0,0,0,.06a1.29,1.29,0,0,1,0-.48A.33.33,0,0,1,15.08,24.73Z"/><path class="cls-1" d="M15.88,23.49l-.12.2-.08-.22-.06.08a0,0,0,0,1,0,0,.56.56,0,0,0,.26.36s0,0,0-.12a.43.43,0,0,1,0-.16A.23.23,0,0,0,15.88,23.49Z"/><path class="cls-1" d="M16.88,23.85v0a0,0,0,0,0,0,0l-.06.06a.07.07,0,0,0,.06,0S16.86,23.87,16.88,23.85Z"/><path class="cls-1" d="M16.5,22s0,0,0-.06l-.06.18v0C16.46,22.13,16.52,22.09,16.5,22Z"/><path class="cls-1" d="M15.28,23.81c0-.08.06-.18,0-.2s0,0,0,0a.23.23,0,0,1-.12.12c-.06,0-.1.06-.16.08s0,0,0,0a.26.26,0,0,1,0,.12c.06,0,.1,0,.18-.08A.52.52,0,0,1,15.28,23.81Z"/><path class="cls-1" d="M14.82,29.51h0a.07.07,0,0,0,0,0s0,0,.06.08a.15.15,0,0,1,0,.08s0,.06,0,.06l0,0a.17.17,0,0,0,0-.14A.42.42,0,0,0,14.82,29.51Z"/><path class="cls-1" d="M15.1,28.95a.1.1,0,0,0,0,.08.35.35,0,0,0,.14,0l.08,0-.1-.06H15.1Z"/><path class="cls-1" d="M15.28,28l0,0s0,0-.08.06l.08,0S15.28,28,15.28,28Z"/><path class="cls-1" d="M15.54,23.11a.21.21,0,0,1,.2.08.28.28,0,0,1,0,.24l.16,0a.07.07,0,0,1,0,0,.39.39,0,0,1-.06-.16l0-.06,0-.18-.16.08S15.56,23.11,15.54,23.11Z"/><path class="cls-1" d="M30.66,22.25v0s0,.06,0,.08v.06a.17.17,0,0,0,.12-.06.4.4,0,0,1,.1-.08l-.18-.16S30.66,22.19,30.66,22.25Z"/><path class="cls-1" d="M29.9,27a0,0,0,0,1,0,0l-.06,0-.16,0a.2.2,0,0,1-.14-.08l0,0s0,0,0,0-.1.14-.08.2,0,0,0,.06a.64.64,0,0,1,.52-.14.56.56,0,0,0,.18,0H30Z"/><path class="cls-1" d="M30.18,26.37l-.14,0-.08,0a.15.15,0,0,0,0,.06c0,.1.12.14.26.18l.06,0s.06,0,.08-.1a.07.07,0,0,0,0,0C30.36,26.39,30.3,26.37,30.18,26.37Z"/><path class="cls-1" d="M43.89,21.31v-.08a.07.07,0,0,0-.06,0Z"/><path class="cls-1" d="M30.46,21.57s0,0,0-.06v0l-.08.08Z"/><path class="cls-1" d="M42.35,21.31a.29.29,0,0,1-.26,0s-.06-.08-.08-.14v0l.06.16c0,.12.06.18.14.2s.08,0,.14-.06a.44.44,0,0,1,.16-.1,0,0,0,0,0,0-.06S42.43,21.29,42.35,21.31Z"/><path class="cls-1" d="M43,21.57l.14,0S43.09,21.55,43,21.57Z"/><path class="cls-1" d="M41.63,21.57h.06c.08,0,.08-.08.08-.1l0,0A.59.59,0,0,0,41.63,21.57Z"/><path class="cls-1" d="M40.83,21.47l-.26-.08a.61.61,0,0,0,.28.14l.16.06,0,0a0,0,0,0,0,0,0v0l0,0A.69.69,0,0,1,40.83,21.47Z"/><path class="cls-1" d="M40.87,21h0v0a.09.09,0,0,1,0-.1v-.12a.19.19,0,0,0,0,.18S40.87,20.95,40.87,21Z"/><path class="cls-1" d="M26.94,21.59v0l.06.1-.1,0,0,0,0,0c-.08,0-.12.06-.1.08s.06,0,.08,0l.1,0c.08,0,.1,0,.16-.1a.11.11,0,0,1,0-.08Z"/><path class="cls-1" d="M27.18,27.07a1.46,1.46,0,0,0,0,.16s0,0,.1,0h0s-.06-.08-.08-.1A.16.16,0,0,0,27.18,27.07Z"/><path class="cls-1" d="M26.82,26.19a.43.43,0,0,0-.08.54l.06-.16a.61.61,0,0,1,.14-.36v0h-.12Z"/><path class="cls-1" d="M27.64,26.13a.6.6,0,0,1-.18,0,.08.08,0,0,1-.06,0s-.06,0-.06,0v0s.06,0,.08,0l0,0a.15.15,0,0,0,.08,0C27.6,26.17,27.64,26.17,27.64,26.13Z"/><path class="cls-1" d="M28.88,27.31l0,0a.43.43,0,0,0,.24.2.32.32,0,0,0,.18-.12h-.1A.54.54,0,0,1,28.88,27.31Z"/><path class="cls-1" d="M29.24,21.25l.08.14c0-.06,0-.1,0-.12s0,0-.06,0Z"/><path class="cls-1" d="M28.66,26.83l-.06-.06-.14-.12h0a0,0,0,0,0,0,0c0-.06,0-.08-.06-.08h0a.07.07,0,0,0-.06,0,0,0,0,0,0,0,0l0,0a0,0,0,0,1,0,0l.2.26c0,.06.1.12.14.18a.25.25,0,0,1,.08-.16l-.14-.14Z"/><path class="cls-1" d="M28.2,27c-.18-.16-.32-.24-.5-.1s-.08,0-.12,0a.45.45,0,0,0,.1.08h.18a.59.59,0,0,1,.34.12v0s.08,0,.08,0l0,0Z"/><path class="cls-1" d="M46.78,4.7H13.22a8.4,8.4,0,0,1-8,8V41a8.4,8.4,0,0,1,8,8H46.78a8.4,8.4,0,0,1,8-8V12.71A8.4,8.4,0,0,1,46.78,4.7ZM22.92,33.19a.86.86,0,0,1,.1.32.34.34,0,0,1,0,.32.39.39,0,0,1-.28.1H20c-.34,0-.48-.24-.58-.48-.18-.4-.36-.82-.52-1.24s-.34-.8-.52-1.2l-1.68-3.84,0-.1L16.66,27a.27.27,0,0,0,0,.14v5.08a1.52,1.52,0,0,0,.2.78,1.79,1.79,0,0,1,.18.34.36.36,0,0,1-.36.56h-3c-.24,0-.34-.1-.38-.18a.35.35,0,0,1,.06-.4,3.7,3.7,0,0,0,.36-2V21.81a3.21,3.21,0,0,0-.34-1.48c-.08-.2-.14-.36-.08-.46s.24-.12.46-.14h.86c.46,0,1,0,1.44,0a.82.82,0,0,1,.88.58c.36.88.74,1.8,1.12,2.68l.42,1,.44,1c.22.48.42,1,.62,1.46a.07.07,0,0,1,0,.06.24.24,0,0,0,0,.08s0,0,0,0a.09.09,0,0,0,0-.1V23.25c0-.44,0-.9,0-1.36a3,3,0,0,0-.3-1.54c-.12-.22-.14-.36-.08-.46s.26-.16.42-.16h2.9q.39,0,.48.18c.06.1,0,.24-.1.44a2.61,2.61,0,0,0-.3,1.5V31.93A2,2,0,0,0,22.92,33.19Zm8.22-.24v.54c0,.38-.26.44-.54.44H25.52c-.5,0-.58-.08-.58-.58s0-1.18,0-1.88c0-.5.12-.6.58-.62,1.62,0,3.3,0,5,0,.48,0,.62.12.62.58S31.16,32.45,31.14,32.95Zm.7-10.84a3.62,3.62,0,0,1,0,.46v3.62a1.5,1.5,0,0,1-.48,1.18l0,0a2.16,2.16,0,0,1-2.22.92H28.2c-.66,0-1.32,0-2,0h0A1,1,0,0,1,25.4,28l0,0a3.63,3.63,0,0,0-.58-.52,1.63,1.63,0,0,1-.6-1.54c0-1.38.06-2.56,0-3.74a1.81,1.81,0,0,1,.64-1.66.16.16,0,0,0,.08-.08,2.15,2.15,0,0,1,1.82-.72c.84.06,1.72,0,2.56,0a5.57,5.57,0,0,1,.56,0,1.29,1.29,0,0,1,.92.32l.26.26C31.88,21.11,31.88,21.13,31.84,22.11Zm16.33-2-.66,1.48-.16.34c-1.08,2.36-2.14,4.72-3.22,7.08l-.32.7c-.38.82-.76,1.66-1.16,2.48a1,1,0,0,0,0,1.06,1.15,1.15,0,0,1,.08.18.46.46,0,0,1,0,.36.36.36,0,0,1-.32.12L42,34l-.36,0H39.43c-.22,0-.38,0-.44-.12s0-.24.08-.44l1.72-3.78,2-4.32L43.83,23l.06-.16c0-.08,0-.14,0-.16s-.08,0-.12,0H43c-.7,0-1.42,0-2.12,0a1.3,1.3,0,0,0-.52.16,1.42,1.42,0,0,1-.26.1c-.26.1-.4.1-.5,0s-.14-.22-.14-.48q0-1.08,0-2.28c0-.5.06-.54.54-.56h2.78l4.72,0,.12,0a1,1,0,0,1,.24,0,.38.38,0,0,1,.34.12A.41.41,0,0,1,48.17,20.15Z"/><path class="cls-1" d="M45.17,21.45v0l0,0a.1.1,0,0,0,0-.14s0-.08-.06-.12,0-.12-.1-.14-.1,0-.14.12a.15.15,0,0,0,0,.08s0,.06-.06.08l.08,0a.12.12,0,0,0,.08,0c.06,0,.08,0,.08.06l.06.06-.1.06-.08,0h0a.06.06,0,0,1-.06-.06l-.06,0a1,1,0,0,0,0,.5l0,.08s0,0,0,0a.17.17,0,0,0,.14,0l0,0a.41.41,0,0,1,.16-.06c.06,0,.1,0,.16.1l0,0s0-.06,0-.1A.55.55,0,0,1,45.17,21.45Z"/><path class="cls-1" d="M43.75,26.87v0a0,0,0,0,0,0,0,.83.83,0,0,1,0,.78l-.06.06c-.06.08-.08.1,0,.16s0,0,.06,0,.1-.06.1-.18v0a1,1,0,0,1,.08-.26l0-.08,0-.12A2.05,2.05,0,0,1,43.75,26.87Z"/><path class="cls-1" d="M45,23.83a.18.18,0,0,0-.14-.06.18.18,0,0,0-.1,0c-.1,0-.1.1-.1.14s0,0,0,0h0a.23.23,0,0,1,.22-.1C45,23.87,45,23.87,45,23.83Z"/><path class="cls-1" d="M44.13,26.77v.08l0,0s0,0,0-.08l0,0A.06.06,0,0,0,44.13,26.77Z"/><path class="cls-1" d="M45.15,24.13l-.08,0a.11.11,0,0,0-.1.06.25.25,0,0,1-.06.08c-.08.1-.1.12,0,.2s0,0,.06,0,.06,0,.1-.08l.08-.08v0s0,0,0,0,0-.08,0-.1A.1.1,0,0,0,45.15,24.13Z"/><path class="cls-1" d="M40.77,32.19a.07.07,0,0,0,0,0,.2.2,0,0,1,.08.1s0-.06-.08-.14Z"/><path class="cls-1" d="M26.8,22.47s0,0-.06-.06a0,0,0,0,0,0,0s0,0,0,0a.07.07,0,0,1,0,0,.08.08,0,0,0,.06,0S26.78,22.49,26.8,22.47Z"/><path class="cls-1" d="M46,21h0a.12.12,0,0,0,.1,0s0,0,0,0Z"/><path class="cls-1" d="M45.91,22.33h0a.07.07,0,0,0,0,.06v.06a.07.07,0,0,1,0,.06l0,.1a.11.11,0,0,0,.08,0s.08,0,.08-.16A.12.12,0,0,0,45.91,22.33Z"/><path class="cls-1" d="M46.55,21a.7.7,0,0,1-.08.22l0,.06,0,.06s0-.06,0-.08.06-.14,0-.24Z"/><path class="cls-1" d="M42,31l0,0s0,.08,0,.08a.06.06,0,0,0,0,0s0,0,0-.12Z"/><path class="cls-1" d="M41.73,30.89a.44.44,0,0,1-.32.14h0a.15.15,0,0,1,.16.12v.42a.12.12,0,0,0,0,.08s0,0,0,0,0,0,0-.06a.67.67,0,0,1,.14-.6.58.58,0,0,0,0-.12h0A.15.15,0,0,0,41.73,30.89Z"/><path class="cls-1" d="M41.39,31h0S41.39,31,41.39,31Z"/><path class="cls-1" d="M41.61,30.47a1.39,1.39,0,0,1,0-.5.06.06,0,0,0,0,0,.6.6,0,0,0,0,.18s0,0,0,.08,0,.34.1.44C41.63,30.63,41.61,30.55,41.61,30.47Z"/><path class="cls-1" d="M42,30.27c0,.06.1.06.18,0h0a.18.18,0,0,0-.12-.06Z"/><path class="cls-1" d="M42.83,28.87a.18.18,0,0,0,.14.06.49.49,0,0,0,.1-.1,0,0,0,0,0,0,0l0,0C43,28.75,42.91,28.77,42.83,28.87Z"/><path class="cls-1" d="M42.23,28.53a.06.06,0,0,0-.06.06s0,.06,0,.08a0,0,0,0,0,0,0s0,0,.08-.06l0,0,0,0s0,0,0,0Z"/><path class="cls-1" d="M42.93,27.71c0,.1,0,.24-.12.26s-.14.12-.14.24v0s0,0,0,0a.45.45,0,0,1,.26-.12c.28-.3.28-.32,0-.56C42.91,27.55,42.91,27.59,42.93,27.71Z"/><path class="cls-1" d="M27.46,32.13h0l.32.12-.08-.06C27.62,32.11,27.54,32.07,27.46,32.13Z"/><path class="cls-1" d="M29.9,24.59s0-.06,0-.12-.08-.06-.18,0h0a.08.08,0,0,0-.12,0h.1l.12.06.08,0Z"/><path class="cls-1" d="M29.54,22.67s.06,0,.1-.06.16-.18.1-.28-.08,0-.12.1a.35.35,0,0,0-.1.08s0,0-.06,0-.06,0-.06,0l0,0A.17.17,0,0,0,29.54,22.67Z"/><path class="cls-1" d="M28.6,26c0,.14,0,.24,0,.3a.46.46,0,0,0,.16.06v-.12c0-.14,0-.32.24-.38,0,0,0,0,0,0a.38.38,0,0,1-.16,0C28.72,25.85,28.64,25.87,28.6,26Z"/><path class="cls-1" d="M29.6,25.67a.37.37,0,0,0,.2-.1.26.26,0,0,0,0-.18v0a.15.15,0,0,1,0-.08l-.24.36S29.56,25.67,29.6,25.67Z"/><path class="cls-1" d="M27.28,23.13v1.2c0,.48,0,.72.08.82s.26.08.58.08l.18,0,.34,0c.22,0,.32-.1.32-.3s0-.42,0-.62v-.58c0-.22,0-.44,0-.66a.35.35,0,0,0-.06-.24.24.24,0,0,0-.24-.06h-.84a.3.3,0,0,0-.28.06A.42.42,0,0,0,27.28,23.13Z"/><path class="cls-1" d="M28.3,20.67c0-.16-.16-.16-.34-.12l-.1,0a.06.06,0,0,0,0,0C28,20.71,28.16,20.79,28.3,20.67Z"/><path class="cls-1" d="M27.84,21.15v0s0,0,0,0v.08l0,0A.88.88,0,0,0,27.84,21.15Z"/><path class="cls-1" d="M28.4,21.21s.1-.08.14-.16l.12-.14a.21.21,0,0,1,.12,0,.07.07,0,0,1,.06,0v0s0,0-.06,0a.22.22,0,0,1-.2,0c0,.08-.1.14-.16.2l-.12.12Z"/><path class="cls-1" d="M28.22,21.57s0,.1,0,.12,0,0,.14,0a.16.16,0,0,1,.1,0v0s-.1-.06-.16-.08Z"/><path class="cls-1" d="M26.7,21.39s.06.06.08.06a.3.3,0,0,0,0-.14.11.11,0,0,0,0-.08h0a.07.07,0,0,0-.06,0l0,0s0,0,.06.08A.07.07,0,0,1,26.7,21.39Z"/><path class="cls-1" d="M28.76,32.83a.12.12,0,0,0,0,.08s0,0,.06-.08a.15.15,0,0,1,0-.1v0C28.8,32.69,28.78,32.71,28.76,32.83Z"/><path class="cls-1" d="M28.5,32.17l0,0,.06,0a.06.06,0,0,0,0,0,0,0,0,0,0,0,0Z"/><path class="cls-1" d="M28,32.29H28a.22.22,0,0,1,.12.2.14.14,0,0,0,.08-.12S28.16,32.31,28,32.29Z"/><path class="cls-1" d="M29.14,31.63s0,0-.06.08,0,.1,0,.12a.08.08,0,0,0,.06,0h.06a.07.07,0,0,0,0-.06A.2.2,0,0,0,29.14,31.63Z"/><path class="cls-1" d="M30.14,25.81l.1.06s0-.06-.08-.06Z"/><path class="cls-1" d="M29.8,22.21c.08,0,.14.06.18,0s.14-.12.2-.22v0a.47.47,0,0,1-.4.12h0a.07.07,0,0,1,0,0Z"/><path class="cls-1" d="M29.54,33.07l-.22-.18A.34.34,0,0,0,29.54,33.07Z"/><path class="cls-1" d="M29.88,32.09a.46.46,0,0,1-.22-.12s0,0-.06,0h0L29.5,32V32s.08,0,.12,0l.06,0c.14,0,.36.06.36.34v.1h0s0,0,0-.06a.34.34,0,0,1,0-.14C30.12,32.21,30,32.17,29.88,32.09Z"/><path class="cls-1" d="M28.66,21.73a.06.06,0,0,1,0,0c.06,0,.1-.1.16-.14v0h0S28.7,21.67,28.66,21.73Z"/><path class="cls-1" d="M25.68,24.61l-.34-.14a.35.35,0,0,1-.12.16.6.6,0,0,0,.38.08C25.66,24.71,25.66,24.71,25.68,24.61Z"/><path class="cls-1" d="M25.46,25.81a2.31,2.31,0,0,0,.1-.26,0,0,0,0,0,0,0s-.08-.1-.12-.1-.1.12-.1.26v.06s0,.06.14.06Z"/><path class="cls-1" d="M25.1,23.75s0,0,0,.06,0,0,0,.06.06,0,.06,0,0-.06,0-.08Z"/><path class="cls-1" d="M25.48,26.41h0c-.1,0-.1,0-.1,0s0,.06.12.08a.13.13,0,0,1,.1-.08l.06,0s0,0,0-.08h-.18Z"/><path class="cls-1" d="M26.28,25.93l.1-.06,0-.08s-.06-.06-.08-.06,0,0-.06,0a.53.53,0,0,1-.58.2l.12.26a1.74,1.74,0,0,1,.36-.22Z"/><path class="cls-1" d="M25.64,21.75a0,0,0,0,1,0,0c-.12,0-.18.06-.2.16a.4.4,0,0,0,.24-.16A0,0,0,0,0,25.64,21.75Z"/><path class="cls-1" d="M26.4,25.15s-.1,0-.14,0l0,0v0c0,.08.1.14.2.16h0a.5.5,0,0,0,.06-.14.08.08,0,0,0,0-.06Z"/><path class="cls-1" d="M26.1,27.07a.37.37,0,0,0,.08.2s0,0,0-.06.12-.1.18-.14.08,0,.1-.06a.73.73,0,0,0-.28.06S26.12,27.07,26.1,27.07Z"/><path class="cls-1" d="M27.36,21.57l.08,0a.11.11,0,0,1,0-.08s0-.06,0-.06a.4.4,0,0,0-.1,0h0c-.12,0-.2,0-.22.1a.2.2,0,0,1,.08.1Z"/><path class="cls-1" d="M26.2,21.83l.06.06c.06.08.08.1.12.06l0-.08s0,0,0,0A.09.09,0,0,0,26.2,21.83Z"/><path class="cls-1" d="M26.1,23.79s.06,0,.06-.08,0-.08,0-.12h0s0,0,0,0,0,.14,0,.16Z"/><path class="cls-1" d="M25.54,21.27c.06,0,.08,0,.08,0a0,0,0,0,0,0,0v-.06h-.16a0,0,0,0,0,0,0S25.5,21.25,25.54,21.27Z"/><path class="cls-1" d="M27.36,20.55l0,0a.06.06,0,0,1,0,0,.08.08,0,0,0-.08,0v0C27.34,20.59,27.36,20.57,27.36,20.55Z"/><path class="cls-1" d="M25.52,22.45a.15.15,0,0,0,0,.08s0,0,.08,0a.35.35,0,0,0,.22,0v-.06l0,0a.22.22,0,0,1-.22,0S25.54,22.47,25.52,22.45Z"/><path class="cls-1" d="M26.24,20.95h.06s.14,0,.14,0v0h0s-.08,0-.12,0h-.06s-.06,0-.06,0v0h.08Z"/><path class="cls-1" d="M25.52,23.71c-.06,0-.08.1-.06.16a.25.25,0,0,0,0,.12l0,.2c.08-.06.1-.16.06-.32a.21.21,0,0,1,0-.1v-.06Z"/><path class="cls-1" d="M50.43,0H9.57A9.57,9.57,0,0,1,0,9.57V44.18a9.57,9.57,0,0,1,9.57,9.57H50.43A9.57,9.57,0,0,1,60,44.18V9.57A9.57,9.57,0,0,1,50.43,0Zm6,42.28H56a7.94,7.94,0,0,0-7.93,7.93v.38H11.88v-.37A7.94,7.94,0,0,0,4,42.28H3.58V11.47H4a7.94,7.94,0,0,0,7.93-7.93V3.17H48.12v.38A7.94,7.94,0,0,0,56,11.47h.38Z"/></svg>