<svg id="Layer_1" data-name="Layer 1" xmlns="http://www.w3.org/2000/svg" viewBox="0 0 60 53.75"><defs><style>.cls-1{fill:#86754d;}</style></defs><title>story-button-5</title><path class="cls-1" d="M20.32,31.77c0,.1.08.16.24.22s.14,0,.2,0a.55.55,0,0,1-.26-.14Z"/><path class="cls-1" d="M21.46,30.89l.06,0-.1-.06S21.46,30.87,21.46,30.89Z"/><path class="cls-1" d="M21.08,32.37a.07.07,0,0,0-.06,0c-.06,0-.06.14-.08.2s0,.08,0,.12-.06.26,0,.32h0a.1.1,0,0,1,0-.06c0-.08,0-.18.14-.2a0,0,0,0,1,0,0A.35.35,0,0,1,21.08,32.37Z"/><path class="cls-1" d="M19.84,28.87h-.06s0,0,0,.06a.19.19,0,0,1,0,.18c-.06.12-.16.08-.22.06a.07.07,0,0,1,0,0h0a.07.07,0,0,0,0,0v0s0,0,0,.06a.07.07,0,0,0,.06,0,1.08,1.08,0,0,1,.4-.1C20,29,19.94,28.89,19.84,28.87Z"/><path class="cls-1" d="M20.5,27.93a.1.1,0,0,0,0-.08s-.06-.08-.1-.12a.4.4,0,0,1-.12-.14.31.31,0,0,1-.16.12l-.08,0-.08.08v0a1,1,0,0,1,.22,0C20.36,27.95,20.44,28,20.5,27.93Z"/><path class="cls-1" d="M20.7,31.39a0,0,0,0,0,0,0s.06.08.18.08h0v-.06a.32.32,0,0,0-.16-.06A0,0,0,0,0,20.7,31.39Z"/><path class="cls-1" d="M21.54,26.15a.13.13,0,0,0-.14.08h0c.08,0,.1,0,.12,0A.06.06,0,0,0,21.54,26.15Z"/><path class="cls-1" d="M21.08,28.19a.17.17,0,0,0,0,.14v.06s.06,0,.12,0a.15.15,0,0,1,.08-.08l.06-.08a.07.07,0,0,0-.06,0C21.16,28.17,21.1,28.17,21.08,28.19Z"/><path class="cls-1" d="M21.14,30.81a.25.25,0,0,1,0,.12s0,0,0,.06v0l0,0C21.18,30.85,21.18,30.81,21.14,30.81Z"/><path class="cls-1" d="M21.3,32.17a.09.09,0,0,0,0-.1.21.21,0,0,0-.1.18A.14.14,0,0,0,21.3,32.17Z"/><path class="cls-1" d="M18.9,27.21s0,.06,0,.12l0,0h0l.34-.06,0,0a.61.61,0,0,0-.22,0A.57.57,0,0,1,18.9,27.21Z"/><path class="cls-1" d="M18.2,27.27h0a.07.07,0,0,0,.06,0s0-.08,0-.12a.36.36,0,0,1,0-.2l-.14-.06c-.08,0-.08-.14-.08-.2s0-.06,0-.06-.16.2-.18.28a.26.26,0,0,0,0,.1.19.19,0,0,0,.08,0c.08,0,.12,0,.16,0a.18.18,0,0,1,.08.16.32.32,0,0,1,0,.1Z"/><path class="cls-1" d="M17.48,25.27a1,1,0,0,0-.36-.06,1.22,1.22,0,0,1-.58-.16.07.07,0,0,0-.06,0c0,.14.08.2.24.16a.77.77,0,0,1,.2,0,.66.66,0,0,1,.5.2.21.21,0,0,0,.12,0,0,0,0,0,0,0,0s0,0,0-.08Z"/><path class="cls-1" d="M17.58,25c.06-.06.08-.1.08-.12l-.08,0Z"/><path class="cls-1" d="M19.62,29.87c0,.08,0,.12.1.18h0s0-.06-.06-.1A.25.25,0,0,1,19.62,29.87Z"/><path class="cls-1" d="M28.38,20.67c0-.16-.16-.16-.34-.12l-.1,0a.06.06,0,0,0,0,0C28.12,20.71,28.24,20.79,28.38,20.67Z"/><path class="cls-1" d="M17.46,26.41l0,0s0,0,0,0v0s0-.06,0-.08S17.52,26.35,17.46,26.41Z"/><path class="cls-1" d="M18.36,27.75a.16.16,0,0,0-.12.1v0h.2v0A.13.13,0,0,0,18.36,27.75Z"/><path class="cls-1" d="M19.58,31.13a.07.07,0,0,1,0,.06s0,.06,0,.1a.09.09,0,0,0,.06,0s0-.08,0-.12A0,0,0,0,1,19.58,31.13Z"/><path class="cls-1" d="M21.52,31.57a.15.15,0,0,1-.08,0h0v.06c0,.1,0,.12.06.14s.08,0,.1-.06S21.58,31.61,21.52,31.57Z"/><path class="cls-1" d="M19.12,28.73s0,0-.06,0h0a.38.38,0,0,1,0,.14,0,0,0,0,0,0,0,.1.1,0,0,0,0-.08S19.12,28.73,19.12,28.73Z"/><path class="cls-1" d="M18.74,28.47a.11.11,0,0,1-.12,0c-.06,0-.12,0-.14.08a.22.22,0,0,0,0,.16c0,.06.08.1.24,0s.06,0,.1-.06l-.08-.16Z"/><path class="cls-1" d="M29.68,25.67a.37.37,0,0,0,.2-.1.28.28,0,0,0,0-.18v0a.15.15,0,0,1,0-.08l-.24.36S29.64,25.67,29.68,25.67Z"/><path class="cls-1" d="M30,24.59s0-.06,0-.12-.08-.06-.18,0h0a.08.08,0,0,0-.12,0h.1l.12.06s.06,0,.08,0Z"/><path class="cls-1" d="M29.88,22.21c.08,0,.14.06.18,0s.14-.12.2-.22v0a.47.47,0,0,1-.4.12h0a.07.07,0,0,1,0,0Z"/><path class="cls-1" d="M30,32.09a.46.46,0,0,1-.22-.12s0,0-.06,0h0l-.08.06V32s.08,0,.12,0l.06,0c.14,0,.36.06.36.34v.1h0s0,0,0-.06a.35.35,0,0,1,0-.14C30.2,32.21,30.1,32.17,30,32.09Z"/><path class="cls-1" d="M16.06,24.87l0,0L16,25s-.06.06-.06.08v0A.07.07,0,0,1,16,25a.15.15,0,0,1,.08,0,1,1,0,0,0,.24,0h0c0-.08-.06-.18-.1-.18S16.14,24.83,16.06,24.87Z"/><path class="cls-1" d="M30.22,25.81l.1.06s0-.06-.08-.06Z"/><path class="cls-1" d="M28.3,21.57s0,.1,0,.12,0,0,.14,0a.16.16,0,0,1,.1,0v0s-.1-.06-.16-.08Z"/><path class="cls-1" d="M29.62,22.67s.06,0,.1-.06.16-.18.1-.28-.08,0-.12.1a.36.36,0,0,0-.1.08s0,0-.06,0-.06,0-.06,0l0,0A.17.17,0,0,0,29.62,22.67Z"/><path class="cls-1" d="M28.48,21.21s.1-.08.14-.16l.12-.14a.22.22,0,0,1,.12,0,.08.08,0,0,1,.06,0v0s0,0-.06,0a.22.22,0,0,1-.2,0c0,.08-.1.14-.16.2l-.12.12Z"/><path class="cls-1" d="M29.62,33.07l-.22-.18A.35.35,0,0,0,29.62,33.07Z"/><path class="cls-1" d="M28.68,26c0,.14,0,.24,0,.3a.45.45,0,0,0,.16.06v-.12c0-.14,0-.32.24-.38,0,0,0,0,0,0a.38.38,0,0,1-.16,0C28.8,25.85,28.72,25.87,28.68,26Z"/><path class="cls-1" d="M28.74,21.73a.06.06,0,0,1,0,0c.06,0,.1-.1.16-.14v0h0S28.78,21.67,28.74,21.73Z"/><path class="cls-1" d="M21.88,29.21h0a1.13,1.13,0,0,0,0,.52.56.56,0,0,1,0,.18h0a0,0,0,0,1,0,0v-.26a.38.38,0,0,0,0-.26A.38.38,0,0,1,21.88,29.21Z"/><path class="cls-1" d="M27,32.45a.52.52,0,0,1,.14-.08l.06,0,0-.08A.34.34,0,0,0,27,32.45Z"/><path class="cls-1" d="M27.16,31.89l.06,0,.06-.06a.12.12,0,0,0-.08,0S27.14,31.85,27.16,31.89Z"/><path class="cls-1" d="M27,32.91a.07.07,0,0,1,0,0s.06,0,.06,0v0a.07.07,0,0,0,0,0Z"/><path class="cls-1" d="M21.48,24.33v0a0,0,0,0,0,0,0c-.06.08-.14.16-.14.24a.15.15,0,0,0,0,.1.22.22,0,0,0,.16,0,.2.2,0,0,0,.12-.1A.26.26,0,0,1,21.48,24.33Z"/><path class="cls-1" d="M21.58,22.43v0l0,.06.06,0a.22.22,0,0,1,.16,0s-.1,0-.18,0Z"/><path class="cls-1" d="M29.16,31.71c0,.06,0,.1,0,.12a.07.07,0,0,0,.06,0h.06a.07.07,0,0,0,0-.06.2.2,0,0,0-.1-.16S29.18,31.65,29.16,31.71Z"/><path class="cls-1" d="M28.58,32.17l0,0,.06,0,0,0a0,0,0,0,0,0,0Z"/><path class="cls-1" d="M28.84,32.83a.12.12,0,0,0,0,.08s0,0,.06-.08a.15.15,0,0,1,0-.1v0C28.88,32.69,28.86,32.71,28.84,32.83Z"/><path class="cls-1" d="M28.1,32.29H28a.22.22,0,0,1,.12.2.14.14,0,0,0,.08-.12S28.24,32.31,28.1,32.29Z"/><path class="cls-1" d="M27.54,32.13h0l.32.12-.08-.06C27.7,32.11,27.62,32.07,27.54,32.13Z"/><path class="cls-1" d="M27.36,32.49a.07.07,0,0,0,0,0l.06,0a.07.07,0,0,0-.08-.08Z"/><path class="cls-1" d="M16.82,25.81a.54.54,0,0,0-.36.16l-.12.1s0,.06,0,.1a.76.76,0,0,0,.06.12s0,0,.1-.06a.18.18,0,0,1-.08-.16.37.37,0,0,1,.12-.16.22.22,0,0,1,.16,0c.06,0,.06.1.08.14h.08a.15.15,0,0,1,0-.08A.22.22,0,0,1,16.82,25.81Z"/><path class="cls-1" d="M20,28.47s0,0,0-.06,0-.12,0-.14a.15.15,0,0,0-.1,0h0a.32.32,0,0,1,.06.16C20,28.45,20,28.47,20,28.47Z"/><path class="cls-1" d="M20.22,27.29h0a0,0,0,0,0,0,0l.08.06S20.24,27.33,20.22,27.29Z"/><path class="cls-1" d="M20.68,23.09s0,0,0,0-.08,0-.12.12a.07.07,0,0,1,.06,0C20.68,23.13,20.68,23.13,20.68,23.09Z"/><path class="cls-1" d="M19.56,27.59c0-.06.06-.12,0-.14a.21.21,0,0,0-.12-.06.18.18,0,0,0,0,.14l0,0S19.54,27.59,19.56,27.59Z"/><path class="cls-1" d="M20.66,26.91a.07.07,0,0,0-.06,0c0,.06,0,.08,0,.1a.12.12,0,0,0,.08,0A.15.15,0,0,0,20.66,26.91Z"/><path class="cls-1" d="M20.72,21.45l0-.1c-.06,0-.08.06-.14.1A.42.42,0,0,0,20.72,21.45Z"/><path class="cls-1" d="M16,23.49l-.12.2-.08-.22-.06.08a0,0,0,0,1,0,0,.57.57,0,0,0,.26.36s0,0,0-.12a.43.43,0,0,1,0-.16A.23.23,0,0,0,16,23.49Z"/><path class="cls-1" d="M16.16,22.47s0,0,0,.06,0,0,0,0,0-.1,0-.14l-.06,0a1,1,0,0,0-.24,0l.18.16Z"/><path class="cls-1" d="M19.52,28.49h0l.1-.08s0,0,0,0h-.08a.07.07,0,0,0-.06,0s0,.06,0,.08Z"/><path class="cls-1" d="M17,23.85v0a0,0,0,0,0,0,0l-.06.06a.07.07,0,0,0,.06,0S16.94,23.87,17,23.85Z"/><path class="cls-1" d="M17.3,24.81a.15.15,0,0,1,.08-.08.22.22,0,0,1,0-.22s0,0,0-.06,0,0,0,0a0,0,0,0,0,0,0,.42.42,0,0,0-.2.22s0,.08.06.14S17.3,24.79,17.3,24.81Z"/><path class="cls-1" d="M15.84,27.77h0a.18.18,0,0,0-.1.06s0,.1-.06.14a.45.45,0,0,1,.22-.1,0,0,0,0,0,0,0s0,0,0,0S15.86,27.79,15.84,27.77Z"/><path class="cls-1" d="M20.66,31h0l.1,0a.07.07,0,0,0,.06,0s0,0-.08,0S20.68,31,20.66,31Z"/><path class="cls-1" d="M21.2,21.95s0,0,0,0l.12-.06a.16.16,0,0,0,0-.16l-.12.1C21.22,21.89,21.2,21.93,21.2,21.95Z"/><path class="cls-1" d="M21.12,21.07c0-.06.08-.06.14-.08s0-.1-.06-.1a.17.17,0,0,0-.14.08,2.19,2.19,0,0,0-.18.22s0,0,0,0a.16.16,0,0,0,.14,0A.21.21,0,0,0,21.12,21.07Z"/><path class="cls-1" d="M21.34,23.81l.06,0,.06,0v0a.35.35,0,0,1,0-.14v0A1.17,1.17,0,0,0,21.34,23.81Z"/><path class="cls-1" d="M21.58,23.11s0,0,0-.08v0s0,0,0,0h0v.1s0,0,0,0Z"/><path class="cls-1" d="M21.16,27.81s0,.06.12,0v0c-.06-.06-.08-.06-.12-.06Z"/><path class="cls-1" d="M21,29.21s-.06,0-.08,0h-.06s-.08,0-.1,0-.12,0-.12.06,0,0,.06,0l0,0c.08,0,.24,0,.26-.06Z"/><path class="cls-1" d="M20.88,27.31a.24.24,0,0,1,.26,0,0,0,0,0,0,0,0s0,0,0,0-.08-.14-.16-.14a.29.29,0,0,0-.12,0h0s0,0,0,.06a.48.48,0,0,0,0,.14S20.78,27.35,20.88,27.31Z"/><path class="cls-1" d="M21,22.95s0,.06.06.08v0s0,0,0-.06Z"/><path class="cls-1" d="M20.9,25.79a0,0,0,0,0,0,0v0a.86.86,0,0,1,0-.1.28.28,0,0,1,0-.12v0h0a.14.14,0,0,0-.12.08.08.08,0,0,0,0,.06C20.8,25.71,20.84,25.79,20.9,25.79Z"/><path class="cls-1" d="M21,21.65l0,0,0,0h-.08s-.06,0-.08,0h0a.43.43,0,0,0,0,.22C20.84,21.73,20.92,21.69,21,21.65Z"/><path class="cls-1" d="M16.58,22s0,0,0-.06l-.06.18v0C16.54,22.13,16.6,22.09,16.58,22Z"/><path class="cls-1" d="M15.06,30.13a0,0,0,0,1,0,0v0l.06,0,0,0h0a.12.12,0,0,0,.08,0v-.08h0A.12.12,0,0,1,15.06,30.13Z"/><path class="cls-1" d="M14.9,29.51h0a.07.07,0,0,0,0,0s0,0,.06.08a.15.15,0,0,1,0,.08s0,.06,0,.06l0,0a.17.17,0,0,0,0-.14A.43.43,0,0,0,14.9,29.51Z"/><path class="cls-1" d="M15.06,32.93a0,0,0,0,1,0,0h0c0,.06.06.08.08.1s.06,0,.08,0,0,0-.06-.06A.07.07,0,0,1,15.06,32.93Z"/><path class="cls-1" d="M14.94,32.09s0,0,0,0,0,0,0,0v0l-.06.06Z"/><path class="cls-1" d="M15.62,23.11a.21.21,0,0,1,.2.08.28.28,0,0,1,0,.24l.16,0a.07.07,0,0,1,0,0,.39.39,0,0,1-.06-.16l0-.06,0-.18a1.06,1.06,0,0,0-.16.08S15.64,23.11,15.62,23.11Z"/><path class="cls-1" d="M15.32,31.83v0s0,0,0-.06v0S15.32,31.79,15.32,31.83Z"/><path class="cls-1" d="M15.52,24.21a.07.07,0,0,0,0,.06s0,0,.1.06Z"/><path class="cls-1" d="M14.64,28.07v.12a.24.24,0,0,1,0,.12h.12l.08,0v0A.45.45,0,0,0,14.64,28.07Z"/><path class="cls-1" d="M15.78,27.25c0-.06-.06-.12-.12-.18l0,0a.55.55,0,0,0,.08.32A.14.14,0,0,0,15.78,27.25Z"/><path class="cls-1" d="M15.44,30.57s0,0,0,0l-.08.06v0s0,.08,0,.1h0c.06,0,.1,0,.1-.06a.16.16,0,0,0,0-.16A.06.06,0,0,0,15.44,30.57Z"/><path class="cls-1" d="M15.4,25.43a.21.21,0,0,0,0,.18l.1.06a.86.86,0,0,1-.12-.28Z"/><path class="cls-1" d="M14.94,31.31a.57.57,0,0,1,0,.18c0,.08-.06.12,0,.16a.31.31,0,0,0,.1-.26v-.06s0,0,0,0,0,0,0,0Z"/><path class="cls-1" d="M15.36,28l0,0s0,0-.08.06l.08,0S15.36,28,15.36,28Z"/><path class="cls-1" d="M15.62,22.41a.34.34,0,0,1-.26.08.35.35,0,0,0-.24.12c.2.06.3.06.38,0A.53.53,0,0,0,15.62,22.41Z"/><path class="cls-1" d="M15.36,23.81c0-.08.06-.18,0-.2s0,0,0,0a.23.23,0,0,1-.12.12c-.06,0-.1.06-.16.08s0,0,0,0A.26.26,0,0,1,15,24c.06,0,.1,0,.18-.08A.52.52,0,0,1,15.36,23.81Z"/><path class="cls-1" d="M15.16,24.73h0s0,.06,0,.1a.44.44,0,0,1,0,.28.17.17,0,0,1,.12.08s0,0,0,.06a1.31,1.31,0,0,1,0-.48A.33.33,0,0,1,15.16,24.73Z"/><path class="cls-1" d="M15.18,28.95a.1.1,0,0,0,0,.08.35.35,0,0,0,.14,0l.08,0-.1-.06h-.16Z"/><path class="cls-1" d="M14.9,22.49v-.1l0,0a.26.26,0,0,1,0-.12v-.06l-.08,0h0s-.1,0-.1,0,.1.24.16.26Z"/><path class="cls-1" d="M14.52,26.75c0-.06,0-.1,0-.12A.26.26,0,0,0,14.52,26.75Z"/><path class="cls-1" d="M15,24.27a.08.08,0,0,0,0-.06l-.08-.12s0,0,0,0a.34.34,0,0,1-.2-.24.21.21,0,0,0,0,.16C14.64,24,14.92,24.27,15,24.27Z"/><path class="cls-1" d="M15.58,20.81a.34.34,0,0,1-.14,0l.12.06S15.58,20.85,15.58,20.81Z"/><path class="cls-1" d="M15,21.29h0l-.06,0,.06,0Z"/><path class="cls-1" d="M15,21.43a.29.29,0,0,0,.14,0,.91.91,0,0,1,.28.14l0,0s.06,0,.1,0a.28.28,0,0,1,.08.06l.06,0,0-.06a.15.15,0,0,0,0-.1s0,0-.06,0a.66.66,0,0,1-.62-.24l0,0S15,21.43,15,21.43Z"/><path class="cls-1" d="M20.1,31.61a.18.18,0,0,1-.12-.12.13.13,0,0,1,0-.12v-.06a.12.12,0,0,0,0,.1,1.29,1.29,0,0,0,0,.3c0,.08,0,.1,0,.12a.5.5,0,0,0,.08-.12.2.2,0,0,1,.1-.08l0,0Z"/><path class="cls-1" d="M40.43,30.93s0,0,0,.06a0,0,0,0,1,0,0s.06,0,.06,0,0,0,0-.08Z"/><path class="cls-1" d="M40.63,30.69s-.06-.06-.1-.08v0a0,0,0,0,1,0,0s0,.06.06.08v0Z"/><path class="cls-1" d="M44.81,26.31s0,0,0,0a.09.09,0,0,1,0,.12l0,0v-.08S44.85,26.33,44.81,26.31Z"/><path class="cls-1" d="M42.27,26a.21.21,0,0,1-.18-.16.07.07,0,0,0,0,0,.85.85,0,0,0,0,.1.3.3,0,0,1,0,.14.12.12,0,0,0,0,.08h0c.12,0,.3,0,.32-.18v0s0,0,0,0A.13.13,0,0,1,42.27,26Z"/><path class="cls-1" d="M44.55,26.09s0,0,.1.06,0-.06-.06-.12S44.55,26.09,44.55,26.09Z"/><path class="cls-1" d="M43,26H43s0,0,0,.1.08.24.2.26l-.1-.24.24,0-.14.2a.6.6,0,0,0,.2,0h.06C43.35,26,43.31,26,43,26Z"/><path class="cls-1" d="M41.71,32.75a.16.16,0,0,0,0,.06l.1-.08a.15.15,0,0,0-.08,0A0,0,0,0,0,41.71,32.75Z"/><path class="cls-1" d="M42.13,32.33h.12l0,0-.1,0-.1,0a.09.09,0,0,0-.06.08l0,0Z"/><path class="cls-1" d="M41.15,31.75h-.06a.09.09,0,0,0-.06,0v0c0,.06.08.12.1.12a.12.12,0,0,0,.08,0,.18.18,0,0,0,0-.1S41.23,31.75,41.15,31.75Z"/><path class="cls-1" d="M40.63,32.21s0,0,0,.08,0,0,0,.06a.12.12,0,0,0,0-.08s0,0,0,0Z"/><path class="cls-1" d="M40.61,31.29v.06a.17.17,0,0,1,0,.14.29.29,0,0,0,0,.14.26.26,0,0,1,.24-.2s.06,0,.08,0a.66.66,0,0,0-.3-.1Z"/><path class="cls-1" d="M42.38,32.33a.92.92,0,0,0,.55-.28h0S43,32,43,32a.54.54,0,0,0-.18,0,.94.94,0,0,1-.32,0,.28.28,0,0,0,0,.2.16.16,0,0,1,0,.18Z"/><path class="cls-1" d="M40.59,25a.07.07,0,0,0,0-.06.12.12,0,0,0,0-.08s0,0,0,0-.08.06-.12.1,0,0,0,0a.31.31,0,0,1,0,.2A.86.86,0,0,1,40.59,25Z"/><path class="cls-1" d="M42.23,26.67h0a.09.09,0,0,0-.06,0l0,.06s0,.08,0,.12a.14.14,0,0,0,.12-.08.15.15,0,0,0,0-.14A.12.12,0,0,0,42.23,26.67Z"/><path class="cls-1" d="M40.91,26.39v-.08l0,0,0,.1c0,.14,0,.18.18.24s0,0,0-.06l.14-.06s-.06,0-.12,0S40.91,26.53,40.91,26.39Z"/><path class="cls-1" d="M40.33,23a.49.49,0,0,1-.2-.24.45.45,0,0,0-.12-.24.19.19,0,0,0-.1,0,.24.24,0,0,0-.1,0l.06,0c.08,0,.16.1.12.2a.1.1,0,0,1,0,.08l0,.06v0a.27.27,0,0,1,.16-.06.25.25,0,0,1,.2.14s.06.08.08.08h.12A1,1,0,0,0,40.33,23Z"/><path class="cls-1" d="M40,25.27a.15.15,0,0,0-.08,0s0,0,0,0l.26.16.06-.26A.34.34,0,0,1,40,25.27Z"/><path class="cls-1" d="M40.41,25.73l.06.14a.18.18,0,0,0,.18,0h0C40.55,25.87,40.45,25.85,40.41,25.73Z"/><path class="cls-1" d="M41.37,25.65v0s0,0-.06,0,0,.06,0,.06a.21.21,0,0,0,.1,0c.06,0,.14,0,.18.06h0l.06,0s0,0,0,0A.42.42,0,0,0,41.37,25.65Z"/><path class="cls-1" d="M41.73,21.47v.18h0a.18.18,0,0,0,.1-.06h0v0a.4.4,0,0,0-.12-.08A0,0,0,0,0,41.73,21.47Z"/><path class="cls-1" d="M41,24.83a.07.07,0,0,1,0,0,0,0,0,0,1,0,0h0v0l0,0S40.95,24.85,41,24.83Z"/><path class="cls-1" d="M41.37,22.55s0,0,0-.08-.08-.06-.2,0a.42.42,0,0,1-.22.08h-.08l-.08.08a.29.29,0,0,0,.16.18c.08,0,.16,0,.22-.08l.1-.06C41.31,22.63,41.37,22.61,41.37,22.55Z"/><path class="cls-1" d="M41.09,23.89S41,24,41,24a0,0,0,0,1,0,0s.06-.06.08-.14Z"/><path class="cls-1" d="M46.07,27a.3.3,0,0,1,.18,0,.35.35,0,0,1,.2.06s0,0,0,0l0-.22a.39.39,0,0,1-.16,0c-.06,0-.14-.06-.22-.16s0,0,0,0a.32.32,0,0,1-.12.08l.08.1S46,27,46.07,27Z"/><path class="cls-1" d="M46.19,32.33,46,32.17s0,0,0,.06a.4.4,0,0,1,0,.34v0s.08,0,.1,0a.19.19,0,0,0,.12-.16S46.25,32.37,46.19,32.33Z"/><path class="cls-1" d="M46.35,30.85a.07.07,0,0,1,0,0,.15.15,0,0,1,0,.16s0,0,0,.06h0a.38.38,0,0,0,.14,0v0A.4.4,0,0,0,46.35,30.85Z"/><path class="cls-1" d="M46,29.25v.08s0,.1,0,.12.06,0,.06,0a.09.09,0,0,0,0-.1L46,29.19Z"/><path class="cls-1" d="M46.43,27.91s0,0,0,.08v.08h.06v0a.15.15,0,0,1,0-.1S46.45,27.91,46.43,27.91Z"/><path class="cls-1" d="M40.17,24c0-.06,0-.12-.08-.2s0,0,0,0a1,1,0,0,0-.12.47.2.2,0,0,1,.06-.09C40.11,24.09,40.17,24,40.17,24Z"/><path class="cls-1" d="M47,30.35c-.14,0-.2,0-.22.16v0h0c.18,0,.26-.06.28-.18a.07.07,0,0,1,0,0h0A.22.22,0,0,1,47,30.35Z"/><path class="cls-1" d="M45.65,25.85v0s0,.06.08,0,0,0,.08,0a.38.38,0,0,0-.14,0Z"/><path class="cls-1" d="M46.45,27.79s0,.06,0,.1,0-.08.06-.12A.07.07,0,0,0,46.45,27.79Z"/><path class="cls-1" d="M46.78,4.7H13.22a8.4,8.4,0,0,1-8,8V41a8.4,8.4,0,0,1,8,8H46.78a8.4,8.4,0,0,1,8-8V12.71A8.4,8.4,0,0,1,46.78,4.7ZM23,33.19a.87.87,0,0,1,.1.32.34.34,0,0,1,0,.32.39.39,0,0,1-.28.1H20.12c-.34,0-.48-.24-.58-.48-.18-.4-.36-.82-.52-1.24s-.34-.8-.52-1.2l-1.68-3.84,0-.1L16.74,27s0,.08,0,.14v5.08a1.52,1.52,0,0,0,.2.78,1.73,1.73,0,0,1,.18.34.5.5,0,0,1,0,.42.5.5,0,0,1-.36.14h-3c-.24,0-.34-.1-.38-.18a.35.35,0,0,1,.06-.4,3.7,3.7,0,0,0,.36-2V21.81a3.22,3.22,0,0,0-.34-1.48c-.08-.2-.14-.36-.08-.46s.24-.12.46-.14h.86c.46,0,1,0,1.44,0a.82.82,0,0,1,.88.58c.36.88.74,1.8,1.12,2.68l.42,1L19,25c.22.48.42,1,.62,1.46a.07.07,0,0,1,0,.06.24.24,0,0,0,0,.08s0,0,0,0a.09.09,0,0,0,0-.1V23.25c0-.44,0-.9,0-1.36a3,3,0,0,0-.3-1.54c-.12-.22-.14-.36-.08-.46s.26-.16.42-.16h2.9q.39,0,.48.18c.06.1,0,.24-.1.44a2.61,2.61,0,0,0-.3,1.5V31.93A2,2,0,0,0,23,33.19Zm8.22-.24v.54c0,.38-.26.44-.54.44H25.6c-.5,0-.58-.08-.58-.58s0-1.18,0-1.88c0-.5.12-.6.58-.62,1.62,0,3.3,0,5,0,.48,0,.62.12.62.58S31.24,32.45,31.22,32.95Zm.7-10.84a3.62,3.62,0,0,1,0,.46v3.62a1.5,1.5,0,0,1-.48,1.18l0,0a2.16,2.16,0,0,1-2.22.92h-.88c-.66,0-1.32,0-2,0h0a1,1,0,0,1-.78-.32l0,0a3.55,3.55,0,0,0-.58-.52,1.64,1.64,0,0,1-.6-1.54c0-1.38.06-2.56,0-3.74a1.81,1.81,0,0,1,.64-1.66.16.16,0,0,0,.08-.08,2.15,2.15,0,0,1,1.82-.72c.84.06,1.72,0,2.56,0a5.56,5.56,0,0,1,.56,0,1.29,1.29,0,0,1,.92.32l.26.26C32,21.11,32,21.13,31.92,22.11Zm16.19,8.62c0,.28,0,.58,0,.86a2.12,2.12,0,0,1-.74,1.62,2.63,2.63,0,0,1-1.94.76h-.16c-1.2,0-2.42,0-3.62,0h-.48A1.57,1.57,0,0,1,40,33.51l-.4-.4c-.54-.52-.54-.52-.54-1.24,0-.12,0-.28,0-.48s0-.28,0-.42V30c0-.5.1-.58.56-.58H42c.2,0,.34,0,.4.14s.06.22,0,.44l-.12.3a2,2,0,0,0-.14.3.19.19,0,0,0,.2.28h2.36a.26.26,0,0,0,.28-.28v-.06c0-.76,0-1.54,0-2.3,0-.24-.16-.34-.48-.34H43.19c-.62,0-1.26,0-1.88,0a1.93,1.93,0,0,1-1.38-.52,2.33,2.33,0,0,1-.88-2.1c.06-1.18,0-2.38,0-3.54,0-.48,0-1,0-1.48s0-.6.6-.6c.92,0,1.84,0,2.76,0l1.18,0h3.68c.6,0,.7.08.7.68v2.16a.57.57,0,0,1-.16.48.37.37,0,0,1-.38,0,7.54,7.54,0,0,0-3.26-.32,17,17,0,0,1-1.74,0,.28.28,0,0,0-.26.06c-.06,0-.08.14-.08.26,0,.28,0,.54,0,.82v.64c0,.42,0,.42.42.42.22,0,.44,0,.66,0,.8,0,1.64,0,2.46,0a2.15,2.15,0,0,1,1.6.64,2.41,2.41,0,0,1,.9,2.22C48.07,28.73,48.09,29.73,48.11,30.73Z"/><path class="cls-1" d="M46.85,31.17s0,0,0,.06v.06s0,0,0-.06,0-.06,0-.06Z"/><path class="cls-1" d="M46.63,27.31l0,0-.1,0a.08.08,0,0,0-.06,0v0s0,0,.06,0h0c.1,0,.18,0,.22,0l-.06,0S46.65,27.31,46.63,27.31Z"/><path class="cls-1" d="M42.55,32.73h0s0,.06-.06.1,0,.08,0,.1a.25.25,0,0,1-.26.1h-.08a.18.18,0,0,0-.16.1l.12,0a.58.58,0,0,1,.2,0,.38.38,0,0,1,.2.06s.08,0,.1,0,0,0,0-.06a.24.24,0,0,1,0-.28A.07.07,0,0,1,42.55,32.73Z"/><path class="cls-1" d="M43.57,32.39l0,0,.06,0v0S43.61,32.39,43.57,32.39Z"/><path class="cls-1" d="M44.29,32s-.14-.08-.18-.06,0,0,0,0h.08a.16.16,0,0,1,.14.06c.06.08,0,.16,0,.24a.25.25,0,0,0,0,.14s.08.06.12.08h0c0-.08,0-.16,0-.2s.14-.16.14-.16-.1-.06-.16-.08Z"/><path class="cls-1" d="M44.31,33v0s0,.08,0,.1,0,0,.06,0,0,0,.06-.08l0-.06a.12.12,0,0,0-.08,0Z"/><path class="cls-1" d="M42.91,32.55s0,0,0,.06a.23.23,0,0,1,0-.2l0,0a.26.26,0,0,0-.12.08Z"/><path class="cls-1" d="M27.92,21.15v0l0,0v.08l0,0A.92.92,0,0,0,27.92,21.15Z"/><path class="cls-1" d="M46.93,29.43h-.06c-.06,0-.08,0-.1.12l0,0C46.87,29.53,46.93,29.49,46.93,29.43Z"/><path class="cls-1" d="M45.47,32.27v0s0,0,0,0,0,0,0,.08a.35.35,0,0,1,0,.1s.06,0,.06,0,0,0,0-.08S45.51,32.27,45.47,32.27Z"/><path class="cls-1" d="M45.43,26.31s-.06,0-.1,0,0,.06,0,.12.06,0,.08,0,0,0,0-.06S45.45,26.31,45.43,26.31Z"/><path class="cls-1" d="M45.69,31.31s0,0-.06,0a1,1,0,0,0,0,.1s.06,0,.14-.1S45.71,31.29,45.69,31.31Z"/><path class="cls-1" d="M45.25,27.15a0,0,0,0,0,0,0s0,0,0,.06,0,0,0,.06l0,0a0,0,0,0,0,0,0c0-.08,0-.1,0-.1A0,0,0,0,0,45.25,27.15Z"/><path class="cls-1" d="M45,33S45,33,45,33v0l0,0s0,0,.06-.06h0s0,0,0,0S45,32.95,45,33Z"/><path class="cls-1" d="M43.45,31.95a.49.49,0,0,0,0-.16.33.33,0,0,0-.06.2Z"/><path class="cls-1" d="M26.36,25.93l.1-.06,0-.08s-.06-.06-.08-.06,0,0-.06,0a.53.53,0,0,1-.58.2l.12.26A1.74,1.74,0,0,1,26.2,26Z"/><path class="cls-1" d="M27.26,27.07c0,.06,0,.12,0,.16s0,0,.1,0h0l-.08-.1A.16.16,0,0,0,27.26,27.07Z"/><path class="cls-1" d="M26.18,27.07a.37.37,0,0,0,.08.2s0,0,0-.06.12-.1.18-.14.08,0,.1-.06a.72.72,0,0,0-.28.06S26.2,27.07,26.18,27.07Z"/><path class="cls-1" d="M25.76,24.61l-.34-.14a.34.34,0,0,1-.12.16.6.6,0,0,0,.38.08C25.74,24.71,25.74,24.71,25.76,24.61Z"/><path class="cls-1" d="M25.54,25.81a2.11,2.11,0,0,0,.1-.26,0,0,0,0,0,0,0s-.08-.1-.12-.1-.1.12-.1.26v.06s0,.06.14.06Z"/><path class="cls-1" d="M26.88,22.47s0,0-.06-.06a0,0,0,0,0,0,0s0,0,0,0a.07.07,0,0,1,0,0,.09.09,0,0,0,.06,0S26.86,22.49,26.88,22.47Z"/><path class="cls-1" d="M26.9,26.19a.43.43,0,0,0-.08.54l.06-.16a.61.61,0,0,1,.14-.36v0H26.9Z"/><path class="cls-1" d="M27,21.59v0l.06.1-.1,0,0,0,0,0c-.08,0-.12.06-.1.08s.06,0,.08,0l.1,0c.08,0,.1,0,.16-.1a.11.11,0,0,1,0-.08Z"/><path class="cls-1" d="M26.48,25.15s-.1,0-.14,0a.07.07,0,0,0,0,0v0c0,.08.1.14.2.16h0a.45.45,0,0,0,.06-.14.09.09,0,0,0,0-.06Z"/><path class="cls-1" d="M40,24.81l0-.1v0a.32.32,0,0,1,.06-.18.34.34,0,0,1-.19-.18,1.23,1.23,0,0,0,0,.28.22.22,0,0,1-.06.16.07.07,0,0,0,0,0l.06,0Z"/><path class="cls-1" d="M25.18,23.75s0,0,0,.06,0,0,0,.06.06,0,.06,0,0-.06,0-.08Z"/><path class="cls-1" d="M25.56,26.41h0c-.1,0-.1,0-.1,0s0,.06.12.08a.13.13,0,0,1,.1-.08l.06,0s0,0,0-.08h-.18Z"/><path class="cls-1" d="M27.44,21.57l.08,0a.11.11,0,0,1,0-.08s0-.06,0-.06a.4.4,0,0,0-.1,0h0c-.12,0-.2,0-.22.1a.19.19,0,0,1,.08.1Z"/><path class="cls-1" d="M26.32,20.95h.06s.14,0,.14,0v0h0s-.08,0-.12,0H26.3s-.06,0-.06,0v0h.08Z"/><path class="cls-1" d="M27.44,20.55l0,0,0,0a.08.08,0,0,0-.08,0v0C27.42,20.59,27.44,20.57,27.44,20.55Z"/><path class="cls-1" d="M26.28,21.83l.06.06c.06.08.08.1.12.06l0-.08s0,0,0,0A.09.09,0,0,0,26.28,21.83Z"/><path class="cls-1" d="M27.36,23.13v1.2c0,.48,0,.72.08.82s.26.08.58.08l.18,0,.34,0c.22,0,.32-.1.32-.3s0-.42,0-.62v-.58c0-.22,0-.44,0-.66a.35.35,0,0,0-.06-.24.24.24,0,0,0-.24-.06h-.84a.3.3,0,0,0-.28.06A.42.42,0,0,0,27.36,23.13Z"/><path class="cls-1" d="M25.6,22.45a.15.15,0,0,0,0,.08s0,0,.08,0a.35.35,0,0,0,.22,0v-.06l0,0a.22.22,0,0,1-.22,0S25.62,22.47,25.6,22.45Z"/><path class="cls-1" d="M25.62,21.27c.06,0,.08,0,.08,0a0,0,0,0,0,0,0v-.06h-.16a0,0,0,0,0,0,0S25.58,21.25,25.62,21.27Z"/><path class="cls-1" d="M26.18,23.79s.06,0,.06-.08,0-.08,0-.12h0s0,0,0,0,0,.14,0,.16Z"/><path class="cls-1" d="M25.6,23.71c-.06,0-.08.1-.06.16a.25.25,0,0,0,0,.12l0,.2c.08-.06.1-.16.06-.32a.22.22,0,0,1,0-.1v-.06Z"/><path class="cls-1" d="M25.72,21.75a0,0,0,0,1,0,0c-.12,0-.18.06-.2.16a.4.4,0,0,0,.24-.16A0,0,0,0,0,25.72,21.75Z"/><path class="cls-1" d="M26.78,21.39s.06.06.08.06a.29.29,0,0,0,0-.14.11.11,0,0,0,0-.08h0a.07.07,0,0,0-.06,0l0,0s0,0,.06.08A.07.07,0,0,1,26.78,21.39Z"/><path class="cls-1" d="M44.41,20.85s0,0,0-.06l-.06,0s0,.06,0,.08A.12.12,0,0,0,44.41,20.85Z"/><path class="cls-1" d="M43,21.23h.08a.55.55,0,0,0-.26,0h-.06l.08,0S42.93,21.25,43,21.23Z"/><path class="cls-1" d="M43.81,21s.06.08.08.12,0,.06,0,.08a.28.28,0,0,1,.18-.22.33.33,0,0,1-.2-.06s0,0,0,0l-.1,0s0,0,0,0,0,.06.06.08S43.81,21,43.81,21Z"/><path class="cls-1" d="M44.95,21.33a.15.15,0,0,1,0-.08l-.12,0a.51.51,0,0,1-.3,0l-.12,0a.55.55,0,0,0,.46.16A.15.15,0,0,1,44.95,21.33Z"/><path class="cls-1" d="M45,20.87s.1,0,.14,0,.16,0,.16,0a.17.17,0,0,0,0-.12.32.32,0,0,0-.24-.08.43.43,0,0,0-.16,0l-.08,0c-.06.12,0,.16,0,.18S44.83,20.89,45,20.87Z"/><path class="cls-1" d="M41,21.51v0l.08,0S41.07,21.51,41,21.51Z"/><path class="cls-1" d="M40.69,22.53l0,0a0,0,0,0,0,0,0s0,0,0,0h0a.06.06,0,0,0,0,0S40.67,22.51,40.69,22.53Z"/><path class="cls-1" d="M40.29,21.83l.2,0-.12-.12-.12-.12a2.77,2.77,0,0,0-.24-.24l-.1,0v0c.12.14.24.3.36.42Z"/><path class="cls-1" d="M40.71,20.87v0l0,0s0,0,0-.06v.06S40.67,20.87,40.71,20.87Z"/><path class="cls-1" d="M41.37,21.91v0a.31.31,0,0,0-.16.16,0,0,0,0,0,0,0C41.29,22.07,41.31,22,41.37,21.91Z"/><path class="cls-1" d="M46.69,21.13h0c.06,0,.06,0,.06,0s-.06-.06-.08-.06h0s-.08.06-.06.1S46.69,21.15,46.69,21.13Z"/><path class="cls-1" d="M28.74,26.83l-.06-.06-.14-.12h0a0,0,0,0,0,0,0c0-.06,0-.08-.06-.08h0a.07.07,0,0,0-.06,0,0,0,0,0,0,0,0l0,0a0,0,0,0,1,0,0l.2.26c0,.06.1.12.14.18a.24.24,0,0,1,.08-.16l-.14-.14Z"/><path class="cls-1" d="M29.32,21.25l.08.14c0-.06,0-.1,0-.12s0,0-.06,0Z"/><path class="cls-1" d="M30.26,26.37l-.14,0-.08,0a.15.15,0,0,0,0,.06c0,.1.12.14.26.18l.06,0s.06,0,.08-.1a.06.06,0,0,0,0,0C30.44,26.39,30.38,26.37,30.26,26.37Z"/><path class="cls-1" d="M29,27.31l0,0a.43.43,0,0,0,.24.2.32.32,0,0,0,.18-.12h-.1A.53.53,0,0,1,29,27.31Z"/><path class="cls-1" d="M27.72,26.13a.6.6,0,0,1-.18,0,.08.08,0,0,1-.06,0s-.06,0-.06,0v0s.06,0,.08,0l0,0a.15.15,0,0,0,.08,0C27.68,26.17,27.72,26.17,27.72,26.13Z"/><path class="cls-1" d="M28.28,27c-.18-.16-.32-.24-.5-.1s-.08,0-.12,0a.45.45,0,0,0,.1.08h.18a.59.59,0,0,1,.34.12v0s.08,0,.08,0l0,0Z"/><path class="cls-1" d="M30,27a0,0,0,0,1,0,0l-.06,0-.16,0A.2.2,0,0,1,29.6,27l0,0s0,0,0,0-.1.14-.08.2,0,0,0,.06a.63.63,0,0,1,.52-.14.55.55,0,0,0,.18,0h-.06Z"/><path class="cls-1" d="M30.54,21.57s0,0,0-.06v0l-.08.08Z"/><path class="cls-1" d="M30.74,22.25v0s0,.06,0,.08v.06a.17.17,0,0,0,.12-.06.43.43,0,0,1,.1-.08l-.18-.16S30.74,22.19,30.74,22.25Z"/><path class="cls-1" d="M50.43,0H9.57A9.57,9.57,0,0,1,0,9.57V44.18a9.57,9.57,0,0,1,9.57,9.57H50.43A9.57,9.57,0,0,1,60,44.18V9.57A9.57,9.57,0,0,1,50.43,0Zm6,42.28H56a7.94,7.94,0,0,0-7.93,7.93v.38H11.88v-.37A7.94,7.94,0,0,0,4,42.28H3.58V11.47H4a7.94,7.94,0,0,0,7.93-7.93V3.17H48.12v.38A7.94,7.94,0,0,0,56,11.47h.38Z"/></svg>