<?xml version="1.0" encoding="utf-8"?>
<!-- Generator: Adobe Illustrator 21.0.2, SVG Export Plug-In . SVG Version: 6.00 Build 0)  -->
<svg version="1.1" id="Layer_1" xmlns="http://www.w3.org/2000/svg" xmlns:xlink="http://www.w3.org/1999/xlink" x="0px" y="0px"
	 viewBox="0 0 97.1 73.5" style="enable-background:new 0 0 97.1 73.5;" xml:space="preserve">
<style type="text/css">
	.st0{fill:#FFFFFF;}
</style>
<path class="st0" d="M92.8,20L50.6,62.2c-0.5,0.5-1.4,0.9-2.1,0.9s-1.5-0.4-2.1-0.9L4.3,20c-0.5-0.5-0.9-1.4-0.9-2.1
	c0-0.7,0.4-1.5,0.9-2.1l4.5-4.5c0.5-0.5,1.3-0.9,2.1-0.9c0.7,0,1.5,0.4,2.1,0.9l35.6,35.6l35.6-35.6c0.5-0.5,1.4-0.9,2.1-0.9
	c0.7,0,1.5,0.4,2.1,0.9l4.5,4.5c0.5,0.5,0.9,1.4,0.9,2.1C93.8,18.7,93.4,19.5,92.8,20z"/>
</svg>
