<svg id="Layer_1" data-name="Layer 1" xmlns="http://www.w3.org/2000/svg" viewBox="0 0 60 53.75"><defs><style>.cls-1{fill:#353535;}.cls-2{fill:#86754d;}</style></defs><title>story-button-1936-v2</title><rect class="cls-1" x="8.33" y="20.56" width="43.67" height="15.13"/><path class="cls-2" d="M25.74,27.47Z"/><path class="cls-2" d="M25.13,27.92h0l.07.07v-.07Z"/><path class="cls-2" d="M24.68,30.83c0,.06,0,.08.07.07s0,0,0-.08Z"/><path class="cls-2" d="M24.94,30.77l-.06-.08h0v.08a.54.54,0,0,0,.17.14h0A.47.47,0,0,1,24.94,30.77Z"/><path class="cls-2" d="M24.62,22.61a.11.11,0,0,1,0-.15l0,0h-.06a.07.07,0,0,0,0,.06.24.24,0,0,1-.17.13h0s0,.1-.06.13a.1.1,0,0,1-.11,0c-.06,0-.07-.08-.07-.14v-.08h-.06s.07.08.06.13a.25.25,0,0,1-.12.13H24a.09.09,0,0,0,0,.1h0a.41.41,0,0,1,.28-.07c.13,0,.22,0,.27-.13a.06.06,0,0,1,.06,0h.18s0,0,0-.1S24.62,22.62,24.62,22.61Z"/><path class="cls-2" d="M25.24,30.68h.17C25.31,30.61,25.27,30.63,25.24,30.68Z"/><path class="cls-2" d="M25.52,26.64h0a.08.08,0,0,1-.07.08h0l.07-.07Z"/><path class="cls-2" d="M25.46,29.58v.22l.07-.14a.14.14,0,0,0,0-.08h-.07Z"/><path class="cls-2" d="M25.59,28.25a.28.28,0,0,0,0,.11h.06a.23.23,0,0,0,0-.07Z"/><path class="cls-2" d="M24.26,30.3a.2.2,0,0,0,0,.08h.1a.22.22,0,0,1,.06.18h.11a.53.53,0,0,0-.18-.34C24.31,30.3,24.29,30.28,24.26,30.3Z"/><path class="cls-2" d="M25.31,28.6a.23.23,0,0,1-.07-.11h0S25.27,28.6,25.31,28.6Z"/><path class="cls-2" d="M25.41,24.46h0l-.08.08h0a.15.15,0,0,0,0,.1.09.09,0,0,1,.08.06h.06v-.13a.15.15,0,0,1,0-.1Z"/><path class="cls-2" d="M25,30.35h.14A.3.3,0,0,0,25,30.35Z"/><path class="cls-2" d="M23.77,26.52h0v.08a1.54,1.54,0,0,0,0,.27h0a.58.58,0,0,1,.15-.21.13.13,0,0,0,0-.07h0A.29.29,0,0,0,23.77,26.52Z"/><path class="cls-2" d="M24.3,26.49h-.06a.08.08,0,0,0,.08.08h0S24.33,26.49,24.3,26.49Z"/><path class="cls-2" d="M23.53,27Z"/><path class="cls-2" d="M24.15,30.51H24a.39.39,0,0,1,.18.13.1.1,0,0,0,.08.06h0a.18.18,0,0,1-.14-.21h0Z"/><path class="cls-2" d="M22.46,26.63h.07c.1,0,.17,0,.2-.14h0C22.56,26.5,22.49,26.53,22.46,26.63Z"/><path class="cls-2" d="M23.17,26.88a.18.18,0,0,0-.11,0V27h.08c.07,0,.08-.06.08-.1h-.06Z"/><path class="cls-2" d="M24.54,25.42a3.55,3.55,0,0,1,0-.85v-.49a.23.23,0,0,0-.18-.27H22.73a.24.24,0,0,0-.27.24V25.4a.25.25,0,0,0,.06.2.29.29,0,0,0,.21.06,2.89,2.89,0,0,1,.5,0h.46a4,4,0,0,1,.59,0,.27.27,0,0,0,.22-.08A.16.16,0,0,0,24.54,25.42Z"/><path class="cls-2" d="M23.49,30.55h.24A.3.3,0,0,0,23.49,30.55Z"/><path class="cls-2" d="M24.15,31h0a.31.31,0,0,0,0,.1.11.11,0,0,1,0,.07h0a.49.49,0,0,0,.18-.14h0Z"/><path class="cls-2" d="M23.26,30.68h-.14l.11.1h0v-.07Z"/><path class="cls-2" d="M22.7,30.51h0c0,.07,0,.1.1.11h0C22.81,30.54,22.77,30.52,22.7,30.51Z"/><path class="cls-2" d="M23.23,30.37Z"/><path class="cls-2" d="M31.41,22.87a.25.25,0,0,0-.1.2A.27.27,0,0,0,31.41,22.87Z"/><path class="cls-2" d="M32.07,26.31h0a.1.1,0,0,0,0,.06H32Z"/><path class="cls-2" d="M25.7,30.59h0v-.06h-.06S25.71,30.56,25.7,30.59Z"/><path class="cls-2" d="M29.82,29.82c-.07,0-.13-.08-.17-.15h0a.27.27,0,0,1,0,.11.12.12,0,0,0,.18.13.21.21,0,0,0,.2-.15h0S29.87,29.84,29.82,29.82Z"/><path class="cls-2" d="M32.59,26.75h0l-.06.06h0Z"/><path class="cls-2" d="M32.62,22.44a.07.07,0,0,0,0,.1h0c0,.06.07,0,.08,0v-.07h0A.08.08,0,0,1,32.62,22.44Z"/><path class="cls-2" d="M32.11,22.87a.21.21,0,0,1,0,.08h.06v-.1C32.17,22.75,32.11,22.86,32.11,22.87Z"/><path class="cls-2" d="M32.66,22.89Z"/><path class="cls-2" d="M30.33,30.56v.07h0S30.39,30.58,30.33,30.56Z"/><path class="cls-2" d="M32.17,30.65v.06h.06V30.5a.25.25,0,0,0-.08.08S32.18,30.63,32.17,30.65Z"/><path class="cls-2" d="M31.43,30.77h0v0Z"/><path class="cls-2" d="M30.64,31a.35.35,0,0,1-.13-.06c0,.06,0,.07.11.1h.08S30.7,31,30.64,31Z"/><path class="cls-2" d="M30.94,30.37h0a.16.16,0,0,0-.11.1.11.11,0,0,0,0,.06h.07a.3.3,0,0,1,.23.36l0,.05h0a.47.47,0,0,0,0-.36C31.06,30.48,31,30.38,30.94,30.37Z"/><path class="cls-2" d="M32,26.87Z"/><path class="cls-2" d="M31.58,23.07a.08.08,0,0,0,0,.06h0Z"/><path class="cls-2" d="M30,22.8v-.08a.18.18,0,0,1-.18.17H30Z"/><path class="cls-2" d="M29.92,23.63c0,.06-.06.08,0,.14s0,0,0,.06a.58.58,0,0,1,.25-.14h0L30,23.5A.54.54,0,0,1,29.92,23.63Z"/><path class="cls-2" d="M29.61,23.52h-.1v.08h0Z"/><path class="cls-2" d="M26,24.86a.12.12,0,0,1-.11-.07h0a.11.11,0,0,0,0,.07.2.2,0,0,0,.1.06h.07S26,24.88,26,24.86Z"/><path class="cls-2" d="M29.34,24a.53.53,0,0,0,.27.13h0a1.39,1.39,0,0,0-.22-.18A.07.07,0,0,0,29.34,24Z"/><path class="cls-2" d="M30.43,22.34h0l.11.06h0v-.06A.15.15,0,0,0,30.43,22.34Z"/><path class="cls-2" d="M23,22.93v.17h0A.12.12,0,0,1,23,23a.12.12,0,0,1,0-.08h0c0-.07,0-.1-.06-.1h0a.6.6,0,0,1,0,.07Z"/><path class="cls-2" d="M30.13,23h0a.12.12,0,0,0,.1,0h0a.08.08,0,0,0,0-.06Z"/><path class="cls-2" d="M30.55,22.73h0a.08.08,0,0,0,0-.08l-.06-.06a.28.28,0,0,0-.07.1h.14Z"/><path class="cls-2" d="M30.36,23.11h0v.07a.33.33,0,0,1,.2.1h0a.24.24,0,0,0,0-.1.49.49,0,0,0,0-.17Z"/><path class="cls-2" d="M17,27.87A.28.28,0,0,1,17,28h.08v-.11Z"/><path class="cls-2" d="M21.61,24.58h.06v-.13h-.06a.16.16,0,0,1-.18,0v.07a.36.36,0,0,0,.2.06Z"/><path class="cls-2" d="M21.46,23.78h0a.09.09,0,0,0,.08.1h0l-.07-.06C21.4,23.76,21.46,23.8,21.46,23.78Z"/><path class="cls-2" d="M21,25.91h0a.11.11,0,0,1,0-.06h0A.09.09,0,0,0,21,25.91Z"/><path class="cls-2" d="M20.92,24.61H21S20.92,24.6,20.92,24.61Z"/><path class="cls-2" d="M21.86,26.46h0a.38.38,0,0,0,0,.22h.06v-.15h-.06Z"/><path class="cls-2" d="M21.48,23.49a.07.07,0,0,0-.07-.07h.06Z"/><path class="cls-2" d="M21.15,25.62h-.07v.07h0S21.2,25.66,21.15,25.62Z"/><path class="cls-2" d="M21.55,26.38v.1h0v-.13h0Z"/><path class="cls-2" d="M17.49,23.78h0a.22.22,0,0,0,0-.1h-.07a.09.09,0,0,1,0,.1c0,.06,0,.07.06.07S17.49,23.8,17.49,23.78Z"/><path class="cls-2" d="M21.83,25.73Z"/><path class="cls-2" d="M21.36,22.93c-.08.07-.13.1-.1.2h0a.26.26,0,0,0,.08-.08A.33.33,0,0,0,21.36,22.93Z"/><path class="cls-2" d="M21.68,25a.15.15,0,0,0-.11,0h-.08a.29.29,0,0,0-.17.1L21.7,25Z"/><path class="cls-2" d="M17.51,26h0a.06.06,0,0,0-.06.06h.06Z"/><path class="cls-2" d="M17,23l.13.06c0-.13-.07-.15-.18-.17h0C16.86,22.93,16.89,22.94,17,23Z"/><path class="cls-2" d="M17,24.54c-.06.06-.1.08-.1.15H17c.11,0,.15-.07.14-.18h0A.2.2,0,0,1,17,24.54Z"/><path class="cls-2" d="M16.89,28.69h-.08v-.06h0v.08h.08Z"/><path class="cls-2" d="M23.26,23v0Z"/><path class="cls-2" d="M17.07,23.85h0v-.08h0a.1.1,0,0,1,0,.07Z"/><path class="cls-2" d="M17.25,25.86h0a.12.12,0,0,1,0-.07v-.07h0s-.08.06-.08.11h0A.08.08,0,0,0,17.25,25.86Z"/><path class="cls-2" d="M16.89,29.14h0a.19.19,0,0,0,.11-.22V29A.2.2,0,0,0,16.89,29.14Z"/><path class="cls-2" d="M16.86,29.88h.07a.15.15,0,0,0,.11,0H17A.12.12,0,0,0,16.86,29.88Z"/><path class="cls-2" d="M17.23,26.54h0a.09.09,0,0,1,0,.08.11.11,0,0,1-.15,0l0,0h0a.29.29,0,0,0,.24,0,.21.21,0,0,0,.13-.18h0Z"/><path class="cls-2" d="M17.21,27.52h0v.06h0v-.14h0A.17.17,0,0,0,17.21,27.52Z"/><path class="cls-2" d="M34.36,24.89h0V25C34.36,25.09,34.37,24.93,34.36,24.89Z"/><path class="cls-2" d="M17.32,23h0l.07.06A.11.11,0,0,0,17.32,23Z"/><path class="cls-2" d="M17,25.33h0Z"/><path class="cls-2" d="M25.27,26.11h0V26h0Z"/><path class="cls-2" d="M25.28,24.19a.43.43,0,0,0,.08-.11h0c-.08,0-.11,0-.1.11h0Z"/><path class="cls-2" d="M25.43,23.18h-.11a.07.07,0,0,0,0,.07h.1a.27.27,0,0,0,.22-.14.23.23,0,0,0,0-.07.07.07,0,0,0,0-.06h-.06a.12.12,0,0,1,0,.07.18.18,0,0,1,0,.13.07.07,0,1,1-.15,0Z"/><path class="cls-2" d="M25.21,23.53h0a.17.17,0,0,0-.1,0h.1Z"/><path class="cls-2" d="M25.27,22.51h.06l-.12-.08h0v.07Z"/><path class="cls-2" d="M25,25.66h0a.07.07,0,0,0,.07.07h0L25,25.67Z"/><path class="cls-2" d="M25.34,23.74h-.08S25.31,23.77,25.34,23.74Z"/><path class="cls-2" d="M25,29.4h0c0,.08-.06.15,0,.21a.1.1,0,0,0,.06-.08A.14.14,0,0,0,25,29.4Z"/><path class="cls-2" d="M23.51,22.9h-.07A.06.06,0,0,0,23.51,22.9Z"/><path class="cls-2" d="M24.9,30H25a.47.47,0,0,1,.11-.13H25s-.11,0-.14.06S24.89,30,24.9,30Z"/><path class="cls-2" d="M24.9,27.52a.09.09,0,0,0,0,.06h0s.07,0,.1-.11.06-.14.11-.15.08,0,.15.06h0a.07.07,0,0,0,0-.06c0-.08,0-.1-.1-.1H25.1a.44.44,0,0,0-.22.08h-.06a.13.13,0,0,1,.08.22Z"/><path class="cls-2" d="M25.21,23.13A.31.31,0,0,1,25,23a.4.4,0,0,0-.07-.1l-.06.11.15.06A.42.42,0,0,0,25.21,23.13Z"/><path class="cls-2" d="M22,26h.06l-.15-.06h0C22,26,22,26,22,26Z"/><path class="cls-2" d="M25.59,24.82h-.07a.1.1,0,0,0,0,.06.07.07,0,0,1,.07.06h0v-.08A0,0,0,0,0,25.59,24.82Z"/><path class="cls-2" d="M21.37,29.33a.09.09,0,0,1,0-.08h0Z"/><path class="cls-2" d="M22.11,23.28h-.06a.47.47,0,0,1-.07.22.1.1,0,0,1,0,.07v.06h0a.21.21,0,0,0,.11-.13.12.12,0,0,0,0-.11Z"/><path class="cls-2" d="M21.44,30l-.08.1-.11.07h-.08c.06,0,.11-.11.21-.08h0V30h0Z"/><path class="cls-2" d="M22,26.78a.1.1,0,0,1,0,.11V27h0v-.13A.07.07,0,0,0,22,26.78Z"/><path class="cls-2" d="M22,22.33h0a.08.08,0,0,0,0,.06c0,.06,0,.07.14.07h.1v-.17a.2.2,0,0,1-.15,0Z"/><path class="cls-2" d="M25.74,23.73c0,.06-.06.07,0,.11h0A.18.18,0,0,0,25.74,23.73Z"/><path class="cls-2" d="M21.88,30.69a.39.39,0,0,1-.17.17s-.13.07-.1.18h0a.17.17,0,0,0,.15-.11.7.7,0,0,1,.07-.15V30.7h.05Z"/><path class="cls-2" d="M25.56,25.4h0a.4.4,0,0,0,.21.06h0a.25.25,0,0,0-.15-.08Z"/><path class="cls-2" d="M22.31,30.91a.08.08,0,0,0,0-.06h0a.11.11,0,0,0,0,.07h0V31a.17.17,0,0,0,0-.11Z"/><path class="cls-2" d="M26,24.57Z"/><path class="cls-2" d="M16.92,30.45h0a.07.07,0,0,0,.07.07h0A.06.06,0,0,0,16.92,30.45Z"/><path class="cls-2" d="M38.57,25.89H38.5c0,.06,0,.07.11.07h.13A.38.38,0,0,0,38.57,25.89Z"/><path class="cls-2" d="M38.77,27.34Z"/><path class="cls-2" d="M38.81,30.82v.06h.07a.1.1,0,0,0,0-.06h-.07Z"/><path class="cls-2" d="M38.46,26.54v-.07h-.08a.08.08,0,0,1-.1,0,.13.13,0,0,1,0-.1v-.06h0v.14h.12l.13.1h.07A.13.13,0,0,1,38.46,26.54Z"/><path class="cls-2" d="M38.38,30.14h0a.08.08,0,0,0,.1.08.16.16,0,0,0,0-.1H38.4Z"/><path class="cls-2" d="M38.4,28.25h-.06v.1a.08.08,0,0,0,.06-.1Z"/><path class="cls-2" d="M40.32,30.34Z"/><path class="cls-2" d="M38.14,28.49h0a.17.17,0,0,1-.07.1.19.19,0,0,1-.2,0h-.09c.07,0,0,.07,0,.08a.53.53,0,0,0,.28-.06l.24-.07C38.21,28.6,38.18,28.55,38.14,28.49Z"/><path class="cls-2" d="M40.63,31.15a.07.07,0,0,0,.07-.07c0-.07,0,0,0-.06h-.07a.07.07,0,0,0,0,.13Z"/><path class="cls-2" d="M39,31h-.07a.38.38,0,0,0,.25.06h.18A1.66,1.66,0,0,1,39,31Z"/><path class="cls-2" d="M39.4,30.26h0c0,.1,0,.22-.08.27h0a.23.23,0,0,1,.15,0h0l.2-.2h-.1A.28.28,0,0,1,39.4,30.26Z"/><path class="cls-2" d="M38.84,22.94h0V23a.17.17,0,0,0,.13-.07.08.08,0,0,1-.07,0S38.84,23,38.84,22.94Z"/><path class="cls-2" d="M37.8,28.23h0a.3.3,0,0,1-.13-.29.21.21,0,0,0,0-.1c-.06,0-.07,0-.07.1a.91.91,0,0,0,.07.5A.33.33,0,0,1,37.8,28.23Z"/><path class="cls-2" d="M37.93,24.5Z"/><path class="cls-2" d="M37.77,23.2h.17a.54.54,0,0,1-.14-.11.62.62,0,0,0-.15-.11v.08A.38.38,0,0,1,37.77,23.2Z"/><path class="cls-2" d="M37.8,23.48Z"/><path class="cls-2" d="M40.69,30.37a.29.29,0,0,0-.15-.06h.06c.06,0,0,.08,0,.1a.24.24,0,0,0,0,.15l.1.06v-.07a.18.18,0,0,1,.14-.2h0Z"/><path class="cls-2" d="M38.07,23.6H38a.07.07,0,0,1,.07.07A.08.08,0,0,0,38.07,23.6Z"/><path class="cls-2" d="M38,27.58h0S38,27.61,38,27.58Z"/><path class="cls-2" d="M37.53,29.19h0v.12c0,.06,0,.1.11.13h0v-.08h0C37.6,29.26,37.59,29.21,37.53,29.19Z"/><path class="cls-2" d="M38.11,29.39,38,29.32h.11Z"/><path class="cls-2" d="M38,30.51Z"/><path class="cls-2" d="M38,29.82v.08h0a.27.27,0,0,1,0,.1h0a.13.13,0,0,1,.14-.08h.06a.85.85,0,0,0-.22-.08S38,29.81,38,29.82Z"/><path class="cls-2" d="M37.53,24a.15.15,0,0,1,.1,0,.19.19,0,0,1,.15.1h.06a.5.5,0,0,1-.2-.25l-.08-.14a.1.1,0,0,0-.1,0h0A.28.28,0,0,1,37.53,24Z"/><path class="cls-2" d="M37.88,29.63a.06.06,0,0,0,.06,0h0a.1.1,0,0,0-.08,0Z"/><path class="cls-2" d="M37.94,25.31s-.07.06-.07.08h.06l.06-.06a.09.09,0,0,0,0-.06h-.07Z"/><path class="cls-2" d="M41,22.8a.24.24,0,0,1-.2,0,.37.37,0,0,0,.27.07.42.42,0,0,0,0-.1h0Z"/><path class="cls-2" d="M41.22,27.44a.15.15,0,0,0,.13,0h-.13Z"/><path class="cls-2" d="M40.6,22.44v.07h.07Z"/><path class="cls-2" d="M41.57,23.5c-.06,0-.08,0-.08.08h0a.12.12,0,0,0,.08-.08Z"/><path class="cls-2" d="M40.2,22.52h0c.06,0,.07.1.1.15a.27.27,0,0,0,.06.13.41.41,0,0,1,.06-.22h-.08C40.28,22.52,40.24,22.51,40.2,22.52Z"/><path class="cls-2" d="M39.68,22.75h0Z"/><path class="cls-2" d="M41.25,22.4c-.07,0-.13-.08-.18-.07s-.07,0-.1.08a.23.23,0,0,1-.11.1h.46a.12.12,0,0,0,0-.08Z"/><path class="cls-2" d="M46.78,4.7H13.22a8.4,8.4,0,0,1-8,8V41a8.4,8.4,0,0,1,8,8H46.78a8.4,8.4,0,0,1,8-8V12.71A8.4,8.4,0,0,1,46.78,4.7ZM18.35,31.54a.38.38,0,0,1-.34.13H16c-.15,0-.24,0-.28-.11s0-.15,0-.27A3.19,3.19,0,0,0,16,29.71v-6.1a2.8,2.8,0,0,0-.24-1.47c-.07-.13-.08-.21,0-.27a.51.51,0,0,1,.28-.1h1.69c.36,0,.38,0,.38.41v8.08a1.69,1.69,0,0,0,.22.94A.58.58,0,0,1,18.35,31.54Zm8.29-4.83v3.61a1,1,0,0,1-.34.78h0a1.55,1.55,0,0,1-1.54.59h-3a1.12,1.12,0,0,1-.7-.28,1.56,1.56,0,0,1-.71-1.67,2.14,2.14,0,0,0,0-.52V28.9c0-.34.06-.38.38-.39h1.7c.15,0,.24,0,.28.1a.81.81,0,0,1,0,.31,3.09,3.09,0,0,0-.18.46v.11s0,0,.08,0h1.7a.15.15,0,0,0,.17-.17V28c0-.17-.1-.24-.32-.24H21.71a.76.76,0,0,1-.66-.28h0a1.61,1.61,0,0,1-.66-1.65V23.17a1.13,1.13,0,0,1,.29-.74,1.91,1.91,0,0,1,1.79-.69c.67,0,1.36.06,2,0a2.17,2.17,0,0,1,1.61.32,2.26,2.26,0,0,1,.41.52,2,2,0,0,1,.17,1v3.18Zm7.94.24A1.15,1.15,0,0,1,35,28v2.07a1.43,1.43,0,0,1-.46,1,1.83,1.83,0,0,1-1.46.59h-3a1.1,1.1,0,0,1-.71-.28,1.55,1.55,0,0,1-.71-1.58,2.88,2.88,0,0,0,0-.7,1.74,1.74,0,0,0,0-.27.38.38,0,0,1,.08-.27.34.34,0,0,1,.25-.08h1.79a.29.29,0,0,1,.24.08.32.32,0,0,1,0,.28l-.1.22a.86.86,0,0,0-.1.2.2.2,0,0,0,0,.18h1.75a.21.21,0,0,0,.24-.24V27.89c0-.37-.07-.28-.31-.28H31c-.36,0-.41-.06-.41-.41V26c0-.42,0-.48.46-.48h1.4c.34,0,.34,0,.34-.34v-1c0-.32,0-.35-.35-.35H31c-.13,0-.2,0-.21.06a1.55,1.55,0,0,0,0,.22l.08.18.08.21c0,.11.07.2,0,.25a.41.41,0,0,1-.27.08,3.11,3.11,0,0,1-.5,0H28.93a.32.32,0,0,1-.24-.07.39.39,0,0,1-.07-.25V23a.57.57,0,0,1,.21-.52h0c.66-.66.67-.67,1.61-.67h3a.74.74,0,0,1,.6.24l.06.06a1,1,0,0,0,.18.17A1.33,1.33,0,0,1,35,23.53v2.08a1.15,1.15,0,0,1-.39,1,.28.28,0,0,0-.1.15.24.24,0,0,0,.07.24Zm8.7-3.5a1.21,1.21,0,0,0,0,.24v.77c0,.29,0,.36-.35.36H41.15c-.12,0-.22,0-.27-.07a.32.32,0,0,1,0-.29l.08-.18.08-.21v-.18s-.08-.06-.17-.07h-1.5c-.18,0-.27.07-.28.25s0,.41,0,.62v.52c0,.17,0,.25.07.31s.15.08.35.08h2.37a.81.81,0,0,1,.67.28h0a1.6,1.6,0,0,0,.27.27,1.21,1.21,0,0,1,.48,1.15V30a1.56,1.56,0,0,1-.49,1.23,1.69,1.69,0,0,1-1.23.5h-3.1a1.11,1.11,0,0,1-.84-.36l-.28-.28c-.38-.35-.38-.36-.38-.87V22.94a.48.48,0,0,1,.2-.45h0l.06-.06a2,2,0,0,1,1.89-.73h2.75a.84.84,0,0,1,.64.24l.17.15C43.29,22.66,43.29,22.68,43.28,23.45Z"/><path class="cls-2" d="M34,22.8h0a.09.09,0,0,0-.06-.08h0a.6.6,0,0,0-.08-.08h0v.08Z"/><path class="cls-2" d="M42.17,23h-.1a.17.17,0,0,1,.13,0h0Z"/><path class="cls-2" d="M41.85,23.11h0a.18.18,0,0,0,.1-.06L42,23Z"/><path class="cls-2" d="M41.76,23.81Z"/><path class="cls-2" d="M39.62,23.08h0a.06.06,0,0,0,.07.06h0A.1.1,0,0,0,39.62,23.08Z"/><path class="cls-2" d="M41.12,31h-.06v.07Z"/><path class="cls-2" d="M41.26,26.92a.37.37,0,0,0-.06.13.27.27,0,0,0,.18,0Z"/><path class="cls-2" d="M41,26.43h0v-.07h0a.2.2,0,0,1,0,.1h0Z"/><path class="cls-2" d="M39.27,23.27h0a.22.22,0,0,1,.07-.14S39.29,23.15,39.27,23.27Z"/><path class="cls-2" d="M41.4,26.35h0c-.1,0-.1.07-.08.1h0A.62.62,0,0,0,41.4,26.35Z"/><path class="cls-2" d="M41.47,30.61Z"/><path class="cls-2" d="M39.08,28.06a4.18,4.18,0,0,1,0,.43v.84a.22.22,0,0,0,0,.15.32.32,0,0,0,.17.06H40.8c.18,0,.25-.07.25-.22V28a.25.25,0,0,0-.06-.2.27.27,0,0,0-.2-.06h-1a3.1,3.1,0,0,0-.5,0c-.15,0-.24,0-.28.07S39,27.92,39.08,28.06Z"/><path class="cls-2" d="M39,26.1h0a.06.06,0,0,0,0,.07h.06c.06,0,.14,0,.15-.1h-.15Z"/><path class="cls-2" d="M39.8,27c.07,0,.13-.1.13-.13h0c0,.07-.1.1-.14.13s-.07,0-.08,0h.09Z"/><path class="cls-2" d="M39.73,26.31h.17a.29.29,0,0,0,0-.15l-.1.13-.06-.17h-.08v.08C39.66,26.28,39.73,26.28,39.73,26.31Z"/><path class="cls-2" d="M40.2,26.84Z"/><path class="cls-2" d="M42.28,22.66Z"/><path class="cls-2" d="M33.81,27.08v.07c.06,0,.07-.1.06-.2h0A.18.18,0,0,0,33.81,27.08Z"/><path class="cls-2" d="M33.85,26.15h0l-.06.07A.11.11,0,0,0,33.85,26.15Z"/><path class="cls-2" d="M33.66,30.56h-.08v.13h0a.15.15,0,0,1,.14-.12h-.06Z"/><path class="cls-2" d="M33.68,29.46h-.07v.06a.18.18,0,0,0,.2,0,.48.48,0,0,1-.15-.14Z"/><path class="cls-2" d="M33.18,30.55h-.06l.07.06h.06v-.06Z"/><path class="cls-2" d="M33.71,28.74l.08-.07V28.6l-.31-.13h0C33.58,28.65,33.64,28.73,33.71,28.74Z"/><path class="cls-2" d="M33.36,29.89a.26.26,0,0,0,0-.08h0s-.1.06-.14,0h-.06a.1.1,0,0,0,0,.1.85.85,0,0,0,.28.1A.17.17,0,0,1,33.36,29.89Z"/><path class="cls-2" d="M34,28.57h-.06c-.06,0,0,.07,0,.07h0a.15.15,0,0,0,0-.07Z"/><path class="cls-2" d="M34.1,23.48h0a.09.09,0,0,0,0,.06.33.33,0,0,1,0,.11.11.11,0,0,1,.06-.06h0Z"/><path class="cls-2" d="M33.87,28.15h0v.06h0a.15.15,0,0,0,0-.06Z"/><path class="cls-2" d="M33.89,25.33h-.08c-.06,0-.1-.07-.14-.06h0a.2.2,0,0,1,.14.08v.06h.06S33.94,25.34,33.89,25.33Z"/><path class="cls-2" d="M34.19,24.4h0v.14h0v-.06C34.23,24.41,34.23,24.4,34.19,24.4Z"/><path class="cls-2" d="M34,30.49a.59.59,0,0,0,.06.17h0c0-.07,0-.13-.07-.15Z"/><path class="cls-2" d="M33.67,25a.23.23,0,0,0,.08-.08.37.37,0,0,1,.2-.13h-.11c-.08,0-.14,0-.17.13s-.07.06-.11.06h0Z"/><path class="cls-2" d="M33.77,24.12h.06c.14-.06.17-.17.18-.32h0l-.1.08h-.13v.06C33.78,24,33.77,24.12,33.77,24.12Z"/><path class="cls-2" d="M37.7,27h-.06l.07.07h0V27Z"/><path class="cls-2" d="M34,23h0a.33.33,0,0,0-.07.17C34,23.15,34,23.1,34,23Z"/><path class="cls-2" d="M33.81,23.35v-.06h0Z"/><path class="cls-2" d="M32.83,26.43h0a.13.13,0,0,0-.1,0A.17.17,0,0,0,32.83,26.43Z"/><path class="cls-2" d="M32.94,26.7a.87.87,0,0,0-.07.17h.23l-.1-.19Z"/><path class="cls-2" d="M33.66,27.44h0v-.11H33.6a.08.08,0,0,0,0,.06Z"/><path class="cls-2" d="M33.46,23.14h0v-.06h0l-.06.06h.06Z"/><path class="cls-2" d="M33.53,26.67a.14.14,0,0,1,.07.06h0a.11.11,0,0,0-.1-.06.29.29,0,0,0-.14.06.11.11,0,0,0,0,.1h0a.12.12,0,0,1,0-.11Z"/><path class="cls-2" d="M33.52,26h0v-.17h0v.06h0Z"/><path class="cls-2" d="M33.61,23.76h0a.11.11,0,0,0,0-.1v.1Z"/><path class="cls-2" d="M38.51,23.28a.07.07,0,0,0-.07.06h0S38.51,23.34,38.51,23.28Z"/><path class="cls-2" d="M34.3,28.56v.06h0s0-.07-.06-.07Z"/><path class="cls-2" d="M38.33,24.71a.08.08,0,0,0,0-.06h0s-.06.06-.1,0h.08S38.33,24.74,38.33,24.71Z"/><path class="cls-2" d="M38.43,23.81a.22.22,0,0,1,.21-.08h0c-.07-.07-.11-.1-.18-.06l-.13.07a.53.53,0,0,0-.15.08.38.38,0,0,0,.17.08A.38.38,0,0,1,38.43,23.81Z"/><path class="cls-2" d="M39.06,30.55h.11L39,30.49h0a.08.08,0,0,0,0,.06h.06Z"/><path class="cls-2" d="M39.06,26.94a1.84,1.84,0,0,0,.15-.28V26.6h0a.68.68,0,0,1-.07.18c-.06.08-.08.15,0,.21Z"/><path class="cls-2" d="M37.58,25.27h0a.16.16,0,0,0,0-.1h0V25a.34.34,0,0,1,0,.11C37.55,25.21,37.55,25.24,37.58,25.27Z"/><path class="cls-2" d="M38,24.75Z"/><path class="cls-2" d="M41.58,29.92h0a.15.15,0,0,0,0-.07h0v.07Z"/><path class="cls-2" d="M37.73,25.73h0s0-.07-.1-.1h-.11a.12.12,0,0,0,0,.07A.71.71,0,0,1,37.73,25.73Z"/><path class="cls-2" d="M37.63,24.72v.07h.11s0-.18-.1-.2h0a.09.09,0,0,0,0,.06h0v.07Z"/><path class="cls-2" d="M38.09,27.78H38a.27.27,0,0,0,0,.2h0a.1.1,0,0,1,0-.11Z"/><path class="cls-2" d="M38.17,27.23h.21a.1.1,0,0,0-.07-.11h-.06a.13.13,0,0,0-.11.06.11.11,0,0,0,0,.11Z"/><path class="cls-2" d="M38.22,25.2a.17.17,0,0,1-.07.07h.14a.26.26,0,0,1,0-.11Z"/><path class="cls-2" d="M41.91,30.56v.14h0a.08.08,0,0,0,0-.07v-.1S41.93,30.55,41.91,30.56Z"/><path class="cls-2" d="M42.44,28.52h0s-.06,0-.08.08h0a.11.11,0,0,0,.1-.08Z"/><path class="cls-2" d="M42.41,29.7h0a.18.18,0,0,1,0,.06h0l-.08.17h.07a.12.12,0,0,1,0-.08h0V29.7Z"/><path class="cls-2" d="M41.82,30l.06-.06h0a.13.13,0,0,0-.06.07Z"/><path class="cls-2" d="M41.86,28.42h0v.08h0l.06-.06A0,0,0,0,0,41.86,28.42Z"/><path class="cls-2" d="M42.45,29.29h0a.1.1,0,0,0,.08-.08h0a.29.29,0,0,0-.14.06.09.09,0,0,0,0,.13h0A.36.36,0,0,1,42.45,29.29Z"/><path class="cls-2" d="M42,29.51h0v.08h-.13a.1.1,0,0,0,.14,0h0v-.06a.08.08,0,0,1,0-.07h0Z"/><path class="cls-2" d="M41.82,26.82l.11-.06H42l-.11-.07a.21.21,0,0,0-.18,0,.07.07,0,0,1,0,.06Z"/><path class="cls-2" d="M42.24,27.08H42.1S42.13,27.12,42.24,27.08Z"/><path class="cls-2" d="M50.43,0H9.57A9.57,9.57,0,0,1,0,9.57H0V44.18a9.57,9.57,0,0,1,9.57,9.57H50.43A9.57,9.57,0,0,1,60,44.18h0V9.57A9.57,9.57,0,0,1,50.43,0Zm6,42.28H56a7.94,7.94,0,0,0-7.93,7.93v.38H11.88v-.37A7.94,7.94,0,0,0,4,42.28H3.58V11.47H4a7.94,7.94,0,0,0,7.93-7.93V3.17H48.12v.38A7.94,7.94,0,0,0,56,11.47h.38Z"/></svg>