<svg id="Layer_1" data-name="Layer 1" xmlns="http://www.w3.org/2000/svg" viewBox="0 0 137.28 46.75"><defs><style>.cls-1{fill:#353535;}.cls-2{fill:#86754d;}</style></defs><title>story-16cen-v2</title><rect class="cls-1" x="11.38" y="14.38" width="113.25" height="15.13"/><path class="cls-2" d="M42.64,21.75v-.06h0s-.06.06,0,.1h0A.06.06,0,0,0,42.64,21.75Z"/><path class="cls-2" d="M42.71,22.45h0c-.06,0-.11.1-.1.18s0,.06.08.08l.08.06h0A.26.26,0,0,1,42.71,22.45Z"/><path class="cls-2" d="M43,23.51h0l.13-.08h0A.16.16,0,0,0,43,23.51Z"/><path class="cls-2" d="M42.8,19.94h0a.32.32,0,0,0,.14-.18h0C42.87,19.82,42.8,19.86,42.8,19.94Z"/><path class="cls-2" d="M43.52,24.83h0Z"/><path class="cls-2" d="M43.32,26.4a.14.14,0,0,1,0,.08h0V26.4Z"/><path class="cls-2" d="M43.3,22.23a.5.5,0,0,1-.21.1h0a.1.1,0,0,0,.11,0,.29.29,0,0,0,.11-.08l.11-.1Z"/><path class="cls-2" d="M38.54,24.55h0a.2.2,0,0,0-.22.22h.06a.48.48,0,0,1,.19-.21.43.43,0,0,0,.13-.11h-.08Z"/><path class="cls-2" d="M43.52,20.85h0a.34.34,0,0,1-.26-.06.27.27,0,0,1,0-.29v-.06h-.1a.45.45,0,0,0,.08.4A.47.47,0,0,0,43.52,20.85Z"/><path class="cls-2" d="M43.62,22.55a.16.16,0,0,1-.08.1h0a.19.19,0,0,1-.1.1h0a.11.11,0,0,0,0,.1h0a.25.25,0,0,0,.24,0h.1a.42.42,0,0,0-.14-.4A.23.23,0,0,1,43.62,22.55Z"/><path class="cls-2" d="M43.43,21.54h0a.09.09,0,0,0,0-.06h0Z"/><path class="cls-2" d="M42.83,19.36h0s.08,0,0-.08,0,0-.06,0S42.82,19.26,42.83,19.36Z"/><path class="cls-2" d="M43.35,17.38a.35.35,0,0,0,.11-.14h-.11a.16.16,0,0,0-.1,0,.34.34,0,0,0,0,.08h.16v.06a.18.18,0,0,1-.11,0h0C43.25,17.47,43.33,17.39,43.35,17.38Z"/><path class="cls-2" d="M43.2,21.25a.21.21,0,0,1,0,.1h.1a.68.68,0,0,1,0-.18h0a.27.27,0,0,1-.16,0h-.06v.08A.16.16,0,0,1,43.2,21.25Z"/><path class="cls-2" d="M43.38,21.87v-.06a.24.24,0,0,1-.06-.16h-.1l-.06.06c-.06.06-.08.06-.08.1h0a.16.16,0,0,1,.13.06C43.32,21.87,43.35,21.89,43.38,21.87Z"/><path class="cls-2" d="M43.06,18.82h0a.49.49,0,0,0-.19-.08.28.28,0,0,0,.11.14A.21.21,0,0,0,43.06,18.82Z"/><path class="cls-2" d="M57.67,18.66h0l.1-.3h0l-.08.11a.46.46,0,0,1-.14.16h0Z"/><path class="cls-2" d="M57.45,18.91Z"/><path class="cls-2" d="M57.75,17.57h0a.19.19,0,0,0,.08.08h0A.6.6,0,0,1,57.75,17.57Z"/><path class="cls-2" d="M57.37,19.92V20h0c.06,0,.14,0,.18.06a.29.29,0,0,1,0,.22.18.18,0,0,0,0,.08h.08l.21.06a.12.12,0,0,1,0-.06,1.33,1.33,0,0,0-.29-.48h0c-.1-.08-.18-.16-.18-.26a.39.39,0,0,1,.16-.22h-.1l-.14.14A.51.51,0,0,1,57.37,19.92Z"/><path class="cls-2" d="M57.54,21.19l-.11-.11a.43.43,0,0,0,0,.11A.39.39,0,0,0,57.54,21.19Z"/><path class="cls-2" d="M57.79,17.22h-.06a.09.09,0,0,0,0,.06v.14l.06-.13Z"/><path class="cls-2" d="M57.72,21.71h.1a.15.15,0,0,0,0-.14h0Z"/><path class="cls-2" d="M61.56,17.38h0V17.2h-.08a.08.08,0,0,0,0,.06Z"/><path class="cls-2" d="M58,20.74h0c-.06,0,0,.1,0,.16Z"/><path class="cls-2" d="M61.63,17.07h.08V17s0-.08-.06-.08h0a.16.16,0,0,0,0,.08A.64.64,0,0,0,61.63,17.07Z"/><path class="cls-2" d="M62.52,18.54h0Z"/><path class="cls-2" d="M61.74,17.74a.07.07,0,0,0,.11,0h.06a.36.36,0,0,0,0-.27v-.18h0c0,.19,0,.27-.08.29s-.11,0-.16-.11A.34.34,0,0,0,61.74,17.74Z"/><path class="cls-2" d="M43.81,24.32h0v.08a.14.14,0,0,0,.1,0h0c0-.11,0-.18-.11-.21S43.81,24.27,43.81,24.32Z"/><path class="cls-2" d="M61.23,17.14h0v.26h0a.28.28,0,0,0,0,.11v.22h.06A3.73,3.73,0,0,0,61.23,17.14Z"/><path class="cls-2" d="M42,21.54h0v.06h0a.12.12,0,0,0,0-.08v-.06h0A.32.32,0,0,0,42,21.54Z"/><path class="cls-2" d="M38.71,19.5v-.1H38.5a1.6,1.6,0,0,0-.38,0h0s-.11,0-.13.06h0A.75.75,0,0,1,38.71,19.5Z"/><path class="cls-2" d="M38.67,18.67h.14s0,0,0-.1h-.1l-.08.08h0S38.61,18.69,38.67,18.67Z"/><path class="cls-2" d="M37.94,23.67a.27.27,0,0,0,0,.08h0v-.1h0Z"/><path class="cls-2" d="M38.16,17.15h0a.25.25,0,0,0,.16-.06h-.17Z"/><path class="cls-2" d="M38.35,23.51a.17.17,0,0,0,0,.08h0v-.08a.28.28,0,0,1-.06-.16h0a.13.13,0,0,1-.14,0h0a.33.33,0,0,1,.14.08A.14.14,0,0,1,38.35,23.51Z"/><path class="cls-2" d="M38.45,26.48a.22.22,0,0,1,0,.06h0a.09.09,0,0,0,0-.06Z"/><path class="cls-2" d="M38.16,21.87Z"/><path class="cls-2" d="M38.22,20.72h0a.3.3,0,0,1,0-.21v-.1H38.1a.31.31,0,0,0-.14.08s-.06.08,0,.1H38A.32.32,0,0,0,38.22,20.72Z"/><path class="cls-2" d="M39,22.47h0a.93.93,0,0,1-.22.1h0a1.05,1.05,0,0,0,.24-.06Z"/><path class="cls-2" d="M43.44,18.24Z"/><path class="cls-2" d="M38.8,23a.1.1,0,0,0,0-.1.17.17,0,0,0-.16,0h0a.12.12,0,0,1,0,.06h.06Z"/><path class="cls-2" d="M38.66,17.6Z"/><path class="cls-2" d="M38.46,20a.3.3,0,0,0,0-.3c-.06-.08-.1-.06-.18,0h0a.1.1,0,0,0-.08.06h.06a.22.22,0,0,1,.19.06V20h0Z"/><path class="cls-2" d="M67.31,23a.29.29,0,0,1,0-.11h-.1c0,.1,0,.16-.1.21s-.06.06,0,.1a.1.1,0,0,0,.13,0S67.28,23,67.31,23Z"/><path class="cls-2" d="M38.58,20.69h-.21v.23h0a.15.15,0,0,1,0-.11h-.06a.16.16,0,0,0,.06.11.44.44,0,0,0,.1.06.29.29,0,0,0,.1-.13.14.14,0,0,1,.11-.14,1.2,1.2,0,0,1,.19,0H39v-.16A3.37,3.37,0,0,0,38.58,20.69Z"/><path class="cls-2" d="M38.71,21.78h0a.23.23,0,0,1,0,.1.07.07,0,0,0,.08,0v-.06h-.13Z"/><path class="cls-2" d="M40.9,22h-.06a.12.12,0,0,0,.1.11h0S41,22,40.9,22Z"/><path class="cls-2" d="M41.57,21.43v-.1h0v.08a.51.51,0,0,1-.35,0h-.06a.36.36,0,0,0,0,.22h.08a.27.27,0,0,1,.3,0h.1a.3.3,0,0,0,0-.14v-.08Z"/><path class="cls-2" d="M40.32,21.54h.16v-.06c0-.06-.14-.08-.13-.19a.18.18,0,0,0-.11,0l-.1.1h0C40.13,21.57,40.15,21.55,40.32,21.54Z"/><path class="cls-2" d="M38.42,26.29h-.06a.17.17,0,0,0,0,.1A.12.12,0,0,0,38.42,26.29Z"/><path class="cls-2" d="M43.43,20a.23.23,0,0,1,.18-.08h-.06a.15.15,0,0,0-.11,0S43.41,19.9,43.43,20Z"/><path class="cls-2" d="M57.42,21Z"/><path class="cls-2" d="M42,22.29h0a.41.41,0,0,1-.27,0h0a.26.26,0,0,0,.35.06h.06A.23.23,0,0,0,42,22.29Z"/><path class="cls-2" d="M40.88,22.4a.76.76,0,0,0-.38-.1.83.83,0,0,1-.38-.08h0l.06.1h.18a.9.9,0,0,1,.48.16H41A.2.2,0,0,1,40.88,22.4Z"/><path class="cls-2" d="M39.84,21.44v.1l.06-.1Z"/><path class="cls-2" d="M38.9,21h0a.12.12,0,0,0,0,.06h0a.35.35,0,0,1,.13.08c.06,0,.1.08.14.06s0,0,0-.1h0Z"/><path class="cls-2" d="M38.74,25.06c-.14.19-.3.14-.46.11h0a.26.26,0,0,1,.11.06v.32h0a.68.68,0,0,1,.35-.35h0A.66.66,0,0,0,38.74,25.06Z"/><path class="cls-2" d="M38.83,23.35h-.14v.21a.22.22,0,0,0,.08.14h0c0-.1,0-.22.22-.22a.12.12,0,0,0,0-.06A.15.15,0,0,0,38.83,23.35Z"/><path class="cls-2" d="M39.65,21.84l.06-.08a.41.41,0,0,0-.14.08Z"/><path class="cls-2" d="M39.62,21.44h0a.1.1,0,0,0-.08.08h0C39.6,21.51,39.62,21.49,39.62,21.44Z"/><path class="cls-2" d="M43.32,18.46h0v.14a.35.35,0,0,0,0,.16Z"/><path class="cls-2" d="M68.67,22.29H69a.31.31,0,0,1-.11-.1.06.06,0,0,0-.06-.06.06.06,0,0,0-.08,0,.09.09,0,0,0,0,.08.1.1,0,0,0,0,.06A.06.06,0,0,1,68.67,22.29Z"/><path class="cls-2" d="M70,17.38h0l-.06.06h0Z"/><path class="cls-2" d="M70.94,17.17Z"/><path class="cls-2" d="M70.59,17.47h0a.25.25,0,0,0,0-.21.59.59,0,0,1-.35.1.3.3,0,0,0,0,.19h0C70.35,17.5,70.43,17.39,70.59,17.47Z"/><path class="cls-2" d="M68.24,17.31h0a.21.21,0,0,0,.06.27A.37.37,0,0,0,68.24,17.31Z"/><path class="cls-2" d="M69.29,17.41h0a.24.24,0,0,0-.06-.19h0a.48.48,0,0,1-.3-.06h-.11a.16.16,0,0,1-.1.13h.14A.46.46,0,0,1,69.29,17.41Z"/><path class="cls-2" d="M69.65,17.68h.1V17.6c0-.1-.06-.19-.13-.19h0a.15.15,0,0,1,0,.19h.08a.06.06,0,0,1,0,.08Z"/><path class="cls-2" d="M68.43,16.94h-.06a.06.06,0,0,0,.06.06C68.49,17,68.43,17,68.43,16.94Z"/><path class="cls-2" d="M60.86,17.17v-.08h0c-.13-.08-.22,0-.35,0a.48.48,0,0,1-.26.08h0l.26.06h.06v-.16s.11,0,.16.06a.17.17,0,0,0,.11,0Z"/><path class="cls-2" d="M60,17.33h-.06a.21.21,0,0,0,0,.06.3.3,0,0,1,0,.11h0v.11h0a.2.2,0,0,0,.18-.1v-.18Z"/><path class="cls-2" d="M59.19,17.76h0c.1,0,.11,0,.11-.06h0A.21.21,0,0,1,59.19,17.76Z"/><path class="cls-2" d="M69.69,21.6v-.13h0v.13Z"/><path class="cls-2" d="M68.88,21.39a.15.15,0,0,0,.11,0h-.18v.06C68.81,21.51,68.86,21.36,68.88,21.39Z"/><path class="cls-2" d="M58.91,17h0s0,.19.13.21h0S59,17,58.91,17Z"/><path class="cls-2" d="M60.79,17.42h.08v-.08h0Z"/><path class="cls-2" d="M68.77,21.84,69,21.7h0a.24.24,0,0,1-.18.06c-.08,0-.13,0-.14.08h.09Z"/><path class="cls-2" d="M66.86,19.33H66.8v.06h0S66.86,19.38,66.86,19.33Z"/><path class="cls-2" d="M67.16,20.13h0L67.08,20c-.06-.06,0-.14,0-.21a.69.69,0,0,1,0-.08H67v.13A.26.26,0,0,1,67,20h0a.17.17,0,0,1-.06.08h.18Z"/><path class="cls-2" d="M67,21v.08h0A.06.06,0,0,0,67,21Z"/><path class="cls-2" d="M66.78,20.56v-.08h0a.1.1,0,0,1,0,.06h0Z"/><path class="cls-2" d="M67.24,22.47c.06,0,.06-.1.06-.18h0a.1.1,0,0,0-.08,0,.21.21,0,0,1-.19,0c-.06,0-.06-.1-.06-.16a.41.41,0,0,0-.08-.14.31.31,0,0,1-.06-.1h0a.76.76,0,0,1,.18.4.13.13,0,0,0,.08.11A.24.24,0,0,0,67.24,22.47Z"/><path class="cls-2" d="M67,26.29h0l-.14-.13C66.91,26.24,66.92,26.29,67,26.29Z"/><path class="cls-2" d="M66.83,24.69a.92.92,0,0,1,0,.11h0a.06.06,0,0,1,0-.08Z"/><path class="cls-2" d="M67.88,18.32Z"/><path class="cls-2" d="M67.77,16.91h-.1V17h0C67.72,17,67.76,17,67.77,16.91Z"/><path class="cls-2" d="M67.28,19.41l.14.11v-.16h-.17A.15.15,0,0,0,67.28,19.41Z"/><path class="cls-2" d="M67.4,17.79a.82.82,0,0,1,.24-.22h0a.24.24,0,0,0-.13-.08h0a.12.12,0,0,1,0,.06c-.08.13-.14.21-.06.32Z"/><path class="cls-2" d="M68,17.65h0c-.06,0-.08.08-.08.16h0A.38.38,0,0,0,68,17.65Z"/><path class="cls-2" d="M67.44,18.53a.22.22,0,0,0,.18-.06.42.42,0,0,1-.24-.11h0a.08.08,0,0,1,0-.06h0l-.06.11a.39.39,0,0,1,0,.08h.16Z"/><path class="cls-2" d="M67.24,17.26h0a.2.2,0,0,1,0-.1V17a.15.15,0,0,0-.1-.06h0v.11c0,.13,0,.18.08.19Z"/><path class="cls-2" d="M58.33,17.6h0l-.06-.06h0a.42.42,0,0,0,.08.1h.06Z"/><path class="cls-2" d="M57.53,21.65h.08v-.06h0l.1-.08H57l.06.06a.28.28,0,0,1,.1.1h0A.42.42,0,0,1,57.53,21.65Z"/><path class="cls-2" d="M57.18,22.51v-.06h0s-.06,0,0,.11h.06C57.3,22.56,57.16,22.55,57.18,22.51Z"/><path class="cls-2" d="M57.91,25a.62.62,0,0,1-.16-.13h0a1.92,1.92,0,0,0,.42.37A.56.56,0,0,0,57.91,25Z"/><path class="cls-2" d="M57.3,24.87h0V25h0A.14.14,0,0,0,57.3,24.87Z"/><path class="cls-2" d="M57.82,26h-.06A.06.06,0,0,0,57.82,26Z"/><path class="cls-2" d="M57.48,23.43a.28.28,0,0,0,0,.13h0v-.13Z"/><path class="cls-2" d="M57.77,22.35a.27.27,0,0,0-.16,0v.26h0a.24.24,0,0,1-.18.29h.08a.14.14,0,0,0,.14-.13.83.83,0,0,1,.18-.48S57.75,22.35,57.77,22.35Z"/><path class="cls-2" d="M57.06,23.11h.12S57.08,23.09,57.06,23.11Z"/><path class="cls-2" d="M57,25.4Z"/><path class="cls-2" d="M57.08,17.78V17.7h0v.08Z"/><path class="cls-2" d="M57.21,19.46v-.1h0l-.13-.08-.08.08A.42.42,0,0,1,57.21,19.46Z"/><path class="cls-2" d="M57,18.74h.06v-.08h0a.06.06,0,0,0-.06.06h0Z"/><path class="cls-2" d="M57,20.87a.38.38,0,0,0,.1-.14.26.26,0,0,1-.13,0c-.06,0-.1,0-.1.06a.32.32,0,0,0,0,.13V21h0A.38.38,0,0,1,57,20.87Z"/><path class="cls-2" d="M57.06,24.11c.08-.14,0-.19-.14-.27h0A.21.21,0,0,0,57,24l.08.08h0S57,24.11,57.06,24.11Z"/><path class="cls-2" d="M56.84,24.72v.12h.06a.23.23,0,0,0,0-.1h-.06Z"/><path class="cls-2" d="M58.84,26h-.06v.08h0Z"/><path class="cls-2" d="M61.51,26.24Z"/><path class="cls-2" d="M61.11,26.28h.21s-.18-.06-.19,0v.06h0Z"/><path class="cls-2" d="M57.19,19.18Z"/><path class="cls-2" d="M60,26.16h.06a.22.22,0,0,1,0-.06.15.15,0,0,1-.13-.06v0a.12.12,0,0,0,0,.08Z"/><path class="cls-2" d="M59.35,25.73Z"/><path class="cls-2" d="M59,25.76h0Z"/><path class="cls-2" d="M59.1,26.45a.65.65,0,0,0,0-.5.5.5,0,0,1,0,.13.49.49,0,0,0,0,.34Z"/><path class="cls-2" d="M59.54,26.61h0a.21.21,0,0,0-.14,0,.35.35,0,0,0,.13.08S59.53,26.61,59.54,26.61Z"/><path class="cls-2" d="M61.82,25.57s.06-.06.06-.08,0,0-.11-.06h-.16A.37.37,0,0,1,61.82,25.57Z"/><path class="cls-2" d="M62.43,24.08h0a.08.08,0,0,0,0,.06h0S62.41,24.13,62.43,24.08Z"/><path class="cls-2" d="M61.11,26.85h0a.16.16,0,0,0,.06-.13h0Z"/><path class="cls-2" d="M62.36,25.4h.08a.09.09,0,0,1,0-.06h0c-.06,0-.06.08,0,.14Z"/><path class="cls-2" d="M61.83,26.29h0a.15.15,0,0,1,0,.08h0C61.9,26.31,61.87,26.29,61.83,26.29Z"/><path class="cls-2" d="M62,24.16A.28.28,0,0,0,62,24c0,.06-.06.11,0,.16Z"/><path class="cls-2" d="M38.3,22.15a.14.14,0,0,1,0,.08.53.53,0,0,0,0,.13h0V22.3h0v-.08A.06.06,0,0,0,38.3,22.15Z"/><path class="cls-2" d="M19.47,18.34h-.06s.06,0,.08.08A.09.09,0,0,0,19.47,18.34Z"/><path class="cls-2" d="M19.32,20.29s-.08.06-.08.1h.06l.06-.06a.1.1,0,0,0,0-.06h0Z"/><path class="cls-2" d="M19.34,22.88h0C19.35,22.93,19.35,22.91,19.34,22.88Z"/><path class="cls-2" d="M19.31,19.36Z"/><path class="cls-2" d="M19.16,18.19Z"/><path class="cls-2" d="M19.13,17.87h.11a.64.64,0,0,1-.16-.13.71.71,0,0,0-.18-.13v.1A.44.44,0,0,1,19.13,17.87Z"/><path class="cls-2" d="M18.86,18.8a.17.17,0,0,1,.11,0,.22.22,0,0,1,.18.11h.06a.57.57,0,0,1-.22-.29l-.1-.16a.12.12,0,0,0-.11,0h0A.32.32,0,0,1,18.86,18.8Z"/><path class="cls-2" d="M19.16,23.62h0a.35.35,0,0,1-.14-.34.24.24,0,0,0,0-.11c-.06,0-.08,0-.08.11a1,1,0,0,0,.08.58A.37.37,0,0,1,19.16,23.62Z"/><path class="cls-2" d="M19.58,22.48h.24s0-.11-.08-.13h-.06a.15.15,0,0,0-.13.06.13.13,0,0,0,0,.13Z"/><path class="cls-2" d="M19.5,23.11h-.13a.3.3,0,0,0,0,.22h0a.12.12,0,0,1,0-.13A.92.92,0,0,1,19.5,23.11Z"/><path class="cls-2" d="M19.45,19.65Z"/><path class="cls-2" d="M19,22.21h0l.08.08h0v-.08Z"/><path class="cls-2" d="M19.08,20.77h0s0-.08-.11-.11h-.13a.14.14,0,0,0,0,.08A.92.92,0,0,1,19.08,20.77Z"/><path class="cls-2" d="M19,19.62v.08h.13c0-.1,0-.21-.11-.22h0a.1.1,0,0,0,0,.06h0v.13Z"/><path class="cls-2" d="M19.64,20.16a.2.2,0,0,1-.08.08h.16a.32.32,0,0,1,0-.13Z"/><path class="cls-2" d="M18.91,20.24h0a.19.19,0,0,0,0-.11v-.21a.39.39,0,0,1,0,.13C18.87,20.18,18.87,20.21,18.91,20.24Z"/><path class="cls-2" d="M19.82,25.81h0a.1.1,0,0,0,.11.1.18.18,0,0,0,0-.11h-.11Z"/><path class="cls-2" d="M20.27,22.61Z"/><path class="cls-2" d="M19.91,21.7v-.08h-.1a.1.1,0,0,1-.11,0,.15.15,0,0,1,0-.11v-.06h0v.16h.12l.14.11H20A.15.15,0,0,1,19.91,21.7Z"/><path class="cls-2" d="M20,21h-.08c0,.06,0,.08.13.08h.14S20.11,21,20,21Z"/><path class="cls-2" d="M20.54,26.84h-.08a.43.43,0,0,0,.29.06H21A1.83,1.83,0,0,1,20.54,26.84Z"/><path class="cls-2" d="M20.35,17.58h0v.06a.17.17,0,0,0,.14-.08.09.09,0,0,1-.08,0S20.35,17.6,20.35,17.58Z"/><path class="cls-2" d="M20.31,26.58a.22.22,0,0,0,0,.06h.08a.13.13,0,0,0,0-.06h-.08Z"/><path class="cls-2" d="M19.26,25.22h.06a.11.11,0,0,0-.1,0Z"/><path class="cls-2" d="M19.42,26.23Z"/><path class="cls-2" d="M19.51,25l-.18-.08h.13Z"/><path class="cls-2" d="M19.85,23.65h-.06v.11A.09.09,0,0,0,19.85,23.65Z"/><path class="cls-2" d="M18.86,24.72h0v.12c0,.06,0,.11.13.14h0v-.1h0C18.94,24.8,18.92,24.74,18.86,24.72Z"/><path class="cls-2" d="M19.54,23.92h0a.2.2,0,0,1-.08.11.23.23,0,0,1-.22,0H19.1L19,24h0a.08.08,0,0,1,.08,0v.1a.6.6,0,0,0,.32-.06,1.34,1.34,0,0,1,.27-.08C19.63,24,19.59,24,19.54,23.92Z"/><path class="cls-2" d="M19.42,25.44v.1h0a.31.31,0,0,1,0,.13h0a.15.15,0,0,1,.16-.1h.06a1,1,0,0,0-.26-.1S19.42,25.43,19.42,25.44Z"/><path class="cls-2" d="M14.28,26.16h0s0,.06.08.08h0A.08.08,0,0,0,14.28,26.16Z"/><path class="cls-2" d="M15,21.12h0a.07.07,0,0,0-.06.06H15Z"/><path class="cls-2" d="M19.77,19.6a.1.1,0,0,0,0-.06h0a.07.07,0,0,1-.11,0h.1S19.77,19.63,19.77,19.6Z"/><path class="cls-2" d="M14.25,24.66h0a.22.22,0,0,0,.13-.26v.06A.23.23,0,0,0,14.25,24.66Z"/><path class="cls-2" d="M14.94,18.54h0a.24.24,0,0,0,0-.11h-.08a.1.1,0,0,1,0,.11c0,.06,0,.08.06.08S14.94,18.56,14.94,18.54Z"/><path class="cls-2" d="M14.63,21.7h0a.1.1,0,0,1,0,.1.13.13,0,0,1-.18,0l0,0h0a.34.34,0,0,0,.27,0,.24.24,0,0,0,.14-.21h0Z"/><path class="cls-2" d="M14.21,25.51h.08a.17.17,0,0,0,.13,0h-.06A.24.24,0,0,0,14.21,25.51Z"/><path class="cls-2" d="M14.74,17.6h0l.08.06A.13.13,0,0,0,14.74,17.6Z"/><path class="cls-2" d="M14.62,22.82h0v.06h0v-.16h0A.2.2,0,0,0,14.62,22.82Z"/><path class="cls-2" d="M21,25.94h0c0,.11,0,.26-.1.3h0a.27.27,0,0,1,.18,0h0L21.3,26h-.11A.33.33,0,0,1,21,25.94Z"/><path class="cls-2" d="M14.46,18.62h0v-.1h0a.12.12,0,0,1,0,.08Z"/><path class="cls-2" d="M14.66,20.91h0a.14.14,0,0,1,0-.08v-.08h0s-.1.06-.1.13h0A.09.09,0,0,0,14.66,20.91Z"/><path class="cls-2" d="M14.36,19.41c-.06.06-.11.1-.11.18h.06c.13,0,.18-.08.16-.21h0Z"/><path class="cls-2" d="M14.25,24.15h-.1v-.06h0v.1a.14.14,0,0,0,.1,0Z"/><path class="cls-2" d="M14.33,17.6l.14.06c0-.14-.08-.18-.21-.19h0C14.21,17.57,14.25,17.58,14.33,17.6Z"/><path class="cls-2" d="M14.34,20.3h0Z"/><path class="cls-2" d="M14.39,23.22a.31.31,0,0,1,0,.16h.1v-.13Z"/><path class="cls-2" d="M23.48,25.56h0a.18.18,0,0,0,0-.08h0v.08Z"/><path class="cls-2" d="M23.75,22l.13-.06H24l-.13-.08a.24.24,0,0,0-.21,0,.09.09,0,0,1,0,.06Z"/><path class="cls-2" d="M20.6,26.28h.13l-.18-.06h0a.08.08,0,0,0,0,.06h.05Z"/><path class="cls-2" d="M19.88,18.58a.24.24,0,0,1,.24-.1h0c-.08-.08-.13-.11-.21-.06l-.14.08a.64.64,0,0,0-.18.1.44.44,0,0,0,.19.1A.36.36,0,0,1,19.88,18.58Z"/><path class="cls-2" d="M24,25.09h0v.1h-.14a.12.12,0,0,0,.16,0h0v-.06a.09.09,0,0,1,0-.08h0Z"/><path class="cls-2" d="M20,18a.09.09,0,0,0-.08.06h0Z"/><path class="cls-2" d="M20.6,22.15c.06-.1.11-.21.18-.32v-.06h0a.82.82,0,0,1-.08.21c-.06.1-.1.18,0,.24Z"/><path class="cls-2" d="M24.48,24.83h0a.12.12,0,0,0,.1-.1h0a.34.34,0,0,0-.16.06.11.11,0,0,0,0,.16h0A.4.4,0,0,1,24.48,24.83Z"/><path class="cls-2" d="M23.85,26.29a.37.37,0,0,0,0,.08v.08h0a.09.09,0,0,0,0-.08v-.11S23.88,26.28,23.85,26.29Z"/><path class="cls-2" d="M24.43,25.3h0a.22.22,0,0,1,0,.06h0l-.1.19h.08a.14.14,0,0,1,0-.1h0v-.06Z"/><path class="cls-2" d="M23.8,23.84h0v.1h0l.06-.06A.06.06,0,0,0,23.8,23.84Z"/><path class="cls-2" d="M24.46,24h0s-.06,0-.1.1h0a.12.12,0,0,0,.11-.1Z"/><path class="cls-2" d="M24.24,22.31h-.11S24.11,22.35,24.24,22.31Z"/><path class="cls-2" d="M23.75,25.68l.06-.06h0a.16.16,0,0,0-.06.08Z"/><path class="cls-2" d="M30.91,17.76a.17.17,0,0,1,0-.13,1.59,1.59,0,0,1,0-.27V17.3h-.06a.32.32,0,0,1-.17.42h0a.3.3,0,0,0-.1.13,1,1,0,0,0,.3-.13Z"/><path class="cls-2" d="M30.85,19.65H31c-.06,0-.11,0-.13.06Z"/><path class="cls-2" d="M30.54,17.17V17.1a.32.32,0,0,1-.13.13l-.06.08h0c.14,0,.18,0,.18-.13Z"/><path class="cls-2" d="M31.33,18.54a.29.29,0,0,0,0-.26.39.39,0,0,0-.35-.11h0a2.36,2.36,0,0,0,.24.45A.18.18,0,0,0,31.33,18.54Z"/><path class="cls-2" d="M30.69,23.44h-.06S30.7,23.46,30.69,23.44Z"/><path class="cls-2" d="M38.59,23.89h0a.32.32,0,0,1-.14,0V24a1.27,1.27,0,0,0,0,.24.18.18,0,0,0,.06.14h0a.36.36,0,0,1,0-.26.22.22,0,0,1,.14-.14V23.9h-.06Z"/><path class="cls-2" d="M31.17,17.92l.06-.08a.25.25,0,0,1,.19-.16v-.13s-.08,0-.18,0h-.11a.22.22,0,0,1,0,.11s0,.13-.06.14a.13.13,0,0,1-.11,0h0v.11S31.13,17.94,31.17,17.92Z"/><path class="cls-2" d="M30.7,23.22Z"/><path class="cls-2" d="M30.73,18.66h0s-.1,0-.1.08h0A.18.18,0,0,0,30.73,18.66Z"/><path class="cls-2" d="M31.31,20.14l.08.13a.5.5,0,0,1,.24-.4v-.1a.07.07,0,0,0,0-.06.32.32,0,0,1-.29,0h-.06a.28.28,0,0,1-.14.16.35.35,0,0,1,.14.16v-.16h.19l-.11.16a.06.06,0,0,0,0,.11Z"/><path class="cls-2" d="M31.33,23.46l.06.08Z"/><path class="cls-2" d="M31.15,19.39v.06l.1.11V19.5a.11.11,0,0,0,0-.1l-.06-.06C31.13,19.28,31.15,19.38,31.15,19.39Z"/><path class="cls-2" d="M31.49,17.78c0,.13,0,.16.16.22h0c0-.06,0-.08-.08-.13a.16.16,0,0,1-.11-.11Z"/><path class="cls-2" d="M31.6,17.22Z"/><path class="cls-2" d="M31.6,20.66a.11.11,0,0,1-.1-.08c0-.08,0,0-.06.08h0a.4.4,0,0,0,.19,0Z"/><path class="cls-2" d="M31.15,20.5h0a.26.26,0,0,1,0,.14A.32.32,0,0,0,31.15,20.5Z"/><path class="cls-2" d="M31.57,21h0s-.1-.06-.13,0a.07.07,0,0,0,0,.06.43.43,0,0,1-.21.21h-.14a.44.44,0,0,0,.21.27h.06a.12.12,0,0,0,.1,0v-.08h0v-.1s-.06-.18,0-.24.11,0,.24,0a.1.1,0,0,0-.07-.12Z"/><path class="cls-2" d="M31.68,26a.17.17,0,0,0,.16-.06L31.7,26Z"/><path class="cls-2" d="M30.91,21.07a.21.21,0,0,0,0-.1.67.67,0,0,1,.13-.29,1.88,1.88,0,0,0-.22.27.13.13,0,0,1-.16,0h0c0,.06,0,.08.16.06h.11Z"/><path class="cls-2" d="M32.09,17.94h0Z"/><path class="cls-2" d="M32.65,17a.12.12,0,0,0,0-.06h0a.14.14,0,0,0,0-.08A.21.21,0,0,0,32.65,17Z"/><path class="cls-2" d="M33.81,17.25H34C33.86,17.23,33.84,17.23,33.81,17.25Z"/><path class="cls-2" d="M38.74,20.19h0v.11h0v.11s.06,0,.11-.08A.36.36,0,0,1,39,20.2a.18.18,0,0,0,0-.1h0a.12.12,0,0,1-.13,0Z"/><path class="cls-2" d="M39,19.31a.17.17,0,0,0,0-.1.1.1,0,0,0,0-.06.28.28,0,0,0-.13,0h0a.16.16,0,0,1,0,.14Z"/><path class="cls-2" d="M32.33,17.5h0a.11.11,0,0,0,.14.11c.06,0,0,0,0-.06h0Z"/><path class="cls-2" d="M30.94,23H31a.16.16,0,0,1,.11.06h0Z"/><path class="cls-2" d="M31.71,22.88s0-.08-.06-.08a.14.14,0,0,0-.19,0h.06a.19.19,0,0,1,.14.08h0S31.71,22.9,31.71,22.88Z"/><path class="cls-2" d="M22,26Z"/><path class="cls-2" d="M31.13,22.59a.32.32,0,0,1-.1-.19.29.29,0,0,1,.11-.14.27.27,0,0,0,.1-.1V22.1h0a.2.2,0,0,0-.13.08.69.69,0,0,0-.14.16c-.08.14-.1.22,0,.29S31,22.69,31.13,22.59Z"/><path class="cls-2" d="M31.57,24.72h0a.77.77,0,0,1-.11.29v.1h.08l.13-.06h0v-.14a.21.21,0,0,1,0-.1.07.07,0,1,0-.1-.09Z"/><path class="cls-2" d="M31.15,25.6v-.06l-.08-.13a.22.22,0,0,0-.22,0c.13,0,.18.13.21.21a.11.11,0,0,1,0,.11h.22A.32.32,0,0,1,31.15,25.6Z"/><path class="cls-2" d="M31.2,26.47h0v.22h0a.24.24,0,0,1,0-.14Z"/><path class="cls-2" d="M21.45,22.27c.08,0,.14-.11.14-.14h0c0,.08-.11.11-.16.14s-.08,0-.1,0h0A.24.24,0,0,0,21.45,22.27Z"/><path class="cls-2" d="M21.37,21.43h.19a.32.32,0,0,0,0-.18l-.11.14-.06-.19h-.07v.1C21.32,21.4,21.37,21.39,21.37,21.43Z"/><path class="cls-2" d="M21.9,22Z"/><path class="cls-2" d="M20.57,21.19h0a.07.07,0,0,0,0,.08h.06a.16.16,0,0,0,.18-.11h-.18Z"/><path class="cls-2" d="M20.84,18h0a.26.26,0,0,1,.08-.16C20.86,17.78,20.86,17.82,20.84,18Z"/><path class="cls-2" d="M22.84,21.57h0v-.08h0a.24.24,0,0,1,0,.11h0A.06.06,0,0,0,22.84,21.57Z"/><path class="cls-2" d="M21.24,17.74h0s0,.06.08.06h0S21.31,17.76,21.24,17.74Z"/><path class="cls-2" d="M20.62,23.43v1.5a.26.26,0,0,0,0,.18.44.44,0,0,0,.19.06h1.78c.21,0,.29-.08.29-.26V23.36a.29.29,0,0,0-.06-.22.31.31,0,0,0-.22-.06H21.55A3.35,3.35,0,0,0,21,23c-.18,0-.27,0-.32.08A.46.46,0,0,0,20.62,23.43Z"/><path class="cls-2" d="M23.07,22.72a.16.16,0,0,0,.14,0h-.14Z"/><path class="cls-2" d="M22.46,26.07a.34.34,0,0,0-.18-.06h.06c.06,0,0,.1,0,.11a.27.27,0,0,0,0,.18l.11.06v-.08a.2.2,0,0,1,.16-.22h-.15Z"/><path class="cls-2" d="M22.39,27s.06,0,.08-.08,0,0,0-.06h-.08a.08.08,0,0,0,0,.11Z"/><path class="cls-2" d="M23.36,26.34Z"/><path class="cls-2" d="M23.12,22.13a.39.39,0,0,0-.06.14.3.3,0,0,0,.21,0Z"/><path class="cls-2" d="M23.28,21.47h0c-.11,0-.11.08-.1.11h0A.36.36,0,0,0,23.28,21.47Z"/><path class="cls-2" d="M23,26.85h0v0Z"/><path class="cls-2" d="M23.47,18.22c-.06,0-.1,0-.1.1h0a.14.14,0,0,0,.1-.1Z"/><path class="cls-2" d="M29,17.15H29v.06c0,.06.06,0,.11-.06H29Z"/><path class="cls-2" d="M21.31,17.36h0Z"/><path class="cls-2" d="M24.16,17.66H24a.2.2,0,0,1,.14,0h0Z"/><path class="cls-2" d="M29.77,17.71h-.25a.5.5,0,0,1,.21.1h.1Z"/><path class="cls-2" d="M29.29,17a.12.12,0,0,0,0,.06h0a.12.12,0,0,0,0-.08Z"/><path class="cls-2" d="M31.61,22.08h0S31.63,22.07,31.61,22.08Z"/><path class="cls-2" d="M23.79,17.78h0a.21.21,0,0,0,.11-.06l.09-.06Z"/><path class="cls-2" d="M24.28,17.26Z"/><path class="cls-2" d="M22.36,17v.08h.08Z"/><path class="cls-2" d="M23.69,18.58h.08A.06.06,0,0,0,23.69,18.58Z"/><path class="cls-2" d="M21.9,17.1h0c.06,0,.08.11.11.18a.3.3,0,0,0,.06.14.47.47,0,0,1,.06-.26H22A.17.17,0,0,0,21.9,17.1Z"/><path class="cls-2" d="M22.78,17.42a.27.27,0,0,1-.22,0,.42.42,0,0,0,.3.08.52.52,0,0,0,0-.11h0A.12.12,0,0,1,22.78,17.42Z"/><path class="cls-2" d="M23.1,17c-.08,0-.14-.1-.21-.08s-.08,0-.11.1a.27.27,0,0,1-.13.11h.53a.13.13,0,0,0,0-.1Z"/><path class="cls-2" d="M31.26,24.58a.26.26,0,0,1,.14.06h0a1.28,1.28,0,0,0,0-.22h0a.29.29,0,0,1-.11.13S31.25,24.56,31.26,24.58Z"/><path class="cls-2" d="M96.14,22.43h0c-.1,0-.14.06-.14.16a.3.3,0,0,0,.14-.06A.13.13,0,0,0,96.14,22.43Z"/><path class="cls-2" d="M110.08,18.38a.39.39,0,0,0,.21.18h.16s.1-.11.06-.14-.06,0-.16,0h-.16c-.05,0,0-.08,0-.19h-.06a.13.13,0,0,1-.13,0A.32.32,0,0,0,110.08,18.38Z"/><path class="cls-2" d="M110,21h0a.21.21,0,0,0,.11.08h0a.15.15,0,0,1,0-.08h0a.15.15,0,0,0-.11,0Z"/><path class="cls-2" d="M111.26,18.19h-.13v.08h.08S111.26,18.21,111.26,18.19Z"/><path class="cls-2" d="M109.95,17.79l.26-.1a.47.47,0,0,0-.34,0h0S109.92,17.81,109.95,17.79Z"/><path class="cls-2" d="M109.42,17.38Z"/><path class="cls-2" d="M105.85,19.55v-.23h-.11a.2.2,0,0,1,0,.22v.11h0S105.85,19.57,105.85,19.55Z"/><path class="cls-2" d="M109.1,17.41v-.1h0a.1.1,0,0,0,.08.1S109.1,17.44,109.1,17.41Z"/><path class="cls-2" d="M109.93,21.92a.29.29,0,0,0,0-.11.31.31,0,0,1,0-.11h0a.17.17,0,0,1-.08.19h0Z"/><path class="cls-2" d="M111,18Z"/><path class="cls-2" d="M111.2,19.92v-.16h-.1s0,0,0,.08a.24.24,0,0,0,.06.14A.08.08,0,0,0,111.2,19.92Z"/><path class="cls-2" d="M110.93,19.3l-.06.08H111Z"/><path class="cls-2" d="M110.38,18.11l.06-.08.1-.11h0C110.38,18,110.37,18,110.38,18.11Z"/><path class="cls-2" d="M110.49,20.21h.06v.06a.27.27,0,0,1,0-.16c0-.08.13,0,.18,0H111a.33.33,0,0,0-.43,0,.08.08,0,0,1-.06.1Z"/><path class="cls-2" d="M110.37,17.31a.09.09,0,0,1,0,.08h0c0,.06,0,.08.11,0h0a.87.87,0,0,1,.24-.06.32.32,0,0,1,0-.16.56.56,0,0,0,0-.1.15.15,0,0,1-.06.08h-.29a.17.17,0,0,1,.13,0A1.26,1.26,0,0,0,110.37,17.31Z"/><path class="cls-2" d="M110.53,23.57Z"/><path class="cls-2" d="M110.3,19.2h0a.38.38,0,0,0,.11.19h0a.24.24,0,0,0,0-.14h-.08A.08.08,0,0,0,110.3,19.2Z"/><path class="cls-2" d="M105.92,19.44h0s.13,0,.18.06h0s-.06-.1,0-.14a.15.15,0,0,1,.14-.1c.21-.06.21-.19.19-.35h0a.12.12,0,0,0,0-.06v.08a.31.31,0,0,1-.14.22v.08a.14.14,0,0,1,0,.1h-.14a.28.28,0,0,1-.16-.1.23.23,0,0,1-.14.1l.06.11Z"/><path class="cls-2" d="M105.88,20.21h-.06a.49.49,0,0,0,.21-.14h0l0-.07h-.06v.1A.13.13,0,0,1,105.88,20.21Z"/><path class="cls-2" d="M106.36,21.27Z"/><path class="cls-2" d="M106.27,21.76h0V21.7h0Z"/><path class="cls-2" d="M106.14,20.61h0s0-.06-.08-.06h0S106.06,20.61,106.14,20.61Z"/><path class="cls-2" d="M108.35,17.28h0l.08.16a.16.16,0,0,0,0,.06h.06c.06,0,.08-.11.11-.19a.35.35,0,0,1,.22-.26h0a.26.26,0,0,0-.13,0l-.16.08h0a.2.2,0,0,1,0,.1h-.12v-.08h-.14v.18Z"/><path class="cls-2" d="M106.2,22h0Z"/><path class="cls-2" d="M105.69,20.37l-.1.1h.11a.09.09,0,0,1,0-.06Z"/><path class="cls-2" d="M107.6,17.79h.1a.18.18,0,0,1,.06-.13c.06,0,.06-.08,0-.1a.56.56,0,0,1-.14-.19.36.36,0,0,0-.13-.18h0a.37.37,0,0,0,0,.21A.35.35,0,0,1,107.6,17.79Z"/><path class="cls-2" d="M106,18.69h0a.41.41,0,0,1,.13-.34.4.4,0,0,1,.37,0h0a.15.15,0,0,0,0-.08.17.17,0,0,0-.21-.06h0a.53.53,0,0,0-.27.45h0Z"/><path class="cls-2" d="M107.87,17.17v.06h0l.06-.08c.06-.08,0,0,0-.06s-.06-.08-.1-.08,0,0,0,.1A.09.09,0,0,1,107.87,17.17Z"/><path class="cls-2" d="M107.1,17.23h.08a.12.12,0,0,1,0,.08h0v-.1h0a.12.12,0,0,1,0-.08h-.1c-.1,0-.13,0-.14.08h0A.2.2,0,0,1,107.1,17.23Z"/><path class="cls-2" d="M106.56,21h0a.24.24,0,0,0,0,.1h.1a.07.07,0,0,0-.1-.1Z"/><path class="cls-2" d="M106.67,17.6v-.1a.55.55,0,0,1-.27.1h.22S106.67,17.62,106.67,17.6Z"/><path class="cls-2" d="M109.77,17.66h0v-.19h0a.54.54,0,0,0-.22,0h0C109.6,17.55,109.66,17.65,109.77,17.66Z"/><path class="cls-2" d="M96.7,26.23h0a.15.15,0,0,0,.08.06c.1.08.13,0,.16,0s0-.06,0-.08A.19.19,0,0,0,96.7,26.23Z"/><path class="cls-2" d="M97.37,26h-.14v-.19l.13.1a.09.09,0,0,1,0-.08v-.1h0a.3.3,0,0,0-.16,0H97v.16H97c.06.24.16.4.38.43h0S97.34,26.12,97.37,26Z"/><path class="cls-2" d="M96.5,26.56a.7.7,0,0,1,0,.11v.1a.09.09,0,0,0,.1,0,.31.31,0,0,0,.16,0,.57.57,0,0,1-.18-.22Z"/><path class="cls-2" d="M95.69,19.52a.1.1,0,0,0,0-.06.22.22,0,0,1,0-.11h.14a.14.14,0,0,0-.13,0h0a.27.27,0,0,0-.22.14h.1Z"/><path class="cls-2" d="M99.1,25.88v.19s-.13,0-.21-.06h-.06a.15.15,0,0,0,0,.11h.06c.14,0,.18.11.21.18h.18a.5.5,0,0,0-.1-.26Z"/><path class="cls-2" d="M67.08,24.42v.11a.45.45,0,0,1,0-.14v-.13H67A.18.18,0,0,0,67.08,24.42Z"/><path class="cls-2" d="M96.58,25.81a.32.32,0,0,1-.1-.21h0a.22.22,0,0,0,0,.1S96.49,25.78,96.58,25.81Z"/><path class="cls-2" d="M99.43,26.44c-.1,0-.11.08-.14.21h0a.43.43,0,0,0,.16-.18v-.06h0Z"/><path class="cls-2" d="M95.69,23.89a.25.25,0,0,1,.08.18.36.36,0,0,0,0-.18.12.12,0,0,0-.08-.13h-.08v.06C95.61,23.88,95.67,23.87,95.69,23.89Z"/><path class="cls-2" d="M96.44,24.67h0a.34.34,0,0,0-.11.24h0a.29.29,0,0,1,.16-.21Z"/><path class="cls-2" d="M95.64,21.09Z"/><path class="cls-2" d="M95.8,24.88a.13.13,0,0,0,.1-.06h-.06a.12.12,0,0,0,0,.06.23.23,0,0,0,0,.1A.17.17,0,0,0,95.8,24.88Z"/><path class="cls-2" d="M96.23,25.06a.49.49,0,0,1-.06.13.18.18,0,0,0,0,.08h.06a.13.13,0,0,0,0-.06,1.33,1.33,0,0,1,0-.26Z"/><path class="cls-2" d="M96.14,23.84h.08a.8.8,0,0,1-.1-.18.19.19,0,0,1,0-.11s-.06-.06-.1-.06h.08a.15.15,0,0,1,.13.21Z"/><path class="cls-2" d="M95.74,25.92h.08l.21-.13a.23.23,0,0,0-.18.06Z"/><path class="cls-2" d="M111.2,20.29h0Z"/><path class="cls-2" d="M101.07,23.7h0a.19.19,0,0,0-.08-.08h0a.55.55,0,0,0,0,.16H101Z"/><path class="cls-2" d="M101,20.71Z"/><path class="cls-2" d="M101,19.82a.24.24,0,0,1,0-.1h0c-.1,0-.1,0-.1.06s0,.16.1.16S101,19.9,101,19.82Z"/><path class="cls-2" d="M100.73,18h-.21a.27.27,0,0,0-.14.22h0A.34.34,0,0,1,100.73,18Z"/><path class="cls-2" d="M111.31,18.58h0v-.06h0S111.29,18.58,111.31,18.58Z"/><path class="cls-2" d="M101.13,18.59v.11h0v-.16A.12.12,0,0,1,101.13,18.59Z"/><path class="cls-2" d="M101,25.33v.16a.4.4,0,0,0,0,.11h0v-.11h0v-.16Z"/><path class="cls-2" d="M101,19.22h0a.12.12,0,0,0,0-.06.19.19,0,0,0-.06-.14,1.13,1.13,0,0,0-.19-.19h0a.14.14,0,0,0,0,.1.16.16,0,0,0,.13.14h0a.19.19,0,0,1,.1.1Z"/><path class="cls-2" d="M100.23,21.79h0a.13.13,0,0,0,.06.1c.06,0,0,.08.1.08h0a.46.46,0,0,1,0-.1C100.3,21.83,100.28,21.79,100.23,21.79Z"/><path class="cls-2" d="M100.63,20.75h0v-.08C100.63,20.59,100.62,20.75,100.63,20.75Z"/><path class="cls-2" d="M100,26.36h0c.08-.1.06-.14,0-.24Z"/><path class="cls-2" d="M100.55,20.19h0s-.18.1-.16.19,0,0,0,.06S100.52,20.27,100.55,20.19Z"/><path class="cls-2" d="M100.51,21.57a.16.16,0,0,0,.11-.06h0a.15.15,0,0,0-.14.1Z"/><path class="cls-2" d="M100.52,26.23h0s.06.06.06,0h-.06Z"/><path class="cls-2" d="M98.78,26.4h0Z"/><path class="cls-2" d="M117.82,20.75h.11a.23.23,0,0,0,0-.11h0C117.84,20.59,117.84,20.64,117.82,20.75Z"/><path class="cls-2" d="M117.84,20l.06.1h0a.41.41,0,0,0,0-.11h-.06Z"/><path class="cls-2" d="M118.24,19.7a.14.14,0,0,0,0-.1h0a.12.12,0,0,0,0,.14S118.22,19.71,118.24,19.7Z"/><path class="cls-2" d="M117.73,19.28h0a.26.26,0,0,1-.11.14s-.08.08-.08.13A.72.72,0,0,0,117.73,19.28Z"/><path class="cls-2" d="M117.9,23.54h0A.6.6,0,0,1,118,24h0a.13.13,0,0,1,.06-.1h0v-.11A1.62,1.62,0,0,0,117.9,23.54Z"/><path class="cls-2" d="M117.5,20.75h0a.29.29,0,0,0,0-.22C117.46,20.63,117.44,20.69,117.5,20.75Z"/><path class="cls-2" d="M117.87,20.24a.67.67,0,0,0-.22.1h.22A.12.12,0,0,0,117.87,20.24Z"/><path class="cls-2" d="M116.53,19h0s.06,0,.1-.11h0A.14.14,0,0,0,116.53,19Z"/><path class="cls-2" d="M116.34,18c-.06,0-.08,0-.08.13a.25.25,0,0,1,0,.18h.06c.06,0,.13,0,.13-.24a.12.12,0,0,0,0-.06Z"/><path class="cls-2" d="M116.06,17.5H116a.19.19,0,0,0,.11,0h.1a.15.15,0,0,0,0-.08Z"/><path class="cls-2" d="M111.13,20.69a.3.3,0,0,1-.24.06.26.26,0,0,1-.11-.18v-.11a.12.12,0,0,1-.1-.08h0a.47.47,0,0,1,0,.34.19.19,0,0,1-.21.13.6.6,0,0,1,.24.13h0a.61.61,0,0,1,.16-.13.21.21,0,0,1,.19,0h0s.06,0,.08-.08a.25.25,0,0,0,0-.13Z"/><path class="cls-2" d="M116.77,18.26Z"/><path class="cls-2" d="M117.2,19.1h.08S117.22,19.07,117.2,19.1Z"/><path class="cls-2" d="M118,23.2h.17v-.06a.8.8,0,0,1,0-.27.17.17,0,0,0,0-.13h-.3a.3.3,0,0,1,.19.18.31.31,0,0,1-.1.26S118,23.19,118,23.2Z"/><path class="cls-2" d="M116.83,19.57h0a.3.3,0,0,0,.1.16h0C116.9,19.6,116.88,19.58,116.83,19.57Z"/><path class="cls-2" d="M119.55,18.82h0a.74.74,0,0,0,.06.18h0a.21.21,0,0,1,0-.1C119.59,18.83,119.59,18.82,119.55,18.82Z"/><path class="cls-2" d="M119.81,17.73v.16a.14.14,0,0,0,0-.08.08.08,0,0,0,0-.06Z"/><path class="cls-2" d="M111.05,21.89h0v-.06h0c-.06,0-.08,0-.08.06h.08Z"/><path class="cls-2" d="M119.31,19.23h0a.09.09,0,0,0,0,.06h.06S119.31,19.25,119.31,19.23Z"/><path class="cls-2" d="M118.88,20.37Z"/><path class="cls-2" d="M126,4.68H11.15a7.35,7.35,0,0,1-6.66,6.66v24A7.35,7.35,0,0,1,11.15,42H126a7.35,7.35,0,0,1,6.66-6.66v-24A7.35,7.35,0,0,1,126,4.68ZM15.91,27.41a.43.43,0,0,1-.38.14H13.25c-.18,0-.27,0-.32-.13s0-.18,0-.3a3.64,3.64,0,0,0,.3-1.79v-7A3.2,3.2,0,0,0,13,16.62c-.08-.14-.1-.24,0-.3a.58.58,0,0,1,.32-.11h1.94c.42,0,.43,0,.43.46V26a1.93,1.93,0,0,0,.17,1C15.93,27.17,16,27.3,15.91,27.41Zm9.51-9.25a1.5,1.5,0,0,0,0,.27v.88c0,.34,0,.42-.4.42H23c-.14,0-.26,0-.3-.08a.37.37,0,0,1,0-.34l.1-.21.1-.24v-.21s-.1-.06-.19-.08H21c-.21,0-.3.08-.32.29s0,.46,0,.7v.59c0,.19,0,.29.08.35a.6.6,0,0,0,.4.1h2.71a.93.93,0,0,1,.77.32h0a1.85,1.85,0,0,0,.3.3,1.39,1.39,0,0,1,.54,1.31v3A1.78,1.78,0,0,1,24.86,27a1.92,1.92,0,0,1-1.41.58H19.89a1.26,1.26,0,0,1-1-.42c-.13-.13-.24-.22-.32-.32-.43-.4-.43-.42-.43-1V17.58a.54.54,0,0,1,.22-.51h0l.06-.06a2.25,2.25,0,0,1,2.16-.83h3.13a1,1,0,0,1,.74.27l.19.18C25.44,17.26,25.44,17.28,25.42,18.16Zm9.35-.29v.7a.25.25,0,0,1-.1.22.24.24,0,0,1-.26,0,1,1,0,0,1-.37-.13,3.13,3.13,0,0,0-1.38-.14h-.08a.2.2,0,0,0-.14,0,.48.48,0,0,0,0,.34,8.48,8.48,0,0,1,0,.9v5.79A2,2,0,0,0,32.65,27c.1.18.14.3.08.4s-.19.11-.38.11H30c-.19,0-.3,0-.34-.13s0-.16,0-.29A3,3,0,0,0,30,25.51V19.07c0-.46,0-.5-.51-.5a3,3,0,0,0-1.3.21c-.19.08-.32.11-.42,0s-.11-.19-.11-.4v-.61a9.35,9.35,0,0,0,0-1.17c0-.18,0-.27.06-.34a.53.53,0,0,1,.38-.11h5.31a8.66,8.66,0,0,0,.93,0c.26,0,.37.1.38.34A12.41,12.41,0,0,1,34.77,17.87Zm10.07,9.57c0,.1-.19.11-.37.11H42a.3.3,0,0,1-.24-.16.23.23,0,0,1,0-.22A2,2,0,0,0,42,25.84V24.29a4.87,4.87,0,0,1,0-1,.27.27,0,0,0,0-.21.31.31,0,0,0-.21-.06h-.87A8.91,8.91,0,0,0,40,23c-.32,0-.34,0-.35.34V26a1.51,1.51,0,0,0,.16.77,2.59,2.59,0,0,1,.16.37.33.33,0,0,1,0,.26.28.28,0,0,1-.24.1H37.28a.28.28,0,0,1-.21-.08.25.25,0,0,1,0-.22h0a.55.55,0,0,1,0-.14,3,3,0,0,0,.29-1.63v-7a3.39,3.39,0,0,0-.27-1.78c-.06-.14-.08-.24,0-.32a.38.38,0,0,1,.3-.11h2.37c.18,0,.29,0,.32.13a.82.82,0,0,1,0,.27,3.56,3.56,0,0,0-.27,1.82v1.81c0,.38,0,.38.38.38h1.56a.37.37,0,0,0,.22-.06.33.33,0,0,0,.06-.24v-3a1.14,1.14,0,0,0-.16-.5l-.06-.16c-.08-.16-.11-.29-.06-.37s.18-.1.37-.1h2.32c.19,0,.32,0,.37.1s0,.18-.06.34a3.22,3.22,0,0,0-.29,1.52v7.73a2,2,0,0,0,.22,1l.06.13C44.87,27.22,44.9,27.35,44.84,27.44Zm15.78-8.88h-1.7a.29.29,0,0,0-.34.29V24.5c0,.53,0,.54.54.54h1.46c.32,0,.32,0,.35-.34a2.72,2.72,0,0,0-.16-1.06c-.08-.21-.1-.34,0-.43a.57.57,0,0,1,.43-.11h1.7c.52,0,.5.1.51.5a9.22,9.22,0,0,1,0,1v.24a6,6,0,0,0,0,1.2.74.74,0,0,1-.29.69h0a2.15,2.15,0,0,1-1.78.85H61.1c-.83-.06-1.67,0-2.48,0h-.75a1,1,0,0,1-.75-.29h0c-.85-.78-.85-.8-.85-2V17.86a1.1,1.1,0,0,1,.53-1.06s.08,0,.1-.06a1.38,1.38,0,0,1,1.39-.54h3.58a1.09,1.09,0,0,1,.8.3,2.91,2.91,0,0,0,.34.32c.45.4.46.46.45,1.5a7.14,7.14,0,0,0,0,.82v.64a1,1,0,0,1-.1.58c-.1.12-.26.11-.56.11H61c-.14,0-.27,0-.34-.11s0-.18,0-.35a2.5,2.5,0,0,0,.19-1.15C60.91,18.64,60.83,18.54,60.62,18.56Zm12,8.85c-.08.1-.24.11-.51.11h-6c-.22,0-.4,0-.46-.14s0-.27.08-.48a2.25,2.25,0,0,0,.22-1V18.12a2.3,2.3,0,0,0-.24-1.38.75.75,0,0,1-.06-.26.28.28,0,0,1,0-.21.23.23,0,0,1,.18-.08h6.3c.43,0,.46,0,.48.45v1.84a.4.4,0,0,1-.13.35.37.37,0,0,1-.34,0,2.63,2.63,0,0,0-1.42-.24h-2c-.37,0-.4,0-.4.4v1.35c0,.4,0,.34.35.34h1.2a1.63,1.63,0,0,0,.8-.26c.21-.1.34-.13.42-.06s.13.18.13.43V22.9a1.41,1.41,0,0,1,0,.26.27.27,0,0,1-.14.24.21.21,0,0,1-.22,0,2.63,2.63,0,0,0-1.6-.24h-.86a.18.18,0,0,0,0,.13v1.65c0,.14.08.21.26.21h2.77A1.38,1.38,0,0,0,72,25l.22-.08a.4.4,0,0,1,.35,0c.1.06.11.19.13.37V27c0,.21,0,.37-.13.46ZM82.69,27c.11.21.14.34.08.42s-.16.13-.4.13h-1.9a.58.58,0,0,1-.58-.4c-.24-.59-.46-1.12-.67-1.6-.38-.91-.78-1.81-1.18-2.71l-.26-.62a.12.12,0,0,1,0-.08.93.93,0,0,0,0-.11s-.06,0,0,.16a.12.12,0,0,1,0,.08V25.6a3.23,3.23,0,0,0,0,.4,1.5,1.5,0,0,0,.22.9,1.78,1.78,0,0,1,.1.24.35.35,0,0,1,0,.29.28.28,0,0,1-.24.1H75.33c-.24,0-.34-.1-.37-.16A.33.33,0,0,1,75,27a2.26,2.26,0,0,0,.26-1.3v-8A2.51,2.51,0,0,0,75,16.6c-.08-.18-.1-.27,0-.35a.51.51,0,0,1,.37-.11h1.75a.67.67,0,0,1,.74.48c.35.86.72,1.71,1.07,2.56.13.3.26.61.4.91l.1.22.48,1.15h0v.06a.21.21,0,0,0,0-.11V19.33h0V17.5a1.68,1.68,0,0,0-.16-.69l-.08-.18a.47.47,0,0,1,0-.35c.06-.08.18-.1.34-.1H82.4c.22,0,.34,0,.38.13s0,.19-.08.35a2.64,2.64,0,0,0-.27,1.42v7.84A2.1,2.1,0,0,0,82.69,27Zm9.46-9.14v.7a.25.25,0,0,1-.1.22.24.24,0,0,1-.26,0,1,1,0,0,1-.37-.13A3.13,3.13,0,0,0,90,18.51H90a.2.2,0,0,0-.14,0,.47.47,0,0,0,0,.34,8.48,8.48,0,0,1,0,.9v5.79A2,2,0,0,0,90,27c.1.18.14.3.08.4s-.19.11-.38.11H87.41c-.19,0-.3,0-.34-.13s0-.16,0-.29a3,3,0,0,0,.27-1.62v-6.4c0-.46,0-.5-.51-.5a3,3,0,0,0-1.3.21c-.19.08-.32.11-.42,0s-.11-.19-.11-.4v-.61a9.54,9.54,0,0,0,0-1.17c0-.18,0-.27.06-.34a.53.53,0,0,1,.38-.11h5.31a8.65,8.65,0,0,0,.93,0c.26,0,.37.1.38.34a12.67,12.67,0,0,1,.09,1.38Zm10-1.3a3.18,3.18,0,0,0-.27,1.68V26a1,1,0,0,1-.32.75h0a1.92,1.92,0,0,1-2,.82H96.42a1.08,1.08,0,0,1-.8-.34l-.08-.08L95.4,27a1.6,1.6,0,0,1-.7-1.58V21.68h0V17.87a2.42,2.42,0,0,0-.26-1.23.4.4,0,0,1,0-.37c0-.08.16-.11.35-.11h2.32c.18,0,.27,0,.32.11s0,.16,0,.27a3.75,3.75,0,0,0-.27,2v6.24c0,.34,0,.35.35.35h1.65c.35,0,.35,0,.35-.37V17.62a1.91,1.91,0,0,0-.22-1,.33.33,0,0,1-.08-.32.38.38,0,0,1,.32-.11h2.42c.13,0,.27,0,.32.11s0,.12-.1.28ZM113,27.43c0,.1-.19.11-.29.11H110a.35.35,0,0,1-.29-.11.26.26,0,0,1,0-.26,1.09,1.09,0,0,0,0-.9L109.25,25c-.14-.45-.3-.9-.45-1.36s-.18-.48-.7-.48h-.54c-.3,0-.35,0-.35.34V25a4.82,4.82,0,0,1,0,.67,2.16,2.16,0,0,0,.24,1.23v.16h0c0,.18.06.27,0,.34s-.14.08-.3.08h-2.37a.43.43,0,0,1-.34-.1.37.37,0,0,1,.06-.32,3.55,3.55,0,0,0,.27-1.78V17.74a2.14,2.14,0,0,0-.19-1,.85.85,0,0,1-.1-.22c-.06-.18-.08-.29,0-.35a.49.49,0,0,1,.34-.1h5.65a.72.72,0,0,1,.64.27l.13.13.18.16c.53.46.54.48.53,1.17a3.3,3.3,0,0,0,0,.37v3.17a1.24,1.24,0,0,1-.4,1c-.51.48-.51.48-.29,1.14h0c.21.61.46,1.31.69,2a2.75,2.75,0,0,0,.7,1.22,3.07,3.07,0,0,1,.24.26c.08.1.21.4.16.48Zm9-10.8a6.27,6.27,0,0,0-1.38,2.27c-.16.35-.32.7-.5,1.06-.08.16-.16.32-.24.46s-.21.45-.32.66a1.91,1.91,0,0,0-.27,1v3.76a2.3,2.3,0,0,0,.19,1,.93.93,0,0,1,.11.34.26.26,0,0,1,0,.22c0,.06-.11.08-.22.08H117a.31.31,0,0,1-.29-.13.22.22,0,0,1,0-.24,4.61,4.61,0,0,0,.34-2.4v-1a11.92,11.92,0,0,0,0-2,1.81,1.81,0,0,0-.18-.54l-.38-.8c-.5-1-1-2-1.47-3a1.68,1.68,0,0,0-.37-.51,3.82,3.82,0,0,1-.27-.32h0a.22.22,0,0,1-.08-.26c0-.13.16-.11.24-.11h2.85a.27.27,0,0,1,.22.08.3.3,0,0,1,0,.26.1.1,0,0,1,0,.06c-.35.45-.13.88.1,1.28.11.19.21.42.3.61s.11.26.18.38.06.08.06.08l.06-.1a14.39,14.39,0,0,0,.7-1.41.64.64,0,0,0,0-.67.79.79,0,0,1-.13-.29.22.22,0,0,1,0-.21.2.2,0,0,1,.18-.08h3c.08,0,.21,0,.24.13a.28.28,0,0,1-.2.31Z"/><path class="cls-2" d="M120.23,17.66Z"/><path class="cls-2" d="M119.91,17.26a.35.35,0,0,0,.06.11v-.06a.16.16,0,0,0-.11-.11Z"/><path class="cls-2" d="M118.4,24.42h.08a.18.18,0,0,1,.13,0h.08a.62.62,0,0,0-.27-.06Z"/><path class="cls-2" d="M118.37,23.57a.39.39,0,0,1,.19-.22.52.52,0,0,0-.22-.06.31.31,0,0,1-.06.19c-.06.11,0,.14,0,.14h.11Z"/><path class="cls-2" d="M118.87,19.89v-.06a.18.18,0,0,0-.1-.08.13.13,0,0,1,0,.06c0,.06,0,.14-.06.16a.13.13,0,0,1-.14,0v-.06h0V20a.16.16,0,0,1,0,.18.22.22,0,0,1-.16.08h-.11a.25.25,0,0,1,.13,0,.35.35,0,0,1,.19.08h0a.14.14,0,0,1,.13-.08h0a.22.22,0,0,1-.08-.14C118.72,20,118.8,20,118.87,19.89Z"/><path class="cls-2" d="M118.19,25.56a.32.32,0,0,0,0,.13h.06a.11.11,0,0,0-.1-.11Z"/><path class="cls-2" d="M118.43,24.23a.28.28,0,0,0,0-.22.25.25,0,0,1,0-.13l-.06-.06A1.2,1.2,0,0,0,118.43,24.23Z"/><path class="cls-2" d="M118.42,26.37h0v.06h.06S118.43,26.37,118.42,26.37Z"/><path class="cls-2" d="M118.14,26h0a.17.17,0,0,0,0,.08h.1l-.06-.06Z"/><path class="cls-2" d="M105.84,24.58h-.06v.1s.06,0,.08,0h0Z"/><path class="cls-2" d="M106.14,23.63h0a.12.12,0,0,1,0,.06Z"/><path class="cls-2" d="M106.16,22.31a.26.26,0,0,0-.16,0c.06,0,.08.11.1.18h.06a.06.06,0,0,1,.06,0h.08a.19.19,0,0,1,.06.13.17.17,0,0,1-.11.19h.1c.1,0,.11-.11.11-.22h0a1.13,1.13,0,0,0,0-.34A.79.79,0,0,1,106.16,22.31Z"/><path class="cls-2" d="M107.15,21.54a.15.15,0,0,1-.08.18h.12a.09.09,0,0,1,.1,0h0v-.18a.35.35,0,0,1,0-.13h0A.38.38,0,0,0,107.15,21.54Z"/><path class="cls-2" d="M106.41,23.25h.08C106.43,23.25,106.44,23.22,106.41,23.25Z"/><path class="cls-2" d="M106.67,21.46a.12.12,0,0,0-.11,0v.1c0,.1,0,0,.06,0h.06v-.11Z"/><path class="cls-2" d="M107,22.37Z"/><path class="cls-2" d="M107.05,21.46h0a.12.12,0,0,0-.08-.1c-.08,0,0,0-.06,0h.1Z"/><path class="cls-2" d="M106.49,22.21h0Z"/><path class="cls-2" d="M105.92,21.23h0v.06c0,.06,0,.08-.08.1h.06S105.92,21.35,105.92,21.23Z"/><path class="cls-2" d="M105.84,21.83h.06v-.19a.22.22,0,0,1-.06.13A.06.06,0,0,0,105.84,21.83Z"/><path class="cls-2" d="M105.92,23.76h0v.1h0A.12.12,0,0,0,105.92,23.76Z"/><path class="cls-2" d="M105.88,23.23c0,.08-.06.14,0,.18s.08,0,.18,0,0-.11-.1-.18S105.9,23.25,105.88,23.23Z"/><path class="cls-2" d="M106.19,25.7s-.11,0-.1.1h.16S106.27,25.71,106.19,25.7Z"/><path class="cls-2" d="M106.08,26.34h.06c.06,0,0,0-.08-.06S106.08,26.32,106.08,26.34Z"/><path class="cls-2" d="M111,26.32l.06.06c.06.06,0,0,0-.06Z"/><path class="cls-2" d="M108.29,22.31a.61.61,0,0,1-.24-.08.34.34,0,0,0-.43,0c.08.13.18.11.32.08h0a.07.07,0,0,1,.08,0h0a.53.53,0,0,1,.22.06h.08S108.41,22.32,108.29,22.31Z"/><path class="cls-2" d="M110.19,23.46h.14a.12.12,0,0,0,0-.08.33.33,0,0,0-.18.06Z"/><path class="cls-2" d="M110.46,25.3h0a.48.48,0,0,0,.06-.13h-.13A.27.27,0,0,0,110.46,25.3Z"/><path class="cls-2" d="M110.3,23.86Z"/><path class="cls-2" d="M110.91,25.65v-.12h-.1l-.1.06h.06a.31.31,0,0,1,.18.11h0a.12.12,0,0,1,.13,0H111C110.94,25.79,110.93,25.7,110.91,25.65Z"/><path class="cls-2" d="M110.7,24.93h0V25h0A.06.06,0,0,0,110.7,24.93Z"/><path class="cls-2" d="M110.81,25.89a.37.37,0,0,1-.16-.08h0v.08a.26.26,0,0,0,0,.13.17.17,0,0,1,.13-.1h.08V26a.32.32,0,0,1-.06.13h.1a.28.28,0,0,0,0-.32Z"/><path class="cls-2" d="M110.35,23.17h-.06v.06a.12.12,0,0,1,0,.06v-.06h0Z"/><path class="cls-2" d="M109.58,21.89c-.16-.16-.29-.1-.45,0h.06a.26.26,0,0,1,.11-.14.28.28,0,0,1,.22,0h.13Z"/><path class="cls-2" d="M109.57,20.5V18.8a.21.21,0,0,0-.17-.24h-1.82c-.27,0-.32,0-.32.32v1.53a.33.33,0,0,0,.06.24.32.32,0,0,0,.22.08h1.79a.21.21,0,0,0,.24-.23Z"/><path class="cls-2" d="M110.25,23v-.1a.31.31,0,0,1,0-.24v-.27a.17.17,0,0,0-.11,0,1.28,1.28,0,0,0-.42.46l-.1.18a.14.14,0,0,0,0,.14.17.17,0,0,0,.08.11c.06-.3.1-.34.37-.34H110a.23.23,0,0,1,.21.08Z"/><path class="cls-2" d="M109.85,23.6h0s-.13,0-.14-.08h0a.18.18,0,0,1,0,.21.21.21,0,0,0,.21-.1Z"/><path class="cls-2" d="M109.95,24a.14.14,0,0,0,0-.08h0a.13.13,0,0,0-.11.06h0Z"/><path class="cls-2" d="M109.92,24.5Z"/><path class="cls-2" d="M98.18,26.34H98.1l.18.06h0A.09.09,0,0,1,98.18,26.34Z"/><path class="cls-2" d="M78.54,22.18h0s.06-.06,0-.08h0Z"/><path class="cls-2" d="M78,19.55h-.06a.19.19,0,0,0-.08.08h.06a.53.53,0,0,1,.24-.08h0C78.13,19.49,78.08,19.52,78,19.55Z"/><path class="cls-2" d="M78,20.67h0a.23.23,0,0,0-.19-.06Z"/><path class="cls-2" d="M78.1,21Z"/><path class="cls-2" d="M79.91,22.37h-.08a.68.68,0,0,1-.11.18,1.13,1.13,0,0,0-.11.18h.06a.21.21,0,0,1,.16-.22h.06Z"/><path class="cls-2" d="M78.77,21.84h0a.16.16,0,0,0,0,.08c.08.08.18.06.29,0s0,0-.08,0A.18.18,0,0,1,78.77,21.84Z"/><path class="cls-2" d="M79.14,22.07Z"/><path class="cls-2" d="M77.38,20a.17.17,0,0,1,0-.11.1.1,0,0,0-.1,0V20h.1Z"/><path class="cls-2" d="M69,26.36h-.06s0,.06.13.06h.06Z"/><path class="cls-2" d="M77.81,18.77a.2.2,0,0,0-.08-.18.34.34,0,0,1,0,.22h0S77.81,18.83,77.81,18.77Z"/><path class="cls-2" d="M77.3,20.48v-.06h-.06C77.18,20.42,77.26,20.48,77.3,20.48Z"/><path class="cls-2" d="M80,23.71h0v.11a.1.1,0,0,1,0,.06c.06,0,.08-.1,0-.16Z"/><path class="cls-2" d="M77.22,21.43v-.06a.18.18,0,0,1,.06-.18.32.32,0,0,0-.22-.1A.48.48,0,0,1,77.22,21.43Z"/><path class="cls-2" d="M77.54,19.44h0v.11h.06c.06,0,0,0,0-.06A.06.06,0,0,0,77.54,19.44Z"/><path class="cls-2" d="M77.7,20Z"/><path class="cls-2" d="M80.5,25.11h-.06A.22.22,0,0,1,80.3,25l-.06.08-.08.08h.25A.13.13,0,0,0,80.5,25.11Z"/><path class="cls-2" d="M81.39,17.81h0c.08,0,.13,0,.13-.1h-.08s-.06,0,0,.08Z"/><path class="cls-2" d="M81.19,20.24h0v.1h0A.17.17,0,0,1,81.19,20.24Z"/><path class="cls-2" d="M80.87,21.94h0l.06.06h0Z"/><path class="cls-2" d="M80.39,23.81a.22.22,0,0,1-.06.19h.06a.35.35,0,0,0,.14-.11.29.29,0,0,1,0-.16.09.09,0,0,1,0-.06S80.39,23.71,80.39,23.81Z"/><path class="cls-2" d="M80.75,19.31h0s.11,0,.11-.1-.08-.06-.13-.06h-.06v.06A.17.17,0,0,0,80.75,19.31Z"/><path class="cls-2" d="M80.51,23.2h0c-.08,0-.11-.08-.14-.11h0a.13.13,0,0,1,0,.11h-.06a.1.1,0,0,1-.08-.06.13.13,0,0,1,0-.11h-.1a.18.18,0,0,0,.08.18A.63.63,0,0,0,80.51,23.2Z"/><path class="cls-2" d="M81,19.73Z"/><path class="cls-2" d="M81.3,18.3h-.08a.22.22,0,0,0-.08.14h.06A.13.13,0,0,0,81.3,18.3Z"/><path class="cls-2" d="M81.11,17.41a.22.22,0,0,1,0-.1v-.06a.12.12,0,0,0,0,.06v.06c0,.06,0,0,.06,0S81.11,17.42,81.11,17.41Z"/><path class="cls-2" d="M81.52,20.06h.08V20h-.08Z"/><path class="cls-2" d="M80.85,22.61h0l.11.06h0A.12.12,0,0,0,80.85,22.61Z"/><path class="cls-2" d="M81,24.15h-.1S81,24.16,81,24.15Z"/><path class="cls-2" d="M81,18.8l.1-.06h.13l-.08-.08v-.08h-.06a.26.26,0,0,1,0,.08v.13S81,18.83,81,18.8Z"/><path class="cls-2" d="M81.17,22.35H81a.31.31,0,0,0,.19.06Z"/><path class="cls-2" d="M77.07,20.3H77v.1s0,0,.1,0S77.07,20.32,77.07,20.3Z"/><path class="cls-2" d="M77.06,19.38h0l.06.06a.21.21,0,0,1,0-.16.23.23,0,0,1,.21,0h-.06C77.17,19.25,77.12,19.31,77.06,19.38Z"/><path class="cls-2" d="M77,17.25A1.41,1.41,0,0,0,77,17h-.06v.06c0,.06.06.11.06.18Z"/><path class="cls-2" d="M76.63,21.67v.17h.1v-.16h0A.09.09,0,0,0,76.63,21.67Z"/><path class="cls-2" d="M76.51,22Z"/><path class="cls-2" d="M76.58,20.46h0c0-.08.08-.16.11-.22s0-.06-.06-.08h0a.09.09,0,0,0,0,.06h0A.25.25,0,0,1,76.58,20.46Z"/><path class="cls-2" d="M76.59,23.52h0a.17.17,0,0,0-.1-.11h.06Z"/><path class="cls-2" d="M77.38,17.86h0a.31.31,0,0,0,.06-.13v-.06s-.06,0-.08.11,0,0,0,.08h0Z"/><path class="cls-2" d="M70,26.84v.06h0a.14.14,0,0,0,.1-.11h0S70,26.79,70,26.84Z"/><path class="cls-2" d="M69.6,26h0v-.06h0a.15.15,0,0,1,0-.14l-.06.06a.43.43,0,0,0,0,.16h0s.06.11,0,.18-.1.1-.1.11h.19a.16.16,0,0,1,.14-.19h0A.21.21,0,0,1,69.6,26Z"/><path class="cls-2" d="M70.54,26.23h0v-.1a.32.32,0,0,0-.06-.1A.25.25,0,0,0,70.54,26.23Z"/><path class="cls-2" d="M68.06,22.13h0a.22.22,0,0,0,.11.13v-.14h0S68.08,22.11,68.06,22.13Z"/><path class="cls-2" d="M71.15,25.78h0V26h0a.12.12,0,0,0,.1-.11A.12.12,0,0,0,71.15,25.78Z"/><path class="cls-2" d="M68.78,26a.15.15,0,0,0-.11,0,1.51,1.51,0,0,0-.24.21h.06a.15.15,0,0,1,.14-.16h.1Z"/><path class="cls-2" d="M77.15,19.7v.08h0a.13.13,0,0,0,0-.06.11.11,0,0,1,.08-.1h0Z"/><path class="cls-2" d="M76.53,25a.46.46,0,0,1-.43,0H76a.2.2,0,0,0,0,.06h.08a.68.68,0,0,1,.26.08h.24V25Z"/><path class="cls-2" d="M76.16,26v.1h0a.06.06,0,0,0,0-.08.13.13,0,0,0,0-.08A.24.24,0,0,0,76.16,26Z"/><path class="cls-2" d="M76.61,24.32a.13.13,0,0,1-.08-.08v.11h.18a.09.09,0,0,0,0-.06h0A.16.16,0,0,1,76.61,24.32Z"/><path class="cls-2" d="M76.11,23.11h0s.08.06.1,0a.11.11,0,0,0,.1-.06h-.1Z"/><path class="cls-2" d="M76.9,17.7H77c.11,0,.13-.1.14-.19s0,0,0-.06h-.18a.53.53,0,0,1-.11-.11h-.08l.06.08a.25.25,0,0,1,.1.22A.35.35,0,0,0,76.9,17.7Z"/><path class="cls-2" d="M76.94,18.34h0a.12.12,0,0,0,0,.11h0a.11.11,0,0,0,.1-.11Z"/><path class="cls-2" d="M76.26,20.4h-.1a.23.23,0,0,1-.18,0h0a.23.23,0,0,0,.22-.1Z"/><path class="cls-2" d="M76.34,24.18h0a.12.12,0,0,1,.13,0s-.06-.06-.1,0S76.34,24.11,76.34,24.18Z"/><path class="cls-2" d="M76.24,20h.06a.25.25,0,0,0,0-.08.22.22,0,0,1,0-.18c0-.1,0-.11-.06-.11s-.06.08-.08.19v.11C76.19,20,76.19,20,76.24,20Z"/><path class="cls-2" d="M76.27,21.36v.21h0v-.08h0C76.32,21.35,76.3,21.35,76.27,21.36Z"/><path class="cls-2" d="M68.11,26h0a.19.19,0,0,0,0,.1h0S68.17,26,68.11,26Z"/><path class="cls-2" d="M76.06,19.41h0v0Z"/><path class="cls-2" d="M68.4,21.71h.06a.12.12,0,0,0,0-.13.15.15,0,0,1,0-.19.16.16,0,0,0,0-.1h-.08a.09.09,0,0,1-.08,0h-.08C68,21,68,21,67.74,21.1h.12a.25.25,0,0,1,.21.06.31.31,0,0,1,0,.24A.87.87,0,0,0,68.4,21.71Z"/><path class="cls-2" d="M77.41,20.64h0S77.39,20.63,77.41,20.64Z"/><path class="cls-2" d="M88.53,25.6v-.06l-.08-.13a.22.22,0,0,0-.22,0c.13,0,.18.13.21.21a.11.11,0,0,1,0,.11h.22A.33.33,0,0,1,88.53,25.6Z"/><path class="cls-2" d="M88.58,26.47h0v.06q0,.08,0,.16h0a.24.24,0,0,1,0-.14Z"/><path class="cls-2" d="M88.33,23h.08a.16.16,0,0,1,.11.06h0Z"/><path class="cls-2" d="M89.48,17.94h0Z"/><path class="cls-2" d="M89.06,26a.17.17,0,0,0,.16-.06l-.14.06Z"/><path class="cls-2" d="M88.52,22.59a.31.31,0,0,1-.1-.19.3.3,0,0,1,.11-.14.27.27,0,0,0,.1-.1V22.1h0a.2.2,0,0,0-.13.08.72.72,0,0,0-.14.16c-.08.14-.1.22,0,.29S88.41,22.69,88.52,22.59Z"/><path class="cls-2" d="M88.95,24.72h0a.77.77,0,0,1-.11.29v.1h.08l.13-.06h0a.45.45,0,0,0,0-.14.2.2,0,0,1,0-.1.07.07,0,1,0-.1-.09Z"/><path class="cls-2" d="M89.09,22.88A.06.06,0,0,0,89,22.8a.14.14,0,0,0-.19,0h.06a.19.19,0,0,1,.14.08h0S89.09,22.9,89.09,22.88Z"/><path class="cls-2" d="M88.29,17.76a.17.17,0,0,1,0-.13,1.59,1.59,0,0,1,0-.27V17.3h-.06a.32.32,0,0,1-.17.42h0a.29.29,0,0,0-.1.13,1,1,0,0,0,.3-.13Z"/><path class="cls-2" d="M87.92,17.17V17.1a.32.32,0,0,1-.13.13l-.06.08h0c.14,0,.18,0,.18-.13Z"/><path class="cls-2" d="M88.12,18.66h0s-.1,0-.1.08h0A.22.22,0,0,0,88.12,18.66Z"/><path class="cls-2" d="M88.07,23.44H88S88.08,23.46,88.07,23.44Z"/><path class="cls-2" d="M88.29,21.07a.21.21,0,0,0,0-.1.67.67,0,0,1,.13-.29,1.89,1.89,0,0,0-.22.27.13.13,0,0,1-.16,0h0c0,.06,0,.08.16.06h.11Z"/><path class="cls-2" d="M88.08,23.22Z"/><path class="cls-2" d="M91.19,17.25h.16C91.24,17.23,91.22,17.23,91.19,17.25Z"/><path class="cls-2" d="M96,24.5h-.06a.12.12,0,0,0,0,.08v-.06Z"/><path class="cls-2" d="M96.09,20a.23.23,0,0,0-.11-.13.13.13,0,0,0-.13,0V20H96s0,.08,0,.13a.16.16,0,0,1-.18,0,.17.17,0,0,0,0,.06h.08a.2.2,0,0,1,.19,0A.58.58,0,0,0,96.09,20Z"/><path class="cls-2" d="M89.72,17.5h0a.11.11,0,0,0,.14.11c.06,0,0,0,0-.06h0Z"/><path class="cls-2" d="M96,21h.08c.08,0,0-.14,0-.18a.12.12,0,0,1,0,.13Z"/><path class="cls-2" d="M96.1,21.62h0v.08h0v.11h0s.08-.06.08-.1Z"/><path class="cls-2" d="M96,18.46h-.1a.08.08,0,0,1,0,.06H96Z"/><path class="cls-2" d="M95.78,21.43h0a.28.28,0,0,0,0,.08h0v-.06l.06-.06Z"/><path class="cls-2" d="M95.78,18.72h0v-.1a.12.12,0,0,0,0,.08Z"/><path class="cls-2" d="M88.23,19.65h.18c-.06,0-.11,0-.13.06Z"/><path class="cls-2" d="M67.42,25.63a.65.65,0,0,1-.26.26.26.26,0,0,0,.22-.08.28.28,0,0,0,.11-.08v-.06a.36.36,0,0,0,0-.08Z"/><path class="cls-2" d="M96.36,21.31c0-.06,0-.1-.06-.1h0a.11.11,0,0,0,.06.11h0Z"/><path class="cls-2" d="M90,17a.12.12,0,0,0,0-.06h0a.15.15,0,0,0,0-.08A.2.2,0,0,0,90,17Z"/><path class="cls-2" d="M95.86,18.32a.44.44,0,0,1,.26-.34.73.73,0,0,0,.27-.3.71.71,0,0,0,.08-.14h0c0,.11-.1.16-.18.18a.34.34,0,0,1-.26-.13H96s.19.11.19.16-.08.06-.16.08h-.1c-.1,0-.11.1-.14.22a.53.53,0,0,1-.06.21h0A.2.2,0,0,1,95.86,18.32Z"/><path class="cls-2" d="M96.34,22.21h0a.17.17,0,0,0-.13.14A.26.26,0,0,0,96.34,22.21Z"/><path class="cls-2" d="M67.56,23.28h0S67.6,23.28,67.56,23.28Z"/><path class="cls-2" d="M81.63,21.35h-.11a.69.69,0,0,0,.16.13h.06S81.73,21.35,81.63,21.35Z"/><path class="cls-2" d="M67.84,21.79a.11.11,0,0,0,.1.06,1.36,1.36,0,0,1-.11-.21A.16.16,0,0,0,67.84,21.79Z"/><path class="cls-2" d="M81.7,25.62v-.11c0-.1,0-.13-.06-.14s0,0-.08.1v.06s.14.16.19.16h0Z"/><path class="cls-2" d="M81.63,24.27h.06S81.71,24.27,81.63,24.27Z"/><path class="cls-2" d="M86.68,17a.12.12,0,0,0,0,.06h0a.12.12,0,0,0,0-.08Z"/><path class="cls-2" d="M86.44,17.15h-.06v.06c0,.06.06,0,.11-.06h-.05Z"/><path class="cls-2" d="M67.63,22h0s.08.06.06.11h0s.06-.06.06-.08h0Z"/><path class="cls-2" d="M81.14,23.73H81v.06h.06Z"/><path class="cls-2" d="M80.82,25.57a.23.23,0,0,1-.05.32l-.06,0a.27.27,0,0,0,0,.16h0a.42.42,0,0,1,.26-.4.33.33,0,0,1-.16-.11Z"/><path class="cls-2" d="M87.16,17.71h-.25a.49.49,0,0,1,.21.1h.1Z"/><path class="cls-2" d="M81.54,19.39h-.08a.3.3,0,0,0-.11.1h.06l.08-.06h.08Z"/><path class="cls-2" d="M80.58,22.74V22.5h-.1a.33.33,0,0,1,.1.3h0Z"/><path class="cls-2" d="M81.23,26.34h-.06a.45.45,0,0,0,0,.14h.16a.35.35,0,0,1,0-.08Z"/><path class="cls-2" d="M81.31,21.87h-.06V22h0a.47.47,0,0,0,0,.21h.11a.3.3,0,0,0,.08-.18S81.39,21.92,81.31,21.87Z"/><path class="cls-2" d="M88.53,19.39v.06l.1.11V19.4s0,0-.06-.06S88.53,19.38,88.53,19.39Z"/><path class="cls-2" d="M88.87,17.78c0,.13,0,.16.16.22h0c0-.06,0-.08-.08-.13a.16.16,0,0,1-.11-.11Z"/><path class="cls-2" d="M89,17.22Z"/><path class="cls-2" d="M88.53,20.5h0a.26.26,0,0,1,0,.14A.32.32,0,0,0,88.53,20.5Z"/><path class="cls-2" d="M89,20.66a.11.11,0,0,1-.1-.08c0-.08,0,0-.06.08h0a.4.4,0,0,0,.19,0Z"/><path class="cls-2" d="M89,22.08h0S89,22.07,89,22.08Z"/><path class="cls-2" d="M88.55,17.92l.06-.08a.25.25,0,0,1,.19-.16v-.13s-.08,0-.18,0h-.11a.23.23,0,0,1,0,.11s0,.13-.06.14a.13.13,0,0,1-.11,0h0v.11S88.52,17.94,88.55,17.92Z"/><path class="cls-2" d="M88.71,18.54a.28.28,0,0,0,0-.26.39.39,0,0,0-.35-.11h0a2.3,2.3,0,0,0,.24.45A.18.18,0,0,0,88.71,18.54Z"/><path class="cls-2" d="M80.48,25.84h0a.07.07,0,0,0,0,.06h.08a.06.06,0,0,0-.06-.06Z"/><path class="cls-2" d="M88.71,23.46l.06.08Z"/><path class="cls-2" d="M88.65,24.58a.26.26,0,0,1,.14.06h0a1.28,1.28,0,0,0,0-.22h0a.29.29,0,0,1-.11.13S88.63,24.56,88.65,24.58Z"/><path class="cls-2" d="M67.44,20.69h0v.1s0,.08.06.08h0C67.52,20.71,67.48,20.69,67.44,20.69Z"/><path class="cls-2" d="M88.69,20.14l.08.13a.5.5,0,0,1,.24-.4v-.1a.07.07,0,0,0,0-.06.32.32,0,0,1-.29,0h-.06a.28.28,0,0,1-.14.16.35.35,0,0,1,.14.16v-.16h.19l-.11.16a.06.06,0,0,0-.05.11Z"/><path class="cls-2" d="M88.95,21h0s-.1-.06-.13,0a.07.07,0,0,0,0,.06.43.43,0,0,1-.21.21h-.14a.44.44,0,0,0,.21.27h.06a.12.12,0,0,0,.1,0v-.08h0v-.1s-.06-.18,0-.24.11,0,.24,0A.1.1,0,0,0,89,21Z"/><path class="cls-2" d="M129.72,0H7.56A7.58,7.58,0,0,1,0,7.59V39.16a7.58,7.58,0,0,1,7.56,7.59H129.72a7.58,7.58,0,0,1,7.56-7.59V7.59A7.58,7.58,0,0,1,129.72,0Zm4.47,36.72h-.65a6.07,6.07,0,0,0-6.05,6.07v.65H9.8v-.65a6.07,6.07,0,0,0-6.05-6.07H3.09V10h.65A6.07,6.07,0,0,0,9.8,4V3.3H127.49V4a6.07,6.07,0,0,0,6,6h.65Z"/></svg>