<svg id="Layer_1" data-name="Layer 1" xmlns="http://www.w3.org/2000/svg" viewBox="0 0 60 53.75"><defs><style>.cls-1{fill:#353535;}.cls-2{fill:#86754d;}</style></defs><title>story-button-1850-v2</title><rect class="cls-1" x="8.33" y="18.56" width="43.67" height="15.13"/><path class="cls-2" d="M23.56,22.51Z"/><path class="cls-2" d="M23.58,23.66Z"/><path class="cls-2" d="M23.27,23.2h.14l-.08-.08L23.24,23l-.17-.17H23a3.74,3.74,0,0,0,.25.29Z"/><path class="cls-2" d="M25.17,22.78h.06a.38.38,0,0,0-.18,0h.06S25.12,22.79,25.17,22.78Z"/><path class="cls-2" d="M23.8,23Z"/><path class="cls-2" d="M23.1,25.28v-.07h0a.22.22,0,0,1,0-.13A.23.23,0,0,1,23,25a.81.81,0,0,0,0,.2.16.16,0,0,1,0,.11h.1Z"/><path class="cls-2" d="M25.74,22.61a.09.09,0,0,0,.06.08c.06,0,0,0,0,.06a.2.2,0,0,1,.13-.15.24.24,0,0,1-.14,0h-.07v.06C25.72,22.72,25.74,22.59,25.74,22.61Z"/><path class="cls-2" d="M24,23.25h0a.21.21,0,0,0-.11.11h0S24,23.34,24,23.25Z"/><path class="cls-2" d="M23.1,25.61H23l.18.11v-.18A.24.24,0,0,1,23.1,25.61Z"/><path class="cls-2" d="M23.7,26.39v-.06h0v.07c0,.1,0,.13.13.17h0A.17.17,0,0,1,23.7,26.39Z"/><path class="cls-2" d="M23.19,24.71a.22.22,0,0,0-.06-.14h0a.7.7,0,0,0-.08.33.14.14,0,0,1,0-.06C23.14,24.78,23.19,24.74,23.19,24.71Z"/><path class="cls-2" d="M23.75,25.3Z"/><path class="cls-2" d="M23.35,25.93V26h.08A.2.2,0,0,1,23.35,25.93Z"/><path class="cls-2" d="M23.49,25.37a.09.09,0,0,0,0-.06h0a.09.09,0,0,0-.08.07h0a.23.23,0,0,1,0,.14.59.59,0,0,1,.14-.13A0,0,0,0,0,23.49,25.37Z"/><path class="cls-2" d="M26.16,22.51h0v.06A.08.08,0,0,0,26.16,22.51Z"/><path class="cls-2" d="M23.3,24a.34.34,0,0,1-.14-.17.31.31,0,0,0-.08-.17h-.15a.1.1,0,0,1,.08.14.07.07,0,0,1,0,.06h0a.19.19,0,0,1,.11,0,.18.18,0,0,1,.14.1.06.06,0,0,0,.06.06h.08Z"/><path class="cls-2" d="M18.63,30.55h-.11a.23.23,0,0,1,.13,0c.06.07.07.07.07.07v-.26A.15.15,0,0,1,18.63,30.55Z"/><path class="cls-2" d="M18.83,29.89v-.06H18.7a.11.11,0,0,1-.06-.06c0,.07,0,.11.11.17A.42.42,0,0,0,19,30,.17.17,0,0,1,18.83,29.89Z"/><path class="cls-2" d="M19.19,29.49h-.07s0,.08.13.11h0A.29.29,0,0,0,19.19,29.49Z"/><path class="cls-2" d="M19.14,30.58h-.08s0,.08,0,.11h0a.63.63,0,0,1,.11-.08h0Z"/><path class="cls-2" d="M19,28.5h0c0,.06,0,.08.08.13a.43.43,0,0,1,.13.1.23.23,0,0,0,.08-.08l.06-.1h-.13A.2.2,0,0,1,19,28.5Z"/><path class="cls-2" d="M18.31,27.17h.06l-.07.06Z"/><path class="cls-2" d="M19.49,28.2h-.1a.14.14,0,0,0-.11.06.37.37,0,0,0,.21,0Z"/><path class="cls-2" d="M23.83,24.64a.12.12,0,0,1-.07.1h0l.06-.1Z"/><path class="cls-2" d="M18.48,26.73h0c-.07,0-.1.11-.11.18h.2a.13.13,0,0,1-.1-.16Z"/><path class="cls-2" d="M19.52,23.45h0c0,.1.06.11.07.11h0a.15.15,0,0,0-.08-.1Z"/><path class="cls-2" d="M27.75,22.71h-.06s-.06,0,0,.07S27.75,22.72,27.75,22.71Z"/><path class="cls-2" d="M19.53,28.76a.11.11,0,0,1,0-.06v-.1a.12.12,0,0,0-.1,0,.14.14,0,0,0,.06.11Z"/><path class="cls-2" d="M26.58,22.52h.21a.12.12,0,0,0,0-.08.23.23,0,0,0-.17-.06h-.17v.13S26.45,22.54,26.58,22.52Z"/><path class="cls-2" d="M19.81,24.9Z"/><path class="cls-2" d="M19.68,24.43v.14s.06-.1,0-.15Z"/><path class="cls-2" d="M19.46,30.49a.16.16,0,0,1,0,.11c0,.07,0,.1.06.11h0a.17.17,0,0,1,0-.08C19.53,30.52,19.52,30.49,19.46,30.49Z"/><path class="cls-2" d="M26.53,22.85a.11.11,0,0,1,0-.06h-.08a.36.36,0,0,1-.21,0h-.08a.39.39,0,0,0,.32.11A.11.11,0,0,1,26.53,22.85Z"/><path class="cls-2" d="M25.12,30.35H25a.66.66,0,0,1-.22,0,.19.19,0,0,0,0,.14.11.11,0,0,1,0,.13.14.14,0,0,1-.13,0A.83.83,0,0,0,25.12,30.35Z"/><path class="cls-2" d="M26.59,31Z"/><path class="cls-2" d="M26.07,30.33s-.1-.06-.13,0H26a.11.11,0,0,1,.1,0v.17a.17.17,0,0,0,0,.1.09.09,0,0,1,.08.06h0v-.14s.1-.11.1-.11a.14.14,0,0,1-.11-.06Z"/><path class="cls-2" d="M27.92,28.52h0s-.06,0-.07.08h0A.1.1,0,0,0,27.92,28.52Z"/><path class="cls-2" d="M24,23.7v-.06c0-.06-.06,0-.14,0a.29.29,0,0,1-.15.06h-.06l-.06.06a.2.2,0,0,0,.11.13c.06,0,.11,0,.15-.06h.07S24,23.74,24,23.7Z"/><path class="cls-2" d="M25.48,30.28a.36.36,0,0,0,0-.11.23.23,0,0,0,0,.14Z"/><path class="cls-2" d="M26.8,26.36v.08c0,.08,0,0,.06,0h0v-.06S26.83,26.35,26.8,26.36Z"/><path class="cls-2" d="M26.08,31h0v.07h0V31h0Z"/><path class="cls-2" d="M25.1,30.7h0a.16.16,0,0,1,0-.14h0a.18.18,0,0,0-.08.06Z"/><path class="cls-2" d="M25.58,30.61Z"/><path class="cls-2" d="M27.28,30.44h0a.28.28,0,0,1,0,.24h.07a.13.13,0,0,0,.08-.11l-.06-.07Z"/><path class="cls-2" d="M27.51,29.51h0a.11.11,0,0,1,0,.11h.1A.28.28,0,0,0,27.51,29.51Z"/><path class="cls-2" d="M26.9,30.49h0v.06a.24.24,0,0,1,0,.07h0v-.06c0-.06,0-.06-.06-.06Z"/><path class="cls-2" d="M27.57,27.45v.12h0a.11.11,0,0,1,0-.07S27.58,27.45,27.57,27.45Z"/><path class="cls-2" d="M27.28,28.39v.14h0a.06.06,0,0,0,0-.07l-.06-.08Z"/><path class="cls-2" d="M27.32,26.8a.21.21,0,0,1,.13,0,.23.23,0,0,1,.14,0h0v-.15h-.11a.18.18,0,0,1-.15-.11h0a.21.21,0,0,1-.08.06l.06.07S27.3,26.8,27.32,26.8Z"/><path class="cls-2" d="M27,29.84h0a.57.57,0,0,0,0,.07l.1-.07C27.25,29.77,27.07,29.82,27,29.84Z"/><path class="cls-2" d="M27,26Z"/><path class="cls-2" d="M26.74,26.92h0v0Z"/><path class="cls-2" d="M26.25,26.18h.07c.07,0,0,0,0-.08S26.25,26.18,26.25,26.18Z"/><path class="cls-2" d="M24.66,26.11a.15.15,0,0,1-.13-.11h0v.07a.21.21,0,0,1,0,.1.08.08,0,0,0,0,.06h0c.08,0,.21,0,.22-.13h0A.09.09,0,0,1,24.66,26.11Z"/><path class="cls-2" d="M25.2,26.1h-.06v.07a.19.19,0,0,0,.14.18l-.07-.17h.17l-.1.14h.18C25.41,26.11,25.38,26.1,25.2,26.1Z"/><path class="cls-2" d="M26.45,26.36a.06.06,0,0,1,0,.08h0v-.06h0S26.44,26.36,26.45,26.36Z"/><path class="cls-2" d="M24.63,26.59h-.07v.08a.09.09,0,0,0,.08-.06.1.1,0,0,0,0-.1A.09.09,0,0,0,24.63,26.59Z"/><path class="cls-2" d="M24,25.87h0V26h.13A.3.3,0,0,0,24,25.87Z"/><path class="cls-2" d="M24.28,22.94v.13h.07L24.27,23Z"/><path class="cls-2" d="M23.34,29.61h0v-.06h0S23.35,29.6,23.34,29.61Z"/><path class="cls-2" d="M17.93,27.71H16.58c-.27,0-.34.07-.35.34s0,.77,0,1.22c0,.24,0,.27.29.28H18a.25.25,0,0,0,.2-.06.28.28,0,0,0,.07-.2V28C18.27,27.67,18.19,27.72,17.93,27.71Z"/><path class="cls-2" d="M24.85,30.83h0V31a.17.17,0,0,1-.18.07h-.06a.12.12,0,0,0-.11.07h.22a.27.27,0,0,1,.14,0h.07a.17.17,0,0,1,0-.2Z"/><path class="cls-2" d="M24.56,30.55h-.07a.06.06,0,0,0,0,.06h.11Z"/><path class="cls-2" d="M24.26,30.84h0l.07-.06h-.06Z"/><path class="cls-2" d="M23.49,29.82h0a.11.11,0,0,1,0,.1.2.2,0,0,0,0,.1.18.18,0,0,1,.17-.14h.06a.46.46,0,0,0-.21-.07Z"/><path class="cls-2" d="M23.87,30.14h-.08s.06.08.07.08h.06a.13.13,0,0,0,0-.07S23.93,30.14,23.87,30.14Z"/><path class="cls-2" d="M23.51,30.47v.06h0a.08.08,0,0,0,0-.06Z"/><path class="cls-2" d="M23.51,29.4l-.07-.06h0v.06h.07Z"/><path class="cls-2" d="M10.62,29.88h.07a.15.15,0,0,0,.11,0h-.06S10.66,29.85,10.62,29.88Z"/><path class="cls-2" d="M19.43,23.13h.06C19.55,23.13,19.43,23.15,19.43,23.13Z"/><path class="cls-2" d="M19.15,23.87v-.06s0-.1-.06-.11h0l.08.18Z"/><path class="cls-2" d="M19.28,23.36v-.07h0v.06C19.28,23.41,19.22,23.38,19.28,23.36Z"/><path class="cls-2" d="M19.1,25h.1s0-.06,0-.1v-.07h-.06a.09.09,0,0,0-.08.07A.2.2,0,0,1,19,25v.06C19,25,19,25,19.1,25Z"/><path class="cls-2" d="M19.12,26.68h0a.09.09,0,0,1-.08,0h.08Z"/><path class="cls-2" d="M19.53,24h0a.26.26,0,0,0,0-.11l-.1.07-.1.06h0a.18.18,0,0,0,0,.14h0l.06.06c0-.08.1-.11.15-.15Z"/><path class="cls-2" d="M19.19,27.45a.36.36,0,0,0,0-.1.11.11,0,0,1,0-.07h0v-.06c0-.06.08-.15.07-.2h0v.12h0a.12.12,0,0,1-.1.13l-.06.1s-.06.06-.06.08h.15Z"/><path class="cls-2" d="M19.4,25.45h-.13a.27.27,0,0,0-.22-.08l.08.06a.17.17,0,0,1,.14.07C19.36,25.44,19.39,25.45,19.4,25.45Z"/><path class="cls-2" d="M19,26a.17.17,0,0,0,0-.17h0a.23.23,0,0,1,0,.11Z"/><path class="cls-2" d="M17,22.94h0a.17.17,0,0,0,0-.07.22.22,0,0,0-.07.08V23l-.06.08A.18.18,0,0,0,17,23Z"/><path class="cls-2" d="M16.49,25.59H18c.27,0,.28,0,.28-.25V24.16c0-.38-.06-.28-.29-.28H16.5c-.18,0-.27.07-.27.24v1.27a.18.18,0,0,0,.06.15A.29.29,0,0,0,16.49,25.59Z"/><path class="cls-2" d="M18.16,26.5h0c.07,0,.13,0,.15-.07h0l-.1.06S18.19,26.47,18.16,26.5Z"/><path class="cls-2" d="M17.12,23.15a.22.22,0,0,0,0-.11h0V23a.19.19,0,0,1-.08.1h0v.08h.08Z"/><path class="cls-2" d="M17.56,23c.07,0,.08-.07.08-.15v-.13h0c.1.08.06.18,0,.25Z"/><path class="cls-2" d="M18.23,22.57h0c.07-.06.11-.08.13-.14a.28.28,0,0,1-.17.11h-.1S18.17,22.61,18.23,22.57Z"/><path class="cls-2" d="M18,31h0v-.07A.53.53,0,0,0,18,31Z"/><path class="cls-2" d="M18.91,23.18Z"/><path class="cls-2" d="M18.13,22.9v0Z"/><path class="cls-2" d="M10.73,25.33h0Z"/><path class="cls-2" d="M10.65,28.69h-.08v-.06h0v.08h.08Z"/><path class="cls-2" d="M10.68,30.45h0a.07.07,0,0,0,.07.07h0A.07.07,0,0,0,10.68,30.45Z"/><path class="cls-2" d="M10.72,23l.13.06c0-.13-.07-.15-.18-.17h0C10.62,22.93,10.65,22.94,10.72,23Z"/><path class="cls-2" d="M10.75,24.54c-.06.06-.1.08-.1.15h.06c.11,0,.15-.07.14-.18h0Z"/><path class="cls-2" d="M11,25.86h0v-.14h0s-.08.06-.08.11h0A.08.08,0,0,0,11,25.86Z"/><path class="cls-2" d="M27.58,27.37v0Z"/><path class="cls-2" d="M10.83,23.85h0v-.08h0a.11.11,0,0,1,0,.07Z"/><path class="cls-2" d="M10.65,29.14h0a.19.19,0,0,0,.11-.22V29A.2.2,0,0,0,10.65,29.14Z"/><path class="cls-2" d="M11.25,23.78h0a.2.2,0,0,0,0-.1h-.07a.09.09,0,0,1,0,.1c0,.06,0,.07.06.07S11.25,23.8,11.25,23.78Z"/><path class="cls-2" d="M19.54,22.83a.28.28,0,0,0-.13-.13h0A.17.17,0,0,0,19.54,22.83Z"/><path class="cls-2" d="M11.08,23h0l.07.06A.11.11,0,0,0,11.08,23Z"/><path class="cls-2" d="M11.27,26h0a.06.06,0,0,0-.06.06h.06Z"/><path class="cls-2" d="M10.78,27.87a.27.27,0,0,1,0,.14h.08V27.9Z"/><path class="cls-2" d="M11,27.52h0v.06h0v-.14h0Z"/><path class="cls-2" d="M11,26.54h0a.08.08,0,0,1,0,.08.11.11,0,0,1-.15,0l0,0h0a.29.29,0,0,0,.24,0,.21.21,0,0,0,.13-.18h0Z"/><path class="cls-2" d="M18.06,26.75a.07.07,0,0,0-.07.08.06.06,0,0,0,.06.06h0v-.08h0Z"/><path class="cls-2" d="M15.43,29.78a.19.19,0,0,1-.2.06c-.06,0,0-.06-.06-.1s0,.1,0,.15.14,0,.22,0h.06Z"/><path class="cls-2" d="M15.41,28.94h0c.07,0,.1,0,.11-.08h0a.29.29,0,0,0-.17.13Z"/><path class="cls-2" d="M15.68,25.82h.06A.11.11,0,0,1,15.68,25.82Z"/><path class="cls-2" d="M15.48,26.47c-.08,0-.18,0-.22-.14h-.13a.33.33,0,0,1,.22.13.33.33,0,0,0,.13.08s.13,0,.14-.07h0A.26.26,0,0,0,15.48,26.47Z"/><path class="cls-2" d="M17.67,26.49h0c0-.07,0-.11-.12-.11h0S17.6,26.49,17.67,26.49Z"/><path class="cls-2" d="M15.44,27.26v-.08h0a.26.26,0,0,1-.21.08h.07a.16.16,0,0,1,.14-.06A.12.12,0,0,0,15.44,27.26Z"/><path class="cls-2" d="M15.27,27.5h.08a.09.09,0,0,0-.07-.08Z"/><path class="cls-2" d="M15.09,27.64h.08s0,0,0-.08H15Z"/><path class="cls-2" d="M15.8,30.56h0v0Z"/><path class="cls-2" d="M15.69,30.84Z"/><path class="cls-2" d="M16.6,30.68h0a1,1,0,0,0-.1-.17.1.1,0,0,1,0-.06h0c-.06,0-.08.06-.11.13s0,0,0,.06h0c.14.07.29.18.21.41a.14.14,0,0,1,.07-.06s.07,0,0-.08A.68.68,0,0,0,16.6,30.68Z"/><path class="cls-2" d="M16.06,31h0l.18.11h0Z"/><path class="cls-2" d="M17.67,30.65h0v-.07a.22.22,0,0,1,0-.07h0A.15.15,0,0,1,17.67,30.65Z"/><path class="cls-2" d="M16.92,30.79h0v.06h-.06Z"/><path class="cls-2" d="M16,27.33h0a.24.24,0,0,0,0-.14h0a.18.18,0,0,1-.07.15c0,.06,0,.08.07.08S16,27.41,16,27.33Z"/><path class="cls-2" d="M15.13,24.55h-.07a.33.33,0,0,0-.17,0h.24Z"/><path class="cls-2" d="M16,26.8h0l-.07.07-.06.06h0C16,26.89,16,26.89,16,26.8Z"/><path class="cls-2" d="M15.15,28.34a.14.14,0,0,0,0-.07H15s0,.07.1.1h.07Z"/><path class="cls-2" d="M16.24,26.67h.13C16.28,26.63,16.25,26.64,16.24,26.67Z"/><path class="cls-2" d="M15,24.72h-.07a.1.1,0,0,0,0,.08h0Z"/><path class="cls-2" d="M15.62,23.06h0a.13.13,0,0,1,.06-.1.28.28,0,0,1-.17,0,.29.29,0,0,1,0-.2h0a.4.4,0,0,1-.21.24h.06A.94.94,0,0,0,15.62,23.06Z"/><path class="cls-2" d="M16,23.31a.36.36,0,0,1,.11-.27H16a.27.27,0,0,0-.25.2h.07A.2.2,0,0,1,16,23.31Z"/><path class="cls-2" d="M15.94,22.62h.12a.08.08,0,0,0,0-.08S16,22.62,15.94,22.62Z"/><path class="cls-2" d="M17.44,26.89h.07S17.47,26.84,17.44,26.89Z"/><path class="cls-2" d="M17.18,26.31h0v.1A.24.24,0,0,0,17.18,26.31Z"/><path class="cls-2" d="M16.78,26.89A.2.2,0,0,0,17,27a.25.25,0,0,0,0-.11h-.22Z"/><path class="cls-2" d="M16,22.4h0a.19.19,0,0,0-.13,0H16Z"/><path class="cls-2" d="M14.78,25.66h-.06a.25.25,0,0,1,0,.14.16.16,0,0,0,0,.07h0a1.34,1.34,0,0,0,.11-.2h0Z"/><path class="cls-2" d="M15.16,24.19h0l-.06-.06a1.54,1.54,0,0,0-.22-.2.39.39,0,0,0-.13.17.6.6,0,0,0,.2.1A.23.23,0,0,0,15.16,24.19Z"/><path class="cls-2" d="M14.91,27.72v.06h0v-.07h0Z"/><path class="cls-2" d="M15.65,23.7a.32.32,0,0,1-.11-.13c0-.06,0-.08-.06-.08h0v.08a.55.55,0,0,1-.07.17v.17h0c0-.08.08-.18.24-.2Z"/><path class="cls-2" d="M15.45,25.38a.12.12,0,0,0,0,.08h.06c.06,0,0,0,0-.08h-.06Z"/><path class="cls-2" d="M15,23.57h-.09v.07Z"/><path class="cls-2" d="M15.37,26.07c0-.06,0-.07-.08-.08h0c0,.06,0,.08.08.1S15.34,26.15,15.37,26.07Z"/><path class="cls-2" d="M31.42,24.54a.24.24,0,0,0-.1.06.12.12,0,0,1,.11.07h.06A.5.5,0,0,1,31.42,24.54Z"/><path class="cls-2" d="M46,30.47h0v.06h0Z"/><path class="cls-2" d="M46.31,30.24v.11c0,.07.08.18-.06.24s-.18,0-.25-.1h-.06a.75.75,0,0,0,.28.1h.1l.07-.08h0a.31.31,0,0,0-.1-.31Z"/><path class="cls-2" d="M45.76,30.52l-.07-.06h0v.06h.07Z"/><path class="cls-2" d="M48.75,29a.17.17,0,0,0-.13-.18c-.06,0,0,0,0,.06h0V29h.08S48.73,29,48.75,29Z"/><path class="cls-2" d="M44.54,31h.08c.08,0,.06,0,.1-.07a.07.07,0,0,1,0-.06.19.19,0,0,1-.12,0C44.56,31,44.54,31,44.54,31Z"/><path class="cls-2" d="M44.36,30.62h0Z"/><path class="cls-2" d="M45.06,30.55a.15.15,0,0,0,0,.07h0Z"/><path class="cls-2" d="M44,29.54c-.06,0-.15.11-.25,0a.62.62,0,0,1,.07.14.1.1,0,0,1,0,.11h.07a.14.14,0,0,1,.06-.07.39.39,0,0,1,.15-.11h.06v-.06h0C44.17,29.47,44.14,29.49,44,29.54Z"/><path class="cls-2" d="M48.34,29.22h0v.06h.13S48.36,29.25,48.34,29.22Z"/><path class="cls-2" d="M47.66,27.48h.07l-.11-.21h0c-.06.06-.08.08-.08.13S47.56,27.47,47.66,27.48Z"/><path class="cls-2" d="M47.54,29.54h0v.1h0A.12.12,0,0,0,47.54,29.54Z"/><path class="cls-2" d="M47.81,30.51h0v0Z"/><path class="cls-2" d="M48.45,28.44h-.06v.06h0Z"/><path class="cls-2" d="M47.43,27h0a.18.18,0,0,1,0-.08V27Z"/><path class="cls-2" d="M48.08,27.1h0a.14.14,0,0,0-.13,0h0A.1.1,0,0,0,48.08,27.1Z"/><path class="cls-2" d="M48.22,27.5c.08.06.13.07.17,0a.11.11,0,0,1,.13,0h.06v-.06a.23.23,0,0,1,0-.13v-.08h0c0,.18-.17.24-.29.28Z"/><path class="cls-2" d="M48,26.59a.1.1,0,0,1,.11.06h0a.2.2,0,0,0-.07-.08.28.28,0,0,0-.15,0H48Z"/><path class="cls-2" d="M36.14,28.1h0a.18.18,0,0,0-.1.07.17.17,0,0,0,.07.13h0a.09.09,0,0,1,0-.08s0-.06.08-.07Z"/><path class="cls-2" d="M35.83,26.39a.41.41,0,0,0,0-.18h0a.11.11,0,0,0-.11.15c0,.08.1,0,.11.06Z"/><path class="cls-2" d="M35.13,29.84a.13.13,0,0,1-.07.06h0a.3.3,0,0,1-.15.1h.24a.11.11,0,0,0,.1,0,.16.16,0,0,0,0-.11h-.11S35.13,29.79,35.13,29.84Z"/><path class="cls-2" d="M36.25,27.68v.07h0Z"/><path class="cls-2" d="M47.5,30.3c0-.06,0-.07-.06-.07h0l.11.08Z"/><path class="cls-2" d="M36,29.57h-.06v.08a.22.22,0,0,1-.06.21h.26a.32.32,0,0,0-.06-.21Z"/><path class="cls-2" d="M35.58,29h0a.22.22,0,0,0,0,.07h.1V29Z"/><path class="cls-2" d="M35.32,30.26h0a.26.26,0,0,1,0,.1.27.27,0,0,1,.06.17v.08l.08.06v-.11c0-.11,0-.25.14-.32h0A.49.49,0,0,0,35.32,30.26Z"/><path class="cls-2" d="M35.62,29.54Z"/><path class="cls-2" d="M39.75,20.86h0a.17.17,0,0,0,0-.11h0A.09.09,0,0,1,39.75,20.86Z"/><path class="cls-2" d="M39.83,22.4h0a.12.12,0,0,0,0,.08h.06V22.4h-.06Z"/><path class="cls-2" d="M40.08,20.94h.07S40.08,20.93,40.08,20.94Z"/><path class="cls-2" d="M39.84,22.19v-.06c0-.06-.06,0-.07-.07V22h0a.51.51,0,0,1,0,.14h0C39.75,22.2,39.83,22.22,39.84,22.19Z"/><path class="cls-2" d="M39.39,21h0a.26.26,0,0,0,.15.07.28.28,0,0,1,.15,0A.47.47,0,0,0,39.39,21Z"/><path class="cls-2" d="M36,26.46h.07a.29.29,0,0,0,.18-.06.35.35,0,0,1,.13-.07h-.06A.78.78,0,0,0,36,26.46Z"/><path class="cls-2" d="M40.16,21h0a.38.38,0,0,0,.2.07V21h-.07A.17.17,0,0,1,40.16,21Z"/><path class="cls-2" d="M39.77,20.74a.26.26,0,0,0,0-.08h0Z"/><path class="cls-2" d="M35.82,30.58h.12A.21.21,0,0,0,35.82,30.58Z"/><path class="cls-2" d="M46.66,22.45v.08l-.07.15v.11h.08a.2.2,0,0,1,0-.08.19.19,0,0,1,.15,0V22.6h0S46.72,22.43,46.66,22.45Z"/><path class="cls-2" d="M45.44,22.79h-.06a.18.18,0,0,0,0,.08h.07v-.08Z"/><path class="cls-2" d="M44.36,22.87a.22.22,0,0,1-.08.11.26.26,0,0,1-.2,0h0c.08,0,.18,0,.21.13h0a.17.17,0,0,1,.14-.15.35.35,0,0,1,.17,0h0a.41.41,0,0,0-.15-.07Z"/><path class="cls-2" d="M46.72,22.92h0a.11.11,0,0,0,0-.07h-.07S46.7,22.92,46.72,22.92Z"/><path class="cls-2" d="M45.4,22.5h.08A0,0,0,0,0,45.4,22.5Z"/><path class="cls-2" d="M45.15,22.34a.23.23,0,0,0-.11.1v.13h.17s0,0,0-.07h-.06A.18.18,0,0,1,45.15,22.34Z"/><path class="cls-2" d="M44.87,26.59v.07s0,0,.1,0H44.9Z"/><path class="cls-2" d="M45,26.31h-.07s-.06.06,0,.08a.3.3,0,0,1,.2-.1H45Z"/><path class="cls-2" d="M45.72,22.87h0a.11.11,0,0,0,0,.06h0V23h0v-.12Z"/><path class="cls-2" d="M48.34,23.29Z"/><path class="cls-2" d="M46.78,4.7H13.22a8.4,8.4,0,0,1-8,8V41a8.4,8.4,0,0,1,8,8H46.78a8.4,8.4,0,0,1,8-8V12.71A8.4,8.4,0,0,1,46.78,4.7ZM12.11,31.54a.38.38,0,0,1-.34.13h-2c-.15,0-.24,0-.28-.11s0-.15,0-.27a3.19,3.19,0,0,0,.27-1.57v-6.1A2.8,2.8,0,0,0,9.5,22.1c-.07-.13-.08-.21,0-.27a.51.51,0,0,1,.28-.1h1.7c.36,0,.38,0,.38.41v8.08a1.69,1.69,0,0,0,.22.94A.66.66,0,0,1,12.11,31.54Zm8.33-7.79v1.93a1.06,1.06,0,0,1-.36,1,.23.23,0,0,0-.11.18.2.2,0,0,0,.11.17,1.06,1.06,0,0,1,.36,1v2.24a1,1,0,0,1-.34.78l-.14.13a6.09,6.09,0,0,0-.45.42.42.42,0,0,1-.36.11H15.4a.6.6,0,0,1-.53-.24,2.67,2.67,0,0,0-.37-.34,1,1,0,0,1-.42-1V27.8a1,1,0,0,1,.34-.85.24.24,0,0,0,.11-.17.26.26,0,0,0-.11-.2,1,1,0,0,1-.34-.9V23.14a1.17,1.17,0,0,1,.38-.88,1.65,1.65,0,0,1,1.44-.57h3.17a.74.74,0,0,1,.58.21h0a4.27,4.27,0,0,0,.34.32c.45.5.48.56.45,1.54Zm8.31,5.67V30a1.48,1.48,0,0,1-.52,1.13,1.85,1.85,0,0,1-1.36.53h-3a1.1,1.1,0,0,1-.83-.32l-.28-.28c-.38-.36-.38-.36-.38-.87v-1.3c0-.35.07-.41.39-.41h1.7c.14,0,.24,0,.28.1s0,.15,0,.31l-.08.21a1.37,1.37,0,0,0-.1.21.13.13,0,0,0,.14.2h1.65a.18.18,0,0,0,.2-.2h0V27.72c0-.17-.11-.24-.34-.24H24a1.35,1.35,0,0,1-1-.36,1.63,1.63,0,0,1-.62-1.47V22.17c0-.31,0-.42.42-.42h5.34c.42,0,.49.06.49.48v1.51a.4.4,0,0,1-.11.34.26.26,0,0,1-.27,0,5.29,5.29,0,0,0-2.25-.3,11.94,11.94,0,0,1-1.22,0,.19.19,0,0,0-.18,0,.44.44,0,0,0-.06.18v1c0,.29,0,.29.29.29H27a1.51,1.51,0,0,1,1.12.45,1.69,1.69,0,0,1,.63,1.56c0,.7,0,1.43,0,2.13Zm8.28.76a1.08,1.08,0,0,1-.34.76,1.82,1.82,0,0,1-1.5.66H32.11a1,1,0,0,1-.63-.24,1.68,1.68,0,0,1-.77-1.68c.06-.71,0-1.44,0-2.14v-.9h0V23a.73.73,0,0,1,.31-.7h.06a.75.75,0,0,0,.22-.18,1,1,0,0,1,1-.41h3.39a.64.64,0,0,1,.55.22h0a.74.74,0,0,0,.18.18A1.31,1.31,0,0,1,37,23.32v6.87ZM40.09,23a.2.2,0,0,1-.17.2h-.6a.19.19,0,0,1-.18-.17L39,20.25a.14.14,0,0,1,.11-.17h0L40.53,20a.17.17,0,0,1,.18.16h0Zm9.3,1.27a1.11,1.11,0,0,1,.1.24.21.21,0,0,1-.24.32H47.4a1.13,1.13,0,0,1-.31,0c-.11,0-.2,0-.24-.07a.3.3,0,0,1,0-.27A1.14,1.14,0,0,1,47,24.3a.81.81,0,0,0,.07-.17.23.23,0,0,0,0-.21.22.22,0,0,0-.18-.07H45.36a.24.24,0,0,0-.18.06.25.25,0,0,0-.06.18v1.18c0,.29,0,.29.29.29h2.37a1,1,0,0,1,.81.35,2.27,2.27,0,0,0,.22.22c.48.48.48.49.46,1.23v2.76a1.28,1.28,0,0,1-.36.9,1.59,1.59,0,0,1-1.36.63H44.41a.91.91,0,0,1-.76-.31h0c-.74-.63-.74-.67-.71-1.36v-.27a1.4,1.4,0,0,0-.11-.6,1,1,0,0,1-.11-.28v-.28c0-.06.14-.08.27-.08h2.12c.14,0,.22,0,.27.1s0,.15,0,.28L45.3,29a2.49,2.49,0,0,0-.13.28.2.2,0,0,0,0,.18.26.26,0,0,0,.18,0h1.57c.08,0,.14,0,.17-.06a.18.18,0,0,0,0-.14v-1.4a.19.19,0,0,0,0-.14c0-.06-.14-.06-.22-.06H44.15a.39.39,0,0,1-.25-.06l-.06-.06A5.74,5.74,0,0,1,43,26.7a.63.63,0,0,1-.08-.42V23.22a1.13,1.13,0,0,1,.35-.85,1.72,1.72,0,0,1,1.63-.64,8.4,8.4,0,0,0,.84,0h2.2a.84.84,0,0,1,.63.27,1.78,1.78,0,0,1,.71,1.74.82.82,0,0,0,.11.56Z"/><path class="cls-2" d="M48.33,23.41h0v-.06h0A.13.13,0,0,1,48.33,23.41Z"/><path class="cls-2" d="M47.08,30.79H47a.14.14,0,0,0,0,.06h.08a.15.15,0,0,0,0-.1h0Z"/><path class="cls-2" d="M47.11,22.51H47a.15.15,0,0,1,.1.13h0v-.08A.43.43,0,0,1,47.11,22.51Z"/><path class="cls-2" d="M47.68,23.69a.22.22,0,0,0,0-.15.3.3,0,0,0-.15,0,.72.72,0,0,1,.24.36c0,.08.06.1.14.1H48A.41.41,0,0,1,47.68,23.69Z"/><path class="cls-2" d="M48,22.73Z"/><path class="cls-2" d="M48.08,23.49l.07.1a.13.13,0,0,1,0,.18h0v.13a2.23,2.23,0,0,0,.06-.29.32.32,0,0,1,0-.11h-.13Z"/><path class="cls-2" d="M46.67,27a.07.07,0,0,0-.06-.07h-.07Z"/><path class="cls-2" d="M46.62,26.47h0a.12.12,0,0,1,0-.07.23.23,0,0,1,0-.1h0a.27.27,0,0,0-.06.15Z"/><path class="cls-2" d="M46.37,26.73v-.07h0Z"/><path class="cls-2" d="M46.14,26.49s.18,0,.17-.11-.08-.08-.14-.1h0v.19S46.14,26.47,46.14,26.49Z"/><path class="cls-2" d="M47,27.12c.08,0,.1,0,.1-.07H47c-.11,0-.13.06-.13.1h0Z"/><path class="cls-2" d="M47.09,30.49a.1.1,0,0,0-.1.07l.15-.06h-.05Z"/><path class="cls-2" d="M47.09,26.47h0a.1.1,0,0,0,0-.06H47Z"/><path class="cls-2" d="M46.13,26.89h0a.14.14,0,0,0-.14-.08h0A.1.1,0,0,0,46.13,26.89Z"/><path class="cls-2" d="M44.14,26.61c0,.06,0,.06.07,0h-.07Z"/><path class="cls-2" d="M43.86,25h0a.27.27,0,0,0,.1-.17c0-.06-.07-.11-.18-.17h-.06l-.07.06.11.06A.29.29,0,0,1,43.86,25Z"/><path class="cls-2" d="M44.25,25.21h-.13v.11h0a.12.12,0,0,1,0,.1.19.19,0,0,0,.14-.08.51.51,0,0,1,.21-.11h0A.2.2,0,0,0,44.25,25.21Z"/><path class="cls-2" d="M44.24,25.75a.53.53,0,0,0-.2-.2h0a.14.14,0,0,1-.1.1h-.07a.19.19,0,0,1-.07-.11h0a.19.19,0,0,1,0-.15h0a.28.28,0,0,1-.13.07.19.19,0,0,0-.18.14c0,.07,0,.07.08.11a.26.26,0,0,1,.13.08.22.22,0,0,1,.15.11h0a.13.13,0,0,1,.14-.12h0a.24.24,0,0,1,.15.28h0a.31.31,0,0,1,.17.07h0a.11.11,0,0,0,0-.06A.43.43,0,0,1,44.24,25.75Z"/><path class="cls-2" d="M45.67,27.09a.64.64,0,0,1,.38.1H46a.67.67,0,0,0-.46-.06Z"/><path class="cls-2" d="M43.72,24.58H44a.75.75,0,0,0,.39-.11h0a.08.08,0,0,0,.07-.1s0,0-.1,0h0a.17.17,0,0,1-.14.18,1,1,0,0,1-.28,0h-.21Z"/><path class="cls-2" d="M45.39,26.42h.28a.21.21,0,0,1-.08-.11v-.06h-.06a.16.16,0,0,1-.06.11.17.17,0,0,1,0,.14h0Z"/><path class="cls-2" d="M44.22,23.84h.06c.07-.06.1-.08.08-.14h0a.24.24,0,0,1-.15.15h-.08A.14.14,0,0,0,44.22,23.84Z"/><path class="cls-2" d="M35.44,26.61h0v.06h0Z"/><path class="cls-2" d="M32.14,28.41v.11l.08.1h0C32.22,28.5,32.21,28.44,32.14,28.41Z"/><path class="cls-2" d="M34.71,22.72h0l.13.11a.22.22,0,0,0,0-.13h-.07a.17.17,0,0,1,0-.08h-.06c-.06,0,0,0,0,.08Z"/><path class="cls-2" d="M34.52,22.79s0,.06.06,0h0c-.18-.08-.14-.25-.11-.39h0a1,1,0,0,0-.1.17.17.17,0,0,0,.07.14C34.51,22.75,34.49,22.76,34.52,22.79Z"/><path class="cls-2" d="M35.47,23.13h0a.49.49,0,0,0-.1-.08h0C35.4,23.14,35.44,23.14,35.47,23.13Z"/><path class="cls-2" d="M35.53,23.92v-.1h0v.1Z"/><path class="cls-2" d="M34.18,23.07h0a.08.08,0,0,0,0,.07h0A0,0,0,0,0,34.18,23.07Z"/><path class="cls-2" d="M27.71,27h0Z"/><path class="cls-2" d="M35.47,26.46v.05a.37.37,0,0,0,0,.1.15.15,0,0,1,0-.11Z"/><path class="cls-2" d="M33.06,22.66h0a.14.14,0,0,1,.06-.07v-.07h0v.07h0l-.06.06h0Z"/><path class="cls-2" d="M32,25a.23.23,0,0,0-.06-.2h0s0,.07-.06.08,0,0,.08.07Z"/><path class="cls-2" d="M31.94,25.27a.18.18,0,0,0,.2-.22h-.06a.12.12,0,0,1-.09.15h0a.08.08,0,0,0-.07.06Z"/><path class="cls-2" d="M33.7,22.93a.07.07,0,0,0-.07-.07c-.07,0,0-.07-.07-.07h-.07a.58.58,0,0,1,0,.07V23a.14.14,0,0,1-.07.06h-.06A.42.42,0,0,0,33.7,22.93Z"/><path class="cls-2" d="M32,26.32a.33.33,0,0,1-.06.18c-.06.08,0,.07,0,.08a.15.15,0,0,0,.11,0l.14-.08a.38.38,0,0,1-.07-.13c0-.06,0-.1-.06-.1h-.2C31.94,26.26,32,26.26,32,26.32Z"/><path class="cls-2" d="M35,30.83A.43.43,0,0,0,35,31h.13a.26.26,0,0,0-.08-.1Z"/><path class="cls-2" d="M32,24.54h0c0-.08-.07-.11-.14-.11h0A.14.14,0,0,0,32,24.54Z"/><path class="cls-2" d="M33,23Z"/><path class="cls-2" d="M35,22.68a.15.15,0,0,0,.11,0,.31.31,0,0,0-.1-.1l-.07.06h0Z"/><path class="cls-2" d="M35.88,28.84h0a.08.08,0,0,0,0,.06H36a.07.07,0,0,0-.06-.07Z"/><path class="cls-2" d="M36.11,25.93a.13.13,0,0,1,0-.07l-.17.21h.11A.26.26,0,0,0,36.11,25.93Z"/><path class="cls-2" d="M36.09,23.85a.09.09,0,0,0,.08-.07c0-.07,0,0,0-.06v-.13a.18.18,0,0,1-.14.1.09.09,0,0,1,0,.06v.08Z"/><path class="cls-2" d="M36.16,27.08A.23.23,0,0,0,36,27h-.08v.1h0a.47.47,0,0,1,.15-.07Z"/><path class="cls-2" d="M36.23,25.56h0a.25.25,0,0,0-.14-.21h0l.1.17A.07.07,0,0,1,36.23,25.56Z"/><path class="cls-2" d="M36.31,24.46h0v0Z"/><path class="cls-2" d="M27.84,29.78Z"/><path class="cls-2" d="M28,29.16c-.1,0-.14,0-.15.11h0c.13,0,.18,0,.2-.13H28Z"/><path class="cls-2" d="M35.85,24.36Z"/><path class="cls-2" d="M35.76,23Z"/><path class="cls-2" d="M35.89,23.28h-.06S35.89,23.31,35.89,23.28Z"/><path class="cls-2" d="M35.53,28.56a.53.53,0,0,1,.13.13.59.59,0,0,0,0-.15.07.07,0,0,0-.07-.07h0S35.51,28.53,35.53,28.56Z"/><path class="cls-2" d="M35.54,24.53h0a.18.18,0,0,1,0-.11A.07.07,0,0,0,35.54,24.53Z"/><path class="cls-2" d="M35.72,24.82a.13.13,0,0,0-.1.07.33.33,0,0,1,0,.32v.06h0c.13-.24.17-.31.35-.41h-.11A.24.24,0,0,1,35.72,24.82Z"/><path class="cls-2" d="M36,23.55Z"/><path class="cls-2" d="M35.54,24.33h0v0a.13.13,0,0,1,0-.07Z"/><path class="cls-2" d="M35.58,23.94h.06v-.06a.49.49,0,0,1,.11-.14h0a.27.27,0,0,1-.14,0c-.07,0-.1,0-.11.06h.14Z"/><path class="cls-2" d="M32.32,30.12a.15.15,0,0,1,0-.06h0V30h0v.14h0Z"/><path class="cls-2" d="M32.32,30.76Z"/><path class="cls-2" d="M32.36,29.63h0a.06.06,0,0,0-.06,0Z"/><path class="cls-2" d="M32.46,22.87a.14.14,0,0,1-.14,0v-.14a.23.23,0,0,1-.11-.08c-.06-.06-.08-.1-.17,0h0a.18.18,0,0,1,.06.18h0a.41.41,0,0,1,.11.18h0a.17.17,0,0,1,.21-.06h.06v-.06Z"/><path class="cls-2" d="M32.15,29.3s-.06,0-.06.1v.06a.17.17,0,0,1,0,.08h.07a.16.16,0,0,0,0-.1v-.1h0Z"/><path class="cls-2" d="M32,27.79h0Z"/><path class="cls-2" d="M32.11,30.87Z"/><path class="cls-2" d="M32.11,27.13a.18.18,0,0,1-.15,0H31.9a.26.26,0,0,1,.13,0h.08Z"/><path class="cls-2" d="M34.15,30.26a.21.21,0,0,0-.14,0s.07,0,.08.1v.14h.06a.37.37,0,0,1,0-.13v-.11Z"/><path class="cls-2" d="M34.28,30.06a.15.15,0,0,0,0,.07h.06Z"/><path class="cls-2" d="M34.9,27.29V24.06a.51.51,0,0,0,0-.21.23.23,0,0,0-.18-.08H33.07c-.14,0-.21.06-.22.21h0v5c0,.35,0,.36.36.36h1.28c.39,0,.41,0,.41-.42S34.9,27.86,34.9,27.29Z"/><path class="cls-2" d="M32.12,28.08Z"/><path class="cls-2" d="M33.56,30.63l.07.13a.08.08,0,0,0,0,.06h0a.15.15,0,0,0-.13-.17h0Z"/><path class="cls-2" d="M32.63,22.89l.07.11a.34.34,0,0,0,.06.1.55.55,0,0,0,0-.18A.18.18,0,0,0,32.63,22.89Z"/><path class="cls-2" d="M32.67,30v.14h0a.37.37,0,0,0,0-.13Z"/><path class="cls-2" d="M33.2,31Z"/><path class="cls-2" d="M31.42,26.75l-.08-.06A.08.08,0,0,0,31.42,26.75Z"/><path class="cls-2" d="M31.32,28.29h-.06a.21.21,0,0,0,0,.08S31.32,28.34,31.32,28.29Z"/><path class="cls-2" d="M31.42,25.16h0s.06.06.07,0h-.07Z"/><path class="cls-2" d="M32,29.78V29.7a.25.25,0,0,0-.08.08Z"/><path class="cls-2" d="M31.39,23.73v-.2c-.11,0-.17,0-.17.14h0Z"/><path class="cls-2" d="M32.37,25.87V25.8c0-.07,0-.11-.11-.11h0a.33.33,0,0,0,.14.21Z"/><path class="cls-2" d="M31.5,27.22h0v.07s0,0,.07,0h0Z"/><path class="cls-2" d="M31.72,26.45a.23.23,0,0,0,0-.11h-.08a.15.15,0,0,0,0,.1Z"/><path class="cls-2" d="M31.28,25.1h0v.06h0Z"/><path class="cls-2" d="M31.59,28.34v.11h0s.1,0,.13.07a.13.13,0,0,1,0,.13h0V28.5a.08.08,0,0,1-.07,0C31.62,28.34,31.6,28.34,31.59,28.34Z"/><path class="cls-2" d="M31.94,29.11Z"/><path class="cls-2" d="M31.86,29.46h0a.32.32,0,0,0,0-.13h0A.21.21,0,0,0,31.86,29.46Z"/><path class="cls-2" d="M31.45,29.15a.15.15,0,0,0-.17,0l.14.08h0Z"/><path class="cls-2" d="M31.76,28h.07v-.1h0a.17.17,0,0,1-.15,0,.31.31,0,0,1-.07-.15v-.08s0,0-.06,0h-.07v.06l.11.15a.92.92,0,0,1,.13.2A.19.19,0,0,1,31.76,28Z"/><path class="cls-2" d="M50.43,0H9.57A9.57,9.57,0,0,1,0,9.57H0V44.18a9.57,9.57,0,0,1,9.57,9.57H50.43A9.57,9.57,0,0,1,60,44.18h0V9.57A9.57,9.57,0,0,1,50.43,0Zm6,42.28H56a7.94,7.94,0,0,0-7.93,7.93v.38H11.88v-.37A7.94,7.94,0,0,0,4,42.28H3.58V11.47H4a7.94,7.94,0,0,0,7.93-7.93V3.17H48.12v.38A7.94,7.94,0,0,0,56,11.47h.38Z"/></svg>